<?xml version="1.0" encoding="utf-8"?>
<!-- Generator: Adobe Illustrator 22.0.0, SVG Export Plug-In . SVG Version: 6.00 Build 0)  -->
<svg version="1.1" xmlns="http://www.w3.org/2000/svg" xmlns:xlink="http://www.w3.org/1999/xlink" x="0px" y="0px"
	 viewBox="0 0 1367.5 707.4" style="enable-background:new 0 0 1367.5 707.4;" xml:space="preserve">
<style type="text/css">
	.st0{fill:#DBDBDB;}
	.st1{fill:#E8E8E8;}
	.st2{fill:#F2F2F2;}
	.st3{fill:#FFFFFF;}
	.st4{fill:#C1C1C1;}
	.st5{fill:#286599;}
	.st6{fill:#41AAE0;}
	.st7{fill:#FFB263;}
	.st8{fill:#FCA250;}
	.st9{fill:#F19038;}
	.st10{fill:#2B8DBC;}
	.st11{fill:#EF8324;}
	.st12{fill:#E46929;}
	.st13{fill:#DB4829;}
	.st14{fill:#E41310;}
	.st15{fill:#284456;}
	.st16{fill:#436554;}
	.st17{fill:#678F5C;}
	.st18{fill:#7DA957;}
	.st19{fill:#CDCDCD;}
	.st20{fill:#CACFD5;}
	.st21{fill:#00242B;}
	.st22{fill:#020605;}
	.st23{fill:#291C00;}
	.st24{font-family:'MyriadPro-Regular';}
	.st25{font-size:20.6954px;}
	.st26{font-size:22.9949px;}
	.st27{font-size:18.3959px;}
	.st28{fill:#F9B54C;}
	.st29{fill:#FF7058;}
	.st30{fill:#4CDBC4;}
	.st31{fill:#FFD05B;}
	.st32{fill:#E6E9EE;}
	.st33{fill:#F2B233;}
	.st34{fill:#DD981D;}
	.st35{fill:#04AF76;}
	.st36{fill:#008C61;}
	.st37{fill:#FFF6E1;}
	.st38{fill:#FFEEBD;}
	.st39{fill:#32AAC6;}
	.st40{fill:#1589AD;}
	.st41{fill:#EFB143;}
	.st42{fill:#E28413;}
	.st43{font-size:99px;}
</style>
<g id="Layer_1">
	<title>genesis landing page</title>
	<rect x="0.4" y="3.6" class="st0" width="1367" height="705.2"/>
	<path class="st1" d="M1367.5,705.2V407c-44.6-10.4-71.1,32.1-201.8,53c-99.9,16-117-3.6-255.2,15.8c-70.2,9.9-122,22.9-160.2,34.4
		c-44.3,13.4-68.9,24.4-86.5,31c-121.8,45.6-244.4,5.3-367.4,17.2c-75.7,7.3-181.6,37.4-295.8,146c-0.2,0.2-0.3,0.4-0.5,0.7h1367.4
		V705.2z"/>
	<path class="st2" d="M1367.5,705.2V407c-44.6-10.4-53,58.3-183.7,79.2c-99.9,16-117-3.6-255.2,15.8c-70.2,9.9-122,22.9-160.2,34.4
		c-44.3,13.4-68.9,24.4-86.5,31c-121.8,45.6-244.4,5.3-367.4,17.2c-75.7,7.3-199.8,11.2-314,119.8c-0.1,0.2-0.2,0.4-0.3,0.7
		L1367.5,705.2L1367.5,705.2z"/>
	<g>
		<path class="st3" d="M1367.5,705.2V407c-44.6-10.4-61.5,75.5-192.2,96.4c-99.9,16-117-3.6-255.2,15.8
			c-70.2,9.9-122,22.9-160.2,34.4c-44.3,13.4-68.9,24.4-86.5,31C551.5,630.3,428.9,590,306,601.9c-75.7,7.3-191.2-6-305.4,102.6
			c-0.1,0.2-0.2,0.4-0.3,0.7H1367.5z"/>
	</g>
	
		<image style="display:none;overflow:visible;" width="293" height="172" xlink:href="../../../../Users/miky/Downloads/about3.jpg"  transform="matrix(1 0 0 1 71 195)">
	</image>
</g>
<g id="Layer_2">
	<path class="st4" d="M313.3,193.5c-17.1,3.2-34.2,6.3-44.2,23.7c-11.4,18.9-11.4,47.4-8.6,72.6c2.9,25.3,8.6,52.1,4.3,75.8
		c-7.1,37.9-35.7,61.6-37.1,101.1c-1.4,26.8,12.8,52.1,30,66.3s37.1,15.8,57.1,12.6c75.6-11.1,135.5-99.5,212.5-101.1
		c34.2-1.6,75.6,14.2,101.3-15.8c21.4-25.3,24.2-71.1,10-105.8c-22.8-60-88.4-94.7-131.2-113.7C443.1,184,377.5,182.5,313.3,193.5"
		/>
	<path class="st5" d="M259.2,406.9L224,373.1l27.6-69l86.6,51.4l-26.8,56.7C311.3,412.2,289.1,355.5,259.2,406.9z"/>
	<polygon class="st6" points="253.1,296.5 281.1,226.7 409.4,231.3 361.2,255.9 343.5,347.1 	"/>
	<path class="st7" d="M393.3,352.4c0,0-44.1,36.5-42.9-5.4l13.8-83.5l97.3-47.5l-17.6,82.8l-25.7,5.4
		C418.3,304.2,394.9,339.4,393.3,352.4z"/>
	<polygon class="st8" points="500.7,347.1 568.9,245.1 470.8,216 447.8,299.6 	"/>
	<path class="st9" d="M508.3,354l64.4-103.5l51.4,156.4c0,0-27.6,6.1-27.6,13.8l-19.9,6.1L508.3,354z"/>
	<path class="st10" d="M396.4,459l98.9-104.2L445.9,308h-27.6l-16.5,39.1c0,0-30.7,50.6-56.7,11.1l-29.1,54c0,0,37.6-10.7,43.7,23
		C359.6,435.2,396.4,429.1,396.4,459z"/>
	<path class="st11" d="M302.9,426.8l-13.8,23c0,0-28.4,9.2-25.3-37.6C269.2,388.5,304.4,376.2,302.9,426.8z"/>
	<path class="st12" d="M292.9,459v-8.5l16.9-23.7c0,0,36.8-34.5,44.5,16.1l-27.6,40.6C326.7,483.5,296.8,498.8,292.9,459z"/>
	<path class="st13" d="M334.3,486.4l24.5-39.7c0,0,32.2-20.1,31.4,19.8l-23,36.1C367.3,502.7,338.9,513.1,334.3,486.4z"/>
	<path class="st14" d="M369.6,508.8l24.5-35.6c0,0,24.5-4.8,15.3,31.5l13.8,11C423.2,515.7,388,544.8,369.6,508.8z"/>
	<path class="st15" d="M401,465.9l8.4-6.9l60.6,58.3c0,0-16.9,15.9-38.3,0v-4.6l-13.4-12.7v-21L401,465.9z"/>
	<path class="st16" d="M414,450.9l25.3-24.1l76.6,72.1c0,0-2.3,21.4-38.3,16.8L414,450.9z"/>
	<path class="st17" d="M443.9,421.1l26.1-29.4l88.1,81.5c0,0,6.1,24.3-33,25.8L443.9,421.1z"/>
	<path class="st18" d="M476.1,383.5l86.6,84.7c0,0,37.6,1.5,23-33.7l-16.9-0.8l-67.7-75.5L476.1,383.5z"/>
	<polygon class="st19" points="202.5,413.2 270.7,222.1 220.1,199.9 145.8,397.7 	"/>
	<polygon class="st20" points="577.3,233.6 627.9,219.8 697.6,412.2 637.5,421.1 	"/>
	<polygon class="st21" points="224,202.2 224,195.3 81.4,134 80.6,433.7 121.2,450.9 	"/>
	<path class="st22" d="M122,450.9c0,0,9.2,14.3,38.3-47.8l-19.2-7.7L122,450.9z"/>
	<polygon class="st23" points="624.1,219.1 624.1,211.4 751.3,144 751.3,455.9 719.9,473 	"/>
	<path d="M717.6,473.2c0,0-29.9-25.6-36.8-57.9l18.4-3.1L717.6,473.2z"/>
	<path class="st0" d="M464.8,286.3c-1.8,0-3.5,0.7-4.7,1.9l-13.6-3.8l-1.3,4.7l12.8,3.6c0,0.2-0.1,0.4-0.1,0.6
		c0,3.8,3.1,6.9,6.9,6.9s6.9-3.1,6.9-6.9S468.6,286.3,464.8,286.3z"/>
	<path class="st0" d="M562.7,286.7c-3.9-1.8-10.1-1.4-13.2,1.5l-9.5-4.3l-1.3,2.8l9,4.1c-1.5,4.6,2.8,10.8,7.3,12.8
		c4.7,2.1,7.8-1,9.9-5.7C567.1,293.2,567.4,288.8,562.7,286.7z"/>
	<path class="st0" d="M505.4,376.6c-3.1-3-9.1-4.6-13-2.9l-7.5-7.2l-2.1,2.3l7.2,6.8c-2.9,3.9-0.9,11.1,2.7,14.5
		c3.7,3.5,7.7,1.6,11.3-2.2C507.4,384.2,509.1,380.2,505.4,376.6z"/>
	<path class="st0" d="M473.8,408.8c-3.1-3-9.1-4.6-13-2.9l-7.5-7.2l-2.1,2.3l7.2,6.8c-2.9,3.9-0.9,11.1,2.7,14.5
		c3.7,3.5,7.7,1.6,11.3-2.2C475.8,416.4,477.5,412.3,473.8,408.8z"/>
	<path class="st0" d="M443.1,441.6c-3.1-3-9.1-4.6-13-2.9l-7.5-7.2l-2.1,2.3l7.2,6.8c-2.9,3.9-0.9,11.1,2.7,14.5
		c3.7,3.5,7.7,1.6,11.3-2.2C445.1,449.2,446.8,445.1,443.1,441.6z"/>
	<path class="st0" d="M349.5,383.1c-3.8-1.9-10-1.8-13.3,1l-9.3-4.7l-1.4,2.8l8.9,4.5c-1.7,4.6,2.3,10.9,6.7,13.1
		c4.6,2.3,7.9-0.7,10.2-5.3C353.6,389.8,354.1,385.4,349.5,383.1z"/>
	<path class="st0" d="M282.5,297.4c-2.1,3.8-2.1,9.9,0.5,13.3l-5,9.1l2.7,1.5l4.8-8.7c4.5,1.9,11-1.9,13.3-6.2
		c2.5-4.5-0.4-7.9-4.9-10.4C289.3,293.6,284.9,292.9,282.5,297.4z"/>
	<text transform="matrix(0.9602 0.2794 -0.2794 0.9602 471.0525 237.1031)" class="st24 st25">CREATIVE</text>
	<text transform="matrix(0.3069 0.9517 -0.9517 0.3069 572.2424 310.785)" class="st24 st25">GROWTH</text>
	<text transform="matrix(0.7415 -0.6709 0.6709 0.7415 362.3111 421.0748)" class="st24 st26">BUSINESS</text>
	<text transform="matrix(0.9979 6.511856e-02 -6.511856e-02 0.9979 285.9755 242.1564)" class="st24 st27">TEAMWORK</text>
	<path class="st28" d="M334.7,287.3l-1.2-1.6c-1.3-1.9-2.9-3.6-4.7-5l-4.1-3.6c-0.5-0.5-1.4-0.4-1.8,0.2c-0.4,0.5-0.3,1.3,0.2,1.7
		l3.2,2.6c0,0,0,0.1,0,0.2c0,0-0.1,0-0.2,0l-5.1-4.2c-0.4-0.4-1.1-0.4-1.6-0.1c0.4-0.4,0.4-1.1,0-1.6l0,0c0,0,0,0-0.1-0.1
		c-0.4-0.5-1.2-0.5-1.8-0.1l-6.7,4.7c0,0-0.1,0-0.2,0c0,0,0-0.1,0-0.2l6-4.3c0.6-0.4,0.8-1.3,0.3-2c-0.4-0.6-1.2-0.7-1.9-0.3l-7,4.8
		c0.8-1.3,1.3-2.8,1.2-4c0-0.6-0.9-0.9-1.5-0.7c-0.3,0.1-0.6,0.3-0.8,0.7c0,0-0.2,1.9-2.8,3.4c-2.6,1.5-3.2,6.3-3.2,6.3
		c-0.4,1.8-5.9,5.5-5.9,5.5l4.3,5.6c2.6-1.7,6.9-3.3,6.9-3.3l1.9-0.7c2.1-0.8,4.2-1.9,6.1-3.2l3.1-2.1l3.7,3.1
		c-1.5-0.4-3-0.5-4.2-0.1c-0.6,0.2-0.7,1.1-0.3,1.6c0.1,0.2,0.4,0.5,0.9,0.6c0,0,1.9-0.3,4,1.8c2.1,2,6.9,1.5,6.9,1.5
		c1.8-0.1,6.8,4.3,6.8,4.3l4.3-5.6C337.4,291,334.7,287.3,334.7,287.3z M314.1,285.3c0,0-0.1,0-0.2,0c0,0,0-0.1,0-0.2l1.4-1l0.2,0.2
		L314.1,285.3z M313,282.5c0,0-0.1,0-0.2,0c0,0,0-0.1,0-0.2l3-2.1c0,0.1,0.1,0.2,0.1,0.2L313,282.5z M322.5,286.2c0,0-0.1,0-0.2,0
		l-2.8-2.3c0-0.2-0.1-0.4-0.2-0.6l3.2,2.7C322.6,286,322.6,286.1,322.5,286.2z M324,283.7c0,0-0.1,0-0.2,0l-3.9-3.2
		c0-0.1,0-0.2,0-0.4l4,3.4C324.1,283.5,324.1,283.6,324,283.7z"/>
	<path class="st29" d="M290,290.6c1.4,3.6,3.6,6.8,6.3,9.5l8.5-5.4l-5.8-9.8L290,290.6z"/>
	<path class="st30" d="M337.9,288.2l-7.9,8.2l5.2,4.7c2.8-2.6,5.2-5.7,6.8-9.3L337.9,288.2z"/>
	<path class="st31" d="M312.5,280.4c0.7,0,1.2-0.6,1.2-1.3l-0.1-4.1c0-0.1,0-0.1,0.1-0.1c0.1,0,0.1,0,0.1,0.1l0.2,6.5
		c0,0.7,0.5,1.2,1.1,1.3c0.8,0.1,1.5-0.5,1.5-1.3l-0.1-6c0-0.1,0-0.1,0.1-0.1s0.1,0,0.1,0.1l0.2,7.8c0,0.8,0.6,1.3,1.4,1.3l0,0
		c0,0,0.1,0,0.1,0c0.7-0.1,1.1-0.8,1.1-1.4l-0.2-8.2c0-0.1,0-0.1,0.1-0.1c0.1,0,0.1,0,0.1,0.1l0.2,7.4c0,0.8,0.7,1.4,1.5,1.3
		c0.7,0,1.3-0.7,1.3-1.4l-0.1-8.4c0.7,1.4,1.6,2.6,2.7,3.2c0.6,0.3,1.2-0.2,1.4-0.8c0.1-0.3,0-0.7-0.2-1c0,0-1.5-1.3-1.3-4.2
		c0.1-2.9-3.5-6.2-3.5-6.2c-1.2-1.3-1.3-7.9-1.3-7.9l-7,0.4c0,3.1-1.1,7.5-1.1,7.5l-0.4,2c-0.5,2.2-0.8,4.5-0.8,6.8l0,5.4
		C311.2,279.8,311.8,280.4,312.5,280.4z"/>
	<path class="st32" d="M322.5,252.7c-2-0.4-4.2-0.7-6.4-0.7c-1.7,0-3.4,0.2-5,0.4l-0.2,9.5l11.4,0.6L322.5,252.7z"/>
	<path d="M530.9,345.8c1,0,1.9-0.4,2.5-1l3.6,1.8c0,0.1,0,0.3,0,0.4c0,2,1.6,3.7,3.7,3.7c2,0,3.7-1.6,3.7-3.7c0-0.6-0.1-1.1-0.4-1.6
		l4.9-4.9c0.5,0.2,1,0.4,1.6,0.4c2,0,3.7-1.6,3.7-3.7c0-0.4-0.1-0.7-0.2-1.1l4.3-3.2c0.6,0.4,1.3,0.6,2,0.6c2,0,3.7-1.6,3.7-3.7
		c0-2-1.6-3.7-3.7-3.7c-2,0-3.7,1.6-3.7,3.7c0,0.4,0.1,0.7,0.2,1.1l-4.3,3.2c-0.6-0.4-1.3-0.6-2-0.6c-2,0-3.7,1.6-3.7,3.7
		c0,0.6,0.1,1.1,0.4,1.6l-4.9,4.9c-0.5-0.2-1-0.4-1.6-0.4c-1,0-1.9,0.4-2.5,1l-3.6-1.8c0-0.1,0-0.3,0-0.4c0-2-1.6-3.7-3.7-3.7
		c-2,0-3.7,1.6-3.7,3.7C527.2,344.1,528.9,345.8,530.9,345.8z"/>
	<path d="M565.3,365.5h-1.3v-25.9c0-0.7-0.5-1.2-1.2-1.2h-4.9c-0.7,0-1.2,0.5-1.2,1.2v25.9h-2.4V347c0-0.7-0.5-1.2-1.2-1.2H548
		c-0.7,0-1.2,0.5-1.2,1.2v18.5h-2.4v-8.7c0-0.7-0.5-1.2-1.2-1.2h-4.9c-0.7,0-1.2,0.5-1.2,1.2v8.7h-2.4v-13.6c0-0.7-0.5-1.2-1.2-1.2
		h-4.9c-0.7,0-1.2,0.5-1.2,1.2v13.6h-1.3c-0.7,0-1.2,0.5-1.2,1.2s0.5,1.2,1.2,1.2h39.4c0.7,0,1.2-0.5,1.2-1.2
		S565.9,365.5,565.3,365.5z"/>
	<path class="st33" d="M295.5,370.7c0,8.9-8.7,8.4-19.6,8.4c-10.8,0-19.6,0.4-19.6-8.4c0-8.9,8.7-23.6,19.6-23.6
		C286.8,347.1,295.5,361.9,295.5,370.7z"/>
	<path class="st34" d="M276,347.1c10.8,0,19.6,14.8,19.6,23.6c0,8.9-8.7,8.4-19.6,8.4"/>
	<path class="st33" d="M266.5,337.9c0-4.3,4.3-4.1,9.5-4.1c5.2,0,9.5-0.2,9.5,4.1s-4.3,11.5-9.5,11.5
		C270.8,349.4,266.5,342.2,266.5,337.9z"/>
	<path class="st34" d="M276,333.9c5.2,0,9.5-0.2,9.5,4.1s-4.3,11.5-9.5,11.5"/>
	<path class="st35" d="M284.3,347.9c0,0.7-0.6,1.3-1.3,1.3h-14.1c-0.7,0-1.3-0.6-1.3-1.3v-0.4c0-0.7,0.6-1.3,1.3-1.3h14.2
		c0.7,0,1.3,0.6,1.3,1.3L284.3,347.9L284.3,347.9z"/>
	<path class="st36" d="M268.7,346.3h14.4c0.7,0,1.3,0.6,1.3,1.3v0.4c0,0.7-0.7,1.3-1.5,1.3"/>
	<circle class="st35" cx="276" cy="364.7" r="8.7"/>
	<path class="st36" d="M269.8,358.5c3.4-3.4,8.9-3.4,12.4,0c3.4,3.4,3.4,8.9,0,12.4"/>
	<path class="st37" d="M275.3,371.7v-1.8c-1.5-0.1-2.3-0.4-2.9-0.7l0.4-2c0.7,0.4,1.7,0.7,2.8,0.7c0.9,0,1.6-0.4,1.6-1
		s-0.5-1-1.8-1.5c-1.8-0.6-3-1.5-3-3.1c0-1.5,0.7-2.6,2.8-3v-1.5h1.5v1.5c1.5,0.1,2,0.3,2.5,0.6l-0.4,1.9c-0.4-0.2-1.2-0.6-2.4-0.6
		c-1.1,0-1.5,0.4-1.5,0.9c0,0.6,0.6,0.9,2,1.5c2,0.7,2.8,1.6,2.8,3.1s-0.8,2.8-3,3.1v1.8H275.3L275.3,371.7z"/>
	<g>
		<path class="st38" d="M276,357.9v3.3c0,0,0.2,0,0.4,0c1.2,0,2,0.4,2.4,0.6l0.4-1.9c-0.6-0.3-1-0.6-2.5-0.6v-1.5H276z"/>
		<path class="st38" d="M276.9,363.6c-0.4-0.1-0.7-0.3-0.9-0.4v2.5c0.7,0.4,1.2,0.7,1.2,1.2c0,0.6-0.4,0.9-1.2,1v3.8h0.7v-1.9
			c2.2-0.4,3-1.6,3-3.1S278.9,364.3,276.9,363.6z"/>
	</g>
	<path class="st39" d="M483.6,273c0.6,7.3,5.6,18.6,11.7,18.6c6.1,0,11.1-11.3,11.7-18.6H483.6z"/>
	<path class="st40" d="M495.2,291.6c6.1,0,11.2-11.3,11.8-18.6h-12.3"/>
	<path class="st41" d="M485.1,279.7c2,6,5.7,11.9,10.2,11.9c4.3,0,8.1-5.9,10.1-11.9H485.1z"/>
	<path class="st42" d="M495.6,291.6c4.1,0,7.9-5.9,9.9-11.9h-14.2"/>
	<path class="st39" d="M508.5,272c0,0.5-0.6,1.1-1.1,1.1h-24.1c-0.5,0-1.1-0.5-1.1-1.1l0,0c0-0.5,0.5-0.9,1.1-0.9h24.2
		C508,271,508.5,271.4,508.5,272L508.5,272z"/>
	<path class="st40" d="M508.5,272L508.5,272c0,0.6-0.5,1.1-1.1,1.1h-24.1c-0.6,0-1.1-0.5-1.1-1.1l0,0"/>
	<path class="st42" d="M507,310.4c-0.6-7.3-5.6-18.6-11.7-18.6c-6.1,0-11.1,11.3-11.7,18.6H507z"/>
	<path class="st41" d="M495.4,291.8c-6.1,0-11.2,11.3-11.8,18.6H496"/>
	<path class="st40" d="M505.5,303.7c-2-6-5.7-11.9-10.2-11.9c-4.3,0-8.1,5.9-10.1,11.9H505.5z"/>
	<path class="st39" d="M495.3,291.8c-4.7,0-8.2,5.9-10.2,11.9h14.2"/>
	<path class="st40" d="M482.1,311.4c0-0.6,0.5-1,1.1-1h24.1c0.6,0,1.1,0.4,1.1,1l0,0c0,0.6-0.5,1-1.1,1h-24.1
		C482.6,312.4,482.1,312,482.1,311.4L482.1,311.4z"/>
	<path class="st39" d="M482.1,311.4L482.1,311.4c0-0.6,0.5-1.1,1.1-1.1h24.1c0.6,0,1.1,0.5,1.1,1.1l0,0"/>
	<path class="st41" d="M496,300.5c0,0.4-0.3,0.7-0.7,0.7l0,0c-0.4,0-0.7-0.3-0.7-0.7v-8.9c0-0.4,0.3-0.7,0.7-0.7l0,0
		c0.4,0,0.7,0.3,0.7,0.7V300.5z"/>
	<path class="st42" d="M495.3,290.9L495.3,290.9c0.4,0,0.7,0.3,0.7,0.7v9.3c0,0.4-0.3,0.7-0.7,0.7l0,0"/>
	<circle class="st41" cx="495.3" cy="301.8" r="1.5"/>
	<path class="st42" d="M496.4,300.7c0.6,0.6,0.6,1.5,0,2.1c-0.6,0.6-1.5,0.6-2.1,0"/>
	<text transform="matrix(1 0 0 1 878.9737 281.0001)" class="st24 st43">About Us</text>
</g>
<g id="Layer_3">
</g>
</svg>
