<?xml version="1.0" encoding="utf-8"?>
<!-- Generator: Adobe Illustrator 22.0.0, SVG Export Plug-In . SVG Version: 6.00 Build 0)  -->
<svg version="1.1" id="Layer_1" xmlns="http://www.w3.org/2000/svg" xmlns:xlink="http://www.w3.org/1999/xlink" x="0px" y="0px"
	 viewBox="0 0 261.2 227" style="enable-background:new 0 0 261.2 227;" xml:space="preserve">
<style type="text/css">
	.st0{fill:#F2F6FC;}
	.st1{opacity:0.64;fill:#0051C1;fill-opacity:8.000000e-02;enable-background:new    ;}
</style>
<title>card4</title>
<path class="st0" d="M165.9,223.8c-64.3,23.6,20.9-87.9-127.2-71.5c0,0-69.9,24.3-21.9-71.9C81.8-49.8,190.1,15.9,202,21.6
	C211.7,26.1,350.6,156,165.9,223.8z"/>
<path class="st1" d="M76.6,106.6c2.1-1.5,4.1-3.5,4.5-6c1.1-5.6-2.7-10.1-4.2-11.6c-3.6-3.8-9.1-5.7-12.1-10.1
	c-0.7-1.4-1.4-2.7-2.3-4c-3.4-4.8-9.9-6.3-15.1-3.5c-2.7,1.7-5.4,3.8-7.1,6.6c-2.6,4.4-3.8,10.3-3.5,12.4
	c1.1,7.1,1.7,12.2,17.5,18.7C61.2,112.1,70.4,110.7,76.6,106.6"/>
<circle class="st0" cx="89.9" cy="190.7" r="8.6"/>
</svg>
