<?xml version="1.0" encoding="utf-8"?>
<!-- Generator: Adobe Illustrator 22.0.0, SVG Export Plug-In . SVG Version: 6.00 Build 0)  -->
<svg version="1.1" id="Layer_1" xmlns="http://www.w3.org/2000/svg" xmlns:xlink="http://www.w3.org/1999/xlink" x="0px" y="0px"
	 viewBox="0 0 294 270" style="enable-background:new 0 0 294 270;" xml:space="preserve">
<style type="text/css">
	.st0{opacity:0.6403;fill:#0051C1;fill-opacity:8.000000e-02;enable-background:new    ;}
</style>
<g>
	<path class="st0" d="M19.8,43.8C7.2,55.4-4.1,69.9-5,87.2c-2.4,37.6,26.1,64.3,37.3,73c26.9,21.8,64.2,30.3,87.7,56.6
		c6.1,8.3,11.2,16.8,18.1,24c26.4,29,70.3,33.5,102.1,10.5c16.5-13.1,32.6-29.2,41.2-49.5c13.3-30.9,16.4-70.6,12.7-84.2
		c-12.7-45.8-20.9-79-130.4-108.7C116.6-4.5,57.2,11.9,19.8,43.8"/>
</g>
<g>
	<path class="st0" d="M50.2,86.9c-1.6,1.5-3,3.3-3.1,5.4c-0.3,4.7,3.3,8.1,4.7,9.1c3.4,2.7,8.1,3.8,11,7.1c0.8,1,1.4,2.1,2.3,3
		c3.3,3.6,8.8,4.2,12.8,1.3c2.1-1.6,4.1-3.7,5.2-6.2c1.7-3.9,2.1-8.8,1.6-10.6c-1.6-5.7-2.6-9.9-16.4-13.6
		C62.3,80.8,54.8,82.9,50.2,86.9"/>
</g>
</svg>
