<svg id="Layer_1" data-name="Layer 1" xmlns="http://www.w3.org/2000/svg" viewBox="0 0 261.21 227.04"><defs><style>.cls-1{fill:#f2f6fc;}.cls-2{fill:#0051c1;fill-opacity:0.08;opacity:0.64;isolation:isolate;}</style></defs><title>card4</title><path class="cls-1" d="M182.33,245.71c-64.3,23.57,20.87-87.89-127.2-71.5,0,0-69.88,24.29-21.92-71.85,65-130.23,173.3-64.48,185.19-58.85C228.07,48.09,367,178,182.33,245.71Z" transform="translate(-16.4 -21.96)"/><path class="cls-2" d="M113.47,137c3.2-2.29,6.17-5.27,6.86-9.16,1.6-8.46-4.12-15.33-6.41-17.62-5.49-5.72-13.72-8.69-18.3-15.33a51.52,51.52,0,0,0-3.43-6A17.63,17.63,0,0,0,69.3,83.65c-4.11,2.52-8.23,5.72-10.75,10.07-3.89,6.63-5.72,15.56-5.26,18.76,1.6,10.76,2.51,18.54,26.54,28.38,10.3,4.34,24.26,2.28,33.64-3.89" transform="translate(-16.4 -21.96)"/><circle class="cls-1" cx="89.88" cy="190.71" r="8.6"/></svg>