<?xml version="1.0" encoding="utf-8"?>
<!-- Generator: Adobe Illustrator 22.0.0, SVG Export Plug-In . SVG Version: 6.00 Build 0)  -->
<svg version="1.1" id="Layer_1" xmlns="http://www.w3.org/2000/svg" xmlns:xlink="http://www.w3.org/1999/xlink" x="0px" y="0px"
	 viewBox="0 0 1367.5 707.4" style="enable-background:new 0 0 1367.5 707.4;" xml:space="preserve">
<style type="text/css">
	.st0{fill:#DBDBDB;}
	.st1{fill:#E8E8E8;}
	.st2{fill:#F2F2F2;}
	.st3{fill:#FFFFFF;}
	.st4{fill:none;stroke:#3073BA;stroke-miterlimit:10;}
	.st5{fill:none;stroke:#3073BA;stroke-width:5;stroke-miterlimit:10;}
	.st6{fill:#3273BA;}
	.st7{fill:none;stroke:#3073BA;stroke-width:7;stroke-miterlimit:10;}
	.st8{fill:#EFEFEF;}
	.st9{opacity:0.2;fill:#6299BC;enable-background:new    ;}
	.st10{fill:#219BD9;}
	.st11{fill:#F36B21;}
	.st12{fill:#C7C8C9;}
	.st13{fill:#192344;}
	.st14{fill:#FDB07D;}
	.st15{fill:#3D1411;}
	.st16{fill:#FBF7F8;}
	.st17{fill:#EAEAEA;}
	.st18{fill:#7180AB;}
	.st19{fill:#A4C581;}
	.st20{fill:#2E3945;}
	.st21{fill:#E45520;}
	.st22{opacity:0.3;}
	.st23{opacity:0.5;fill:#6299BC;enable-background:new    ;}
	.st24{fill:#FDCF3E;}
	.st25{fill:none;}
	.st26{fill:#F28456;}
	.st27{fill:#E0E0E0;}
	.st28{font-family:'MyriadPro-Regular';}
	.st29{font-size:91px;}
</style>
<title>genesis landing page</title>
<rect x="0.5" y="0" class="st0" width="1367" height="705.2"/>
<path class="st1" d="M1367.5,705.2V407c-44.6-10.4-71.1,32.1-201.8,53c-99.9,16-117-3.6-255.2,15.8c-70.2,9.9-122,22.9-160.2,34.4
	c-44.3,13.4-68.9,24.4-86.5,31c-121.8,45.6-244.4,5.3-367.4,17.2c-75.7,7.3-181.6,37.4-295.8,146c-0.2,0.2-0.3,0.4-0.5,0.7h1367.4
	V705.2z"/>
<path class="st2" d="M1367.5,705.2V407c-44.6-10.4-53,58.3-183.7,79.2c-99.9,16-117-3.6-255.2,15.8c-70.2,9.9-122,22.9-160.2,34.4
	c-44.3,13.4-68.9,24.4-86.5,31c-121.8,45.6-244.4,5.3-367.4,17.2c-75.7,7.3-199.8,11.2-314,119.8c-0.1,0.2-0.2,0.4-0.3,0.7
	L1367.5,705.2L1367.5,705.2z"/>
<g>
	<path class="st3" d="M1367.5,705.2V407c-44.6-10.4-61.5,75.5-192.2,96.4c-99.9,16-117-3.6-255.2,15.8
		c-70.2,9.9-122,22.9-160.2,34.4c-44.3,13.4-68.9,24.4-86.5,31C551.5,630.3,428.9,590,306,601.9c-75.7,7.3-191.2-6-305.4,102.6
		c-0.1,0.2-0.2,0.4-0.3,0.7H1367.5z"/>
</g>
<image style="display:none;overflow:visible;enable-background:new    ;" width="309" height="163" xlink:href="../../../../Users/miky/Downloads/digital marketing2.png"  transform="matrix(2.1951 0 0 2.1951 335.337 133.381)">
</image>
<path class="st4" d="M651.7-106.5"/>
<g>
	<g>
		<path class="st5" d="M790.2-220.6c0,0,15.4-15.6,33.9-12.3c0,0,1.3-13,13.8-22.5"/>
		<path class="st5" d="M857.3-264.9c0,0,28-8.5,41.3,6.3c0,0,14.8-11.6,30.3-8.7"/>
		<path class="st5" d="M946.6-264.6c0,0,12.3,6.3,15.3,11c0,0,27.3-16,48.3,2"/>
		<path class="st5" d="M1026.3-238.6c0,0,1.5,8.5,6.3,9.5s21.3,7.3,26,20.3"/>
		<path class="st5" d="M1065.3-186.6c0,0,3.3,45.3-50.3,50"/>
		<path class="st5" d="M1008.8-130.4c0,0-19.3,23-53.8,7.7c0,0-6,7.3-21,10"/>
		<path class="st5" d="M912.8-112.6c0,0-13.8-3-21.8-10.8c0,0-26.3,15.3-50-2.5"/>
		<path class="st5" d="M828.6-131.9c0,0-53.2-2.9-51.5-53.7"/>
		<g>
			<polygon class="st6" points="893.3,-290.5 888,-276.1 903.1,-278.8 			"/>
			<line class="st7" x1="895.6" y1="-277.4" x2="898" y2="-263.5"/>
		</g>
		<g>
			<polygon class="st6" points="1000.7,-283.5 989.2,-273.3 1003.8,-268.5 			"/>
			<line class="st7" x1="996.5" y1="-270.9" x2="992.1" y2="-257.4"/>
		</g>
		<g>
			<polygon class="st6" points="1073.1,-237.1 1057.8,-235.9 1066.5,-223.3 			"/>
			<line class="st7" x1="1062.2" y1="-229.6" x2="1050.5" y2="-221.5"/>
		</g>
		<g>
			<polygon class="st6" points="1070,-131.6 1065.4,-146.3 1055,-135 			"/>
			<line class="st7" x1="1060.2" y1="-140.6" x2="1049.8" y2="-150.2"/>
		</g>
		<g>
			<polygon class="st6" points="987.7,-93 990.7,-108 976.2,-103.1 			"/>
			<line class="st7" x1="983.4" y1="-105.6" x2="978.9" y2="-119"/>
		</g>
		<g>
			<polygon class="st6" points="874.1,-87.3 882.8,-100 867.5,-101.1 			"/>
			<line class="st7" x1="875.1" y1="-100.6" x2="876.2" y2="-114.7"/>
		</g>
		<g>
			<polygon class="st6" points="766.4,-130.9 781.6,-133.5 771.8,-145.3 			"/>
			<line class="st7" x1="776.7" y1="-139.4" x2="787.6" y2="-148.4"/>
		</g>
		<g>
			<polygon class="st6" points="802.8,-255.8 809.2,-241.8 818.1,-254.3 			"/>
			<line class="st7" x1="813.6" y1="-248" x2="825.2" y2="-239.8"/>
		</g>
	</g>
	<path class="st8" d="M828.6-149.1c0,0-86.5-38.8,4.5-71.4c0,0,18.4-56.6,63.7-18.1c0,0,35.3-27.2,61.3,0.7c0,0,40-21,61,17.4
		c0,0,76.5,42.4-10.3,71.4c0,0-29.8,34.5-55.8,5.3c0,0-12,39.3-60,0C893.1-143.9,872.1-116.1,828.6-149.1z"/>
	<path class="st0" d="M804-207.8c0,0-20.8,40.4,109.8,55.4c0,0-104.8-20.4-101.8-66.4L804-207.8z"/>
	<path class="st0" d="M852-243.9c0,0-33,28.8,55.8,89c0,0-67.6-55.8-45.2-96.1L852-243.9z"/>
	<path class="st0" d="M1027.6-167.3c0,0,13.7-41.6-93.5-48.1c0,0,86.6,13.5,87.9,59.6L1027.6-167.3z"/>
	<path class="st0" d="M940.7-246.1c0,0-31.2-3.8-20.8,72.5c0,0-2.6-62.9,29.7-70.2L940.7-246.1z"/>
	<path class="st0" d="M980.6-136.9c0,0,25-19-35.6-66.5c0,0,45.7,43.3,27.6,71L980.6-136.9z"/>
	<path class="st0" d="M918.5-127.7c0,0,22.8,1,21-40.2c0,0-3,34.1-27.4,39.2L918.5-127.7z"/>
	<path class="st0" d="M889.5-240.6c0,0-26.7,10,13.7,67c0,0-28.4-49.4-5.6-68.8L889.5-240.6z"/>
</g>
<g>
	<ellipse class="st9" cx="306.7" cy="296.5" rx="100.2" ry="100.2"/>
	<g>
		<g>
			<g>
				<path class="st10" d="M309,517.7c-4.6,0-8.3-3.7-8.3-8.3V386.6c0-4.6,3.7-8.3,8.3-8.3c4.6,0,8.3,3.7,8.3,8.3v122.8
					C317.3,514,313.6,517.7,309,517.7z"/>
			</g>
			<g>
				<path class="st10" d="M246.6,552c-0.7,0-1.3-0.1-2-0.2c-4.4-1.1-7.1-5.6-6-10.1c0.4-1.7,10.7-40.6,69.3-40.6
					c58.7,0,67.9,39.2,68.3,40.9c1,4.5-1.9,8.9-6.3,9.9c-4.5,1-8.9-1.9-9.9-6.3c-0.3-1-7.3-27.8-52.1-27.8c-45,0-52.9,27-53.2,28.1
					C253.7,549.6,250.3,552,246.6,552z"/>
			</g>
			<g>
				<path class="st10" d="M367.3,401.4H246.1c-8.2,0-14.8-6.6-14.8-14.8l0,0c0-8.2,6.6-14.8,14.8-14.8h121.2
					c8.2,0,14.8,6.6,14.8,14.8l0,0C382.2,394.8,375.5,401.4,367.3,401.4z"/>
			</g>
			<g>
				<path class="st10" d="M352,340.6h-90.5c-8.2,0-14.8-6.6-14.8-14.8v-93.3c0-8.2,6.6-14.8,14.8-14.8H352c8.2,0,14.8,6.6,14.8,14.8
					v93.3C366.8,333.9,360.2,340.6,352,340.6z"/>
			</g>
		</g>
		<g>
			<g>
				<g>
					<g>
						<path class="st11" d="M251.2,379.9c0,0-0.8-19.2,24.5-70.9h31.1v52L251.2,379.9z"/>
					</g>
					<g>
						<path class="st11" d="M362.2,379.9c0,0,0.8-19.2-24.5-70.9h-31.1v52L362.2,379.9z"/>
					</g>
					<g>
						<path class="st11" d="M338.3,411.7h-63.2c-13.2,0-24-10.7-24-24v-15.9c0-13.2,10.7-24,24-24h63.2c13.2,0,24,10.7,24,24v15.9
							C362.3,400.9,351.5,411.7,338.3,411.7z"/>
					</g>
				</g>
				<g>
					<g>
						<path class="st12" d="M295.2,364.6c-7-6.4-15.4-1.2-20.6,6.8c-5.9,9.1-8.3,28.4,6.3,111.8c0,0,8.2,22.2,4.2,42.1
							c-4,19.9-3.5,26.9,3.4,27.2s8.5-3.3,8.5-3.3s2.4-2.8,2.2-12.6c-0.1-5.9-2.8-15-3-25.4c-0.6-33.4,9.9-81.4,7.4-121.3
							C302.9,375.9,299.4,368.5,295.2,364.6z"/>
						<path class="st13" d="M286.3,518.7c0,0-3.4,21.7-0.9,24.7s5.7,2.9,8.4,3c2.7,0.1,8.8,0.5,8.6-9.5c-0.3-10-1.9-25.1-1.9-25.1
							s3.7,6.2,3.2,17.8c-0.3,8.7,8.1,28.2-10.8,28.2c-17.6,0-10-16.5-9.4-27.2C284,519.9,286.3,518.7,286.3,518.7z"/>
						<path class="st3" d="M299.2,363.3c-7-6.4-15.4-1.2-20.6,6.8c-5.9,9.1-8.3,28.4,6.3,111.8c0,0,4.2,23.5,0.2,43.4
							s0.5,25.6,7.4,25.8c6.9,0.3,8.5-3.3,8.5-3.3s2.4-2.8,2.2-12.6c-0.1-5.9-2.8-15-3-25.4c-0.6-33.4,9.9-81.4,7.4-121.3
							C306.9,374.6,303.4,367.1,299.2,363.3z"/>
					</g>
					<g>
						<path class="st12" d="M321.5,363.3c7-6.4,15.4-1.2,20.6,6.8c5.9,9.1,8.3,28.4-6.3,111.8c0,0-6.9,23.5-2.9,43.4
							s2.1,25.6-4.8,25.8c-6.9,0.3-8.5-3.3-8.5-3.3s-2.4-2.8-2.2-12.6c0.1-5.9,2.8-15,3-25.4c0.6-33.4-9.9-81.4-7.4-121.3
							C313.8,374.6,317.3,367.1,321.5,363.3z"/>
						<path class="st3" d="M318.8,363.3c7-6.4,15.4-1.2,20.6,6.8c5.9,9.1,8.3,28.4-6.3,111.8c0,0-4.2,23.5-0.2,43.4
							s-0.5,25.6-7.4,25.8c-6.9,0.3-8.5-3.3-8.5-3.3s-2.4-2.8-2.2-12.6c0.1-5.9,2.8-15,3-25.4c0.6-33.4-9.9-81.4-7.4-121.3
							C311.1,374.6,314.6,367.1,318.8,363.3z"/>
						<path class="st13" d="M331.7,518.7c0,0,3.4,21.7,0.9,24.7s-5.7,2.9-8.4,3c-2.7,0.1-8.8,0.5-8.6-9.5c0.3-10,1.9-25.1,1.9-25.1
							s-3.7,6.2-3.2,17.8c0.3,8.7-6.7,28.2,10.8,28.2c17.6,0,10-16.5,9.4-27.2C334,519.9,331.7,518.7,331.7,518.7z"/>
					</g>
				</g>
			</g>
			<g>
				<g>
					<g>
						<polygon class="st13" points="272.4,290.9 279.6,329.8 308.5,329.8 308.5,290.9 						"/>
					</g>
					<g>
						<polygon class="st13" points="341,290.9 333.9,329.8 304.9,329.8 304.9,290.9 						"/>
					</g>
				</g>
				<g>
					<g>
						<g>
							<polygon class="st11" points="254.5,244.4 234.4,321 262.3,303.8 277.4,256.2 							"/>
						</g>
						<g>
							<polygon class="st11" points="359,245.8 379,321.4 351.1,304.2 336,257.6 							"/>
						</g>
					</g>
					<g>
						<g>
							<g>
								<path d="M316,145.2c0,0-20.6-14.6-34.8,5.3c-15.8,22.3-7,83.5-7,83.5h31h30.3C335.4,234.1,352.5,145.2,316,145.2z"/>
							</g>
							<g>
								<path class="st3" d="M306.7,200.8l-15-2.7c0,0,4.5,22-1.2,25c-6.1,3.2-3.8,3.4-3.8,3.4L302,255h4.7l5-1.6l11.5-26.2
									c0,0,5.5-0.9-0.6-4.1c-5.7-3-1.2-25-1.2-25l-15,2.7"/>
							</g>
							<g>
								<path class="st3" d="M306.8,145.2c-24.6,0-29.2,26.2-21,51.3c6.7,20.5,21,20.8,21,20.8s14.2-0.3,21-20.8
									C336,171.4,331.3,145.2,306.8,145.2z"/>
							</g>
							<g>
								<path d="M315.5,145.9l-0.6,6.9c0,0,12.9,11.9,12,27.4h3.6C330.6,180.3,337.7,152.5,315.5,145.9z"/>
							</g>
							<g>
								<path class="st14" d="M328.6,183.5c0,0,0.7-10.5,4.9-10c4.2,0.5,3.2,14.7-1.4,18.5C327.6,195.9,328.6,183.5,328.6,183.5z"/>
							</g>
							<g>
								<path class="st14" d="M285.2,183.5c0,0-0.7-10.5-4.9-10c-4.2,0.5-3.2,14.7,1.4,18.5C286.2,195.9,285.2,183.5,285.2,183.5z"
									/>
							</g>
							<g>
								<path d="M313.3,154.7c0,0-26,12.2-30.2,41.2c0,0-11.5-28.2-1.8-40.9s25.9-16.5,34.9-8.6c0,0,1,3.4,0.7,5.8
									C316.8,153.6,315.7,153.8,313.3,154.7z"/>
							</g>
							<g>
								<path d="M315.6,153.9c0,0-27.9,12.7-32.5,42.1c0,0-7.3-20.1,1.6-30.7C293.7,154.7,315.6,153.9,315.6,153.9z"/>
							</g>
							<g>
								<path class="st15" d="M289.5,173.5c0.6-1,1.5-1.9,2.5-2.7s2.1-1.4,3.3-1.8c1.2-0.4,2.5-0.7,3.8-0.5c2.6,0.4,2.4,1.8,1.6,1.7
									c-0.6,0-1.1-0.1-1.7,0c-1.1,0-2.2-0.1-3.3,0.1c-1.1,0.2-2.2,0.6-3.2,1.1s-2,1.3-2.8,2.1L289.5,173.5z"/>
							</g>
							<g>
								<path class="st15" d="M323,173.1c-0.7-0.8-1.6-1.4-2.5-1.9s-1.9-0.9-2.9-1.1c-1-0.2-2-0.1-3-0.1c-0.6,0-1.5,0.2-2,0.2
									s0.8-1.5,1.9-1.7c1.2-0.2,2.3,0.1,3.4,0.5s2.1,0.9,3,1.6c0.9,0.7,1.6,1.5,2.2,2.5H323z"/>
							</g>
							<g>
								<g>
									<path class="st11" d="M323.4,223c0,0,29.6,59.4,7.5,70.3h4.7l22-38.3c4.3-7.5,1-17.1-7.1-20.2c-0.1,0-0.2-0.1-0.3-0.1
										C338.7,230.5,323.4,223,323.4,223z"/>
								</g>
								<g>
									<path class="st11" d="M290,223c0,0-29.5,59.4-7.4,70.3h-5.2L255.8,255c-4.2-7.5-0.9-17.1,7.2-20.1c0.1,0,0.2-0.1,0.3-0.1
										C274.8,230.5,290,223,290,223z"/>
								</g>
								<g>
									<path class="st11" d="M344,255.1v-22.9l-17.2-7.5c0,0-9.2,32.8-20,32.8s-20-32.8-20-32.8l-17.2,7.5v22.9
										c0,0-15.4,21.8,5.1,38.2h32.2l0,0H339C357.7,276.9,344,255.1,344,255.1z"/>
								</g>
								<g>
									<path class="st11" d="M286.3,224.7c0,0,8.8,32.8,20,32.8s20.8-33.1,20.8-33.1l-5-2.1c0,0-8.3,29.6-15.6,29.6
										c-7.6,0-16-29.2-16-29.2L286.3,224.7z"/>
								</g>
							</g>
							<g>
								<g>
									<path class="st15" d="M301.8,181.1c0,0-1.7-5.8-8.5-2.9l-2.5-1.5l2.2,2.9l-2.8-0.6l2.8,2.5
										C292.9,181.4,296.7,179.3,301.8,181.1z"/>
								</g>
								<g>
									<path class="st15" d="M312.5,181.1c0,0,1.7-5.8,8.5-2.9l2.5-1.5l-2.2,2.9l2.8-0.6l-2.8,2.5
										C321.4,181.4,317.6,179.3,312.5,181.1z"/>
								</g>
							</g>
							<g>
								<g>
									<path class="st16" d="M297.4,199.8l2.9,0.8l11.7,0.2l4.1-1c0,0-1.6,8.2-9.4,8.2S297.4,199.8,297.4,199.8z"/>
								</g>
								<g>
									<path class="st17" d="M297.4,199.8c2,0.3,6.4-0.2,7.2-0.2c0.8,0,1.6,0.1,2.3,0.2h-0.3c0.8-0.1,1.6-0.2,2.3-0.2
										c0.8,0,5.4,0.5,7.2,0.2c-1.5,0.7-3,1.1-4.6,1.5c-0.8,0.2-1.5,0.3-2.3,0.5c-0.4,0.1-1.2,0.2-1.7,0.3s-1,0.1-1.5,0
										c-0.6-0.1-1.3-0.2-1.7-0.3c-0.8-0.2-1.6-0.3-2.3-0.5C300.4,200.9,298.9,200.4,297.4,199.8z"/>
								</g>
								<g>
									<path class="st17" d="M297.4,199.8c1.2,1.8,4.5,6.2,9.4,6.2c4.6,0,8.2-4.3,9.4-6.2c-0.3,2.2-1.3,4.3-2.9,6s-4,2.8-6.5,2.8
										c-1.2,0-2.4-0.2-3.5-0.7s-2.1-1.2-2.9-2C298.6,204.1,297.6,202,297.4,199.8z"/>
								</g>
							</g>
							<g>
								<g>
									<g>
										<g>
											<path class="st18" d="M279.9,173.6h-2.2v-9.8c0-13.5,11-24.5,24.5-24.5h4.5v2.2h-4.5c-12.3,0-22.4,10-22.4,22.4v9.7
												H279.9z"/>
										</g>
									</g>
									<g>
										<g>
											<g>
												<path class="st13" d="M280.3,195.4H277c-3.3,0-5.9-2.6-5.9-5.9v-12c0-3.3,2.6-5.9,5.9-5.9h3.3V195.4z"/>
											</g>
										</g>
										<g>
											<g>
												<path class="st19" d="M282.2,197.1h-1c-0.5,0-0.9-0.4-0.9-0.9v-25.3c0-0.5,0.4-0.9,0.9-0.9h1c0.5,0,0.9,0.4,0.9,0.9
													v25.3C283,196.7,282.6,197.1,282.2,197.1z"/>
											</g>
										</g>
									</g>
								</g>
								<g>
									<g>
										<g>
											<path class="st18" d="M333.5,173.6h-2.2v-9.8c0-12.3-10-22.4-22.4-22.4h-4.5v-2.2h4.5c13.5,0,24.5,11,24.5,24.5v9.9
												H333.5z"/>
										</g>
									</g>
									<g>
										<g>
											<g>
												<path class="st13" d="M331,195.4h3.3c3.3,0,5.9-2.6,5.9-5.9v-12c0-3.3-2.6-5.9-5.9-5.9H331V195.4z"/>
											</g>
										</g>
										<g>
											<g>
												<path class="st19" d="M329.1,197.1h1c0.5,0,0.9-0.4,0.9-0.9v-25.3c0-0.5-0.4-0.9-0.9-0.9h-1c-0.5,0-0.9,0.4-0.9,0.9
													v25.3C328.2,196.7,328.6,197.1,329.1,197.1z"/>
											</g>
										</g>
									</g>
								</g>
							</g>
							<g>
								<g>
									<g>
										<path class="st19" d="M295.1,207.4l-7.6-1c-3.6-0.5-6.3-3.5-6.3-7.1v-5.8h1.1v5.8c0,3.1,2.3,5.7,5.3,6.1l7.6,1
											L295.1,207.4z"/>
									</g>
								</g>
								<g>
									<path class="st20" d="M296.8,209l-3.4-0.5c-0.4-0.1-0.7-0.4-0.7-0.8V206c0-0.4,0.3-0.7,0.7-0.8l3.4-0.5
										c0.5-0.1,0.9,0.3,0.9,0.8v2.7C297.7,208.7,297.3,209.1,296.8,209z"/>
								</g>
							</g>
						</g>
					</g>
					<g>
						<g>
							<polyline class="st21" points="234.4,321 290.5,327.2 296.4,314.5 262.3,303.8 							"/>
						</g>
						<g>
							<polyline class="st21" points="379,321.4 323,326.6 317,314.5 351.1,304.2 							"/>
						</g>
					</g>
				</g>
				<g>
					<path class="st15" d="M300.1,181.3c0,2-1.3,3.5-2.9,3.5s-2.9-1.6-2.9-3.5c0-2,1.3-3.5,2.9-3.5
						C298.8,177.7,300.1,179.3,300.1,181.3z"/>
				</g>
				<g>
					<path class="st15" d="M319.9,181.3c0,2-1.3,3.5-2.9,3.5s-2.9-1.6-2.9-3.5c0-2,1.3-3.5,2.9-3.5
						C318.6,177.7,319.9,179.3,319.9,181.3z"/>
				</g>
				<g>
					<path class="st17" d="M301.4,171.4c0,0,6.7,10.1,1.8,17.3c-4.9,7.2,1.9,6,1.9,6S311.3,182.3,301.4,171.4z"/>
				</g>
				<g class="st22">
					<path class="st17" d="M293.3,210.1c0,0,6.2,7.2,13.4,7.2s13.2-6.9,13.2-6.9s-0.4,4.9,0.3,8.3
						C320.3,218.6,306.5,239,293.3,210.1z"/>
				</g>
			</g>
		</g>
		<g>
			<g>
				<g>
					<rect x="145.8" y="322" class="st3" width="321.9" height="16.6"/>
				</g>
				<g>
					<g>
						<polygon class="st21" points="188.7,557.5 179.6,557.5 172,338.6 195.1,338.6 						"/>
					</g>
					<g>
						<polygon class="st21" points="433.8,557.5 424.7,557.5 417.1,338.6 441.5,338.6 						"/>
					</g>
				</g>
			</g>
			<rect x="145.8" y="334.6" class="st23" width="321.9" height="4.1"/>
		</g>
	</g>
	<g>
		<g>
			<g>
				<g>
					<g>
						<path class="st24" d="M371.5,176.3c0,0,4.4,13.1-11.6,23.7c0,0,25.6,0.8,30.9-18L371.5,176.3z"/>
					</g>
				</g>
				<g>
					<g>
						<ellipse class="st24" cx="392.6" cy="154.9" rx="35.9" ry="35.9"/>
					</g>
					<g>
						<g>
							<path class="st3" d="M382.6,154.9c0,2.2-1.8,4-4,4s-4-1.8-4-4s1.8-4,4-4C380.8,150.9,382.6,152.7,382.6,154.9z"/>
						</g>
						<g>
							<path class="st3" d="M396.6,154.9c0,2.2-1.8,4-4,4s-4-1.8-4-4s1.8-4,4-4C394.8,150.9,396.6,152.7,396.6,154.9z"/>
						</g>
						<g>
							<path class="st3" d="M410.7,154.9c0,2.2-1.8,4-4,4s-4-1.8-4-4s1.8-4,4-4C408.9,150.9,410.7,152.7,410.7,154.9z"/>
						</g>
					</g>
				</g>
			</g>
			<g>
				<g>
					<g>
						<path class="st18" d="M195.9,231c0,0-3.3,9.8,8.7,17.8c0,0-19.3,0.6-23.3-13.5L195.9,231z"/>
					</g>
				</g>
				<g>
					<g>
						<circle class="st18" cx="180" cy="214.9" r="27"/>
					</g>
					<g>
						<g>
							<path class="st3" d="M187.6,214.9c0,1.7,1.4,3,3,3c1.7,0,3-1.4,3-3c0-1.7-1.4-3-3-3C188.9,211.8,187.6,213.2,187.6,214.9z"/>
						</g>
						<g>
							<path class="st3" d="M177,214.9c0,1.7,1.4,3,3,3c1.7,0,3-1.4,3-3c0-1.7-1.4-3-3-3C178.3,211.8,177,213.2,177,214.9z"/>
						</g>
						<g>
							<path class="st3" d="M166.4,214.9c0,1.7,1.4,3,3,3c1.7,0,3-1.4,3-3c0-1.7-1.4-3-3-3C167.7,211.8,166.4,213.2,166.4,214.9z"/>
						</g>
					</g>
				</g>
			</g>
			<g>
				<g>
					<g>
						<path class="st19" d="M241.9,162.4c0,0-6,18,15.9,32.6c0,0-35.2,1.1-42.5-24.7L241.9,162.4z"/>
					</g>
				</g>
				<g>
					<g>
						
							<ellipse transform="matrix(0.7071 -0.7071 0.7071 0.7071 -31.6372 189.4065)" class="st19" cx="212.8" cy="132.9" rx="49.4" ry="49.4"/>
					</g>
					<g>
						<g>
							<path class="st3" d="M226.6,132.9c0,3.1,2.5,5.5,5.5,5.5s5.5-2.5,5.5-5.5c0-3.1-2.5-5.5-5.5-5.5S226.6,129.8,226.6,132.9z"/>
						</g>
						<g>
							<path class="st3" d="M207.3,132.9c0,3.1,2.5,5.5,5.5,5.5c3.1,0,5.5-2.5,5.5-5.5c0-3.1-2.5-5.5-5.5-5.5
								C209.7,127.3,207.3,129.8,207.3,132.9z"/>
						</g>
						<g>
							<path class="st3" d="M187.9,132.9c0,3.1,2.5,5.5,5.5,5.5c3.1,0,5.5-2.5,5.5-5.5c0-3.1-2.5-5.5-5.5-5.5
								C190.4,127.3,187.9,129.8,187.9,132.9z"/>
						</g>
					</g>
				</g>
			</g>
		</g>
		<g>
			<g>
				<path class="st25" d="M433.4,263.7c-1.3,3.7-2,7.7-2.1,12h8.7c0.1-4.1,0.3-8.2,0.8-12H433.4z"/>
				<path class="st25" d="M475.7,291.3c2-3.7,3.1-7.7,3.4-12H472c-0.2,4.2-0.8,8.2-2,12H475.7z"/>
				<path class="st25" d="M444.2,249.4c-3.7,1.9-7,5.6-9.4,10.6h6.4C442,255.6,443,252,444.2,249.4z"/>
				<path class="st25" d="M423.8,263.7c-2,3.7-3.1,7.7-3.4,12h7.2c0.2-4.2,0.8-8.2,2-12H423.8z"/>
				<path class="st25" d="M426.1,260h4.8c1.4-3.3,3.1-6.2,5.2-8.6C432.1,253.5,428.7,256.4,426.1,260z"/>
				<path class="st25" d="M431.2,279.3c0.2,4.2,0.9,8.2,2.1,12h7.4c-0.5-3.8-0.7-7.8-0.8-12H431.2z"/>
				<path class="st25" d="M458.3,260h6.4c-2.3-5-5.6-8.7-9.4-10.6C456.6,252,457.5,255.6,458.3,260z"/>
				<path class="st25" d="M473.4,260c-2.6-3.6-6.1-6.5-9.9-8.6c2,2.4,3.8,5.3,5.2,8.6H473.4z"/>
				<path class="st25" d="M466.1,291.3c1.3-3.7,2-7.7,2.1-12h-8.7c-0.1,4.1-0.3,8.2-0.8,12H466.1z"/>
				<path class="st25" d="M444.4,263.7c-0.5,3.7-0.7,7.7-0.8,12h12.3c-0.1-4.3-0.3-8.3-0.8-12H444.4z"/>
				<path class="st25" d="M455.1,291.3c0.5-3.7,0.7-7.7,0.8-12h-12.3c0.1,4.3,0.3,8.3,0.8,12H455.1z"/>
				<path class="st25" d="M479.1,275.6c-0.3-4.2-1.4-8.2-3.4-12H470c1.2,3.8,1.8,7.8,2,12H479.1z"/>
				<path class="st25" d="M454.5,260c-1.5-8.3-3.7-12-4.8-12c-1.1,0-3.3,3.7-4.8,12H454.5z"/>
				<path class="st25" d="M441.2,294.9h-6.4c2.3,5,5.6,8.7,9.4,10.6C443,302.9,442,299.3,441.2,294.9z"/>
				<path class="st25" d="M454.5,294.9H445c1.5,8.3,3.7,12,4.8,12S453.1,303.2,454.5,294.9z"/>
				<path class="st25" d="M455.3,305.5c3.7-1.9,7-5.6,9.4-10.6h-6.4C457.5,299.3,456.6,302.9,455.3,305.5z"/>
				<path class="st25" d="M458.8,263.7c0.5,3.7,0.7,7.9,0.8,12h8.7c-0.2-4.2-0.9-8.2-2.1-12H458.8z"/>
				<path class="st25" d="M468.6,294.9c-1.4,3.3-3.1,6.2-5.2,8.6c3.9-2.1,7.3-5,9.9-8.6H468.6z"/>
				<path class="st25" d="M426.1,294.9c2.6,3.6,6.1,6.5,9.9,8.6c-2-2.4-3.8-5.3-5.2-8.6H426.1z"/>
				<path class="st25" d="M420.4,279.3c0.3,4.2,1.4,8.2,3.4,12h5.8c-1.2-3.8-1.8-7.8-2-12H420.4z"/>
				<path class="st19" d="M482.5,277.5c0-18.1-14.7-32.8-32.8-32.8S417,259.4,417,277.5s14.7,32.8,32.8,32.8
					S482.5,295.5,482.5,277.5z M479.5,279.1c-0.2,4.4-1.4,8.5-3.5,12.4v0.1h-6.4l0.1-0.2c1.2-3.9,1.9-8,2-12.2V279h7.8V279.1z
					 M476,263.4c2.1,3.8,3.2,8,3.5,12.4v0.2h-7.8v-0.2c-0.1-4.3-0.8-8.4-2-12.2l-0.1-0.2L476,263.4L476,263.4z M462.9,250.8
					c4.3,2.1,8.1,5.4,11,9.3l0.2,0.3h-5.6v-0.1c-1.5-3.6-3.4-6.7-5.7-9.2l-0.6-0.6L462.9,250.8z M459.3,275.9v-0.2
					c-0.1-4.2-0.3-8.5-0.8-12.3v-0.2h7.9v0.1c1.3,3.8,2,8,2.2,12.3v0.2h-9.3V275.9z M468.6,279v0.2c-0.2,4.4-0.9,8.5-2.2,12.3v0.1
					h-7.9v-0.2c0.5-3.8,0.7-8,0.8-12.3v-0.2h9.3V279z M455.1,248.9c4,1.8,7.6,5.8,10,11.2l0.1,0.2H458v-0.1
					c-0.8-4.7-1.8-8.4-3.1-11.1l-0.2-0.4L455.1,248.9z M443.3,275.9v-0.2c0.1-4.4,0.3-8.5,0.8-12.3v-0.1h11.2v0.1
					c0.5,3.8,0.8,7.9,0.8,12.3v0.2H443.3z M456.2,279v0.2c-0.1,4.4-0.3,8.5-0.8,12.3v0.1h-11.2v-0.1c-0.5-3.8-0.8-7.9-0.8-12.3V279
					H456.2z M449.8,247.7c1.5,0,3.7,4.3,5.1,12.4v0.2h-10.3v-0.2C446.1,252,448.3,247.7,449.8,247.7z M444.5,248.9l0.4-0.2l-0.2,0.4
					c-1.3,2.7-2.4,6.4-3.1,11.1v0.1h-7.2l0.1-0.2C436.9,254.7,440.5,250.8,444.5,248.9z M441.1,263.5c-0.5,3.8-0.7,8-0.8,12.3v0.2
					h-9.4v-0.2c0.2-4.3,0.9-8.5,2.2-12.3v-0.1h7.9L441.1,263.5z M441.1,291.6h-7.9v-0.1c-1.3-3.8-2-8-2.2-12.3V279h9.4v0.2
					c0.1,4.3,0.3,8.4,0.8,12.3L441.1,291.6z M425.6,260.1c2.9-3.9,6.7-7.2,11-9.3l0.8-0.4l-0.6,0.6c-2.3,2.5-4.2,5.6-5.7,9.2v0.1
					h-5.6L425.6,260.1z M420.1,275.8c0.2-4.4,1.4-8.5,3.5-12.4v-0.1h6.4l-0.1,0.2c-1.2,3.9-1.9,8-2,12.2v0.2H420L420.1,275.8z
					 M423.5,291.5c-2.1-3.8-3.2-8-3.5-12.4v-0.2h7.8v0.2c0.1,4.3,0.8,8.4,2.1,12.2l0.1,0.2L423.5,291.5L423.5,291.5z M436.6,304.2
					c-4.3-2.1-8.1-5.4-11-9.3l-0.2-0.3h5.6v0.1c1.5,3.6,3.4,6.7,5.7,9.2l0.6,0.6L436.6,304.2z M444.5,306c-4-1.8-7.6-5.8-10-11.2
					l-0.1-0.2h7.2v0.1c0.8,4.7,1.8,8.4,3.1,11.1l0.2,0.4L444.5,306z M449.8,307.2c-1.5,0-3.7-4.3-5.1-12.4v-0.2H455v0.2
					C453.5,302.9,451.2,307.2,449.8,307.2z M455.1,306l-0.4,0.2l0.2-0.4c1.3-2.7,2.4-6.4,3.1-11.1v-0.1h7.2l-0.1,0.2
					C462.6,300.2,459.1,304.2,455.1,306z M462.9,304.2l-0.8,0.4l0.6-0.6c2.3-2.5,4.2-5.6,5.7-9.2v-0.1h5.6l-0.2,0.3
					C471,298.8,467.2,302,462.9,304.2z"/>
				<path class="st3" d="M427.9,275.8c0.1-4.3,0.8-8.4,2-12.2l0.1-0.2h-6.4v0.1c-2.1,3.8-3.2,8-3.5,12.4v0.2h7.8V275.8z
					 M420.4,275.6c0.3-4.2,1.4-8.2,3.4-12h5.8c-1.2,3.8-1.8,7.8-2,12H420.4z"/>
				<path class="st3" d="M429.9,291.4c-1.2-3.9-1.9-8-2.1-12.2V279H420v0.2c0.2,4.4,1.4,8.5,3.5,12.4v0.1h6.4V291.4z M423.8,291.3
					c-2-3.7-3.1-7.7-3.4-12h7.2c0.2,4.2,0.8,8.2,2,12H423.8z"/>
				<path class="st3" d="M431.1,260.2c1.5-3.6,3.4-6.7,5.7-9.2l0.6-0.6l-0.8,0.4c-4.3,2.1-8.1,5.4-11,9.3l-0.2,0.3L431.1,260.2
					L431.1,260.2z M426.1,260c2.6-3.6,6.1-6.5,9.9-8.6c-2,2.4-3.8,5.3-5.2,8.6H426.1z"/>
				<path class="st3" d="M440.3,279.1v-0.2h-9.4v0.2c0.2,4.3,0.9,8.5,2.2,12.3v0.1h7.9v-0.2C440.6,287.5,440.3,283.4,440.3,279.1z
					 M433.4,291.3c-1.3-3.7-2-7.7-2.1-12h8.7c0.1,4.2,0.3,8.2,0.8,12H433.4z"/>
				<path class="st3" d="M433.1,263.3v0.1c-1.3,3.8-2,8-2.2,12.3v0.2h9.4v-0.2c0.1-4.2,0.3-8.5,0.8-12.3v-0.2h-8V263.3z
					 M431.2,275.6c0.2-4.2,0.9-8.2,2.1-12h7.4c-0.5,3.7-0.7,7.8-0.8,12H431.2z"/>
				<path class="st3" d="M431.1,294.7L431.1,294.7l-5.7-0.1l0.2,0.3c2.9,3.9,6.7,7.2,11,9.3l0.8,0.4l-0.6-0.6
					C434.5,301.4,432.6,298.3,431.1,294.7z M426.1,294.9h4.8c1.4,3.3,3.1,6.2,5.2,8.6C432.1,301.4,428.7,298.5,426.1,294.9z"/>
				<path class="st3" d="M454.9,294.6h-10.3v0.2c1.4,8.2,3.7,12.4,5.1,12.4s3.7-4.3,5.1-12.4L454.9,294.6z M445,294.9h9.6
					c-1.5,8.3-3.7,12-4.8,12S446.5,303.2,445,294.9z"/>
				<path class="st3" d="M465.2,294.6H458v0.1c-0.8,4.7-1.8,8.4-3.1,11.1l-0.2,0.4l0.4-0.2c4-1.8,7.6-5.8,10-11.2L465.2,294.6z
					 M455.3,305.5c1.2-2.6,2.2-6.2,2.9-10.6h6.4C462.3,299.9,459,303.7,455.3,305.5z"/>
				<path class="st3" d="M474.1,294.6h-5.6v0.1c-1.5,3.6-3.4,6.7-5.7,9.2l-0.6,0.6l0.8-0.4c4.3-2.1,8.1-5.4,11-9.3L474.1,294.6z
					 M463.5,303.5c2-2.4,3.8-5.3,5.2-8.6h4.8C470.8,298.5,467.4,301.4,463.5,303.5z"/>
				<path class="st3" d="M441.5,294.7v-0.1h-7.2l0.1,0.2c2.5,5.4,6,9.3,10,11.2l0.4,0.2l-0.2-0.4
					C443.4,303.1,442.3,299.4,441.5,294.7z M434.8,294.9h6.4c0.7,4.4,1.7,8,2.9,10.6C440.5,303.7,437.2,299.9,434.8,294.9z"/>
				<path class="st3" d="M468.4,260.2L468.4,260.2l5.7,0.1l-0.2-0.3c-2.9-3.9-6.7-7.2-11-9.3l-0.8-0.4l0.6,0.6
					C465,253.5,466.9,256.6,468.4,260.2z M473.4,260h-4.8c-1.4-3.3-3.1-6.2-5.2-8.6C467.4,253.5,470.8,256.4,473.4,260z"/>
				<path class="st3" d="M468.6,275.8c-0.2-4.4-0.9-8.5-2.2-12.3v-0.1h-7.9v0.2c0.5,3.8,0.7,8,0.8,12.3v0.2h9.4L468.6,275.8z
					 M459.6,275.6c-0.1-4.1-0.3-8.2-0.8-12h7.4c1.3,3.7,2,7.7,2.1,12H459.6z"/>
				<path class="st3" d="M469.6,263.5c1.2,3.9,1.9,8,2,12.2v0.2h7.8v-0.2c-0.2-4.4-1.4-8.5-3.5-12.4v-0.1h-6.4L469.6,263.5z
					 M475.7,263.7c2,3.7,3.1,7.7,3.4,12H472c-0.2-4.2-0.8-8.2-2-12H475.7z"/>
				<path class="st3" d="M459.3,279.1c-0.1,4.2-0.3,8.5-0.8,12.3v0.2h7.9v-0.1c1.3-3.8,2-8,2.2-12.3V279h-9.4L459.3,279.1z
					 M468.3,279.3c-0.2,4.2-0.9,8.2-2.1,12h-7.4c0.5-3.7,0.7-7.9,0.8-12H468.3z"/>
				<path class="st3" d="M471.6,279.1c-0.1,4.3-0.8,8.4-2,12.2l-0.1,0.2h6.4v-0.1c2.1-3.8,3.2-8,3.5-12.4v-0.2h-7.8V279.1z
					 M479.1,279.3c-0.3,4.2-1.4,8.2-3.4,12H470c1.2-3.8,1.8-7.8,2-12H479.1z"/>
				<path class="st3" d="M458,260.2v0.1h7.2l-0.1-0.2c-2.5-5.4-6-9.3-10-11.2l-0.4-0.2l0.2,0.4C456.2,251.8,457.2,255.5,458,260.2z
					 M464.7,260h-6.4c-0.7-4.4-1.7-8-2.9-10.6C459,251.3,462.3,255,464.7,260z"/>
				<path class="st3" d="M444.6,260.3h10.3v-0.2c-1.4-8.2-3.7-12.4-5.1-12.4c-1.5,0-3.7,4.3-5.1,12.4L444.6,260.3z M449.8,248
					c1.1,0,3.3,3.7,4.8,12H445C446.5,251.7,448.7,248,449.8,248z"/>
				<path class="st3" d="M434.3,260.3h7.2v-0.1c0.8-4.7,1.8-8.4,3.1-11.1l0.2-0.4l-0.4,0.2c-4,1.8-7.6,5.8-10,11.2L434.3,260.3z
					 M444.2,249.4c-1.2,2.6-2.2,6.2-2.9,10.6h-6.4C437.2,255,440.5,251.3,444.2,249.4z"/>
				<path class="st3" d="M443.3,279.1c0.1,4.4,0.3,8.5,0.8,12.3v0.1h11.2v-0.1c0.5-3.8,0.8-7.9,0.8-12.3v-0.2h-12.9L443.3,279.1z
					 M455.9,279.3c-0.1,4.3-0.3,8.3-0.8,12h-10.7c-0.5-3.7-0.7-7.7-0.8-12H455.9z"/>
				<path class="st3" d="M456.2,275.8c-0.1-4.4-0.3-8.5-0.8-12.3v-0.1h-11.2v0.1c-0.5,3.8-0.8,7.9-0.8,12.3v0.2h12.9L456.2,275.8z
					 M443.6,275.6c0.1-4.3,0.3-8.3,0.8-12h10.7c0.5,3.7,0.7,7.7,0.8,12H443.6z"/>
			</g>
			<g>
				<g>
					<path class="st26" d="M309,77c-0.1-0.3-0.1-0.7-0.2-1l-1.1,0.7L309,77z"/>
				</g>
				<path class="st26" d="M331.8,84.2c2.6-2.7,4.1-6.3,4.1-10.1c0-8-6.5-14.4-14.4-14.4c-1.1,0-2.1,0.1-3.1,0.3
					c-2.1-5.4-7.3-9.2-13.4-9.2c-8,0-14.4,6.5-14.4,14.4c0,3.8,1.5,7.4,4.1,10.1c-15.4,5.6-15.4,24.2-15.4,35.6v1.6h16.6
					c-0.1,2.6-0.1,5-0.1,7.2v1.6h51.5v-1.6C347.3,108.4,347.3,89.7,331.8,84.2z M282.5,109.3c0-12.4,0.7-28.3,16-31.7l3.8-0.9
					l-3.3-2.1c-3.2-2.1-5.2-5.6-5.2-9.4c0-6.2,5-11.2,11.2-11.2c4.7,0,8.7,2.9,10.3,7c-4.9,2.3-8.3,7.3-8.3,13
					c0,3.8,1.5,7.4,4.1,10.1c-11.2,4.1-14.3,15-15.1,25.1h-13.5V109.3z M299,118.1c0-12.4,0.7-28.3,16-31.7l3.8-0.9l-3.3-2.1
					c-3.2-2.1-5.2-5.6-5.2-9.4c0-6.2,5-11.2,11.2-11.2s11.2,5,11.2,11.2c0,3.8-1.9,7.3-5.2,9.4l-3.3,2.1l3.8,0.9
					c15.3,3.4,15.9,19.3,16,31.7C344,118.1,299,118.1,299,118.1z"/>
			</g>
			<g>
				<g>
					<path class="st26" d="M179.1,308.1c-0.1,0-0.2,0-0.3,0h-0.3c-6.1-0.2-12-1.5-17.4-4c-4.2-1.9-8-4.4-11.4-7.5
						c-4.2-3.9-7.6-8.5-10.1-13.7c-1.5-3.2-2.6-6.5-3.3-10c-0.7-3.3-0.9-6.2-0.9-9c0-1.5,0.6-2.8,1.6-3.9l0.4-0.4c1-1,2-2.1,3.1-3
						c2.4-2.2,5.2-2.7,8.2-1.5c2.6,1,4.3,3,5.1,5.6l0.2,0.7c0.6,2,1.2,4,1.6,6.1c0.6,2.6-0.2,5.1-2.1,7.1c-0.5,0.5-1,1-1.5,1.5
						c1.8,5.5,5.2,9.9,10,13c1.6,1,3.4,1.9,5.4,2.5c0.5-0.5,1-1,1.5-1.5c2.2-2.1,4.8-2.8,7.7-2l1.3,0.3c1.9,0.5,3.8,1,5.7,1.7
						c2.3,0.9,4.2,2.8,5,5.2c0.8,2.3,0.5,4.7-0.8,6.8c-0.2,0.4-0.5,0.7-0.8,1l-0.7,0.8c-0.9,0.9-1.9,1.9-2.8,2.8
						c-1.1,1.1-2.5,1.4-3.8,1.5C179.5,308.1,179.3,308.1,179.1,308.1z M178.6,304.7c0.1,0,0.2,0,0.3,0s0.3,0,0.4,0
						c1-0.1,1.5-0.3,1.9-0.6c0.9-0.9,1.8-1.8,2.7-2.7l0.8-0.8c0.1-0.1,0.2-0.3,0.3-0.4c0.7-1.2,0.9-2.6,0.5-3.9
						c-0.5-1.4-1.6-2.6-3-3.1c-1.7-0.6-3.5-1.1-5.3-1.5l-1.4-0.3c-1.7-0.4-3.2,0-4.5,1.2c-0.6,0.6-1.2,1.2-1.8,1.8
						c-0.6,0.7-1.5,0.9-2.4,0.6c-2.6-0.8-4.8-1.8-6.8-3.1c-5.8-3.7-9.7-8.9-11.6-15.5c-0.2-0.8,0-1.6,0.6-2.3
						c0.7-0.6,1.3-1.3,1.9-1.9c1.2-1.2,1.6-2.5,1.2-4.1c-0.4-2-1-3.9-1.5-5.8l-0.2-0.7c-0.5-1.6-1.5-2.8-3.1-3.4
						c-1.8-0.7-3.3-0.5-4.7,0.8c-1,0.9-2,1.9-2.9,2.9l-0.4,0.4c-0.4,0.4-0.7,1-0.7,1.6c-0.1,2.5,0.2,5.2,0.8,8.3
						c0.6,3.2,1.7,6.3,3.1,9.2c2.3,4.8,5.4,9.1,9.3,12.6c3.1,2.9,6.6,5.2,10.5,7C167.5,303.4,172.9,304.6,178.6,304.7z"/>
				</g>
				<g>
					<path class="st26" d="M192.9,281.8c-1.3,0-2.6,0-3.8,0c-0.2-7.5-2.8-14-8.1-19.3s-11.8-7.9-19.3-8.1c0-0.6,0-1.3,0-1.9
						c0-0.6,0-1.3,0-1.9C177.5,250.1,193.1,263.7,192.9,281.8z"/>
					<path class="st26" d="M190.2,280.7h1.6c-0.2-7.7-3.4-14.9-9.1-20.4c-5.5-5.4-12.7-8.5-19.9-8.5v1.6c7.5,0.4,13.9,3.2,19,8.3
						C187,266.9,189.8,273.2,190.2,280.7z"/>
				</g>
				<g>
					<path class="st26" d="M181.2,281.8c-1.3,0-2.6,0-3.8,0c-1-9.5-6.2-14.7-15.7-15.7c0-1.2,0-2.5,0-3.7
						C171.4,262.1,181.2,270.2,181.2,281.8z"/>
					<path class="st26" d="M178.5,280.7h1.6c-0.3-4.6-2.2-8.9-5.5-12.1c-3.2-3.1-7.4-5-11.7-5.2v1.6
						C171.9,266.4,177.2,271.6,178.5,280.7z"/>
				</g>
				<g>
					<path class="st26" d="M161.7,274.1c3.9-0.2,7.9,3.4,7.7,7.7c-1.3,0-2.5,0-3.8,0c-0.3-2.3-1.6-3.6-3.9-3.9
						C161.7,276.6,161.7,275.3,161.7,274.1z"/>
					<path class="st26" d="M166.6,280.7h1.7c-0.2-1.3-0.9-2.6-1.9-3.6s-2.3-1.6-3.5-1.8v1.7C164.8,277.5,166.1,278.7,166.6,280.7z"
						/>
				</g>
			</g>
			<g>
				<path class="st18" d="M397.5,77.4h-9c-0.1,0-0.1,0-0.1,0h-0.8c1-2.7,1.7-5.7,1.1-8.9c-0.5-2.4-2-3.9-3.9-4l0,0c-2,0-3.5,1.6-4,4
					c-0.5,2.7-1.4,5.2-2.8,7.4c-0.3,0.5-0.6,1-0.9,1.5c-2.1,0.2-3.8,1.6-4.4,3.5h-0.1v-2.8h-11.7v27h11.7v-2.4h0.7
					c0.9,1.5,2.5,2.4,4.3,2.4H393c2.4,0,4.3-1.9,4.3-4.3v-0.3c0-0.8-0.2-1.6-0.6-2.3c1.3-0.7,2.2-2.1,2.2-3.7v-0.3
					c0-0.8-0.2-1.6-0.6-2.3c1.3-0.7,2.2-2.1,2.2-3.7V88c0-0.8-0.2-1.6-0.6-2.3c1.3-0.7,2.2-2.1,2.2-3.7v-0.3
					C401.7,79.3,399.8,77.4,397.5,77.4z M369.9,102.6h-6.6V80.7h6.6V102.6z M399.2,82c0,0.9-0.8,1.7-1.7,1.7h-1.6v2.6
					c0.9,0,1.7,0.8,1.7,1.7v0.3c0,0.9-0.8,1.7-1.7,1.7h-1.6v2.6c0.9,0,1.7,0.8,1.7,1.7v0.3c0,0.9-0.8,1.7-1.7,1.7h-1.6v2.6
					c0.9,0,1.7,0.8,1.7,1.7v0.3c0,0.9-0.8,1.7-1.7,1.7h-15.4c-1,0-2-0.6-2.4-1.6l-0.3-0.8h-2.3V83.5h2.3l0.1-1.2
					c0.1-1.3,1.2-2.4,2.5-2.4l1.1-0.1l0.4-0.6c0.4-0.6,0.8-1.3,1.2-2c1.5-2.5,2.5-5.2,3.1-8.2c0.2-1.2,0.8-1.9,1.5-1.9l0,0
					c1,0,1.3,1.5,1.4,1.9c0.5,2.6-0.2,5.2-1,7.7c-0.2,0.6-0.4,1.1-0.5,1.3l-1.2,1.9h14.2c0.9,0,1.7,0.8,1.7,1.7L399.2,82L399.2,82z"
					/>
			</g>
			<path class="st24" d="M420,195.2v35.4h47v-35.4L420,195.2L420,195.2z M443.5,215.9l-18.9-18.1h37.8L443.5,215.9z M436.5,212.8
				L422.7,226v-26.5L436.5,212.8z M438.4,214.7l5.1,4.9l5.1-4.9l13.7,13.2h-37.8L438.4,214.7z M450.6,212.8l13.8-13.2v26.5
				L450.6,212.8z"/>
		</g>
	</g>
	<g>
		<g>
			<g>
				<g>
					<path class="st27" d="M363.5,318.8H250c-2.5,0-4.6-2.1-4.6-4.6v-69.7c0-2.5,2.1-4.6,4.6-4.6h113.5c2.5,0,4.6,2.1,4.6,4.6v69.7
						C368,316.7,366,318.8,363.5,318.8z"/>
				</g>
			</g>
			<g>
				<g>
					<path class="st27" d="M242.9,320.8v1.7c0,2.6,2.1,4.8,4.8,4.8h118c2.6,0,4.8-2.1,4.8-4.8v-1.7c0-1.1-0.9-2.1-2.1-2.1H245
						C243.9,318.8,242.9,319.7,242.9,320.8z"/>
				</g>
			</g>
			<g>
				<g>
					<rect x="257.4" y="318.8" class="st27" width="18.5" height="1.4"/>
				</g>
				<g>
					<rect x="337.5" y="318.8" class="st27" width="18.5" height="1.4"/>
				</g>
			</g>
		</g>
		<g>
			
				<rect x="297.7" y="270.1" transform="matrix(0.7071 -0.7071 0.7071 0.7071 -107.5255 298.5829)" class="st27" width="17.9" height="17.9"/>
		</g>
	</g>
</g>
<text transform="matrix(1 0 0 1 745.75 239.9001)" class="st11 st28 st29">Contact Us</text>
</svg>
