<?xml version="1.0" encoding="utf-8"?>
<!-- Generator: Adobe Illustrator 22.0.0, SVG Export Plug-In . SVG Version: 6.00 Build 0)  -->
<svg version="1.1" id="Layer_1" xmlns="http://www.w3.org/2000/svg" xmlns:xlink="http://www.w3.org/1999/xlink" x="0px" y="0px"
	 viewBox="0 0 1367.5 707.4" style="enable-background:new 0 0 1367.5 707.4;" xml:space="preserve">
<style type="text/css">
	.st0{fill:#DBDBDB;}
	.st1{fill:#E8E8E8;}
	.st2{fill:#F2F2F2;}
	.st3{fill:#FFFFFF;}
	.st4{fill:#FFFFFF;stroke:#000000;stroke-width:0.25;stroke-miterlimit:10;}
	.st5{fill:none;stroke:#1AA1EA;stroke-width:5;stroke-miterlimit:10;}
	.st6{fill:#89B3BA;}
	.st7{fill:#D3D5D6;stroke:#000000;stroke-miterlimit:10;}
	.st8{fill:#363838;}
	.st9{fill:#A2A4A5;stroke:#000000;stroke-width:0.25;stroke-miterlimit:10;}
	.st10{fill:none;stroke:#000000;stroke-width:0.25;stroke-miterlimit:10;}
	.st11{fill:none;stroke:#000000;stroke-miterlimit:10;}
	.st12{fill:#7C7877;stroke:#000000;stroke-miterlimit:10;}
	.st13{fill:#222323;stroke:#000000;stroke-miterlimit:10;}
	.st14{fill:none;stroke:#FFFFFF;stroke-miterlimit:10;}
	.st15{fill:#ED9A23;}
	.st16{fill:#F3E798;}
	.st17{fill:#27AFA0;}
	.st18{display:none;fill:url(#SVGID_1_);stroke:#000000;stroke-width:0.25;stroke-miterlimit:10;}
	.st19{fill:#4585C5;}
	.st20{font-family:'MyriadPro-Regular';}
	.st21{font-size:12px;}
	.st22{display:none;opacity:0.18;fill:#046287;stroke:#000000;stroke-width:0.25;stroke-miterlimit:10;enable-background:new    ;}
	.st23{fill:#F26B21;}
	.st24{fill:#757575;}
	.st25{fill:#022633;}
	.st26{fill:#165D70;}
	.st27{font-size:112px;}
	.st28{fill:#221816;}
	.st29{fill:#606060;}
	.st30{fill:#E4E5E7;}
	.st31{fill:#7D8085;}
	.st32{fill:#DAE1E4;}
	.st33{fill:#211C1B;}
	.st34{fill:#BEC3C2;}
	.st35{fill:#645A58;}
	.st36{fill:none;stroke:#DBDBDB;stroke-width:2;stroke-miterlimit:10;}
	.st37{fill:#704E48;}
	.st38{fill:#6D524E;}
</style>
<title>genesis landing page</title>
<rect x="0.2" y="1.9" class="st0" width="1367" height="705.2"/>
<path class="st1" d="M1367.5,705.2V407c-44.6-10.4-71.1,32.1-201.8,53c-99.9,16-117-3.6-255.2,15.8c-70.2,9.9-122,22.9-160.2,34.4
	c-44.3,13.4-68.9,24.4-86.5,31c-121.8,45.6-244.4,5.3-367.4,17.2c-75.7,7.3-181.6,37.4-295.8,146c-0.2,0.2-0.3,0.4-0.5,0.7h1367.4
	V705.2z"/>
<path class="st2" d="M1367.5,705.2V407c-44.6-10.4-53,58.3-183.7,79.2c-99.9,16-117-3.6-255.2,15.8c-70.2,9.9-122,22.9-160.2,34.4
	c-44.3,13.4-68.9,24.4-86.5,31c-121.8,45.6-244.4,5.3-367.4,17.2c-75.7,7.3-199.8,11.2-314,119.8c-0.1,0.2-0.2,0.4-0.3,0.7
	L1367.5,705.2L1367.5,705.2z"/>
<g>
	<path class="st3" d="M1367.5,705.2V407c-44.6-10.4-61.5,75.5-192.2,96.4c-99.9,16-117-3.6-255.2,15.8
		c-70.2,9.9-122,22.9-160.2,34.4c-44.3,13.4-68.9,24.4-86.5,31C551.5,630.3,428.9,590,306,601.9c-75.7,7.3-191.2-6-305.4,102.6
		c-0.1,0.2-0.2,0.4-0.3,0.7H1367.5z"/>
</g>
<polygon class="st4" points="425.1,481.5 475.6,366.1 683.7,431.2 633.3,552.3 "/>
<polygon class="st5" points="418.7,485.4 473.7,360.3 686.9,430.2 635.3,555.3 "/>
<path class="st6" d="M220.4,195.8l-15.2,0.7c-1.1,0.1-2.1-0.7-2.2-1.8l-0.1-2c0-1.1,0.9-2,2-2l0,0L220,190c1.1-0.1,2.1,0.7,2.2,1.7
	l0.1,2C222.4,194.9,221.5,195.8,220.4,195.8L220.4,195.8z"/>
<path class="st7" d="M155.2,300.7c0,0-9.7,0-6.4,11.7l6.4,142.6c0,0,0,11.6,9.7,8.8l274.7-11.6c0,0,16.1,3,12.9-8.8l-6.5-142.6
	c0,0,0-14.5-16.1-11.6h-48.4v8.8l-171.3,5.8v-5.8L155.2,300.7z"/>
<rect x="182.7" y="314.6" class="st8" width="16.1" height="5.8"/>
<rect x="202.2" y="314" class="st8" width="16.1" height="5.8"/>
<rect x="221.5" y="314.3" class="st8" width="16.1" height="5.8"/>
<rect x="240.9" y="314" class="st8" width="16.1" height="5.8"/>
<rect x="260.4" y="313.5" class="st8" width="16.1" height="5.8"/>
<rect x="279.7" y="312.9" class="st8" width="16.1" height="5.8"/>
<rect x="299.1" y="312.2" class="st8" width="16.1" height="5.8"/>
<rect x="318.5" y="311.6" class="st8" width="16.1" height="5.8"/>
<rect x="337.9" y="310.8" class="st8" width="16.1" height="5.8"/>
<rect x="357.2" y="310.3" class="st8" width="16.1" height="5.8"/>
<rect x="376.7" y="309.7" class="st8" width="16.1" height="5.8"/>
<rect x="396.1" y="308.4" class="st8" width="16.1" height="5.8"/>
<rect x="415.4" y="307.3" class="st8" width="16.1" height="5.8"/>
<rect x="163.4" y="315.2" class="st8" width="16.1" height="5.8"/>
<rect x="163.4" y="325.4" class="st8" width="16.1" height="11.7"/>
<rect x="198.9" y="325.4" class="st8" width="12.9" height="11.7"/>
<rect x="182.7" y="325.4" class="st8" width="12.9" height="11.7"/>
<rect x="218.3" y="324" class="st8" width="12.9" height="11.7"/>
<rect x="234.5" y="324" class="st8" width="12.9" height="11.7"/>
<rect x="253.8" y="323.3" class="st8" width="12.9" height="11.7"/>
<rect x="270" y="322.5" class="st8" width="12.9" height="11.7"/>
<rect x="289.4" y="321.9" class="st8" width="12.9" height="11.7"/>
<rect x="305.6" y="321.2" class="st8" width="12.9" height="11.7"/>
<rect x="321.7" y="321.2" class="st8" width="12.9" height="11.7"/>
<rect x="341.1" y="320.4" class="st8" width="12.9" height="11.7"/>
<rect x="357.2" y="320.1" class="st8" width="12.9" height="11.7"/>
<rect x="376.7" y="319.5" class="st8" width="12.9" height="11.7"/>
<rect x="392.8" y="318.7" class="st8" width="12.9" height="11.7"/>
<rect x="402.5" y="334.1" class="st8" width="12.9" height="11.7"/>
<rect x="386.3" y="335.5" class="st8" width="12.9" height="11.7"/>
<rect x="367" y="335.5" class="st8" width="12.9" height="11.7"/>
<rect x="350.8" y="335.5" class="st8" width="12.9" height="11.7"/>
<rect x="331.5" y="337" class="st8" width="12.9" height="11.7"/>
<rect x="315.3" y="337" class="st8" width="12.9" height="11.7"/>
<rect x="295.8" y="337" class="st8" width="12.9" height="11.7"/>
<rect x="279.7" y="337" class="st8" width="12.9" height="11.7"/>
<rect x="260.4" y="338.7" class="st8" width="12.9" height="11.7"/>
<rect x="244.2" y="338.7" class="st8" width="12.9" height="11.7"/>
<rect x="227.9" y="338.7" class="st8" width="12.9" height="11.7"/>
<rect x="208.6" y="340" class="st8" width="12.9" height="11.7"/>
<rect x="192.4" y="340" class="st8" width="12.9" height="11.7"/>
<rect x="198.9" y="354.5" class="st8" width="12.9" height="11.7"/>
<rect x="215.1" y="353.9" class="st8" width="12.9" height="11.7"/>
<rect x="234.5" y="353.9" class="st8" width="12.9" height="11.7"/>
<rect x="250.6" y="353.9" class="st8" width="12.9" height="11.7"/>
<rect x="270" y="353.9" class="st8" width="12.9" height="11.7"/>
<rect x="286.1" y="353" class="st8" width="12.9" height="11.7"/>
<rect x="302.4" y="353" class="st8" width="12.9" height="11.7"/>
<rect x="321.7" y="353" class="st8" width="12.9" height="11.7"/>
<rect x="337.9" y="353" class="st8" width="12.9" height="11.7"/>
<rect x="373.5" y="350.1" class="st8" width="12.9" height="11.7"/>
<rect x="392.8" y="350.1" class="st8" width="12.9" height="11.7"/>
<rect x="383.1" y="366.3" class="st8" width="12.9" height="11.7"/>
<rect x="363.8" y="366.3" class="st8" width="12.9" height="11.7"/>
<rect x="363.8" y="380.6" class="st8" width="9.7" height="11.7"/>
<rect x="376.7" y="380.6" class="st8" width="9.7" height="11.7"/>
<rect x="389.6" y="386.4" class="st8" width="9.7" height="5.8"/>
<rect x="389.6" y="379.2" class="st8" width="9.7" height="5.8"/>
<rect x="421.9" y="386.4" class="st8" width="9.7" height="5.8"/>
<rect x="421.9" y="379.2" class="st8" width="9.7" height="5.8"/>
<rect x="402.5" y="386.4" class="st8" width="16.1" height="5.8"/>
<rect x="402.5" y="379.2" class="st8" width="16.1" height="5.8"/>
<rect x="347.6" y="366.3" class="st8" width="12.9" height="11.7"/>
<rect x="347.6" y="382.1" class="st8" width="12.9" height="11.7"/>
<rect x="331.5" y="367.6" class="st8" width="12.9" height="11.7"/>
<rect x="312" y="367.6" class="st8" width="12.9" height="11.7"/>
<rect x="295.8" y="367.6" class="st8" width="12.9" height="11.7"/>
<rect x="276.5" y="367.6" class="st8" width="12.9" height="11.7"/>
<rect x="260.4" y="367.6" class="st8" width="12.9" height="11.7"/>
<rect x="240.9" y="367.6" class="st8" width="12.9" height="11.7"/>
<rect x="224.7" y="369.1" class="st8" width="12.9" height="11.7"/>
<rect x="205.4" y="369.1" class="st8" width="12.9" height="11.7"/>
<rect x="163.4" y="383.6" class="st8" width="12.9" height="11.7"/>
<rect x="186" y="383.6" class="st8" width="12.9" height="11.7"/>
<rect x="205.4" y="383.6" class="st8" width="12.9" height="11.7"/>
<rect x="224.7" y="383.6" class="st8" width="12.9" height="11.7"/>
<rect x="409" y="348.6" class="st8" width="12.9" height="11.7"/>
<rect x="399.3" y="365" class="st8" width="35.5" height="11.7"/>
<rect x="357.2" y="350.1" class="st8" width="12.9" height="11.7"/>
<rect x="163.4" y="340" class="st8" width="25.9" height="11.7"/>
<rect x="163.4" y="354.5" class="st8" width="32.3" height="11.7"/>
<rect x="163.4" y="369.1" class="st8" width="35.5" height="11.7"/>
<rect x="240.9" y="382.1" class="st8" width="103.4" height="11.7"/>
<rect x="412.2" y="317.8" class="st8" width="19.4" height="11.7"/>
<polygon class="st8" points="418.7,340 418.7,334.1 431.5,334.1 431.5,354.5 425.1,354.5 425.1,340 "/>
<path class="st9" d="M257,403.9c0,0-3.2-5.8,6.4-5.8h55c0,0,6.4-3,6.4,3v37.8c0,0,3.2,8.8-9.7,8.8h-54.7c0,0-3.2,0-3.2-5.8
	L257,403.9z"/>
<line class="st10" x1="256.5" y1="434" x2="324.9" y2="434"/>
<line class="st10" x1="292.6" y1="447.6" x2="292.6" y2="434"/>
<path class="st11" d="M150.4,319.5c0,0-38.8,0-51.8,5.8c-12.9,5.8-35.6,17.3-9.7,26.3c27.4,9.4,18.1-18.7,12.9-23.3
	c-8.6-7.6-25.9-8.8-45.2,14.5c-19.4,23.3-38.7,26.3-61.4,17.5c-22.7-8.8-35.5-72.7-58.2-72.7s-16.1,17.5,0,14.5s25.9-52.4-29.1-84.4
	"/>
<polygon class="st12" points="158.5,294.9 142.4,172.6 429.9,160.9 429.9,286.1 "/>
<path class="st13" d="M152,300.7c0,0-6.4,3-9.7-8.8l-12.9-119.3c0,0-6.4-11.7,12.9-11.7l287.7-11.6c0,0,22.7-5.8,19.4,11.6
	l-3.2,122.3c0,0,0,11.7-6.4,5.8h-58.2v5.8l-168,8.8v-5.8h-55C158.5,297.7,155.2,300.7,152,300.7z"/>
<line class="st14" x1="161.8" y1="187.1" x2="171.4" y2="277.4"/>
<ellipse class="st3" cx="155.2" cy="195.9" rx="1.6" ry="1.5"/>
<ellipse class="st3" cx="156" cy="204.6" rx="1.6" ry="1.5"/>
<ellipse class="st3" cx="156.6" cy="213.3" rx="1.6" ry="1.5"/>
<ellipse class="st3" cx="157.6" cy="222" rx="1.6" ry="1.5"/>
<ellipse class="st3" cx="158.5" cy="230.8" rx="1.6" ry="1.5"/>
<ellipse class="st3" cx="159.5" cy="239.5" rx="1.6" ry="1.5"/>
<ellipse class="st3" cx="160.1" cy="248.3" rx="1.6" ry="1.5"/>
<ellipse class="st3" cx="161.1" cy="257" rx="1.6" ry="1.5"/>
<ellipse class="st3" cx="162.4" cy="265.7" rx="1.6" ry="1.5"/>
<ellipse class="st3" cx="163.4" cy="274.4" rx="1.6" ry="1.5"/>
<path class="st15" d="M194.5,197.1l-24.9,1.2c-1.1,0.1-2.1-0.7-2.2-1.8l-0.1-2c0-1.1,0.9-2,2-2l0,0l24.9-1.2
	c1.1-0.1,2.1,0.7,2.2,1.7l0.1,2C196.5,196.3,195.6,197.1,194.5,197.1z"/>
<path class="st15" d="M321.5,208.1l-24.9,1.2c-1.1,0.1-2.1-0.7-2.2-1.7l-0.1-2c0-1.1,0.9-2,2-2l0,0l24.9-1.2
	c1.1-0.1,2.1,0.7,2.2,1.7l0.1,2C323.6,207.1,322.6,208.1,321.5,208.1C321.6,208.1,321.5,208.1,321.5,208.1z"/>
<path class="st15" d="M206.5,231.5l-24.9,1.2c-1.1,0.1-2.1-0.7-2.2-1.7l-0.1-2.1c0-1.1,0.9-2,2-2l0,0l24.9-1.2
	c1.1-0.1,2.1,0.7,2.2,1.8l0.1,2C208.5,230.5,207.6,231.5,206.5,231.5L206.5,231.5z"/>
<path class="st6" d="M224.2,204.4l-44.2,2.3c-1.1,0.1-2.1-0.7-2.2-1.7l-0.1-2c0-1.1,0.9-2,2-2l0,0l44.2-2.3c1.1-0.1,2.1,0.7,2.2,1.8
	l0.1,2C226.2,203.4,225.2,204.4,224.2,204.4L224.2,204.4z"/>
<path class="st6" d="M218.8,222.1l-37.7,2c-1.1,0.1-2.1-0.7-2.2-1.8l-0.1-2c0-1.1,0.9-2,2-2l0,0l37.7-2c1.1-0.1,2.1,0.7,2.2,1.7
	l0.1,2.1C220.8,221.3,219.9,222.1,218.8,222.1L218.8,222.1z"/>
<path class="st6" d="M289.3,209.7l-28.1,1.5c-1.1,0.1-2.1-0.7-2.2-1.7l-0.1-2c0-1.1,0.9-2,2-2l0,0l28.1-1.5c1.1-0.1,2.1,0.7,2.2,1.7
	l0.1,2.1C291.2,208.8,290.3,209.7,289.3,209.7L289.3,209.7z"/>
<path class="st16" d="M262.9,202.3l-31.3,1.6c-1.1,0.1-2.1-0.7-2.2-1.8l-0.1-2c0-1.1,0.9-2,2-2l31.3-1.6c1.1-0.1,2.1,0.7,2.2,1.7
	l0.1,2.1C264.9,201.4,264.1,202.3,262.9,202.3L262.9,202.3z"/>
<path class="st16" d="M293,218.3l-66.8,3.5c-1.1,0.1-2.1-0.7-2.2-1.7l-0.1-2c0-1.1,0.9-2,2-2l0,0l66.8-3.5c1.1-0.1,2.1,0.7,2.2,1.7
	l0.1,2C295,217.3,294.1,218.3,293,218.3L293,218.3z"/>
<path class="st17" d="M295.2,200.7l-24.9,1.2c-1.1,0.1-2.1-0.7-2.2-1.7l-0.1-2c0-1.1,0.9-2,2-2l0,0l24.9-1.2
	c1.1-0.1,2.1,0.7,2.2,1.7l0.1,2C297.2,199.8,296.2,200.7,295.2,200.7L295.2,200.7z"/>
<path class="st17" d="M250.5,211.8l-70,3.6c-1.1,0.1-2.1-0.7-2.2-1.8l-0.1-2c0-1.1,0.9-2,2-2l0,0l70-3.6c1.1-0.1,2.1,0.7,2.2,1.8
	l0.1,2C252.5,210.8,251.6,211.8,250.5,211.8z"/>
<path class="st15" d="M200.6,240.5l-24.9,1.2c-1.1,0.1-2.1-0.7-2.2-1.7l-0.1-2c0-1.1,0.9-2,2-2l0,0l24.9-1.2
	c1.1-0.1,2.1,0.7,2.2,1.7l0.1,2C202.5,239.6,201.7,240.5,200.6,240.5L200.6,240.5z"/>
<path class="st15" d="M327.5,251.5l-24.9,1.2c-1.1,0.1-2.1-0.7-2.2-1.7l-0.1-2c0-1.1,0.9-2,2-2l0,0l24.9-1.2
	c1.1-0.1,2.1,0.7,2.2,1.8l0.1,2C329.5,250.6,328.6,251.5,327.5,251.5z"/>
<path class="st15" d="M212.4,274.9l-24.9,1.2c-1.1,0.1-2.1-0.7-2.2-1.7l-0.1-2.1c0-1.1,0.9-2,2-2l0,0l24.9-1.2
	c1.1-0.1,2.1,0.7,2.2,1.7l0.1,2.1C214.4,274,213.5,274.9,212.4,274.9z"/>
<path class="st6" d="M226.5,239.3l-15.2,0.7c-1.1,0.1-2.1-0.7-2.2-1.8l-0.1-2c0-1.1,0.9-2,2-2l0,0l15.2-0.9c1.1-0.1,2.1,0.7,2.2,1.8
	l0.1,2C228.4,238.3,227.6,239.2,226.5,239.3L226.5,239.3z"/>
<path class="st6" d="M230.2,247.8l-44.2,2.3c-1.1,0.1-2.1-0.7-2.2-1.7l-0.1-2.1c0-1.1,0.9-2,2-2l0,0l44.2-2.2
	c1.1-0.1,2.1,0.7,2.2,1.7l0.1,2.1C232.1,246.9,231.3,247.8,230.2,247.8z"/>
<path class="st16" d="M224.9,265.5l-37.7,2c-1.1,0.1-2.1-0.7-2.2-1.8l-0.1-2c0-1.1,0.9-2,2-2l0,0l37.7-2c1.1-0.1,2.1,0.7,2.2,1.7
	l0.1,2C226.8,264.7,226,265.5,224.9,265.5L224.9,265.5z"/>
<path class="st6" d="M295.2,253.1l-28.1,1.5c-1.1,0.1-2.1-0.7-2.2-1.7l-0.1-2.1c0-1.1,0.9-2,2-2l0,0l28.1-1.5
	c1.1-0.1,2.1,0.7,2.2,1.7l0.1,2C297.2,252.2,296.3,253.1,295.2,253.1L295.2,253.1z"/>
<path class="st16" d="M268.9,245.8l-31.3,1.6c-1.1,0.1-2.1-0.7-2.2-1.8l-0.1-2c0-1.1,0.9-2,2-2l0,0l31.3-1.6
	c1.1-0.1,2.1,0.7,2.2,1.7l0.1,2C270.8,244.8,270,245.8,268.9,245.8L268.9,245.8z"/>
<path class="st17" d="M299.1,261.7l-66.8,3.5c-1.1,0.1-2.1-0.7-2.2-1.7l-0.1-2c0-1.1,0.9-2,2-2l0,0l66.8-3.5
	c1.1-0.1,2.1,0.7,2.2,1.8l0.1,2C301,260.8,300.2,261.7,299.1,261.7z"/>
<path class="st17" d="M301.1,244.1l-24.9,1.2c-1.1,0.1-2.1-0.7-2.2-1.7l-0.1-2c0-1.1,0.9-2,2-2l0,0l24.9-1.2
	c1.1-0.1,2.1,0.7,2.2,1.8l0.1,2C303.1,243.2,302.3,244.1,301.1,244.1z"/>
<path class="st17" d="M256.5,255.2l-70,3.6c-1.1,0.1-2.1-0.7-2.2-1.7l-0.1-2c0-1.1,0.9-2,2-2l0,0l70-3.6c1.1-0.1,2.1,0.7,2.2,1.8
	l0.1,2C258.6,254.3,257.6,255.2,256.5,255.2L256.5,255.2z"/>
<linearGradient id="SVGID_1_" gradientUnits="userSpaceOnUse" x1="499.4544" y1="91.8896" x2="689.8781" y2="91.8896" gradientTransform="matrix(1 0 0 1 0.13 -133.9965)">
	<stop  offset="0" style="stop-color:#3FA9F5"/>
	<stop  offset="1" style="stop-color:#15557C"/>
</linearGradient>
<path class="st18" d="M690-232.5c-105.1,0-190.4,85.3-190.4,190.4S584.9,148.3,690,148.3"/>
<text transform="matrix(0.3772 -0.9261 0.9261 0.3772 445.6635 477.1051)" class="st19 st20 st21">Genesis Technologie</text>
<path class="st22" d="M-994.2-310.2v183.5c12.7-2.3,25-5.9,37-10.6c70.9-28.3,118-96.4,119.7-172.8h-156.7V-310.2z"/>
<path class="st19" d="M652.6,435.8l6.9,2.4c1.2,0.4,1.9,1.7,1.4,3l0,0l-9.2-3.2L652.6,435.8z"/>
<path class="st23" d="M645.5,435.8l4.7,1.6c0,0,0.5-1.4,1-2.1l-2.8-1C647.2,433.9,645.9,434.6,645.5,435.8z"/>
<path class="st19" d="M651.6,437.6c0,0.1-0.1,0.2-0.1,0.3l2.2,0.8c0-0.1,0-0.2,0.1-0.2c1.3-3.9,5.6-6,9.5-4.7s6,5.6,4.7,9.5
	c-1.3,3.9-5.6,6-9.5,4.7c-3-1-5-3.8-5.1-6.9l-2.3-0.8c-0.3,4.3,2.4,8.5,6.7,9.9c5.2,1.8,10.8-1,12.5-6.1s-1-10.8-6.1-12.5
	C659,429.7,653.4,432.4,651.6,437.6z"/>
<line class="st11" x1="490.4" y1="496.8" x2="535.4" y2="385.5"/>
<line class="st11" x1="499.8" y1="500.6" x2="544.8" y2="389.3"/>
<line class="st11" x1="509.2" y1="504.4" x2="554.2" y2="393.1"/>
<line class="st11" x1="518.6" y1="508.2" x2="563.6" y2="396.9"/>
<line class="st11" x1="528.1" y1="512" x2="573" y2="400.7"/>
<line class="st11" x1="537.5" y1="515.8" x2="560.1" y2="459.8"/>
<path class="st7" d="M470.1,343.1l38.8-8.8c0,0,6.7-3.1,10,5.5c3.3,8.6,22.7,69.9,22.7,69.9c-0.2,3.9-2.8,7.3-6.4,8.8
	c-6.5,3-32.3,8.8-32.3,8.8s-9.7,3-12.9-3c-3.2-5.9-22.6-69.9-22.6-69.9S464,345.8,470.1,343.1z"/>
<ellipse class="st10" cx="517.2" cy="417" rx="4.8" ry="4.3"/>
<polygon class="st9" points="470.3,353.2 489.8,415.6 535.1,403.9 515.5,338.6 "/>
<g>
	<g>
		<path class="st24" d="M565.9,427L600.8,531c0,0-3.7,3.7-8.1,2.8l-35.9-104.1L565.9,427z"/>
		<polygon class="st24" points="584.5,499.5 586,498.9 587.3,499.5 599.2,534.4 596.3,535.6 584.3,500.7 		"/>
		<polygon class="st24" points="563.6,422.3 565.2,427.2 557.8,429.4 556.3,424.8 		"/>
		<polygon class="st24" points="563.2,422.4 556,408.6 553.7,409.4 556.6,424.7 		"/>
		<polygon class="st24" points="555.7,408.7 553.7,405.4 554.1,409.3 		"/>
		<polygon class="st24" points="586.5,488.4 578.2,491.7 579.1,494.3 587.5,491.2 		"/>
	</g>
	<path class="st25" d="M563.4,427l34.9,104.1c0,0-3.7,3.7-8.1,2.8l-35.9-104.1L563.4,427z"/>
	<polygon class="st26" points="581.9,499.5 583.5,498.9 584.7,499.6 596.6,534.4 593.7,535.6 581.8,500.7 	"/>
	<polygon class="st25" points="561,422.3 562.6,427.3 555.3,429.4 553.7,424.8 	"/>
	<polygon class="st26" points="560.7,422.4 553.4,408.7 551.1,409.5 554,424.7 	"/>
	<polygon points="553.1,408.8 551.2,405.4 551.6,409.3 	"/>
	<polygon class="st26" points="583.9,488.4 575.6,491.7 576.5,494.3 584.9,491.2 	"/>
</g>
<text transform="matrix(1 0 0 1 700.9269 247.2762)" class="st20 st27">Development</text>
<image style="display:none;overflow:visible;" width="300" height="168" xlink:href="../../../../Users/miky/Downloads/cup1.jpg"  transform="matrix(1 0 0 1 506.4006 807.8398)">
</image>
<g>
	<path class="st28" d="M723.5,350c7.9,15.3-28,50.2-66.9,48c-61.9-3.4-71.6-37.3-53.5-57.7c10.4-11.7,22.7,0.9,53.5,0.9
		C687.4,341.2,716.3,336,723.5,350z"/>
	<path class="st29" d="M659.5,248.9c-26.9,0-44.7,17.7-44.7,30.5c0,12.8,17.8,23.2,44.7,23.2s41-15.9,41-28.7
		C700.5,261.1,686.4,248.9,659.5,248.9z M660.8,301c-19.4,0-38.8-3.5-38.8-15s17.6-24.3,37-24.3c19.4,0,37,7,37,18.5
		S680.3,301,660.8,301z"/>
	<path class="st30" d="M726.5,340.9c-2.2,18.1-30.7,41.6-62.4,41c-32.3-0.5-65.2-18.7-65.3-42.7c-0.1-17.6,27.8-64.2,59.8-64.2
		C690.6,275.1,731.8,296.6,726.5,340.9z"/>
	<path class="st31" d="M632,330.9l-25.3,28c0,0,27.6,33.4,72.4,21.6c4-2,3.4-4.8,8.5-13.9c1.6-2.8,43.9-19.4,3.4-36.7
		C690.9,329.9,656.5,375.5,632,330.9z"/>
	<path class="st32" d="M689.8,341.9c0,0,25-1.4,0,17V341.9z"/>
	<path class="st33" d="M695.8,281.1c0,11.5-15.7,20.8-35.2,20.8c-19.4,0-38.8-3.5-38.8-15c0-11.5,17.6-24.3,37-24.3
		C678.2,262.6,695.8,269.6,695.8,281.1z"/>
	<path class="st34" d="M697.6,265.6c-0.5-2.5,8.2-8.5,10-9.4c6.5-3.4,13.9,0.9,16.4,7.3c2.2,5.7-0.4,12.2-3.1,17.2
		c-5.2,9.5-13.3,17.7-21.6,24.6c-0.6,0.5-1.2,1-1.8,1.5l1.4-12.7c0,0,34.3-51.4,0.6-18.9C699.4,275.1,697.6,265.6,697.6,265.6z"/>
	<path class="st35" d="M614.4,287.5c0,0,14.5,57.4,31.2,61.7c13.4,3.5,30.6,4.2,40.5-7.2c4.6-5.2,6.5-12.9,8.2-19.5
		c4.2-16.1,4.3-31.1,6.6-47.5C702.6,284.5,670.9,322.9,614.4,287.5z"/>
	<path class="st36" d="M699.4,273.3c0,12.8-14.1,28.7-41,28.7s-44.7-10.4-44.7-23.2c0-12.8,17.8-30.5,44.7-30.5
		S699.4,260.5,699.4,273.3z"/>
	<g>
		<image style="overflow:visible;" width="36" height="29" xlink:href="97044717.png"  transform="matrix(1 0 0 1 632 268.4)">
		</image>
		
			<ellipse transform="matrix(0.9739 -0.2268 0.2268 0.9739 -45.4808 152.8414)" class="st37" cx="642.4" cy="274.4" rx="0.6" ry="0.5"/>
		
			<ellipse transform="matrix(0.9739 -0.2268 0.2268 0.9739 -44.7034 151.7472)" class="st37" cx="638.1" cy="270.4" rx="1.3" ry="1"/>
		
			<ellipse transform="matrix(0.9739 -0.2268 0.2268 0.9739 -45.9286 151.5881)" class="st37" cx="636.8" cy="275.7" rx="0.3" ry="0.2"/>
		
			<ellipse transform="matrix(0.9739 -0.2268 0.2268 0.9739 -47.0743 150.7837)" class="st37" cx="632.7" cy="280.3" rx="0.5" ry="0.4"/>
		
			<ellipse transform="matrix(0.9739 -0.2268 0.2268 0.9739 -45.0382 152.35)" class="st37" cx="640.5" cy="272.2" rx="0.5" ry="0.4"/>
		
			<ellipse transform="matrix(0.9739 -0.2268 0.2268 0.9739 -46.3016 151.7213)" class="st37" cx="637.2" cy="277.4" rx="0.6" ry="0.5"/>
		
			<ellipse transform="matrix(0.9739 -0.2268 0.2268 0.9739 -46.1855 152.7599)" class="st37" cx="641.7" cy="277.4" rx="1.4" ry="1.1"/>
		<ellipse transform="matrix(0.9739 -0.2268 0.2268 0.9739 -47.4211 151.3352)" class="st37" cx="634.9" cy="282" rx="1.3" ry="1"/>
		
			<ellipse transform="matrix(0.9739 -0.2268 0.2268 0.9739 -45.633 151.4047)" class="st37" cx="636.1" cy="274.3" rx="0.3" ry="0.2"/>
		
			<ellipse transform="matrix(0.9739 -0.2268 0.2268 0.9739 -45.0523 151.0084)" class="st37" cx="634.7" cy="271.6" rx="0.5" ry="0.4"/>
		
			<ellipse transform="matrix(0.9739 -0.2268 0.2268 0.9739 -45.4553 151.7355)" class="st37" cx="637.6" cy="273.7" rx="0.5" ry="0.4"/>
		
			<ellipse transform="matrix(0.9739 -0.2268 0.2268 0.9739 -47.9156 150.6288)" class="st37" cx="631.6" cy="283.8" rx="0.6" ry="0.5"/>
		
			<ellipse transform="matrix(0.9739 -0.2268 0.2268 0.9739 -45.991 150.9021)" class="st37" cx="633.7" cy="275.6" rx="1.3" ry="1"/>
		
			<ellipse transform="matrix(0.9739 -0.2268 0.2268 0.9739 -46.9915 151.1818)" class="st37" cx="634.5" cy="280.1" rx="0.3" ry="0.2"/>
		
			<ellipse transform="matrix(0.9739 -0.2268 0.2268 0.9739 -46.3861 152.1985)" class="st37" cx="639.2" cy="278" rx="0.6" ry="1.8"/>
		
			<ellipse transform="matrix(0.9739 -0.2268 0.2268 0.9739 -46.6765 151.3858)" class="st37" cx="635.5" cy="278.8" rx="0.5" ry="0.4"/>
		
			<ellipse transform="matrix(0.9739 -0.2268 0.2268 0.9739 -45.3619 151.1884)" class="st37" cx="635.3" cy="273" rx="0.5" ry="0.4"/>
		
			<ellipse transform="matrix(0.9739 -0.2268 0.2268 0.9739 -46.6264 150.8125)" class="st37" cx="633" cy="278.3" rx="0.6" ry="0.5"/>
		
			<ellipse transform="matrix(0.9739 -0.2268 0.2268 0.9739 -48.4117 149.9063)" class="st37" cx="628.2" cy="285.6" rx="1.4" ry="1.1"/>
		
			<ellipse transform="matrix(0.9739 -0.2268 0.2268 0.9739 -46.9572 151.9556)" class="st37" cx="637.8" cy="280.3" rx="1.3" ry="1"/>
		
			<ellipse transform="matrix(0.9739 -0.2268 0.2268 0.9739 -45.5827 152.2113)" class="st37" cx="639.6" cy="274.5" rx="0.3" ry="0.2"/>
		
			<ellipse transform="matrix(0.9739 -0.2268 0.2268 0.9739 -46.3778 151.168)" class="st37" cx="634.7" cy="277.4" rx="0.5" ry="0.4"/>
		
			<ellipse transform="matrix(0.9739 -0.2268 0.2268 0.9739 -47.299 151.7611)" class="st37" cx="636.8" cy="281.7" rx="0.5" ry="0.4"/>
	</g>
</g>
<g>
	<g>
		<path class="st38" d="M632.3,183.8c2.8,3,5.3,6.3,7.1,10.1c1.8,3.8,2.9,8.1,2.9,12.3c0.1,4.3-0.6,8.5-1.4,12.4l-0.5,2.9
			c-0.1,0.9-0.3,1.9-0.4,2.9c-0.3,1.9-0.5,3.9-0.6,5.8c-0.3,3.8-0.2,7.7,0.4,11.2c0.5,3.5,1.4,6.7,2.7,8.9l0.5,0.8l0.1,0.2l0.3,0.4
			l0.6,0.7c0.4,0.5,0.8,1.1,1.1,1.7c0.4,0.6,0.7,1.2,0.9,1.9c0.3,0.6,0.4,1.4,0.6,2.1c0.1,0.7,0.2,1.5,0.2,2.2
			c0,1.4-0.3,2.8-0.7,3.9c-0.8,2.3-1.9,4-2.9,5.8c-1,1.7-2,3.4-2.9,5.3l-0.9-0.1c-0.4-2.1-0.3-4.3-0.1-6.4c0.2-2.1,0.6-4.1,0.5-5.7
			l0-0.6c0-0.2,0-0.4-0.1-0.5c0-0.4-0.1-0.6-0.2-0.9c-0.1-0.3-0.2-0.5-0.3-0.8c-0.2-0.2-0.2-0.5-0.5-0.7c-0.2-0.2-0.3-0.4-0.6-0.7
			c-0.2-0.2-0.4-0.5-0.7-0.7c-0.1-0.1-0.3-0.2-0.4-0.4l-0.2-0.2l-0.4-0.4c-0.5-0.5-1-1-1.4-1.5c-1.7-2.1-2.8-4.5-3.5-6.8
			c-0.7-2.3-0.9-4.6-0.9-6.9c0-4.5,0.6-8.7,1.4-12.8c0.4-2.1,0.8-4.1,1.3-6.1c0.2-1,0.5-2,0.8-3l0.9-2.9c1.2-3.8,2.3-7.5,2.7-11.2
			c0.5-3.7,0-7.5-1.1-11.2c-1.1-3.7-3-7.2-5.1-10.5L632.3,183.8z"/>
	</g>
	<g>
		<path class="st38" d="M651.7,182.7c2.8,3,5.3,6.3,7.1,10.1c1.8,3.8,2.9,8.1,2.9,12.3c0.1,4.3-0.6,8.5-1.4,12.4l-0.5,2.9
			c-0.1,0.9-0.3,1.9-0.4,2.9c-0.3,1.9-0.5,3.9-0.6,5.8c-0.3,3.8-0.2,7.7,0.4,11.2c0.5,3.5,1.4,6.7,2.7,8.9l0.5,0.8l0.1,0.2l0.3,0.4
			l0.6,0.7c0.4,0.5,0.8,1.1,1.1,1.7c0.4,0.6,0.7,1.2,0.9,1.9c0.3,0.6,0.4,1.4,0.6,2.1c0.1,0.7,0.2,1.5,0.2,2.2
			c0,1.4-0.3,2.8-0.7,3.9c-0.8,2.3-1.9,4-2.9,5.8c-1,1.7-2,3.4-2.9,5.3l-0.9-0.1c-0.4-2.1-0.3-4.3-0.1-6.4c0.2-2.1,0.6-4.1,0.5-5.7
			l0-0.6c0-0.2,0-0.4-0.1-0.5c0-0.4-0.1-0.6-0.2-0.9c-0.1-0.3-0.2-0.5-0.3-0.8c-0.2-0.2-0.2-0.5-0.5-0.7c-0.2-0.2-0.3-0.4-0.6-0.7
			c-0.2-0.2-0.4-0.5-0.7-0.7c-0.1-0.1-0.3-0.2-0.4-0.4l-0.2-0.2l-0.4-0.4c-0.5-0.5-1-1-1.4-1.5c-1.7-2.1-2.8-4.5-3.5-6.8
			c-0.7-2.3-0.9-4.6-0.9-6.9c0-4.5,0.6-8.7,1.4-12.8c0.4-2.1,0.8-4.1,1.3-6.1c0.2-1,0.5-2,0.8-3l0.9-2.9c1.2-3.8,2.3-7.5,2.7-11.2
			c0.5-3.7,0-7.5-1.1-11.2c-1.1-3.7-3-7.2-5.1-10.5L651.7,182.7z"/>
	</g>
	<g>
		<path class="st38" d="M669.7,183.8c2.8,3,5.3,6.3,7.1,10.1c1.8,3.8,2.9,8.1,2.9,12.3c0.1,4.3-0.6,8.5-1.4,12.4l-0.5,2.9
			c-0.1,0.9-0.3,1.9-0.4,2.9c-0.3,1.9-0.5,3.9-0.6,5.8c-0.3,3.8-0.2,7.7,0.4,11.2c0.5,3.5,1.4,6.7,2.7,8.9l0.5,0.8l0.1,0.2l0.3,0.4
			l0.6,0.7c0.4,0.5,0.8,1.1,1.1,1.7c0.4,0.6,0.7,1.2,0.9,1.9c0.3,0.6,0.4,1.4,0.6,2.1c0.1,0.7,0.2,1.5,0.2,2.2
			c0,1.4-0.3,2.8-0.7,3.9c-0.8,2.3-1.9,4-2.9,5.8c-1,1.7-2,3.4-2.9,5.3l-0.9-0.1c-0.4-2.1-0.3-4.3-0.1-6.4c0.2-2.1,0.6-4.1,0.5-5.7
			l0-0.6c0-0.2,0-0.4-0.1-0.5c0-0.4-0.1-0.6-0.2-0.9c-0.1-0.3-0.2-0.5-0.3-0.8c-0.2-0.2-0.2-0.5-0.5-0.7c-0.2-0.2-0.3-0.4-0.6-0.7
			c-0.2-0.2-0.4-0.5-0.7-0.7c-0.1-0.1-0.3-0.2-0.4-0.4l-0.2-0.2l-0.4-0.4c-0.5-0.5-1-1-1.4-1.5c-1.7-2.1-2.8-4.5-3.5-6.8
			c-0.7-2.3-0.9-4.6-0.9-6.9c0-4.5,0.6-8.7,1.4-12.8c0.4-2.1,0.8-4.1,1.3-6.1c0.2-1,0.5-2,0.8-3l0.9-2.9c1.2-3.8,2.3-7.5,2.7-11.2
			c0.5-3.7,0-7.5-1.1-11.2c-1.1-3.7-3-7.2-5.1-10.5L669.7,183.8z"/>
	</g>
</g>
</svg>
