<?xml version="1.0" encoding="utf-8"?>
<!-- Generator: Adobe Illustrator 22.0.0, SVG Export Plug-In . SVG Version: 6.00 Build 0)  -->
<svg version="1.1" id="Layer_1" xmlns="http://www.w3.org/2000/svg" xmlns:xlink="http://www.w3.org/1999/xlink" x="0px" y="0px"
	 viewBox="0 0 1367.5 707.4" style="enable-background:new 0 0 1367.5 707.4;" xml:space="preserve">
<style type="text/css">
	.st0{fill:#DBDBDB;}
	.st1{fill:#E8E8E8;}
	.st2{fill:#F2F2F2;}
	.st3{fill:#FFFFFF;}
	.st4{display:none;fill:#C4E4E0;}
	.st5{fill:#C1C1C1;}
	.st6{fill:#F15146;}
	.st7{fill:#202135;}
	.st8{fill:#97989B;}
	.st9{fill:#767777;}
	.st10{font-family:'MyriadPro-Regular';}
	.st11{font-size:18px;}
	.st12{fill:#0C3655;}
	.st13{fill:#EB5A4A;}
	.st14{fill:#163859;}
	.st15{fill:#074469;}
	.st16{fill:#F35B53;}
	.st17{fill:#DA6355;}
	.st18{fill:#BD4F50;}
	.st19{font-size:91px;}
	.st20{fill:#4D514F;}
	.st21{fill:#FF9300;}
	.st22{fill:#00243B;}
</style>
<rect x="0.5" y="0" class="st0" width="1367" height="705.2"/>
<path class="st1" d="M1367.5,705.2V407c-44.6-10.4-71.1,32.1-201.8,53c-99.9,16-117-3.6-255.2,15.8c-70.2,9.9-122,22.9-160.2,34.4
	c-44.3,13.4-68.9,24.4-86.5,31c-121.8,45.6-244.4,5.3-367.4,17.2c-75.7,7.3-181.6,37.4-295.8,146c-0.2,0.2-0.3,0.4-0.5,0.7h1367.4
	V705.2z"/>
<path class="st2" d="M1367.5,705.2V407c-44.6-10.4-53,58.3-183.7,79.2c-99.9,16-117-3.6-255.2,15.8c-70.2,9.9-122,22.9-160.2,34.4
	c-44.3,13.4-68.9,24.4-86.5,31c-121.8,45.6-244.4,5.3-367.4,17.2c-75.7,7.3-199.8,11.2-314,119.8c-0.1,0.2-0.2,0.4-0.3,0.7
	L1367.5,705.2L1367.5,705.2z"/>
<g>
	<path class="st3" d="M1367.5,705.2V407c-44.6-10.4-61.5,75.5-192.2,96.4c-99.9,16-117-3.6-255.2,15.8
		c-70.2,9.9-122,22.9-160.2,34.4c-44.3,13.4-68.9,24.4-86.5,31C551.5,630.3,428.9,590,306,601.9c-75.7,7.3-191.2-6-305.4,102.6
		c-0.1,0.2-0.2,0.4-0.3,0.7H1367.5z"/>
</g>
<title>genesis landing page</title>
<circle class="st4" cx="219.6" cy="314.5" r="160.2"/>
<path class="st5" d="M104.7,198.2c-14.6,2.4-29.2,4.9-37.8,18.3c-9.7,14.6-9.7,36.5-7.3,56s7.3,40.2,3.7,58.5
	c-6.1,29.2-30.5,47.5-31.7,78c-1.2,20.7,11,40.2,25.6,51.2s31.7,12.2,48.7,9.7c64.6-8.5,115.7-76.7,181.5-78
	c29.2-1.2,64.6,11,86.5-12.2c18.3-19.5,20.7-54.8,8.5-81.6c-19.5-46.3-75.5-73.1-112.1-87.7C215.5,190.9,159.5,189.6,104.7,198.2"/>
<path class="st6" d="M376.5,187.8l-57.4,42.4c-0.6,0.4-0.7,1.2-0.3,1.8l2.5,3.4c0.4,0.6,1.2,0.7,1.8,0.3l57.4-42.4
	c0.6-0.4,0.7-1.2,0.3-1.8l-2.5-3.4C377.9,187.5,377.1,187.4,376.5,187.8z"/>
<path class="st6" d="M361.8,284.8l102.7-24.2c0.7-0.2,1.1-0.8,0.9-1.5l-1-4.2c-0.2-0.7-0.8-1.1-1.5-0.9l-102.7,24.2
	c-0.7,0.2-1.1,0.8-0.9,1.5l1,4.2C360.4,284.5,361.1,284.9,361.8,284.8z"/>
<path class="st6" d="M412.3,348.6L345.8,337c-0.7-0.1-1.3,0.3-1.5,1l-0.7,4.2c-0.1,0.7,0.3,1.3,1,1.5l66.5,11.6
	c0.7,0.1,1.3-0.3,1.5-1l0.7-4.2C413.4,349.4,413,348.7,412.3,348.6z"/>
<image style="display:none;overflow:visible;enable-background:new    ;" width="225" height="225" xlink:href="../../../../Users/miky/Downloads/megaphone13.jpg"  transform="matrix(1 0 0 1 104 225.3333)">
</image>
<path class="st7" d="M173.5,417.1c0,0,20.1,18.1,5.2,28.1c-14.9,10,0,0,0,0L173.5,417.1"/>
<path class="st8" d="M498,210.9h-23.1c-2.3,0-4.3,1.9-4.3,4.3v23.1c0,2.3,1.9,4.3,4.3,4.3h11.4v-11.3h-2.9c-0.4,0-0.7-0.3-0.7-0.7
	V227c0-0.4,0.3-0.7,0.7-0.7h2.9v-3.5c0-4.1,2.5-6.3,6.1-6.3h3c0.4,0,0.7,0.3,0.7,0.7v3.1c0,0.4-0.3,0.7-0.7,0.7h-1.8
	c-2,0-2.4,0.9-2.4,2.3v3h4.3c0.4,0,0.7,0.4,0.7,0.8l-0.4,3.6c0,0.3-0.3,0.6-0.7,0.6h-3.9v11.3h6.8c2.3,0,4.3-1.9,4.3-4.3v-23.1
	C502.3,212.8,500.4,210.9,498,210.9z"/>
<path class="st8" d="M743.5,153.6h-8.7c-0.9,0-1.6,0.7-1.6,1.6v8.7c0,0.9,0.7,1.6,1.6,1.6h4.3v-4.3H738c-0.1,0-0.3-0.1-0.3-0.3v-1.4
	c0-0.1,0.1-0.3,0.3-0.3h1.1v-1.3c0-1.5,0.9-2.4,2.3-2.4h1.1c0.1,0,0.3,0.1,0.3,0.3v1.2c0,0.1-0.1,0.3-0.3,0.3h-0.7
	c-0.7,0-0.9,0.4-0.9,0.9v1.2h1.6c0.2,0,0.3,0.1,0.3,0.3l-0.2,1.4c0,0.1-0.1,0.2-0.3,0.2H741v4.3h2.6c0.9,0,1.6-0.7,1.6-1.6v-8.7
	C745.1,154.4,744.4,153.6,743.5,153.6z"/>
<path class="st8" d="M1019.6,62.3h-8.7c-0.9,0-1.6,0.7-1.6,1.6v8.7c0,0.9,0.7,1.6,1.6,1.6h4.3v-4.3h-1.1c-0.1,0-0.3-0.1-0.3-0.3
	v-1.4c0-0.1,0.1-0.3,0.3-0.3h1.1v-1.3c0-1.5,0.9-2.4,2.3-2.4h1.1c0.1,0,0.3,0.1,0.3,0.3v1.2c0,0.1-0.1,0.3-0.3,0.3h-0.7
	c-0.7,0-0.9,0.4-0.9,0.9v1.2h1.6c0.2,0,0.3,0.1,0.3,0.3l-0.2,1.4c0,0.1-0.1,0.2-0.3,0.2h-1.5v4.3h2.6c0.9,0,1.6-0.7,1.6-1.6V64
	C1021.2,63,1020.5,62.3,1019.6,62.3z"/>
<path class="st8" d="M1025.6,153.6h-8.7c-0.9,0-1.6,0.7-1.6,1.6v8.7c0,0.9,0.7,1.6,1.6,1.6h4.3v-4.3h-1.1c-0.1,0-0.3-0.1-0.3-0.3
	v-1.4c0-0.1,0.1-0.3,0.3-0.3h1.1v-1.3c0-1.5,0.9-2.4,2.3-2.4h1.1c0.1,0,0.3,0.1,0.3,0.3v1.2c0,0.1-0.1,0.3-0.3,0.3h-0.7
	c-0.7,0-0.9,0.4-0.9,0.9v1.2h1.6c0.2,0,0.3,0.1,0.3,0.3l-0.2,1.4c0,0.1-0.1,0.2-0.3,0.2h-1.5v4.3h2.6c0.9,0,1.6-0.7,1.6-1.6v-8.7
	C1027.2,154.4,1026.4,153.6,1025.6,153.6z"/>
<path class="st8" d="M623.3,255.2c-0.7,0.3-1.4,0.6-2.2,0.7c0.8-0.8,1.5-1.8,1.8-2.9l0,0c0.1-0.3-0.2-0.6-0.5-0.4l0,0
	c-1,0.6-2.2,1.1-3.4,1.4c-0.1,0-0.1,0-0.2,0c-0.2,0-0.4-0.1-0.6-0.2c-1.3-1.1-2.9-1.7-4.5-1.7c-0.7,0-1.5,0.1-2.2,0.3
	c-2.2,0.7-3.9,2.5-4.5,4.8c-0.2,0.8-0.3,1.7-0.2,2.5c0,0.1,0,0.2-0.1,0.2c0,0.1-0.1,0.1-0.2,0.1l0,0c-4.9-0.5-9.3-2.8-12.4-6.6l0,0
	c-0.2-0.2-0.5-0.2-0.6,0l0,0c-0.6,1-0.9,2.2-0.9,3.5c0,1.9,0.7,3.6,2,4.9c-0.5-0.1-1.1-0.3-1.6-0.6l0,0c-0.2-0.1-0.5,0-0.5,0.3l0,0
	c0,2.8,1.6,5.2,4,6.3h-0.1c-0.4,0-0.8,0-1.2-0.1l0,0c-0.3-0.1-0.5,0.2-0.4,0.5l0,0c0.8,2.5,2.9,4.3,5.4,4.7
	c-2.1,1.4-4.5,2.2-7.1,2.2h-0.8c-0.2,0-0.5,0.2-0.5,0.4c-0.1,0.2,0.1,0.5,0.3,0.6c2.9,1.7,6.1,2.6,9.5,2.6c2.9,0,5.6-0.6,8.1-1.7
	c2.3-1,4.2-2.5,5.9-4.4c1.6-1.8,2.8-3.8,3.6-6.1c0.8-2.2,1.2-4.5,1.2-6.6v-0.1c0-0.4,0.2-0.7,0.4-0.9c1.1-0.9,2-1.9,2.7-3l0,0
	C624,255.4,623.7,255.1,623.3,255.2L623.3,255.2z"/>
<path class="st8" d="M940.7,155.4c-0.7,0.3-1.4,0.6-2.2,0.7c0.8-0.8,1.5-1.8,1.8-2.9l0,0c0.1-0.3-0.2-0.6-0.5-0.4l0,0
	c-1,0.6-2.2,1.1-3.4,1.4c-0.1,0-0.1,0-0.2,0c-0.2,0-0.4-0.1-0.6-0.2c-1.3-1.1-2.9-1.7-4.5-1.7c-0.7,0-1.5,0.1-2.2,0.3
	c-2.2,0.7-3.9,2.5-4.5,4.8c-0.2,0.8-0.3,1.7-0.2,2.5c0,0.1,0,0.2-0.1,0.2c0,0.1-0.1,0.1-0.2,0.1l0,0c-4.9-0.5-9.3-2.8-12.4-6.6l0,0
	c-0.2-0.2-0.5-0.2-0.6,0l0,0c-0.6,1-0.9,2.2-0.9,3.5c0,1.9,0.7,3.6,2,4.9c-0.5-0.1-1.1-0.3-1.6-0.6l0,0c-0.2-0.1-0.5,0-0.5,0.3l0,0
	c0,2.8,1.6,5.2,4,6.3h-0.1c-0.4,0-0.8,0-1.2-0.1l0,0c-0.3-0.1-0.5,0.2-0.4,0.5l0,0c0.8,2.5,2.9,4.3,5.4,4.7
	c-2.1,1.4-4.5,2.2-7.1,2.2h-0.8c-0.2,0-0.5,0.2-0.5,0.4c-0.1,0.2,0.1,0.5,0.3,0.6c2.9,1.7,6.1,2.6,9.5,2.6c2.9,0,5.6-0.6,8.1-1.7
	c2.3-1,4.2-2.5,5.9-4.4c1.6-1.8,2.8-3.8,3.6-6.1c0.8-2.2,1.2-4.5,1.2-6.6V160c0-0.4,0.2-0.7,0.4-0.9c1.1-0.9,2-1.9,2.7-3l0,0
	C941.4,155.6,941,155.3,940.7,155.4L940.7,155.4z"/>
<path class="st8" d="M817.1,221.5c-0.5,0.2-0.9,0.4-1.4,0.5c0.5-0.5,0.9-1.2,1.2-1.9l0,0c0.1-0.2-0.2-0.4-0.3-0.3l0,0
	c-0.7,0.4-1.4,0.7-2.2,0.9h-0.1c-0.1,0-0.3-0.1-0.4-0.1c-0.8-0.7-1.9-1.1-3-1.1c-0.5,0-0.9,0.1-1.4,0.2c-1.4,0.4-2.6,1.6-2.9,3.1
	c-0.1,0.6-0.2,1.1-0.1,1.6c0,0.1,0,0.1,0,0.1l-0.1,0.1l0,0c-3.2-0.3-6-1.8-8-4.3l0,0c-0.1-0.1-0.3-0.1-0.4,0l0,0
	c-0.4,0.7-0.6,1.5-0.6,2.2c0,1.2,0.5,2.3,1.3,3.2c-0.4-0.1-0.7-0.2-1-0.4l0,0c-0.2-0.1-0.3,0-0.3,0.2l0,0c0,1.8,1,3.4,2.6,4.1h-0.1
	c-0.2,0-0.5,0-0.8-0.1l0,0c-0.2,0-0.3,0.1-0.3,0.3l0,0c0.5,1.6,1.9,2.8,3.5,3c-1.4,0.9-3,1.4-4.6,1.4h-0.5c-0.2,0-0.3,0.1-0.3,0.3
	s0,0.3,0.2,0.4c1.9,1.1,4,1.7,6.2,1.7c1.9,0,3.7-0.4,5.3-1.1c1.5-0.7,2.8-1.6,3.8-2.9c1-1.2,1.8-2.5,2.4-3.9
	c0.5-1.4,0.8-2.9,0.8-4.3v-0.1c0-0.2,0.1-0.4,0.3-0.6c0.7-0.6,1.3-1.2,1.8-1.9l0,0C817.5,221.6,817.3,221.4,817.1,221.5L817.1,221.5
	z"/>
<path class="st8" d="M1099.8,137.7c-0.5,0.2-0.9,0.4-1.4,0.5c0.5-0.5,0.9-1.2,1.2-1.9l0,0c0.1-0.2-0.2-0.4-0.3-0.3l0,0
	c-0.7,0.4-1.4,0.7-2.2,0.9h-0.1c-0.1,0-0.3-0.1-0.4-0.1c-0.8-0.7-1.9-1.1-3-1.1c-0.5,0-0.9,0.1-1.4,0.2c-1.4,0.4-2.6,1.6-2.9,3.1
	c-0.1,0.6-0.2,1.1-0.1,1.6c0,0.1,0,0.1,0,0.1l-0.1,0.1l0,0c-3.2-0.3-6-1.8-8-4.3l0,0c-0.1-0.1-0.3-0.1-0.4,0l0,0
	c-0.4,0.7-0.6,1.5-0.6,2.2c0,1.2,0.5,2.3,1.3,3.2c-0.4-0.1-0.7-0.2-1-0.4l0,0c-0.2-0.1-0.3,0-0.3,0.2l0,0c0,1.8,1,3.4,2.6,4.1h-0.1
	c-0.2,0-0.5,0-0.8-0.1l0,0c-0.2,0-0.3,0.1-0.3,0.3l0,0c0.5,1.6,1.9,2.8,3.5,3c-1.4,0.9-3,1.4-4.6,1.4h-0.5c-0.2,0-0.3,0.1-0.3,0.3
	s0,0.3,0.2,0.4c1.9,1.1,4,1.7,6.2,1.7c1.9,0,3.7-0.4,5.3-1.1c1.5-0.7,2.8-1.6,3.8-2.9c1-1.2,1.8-2.5,2.4-3.9
	c0.5-1.4,0.8-2.9,0.8-4.3v-0.1c0-0.2,0.1-0.4,0.3-0.6c0.7-0.6,1.3-1.2,1.8-1.9l0,0C1100.2,137.8,1100,137.6,1099.8,137.7
	L1099.8,137.7z"/>
<path d="M553.6,150.6l7.9,3.9c0.3,0.2,0.7,0.1,1,0l7-4.1l-4.2,3.8c-0.2,0.2-0.3,0.5-0.3,0.8v9.2c0,1,1.2,1.4,1.8,0.6l3.4-4.5
	l8.4,4.8c0.6,0.3,1.3,0,1.5-0.7l5.2-26.2c0.2-0.8-0.6-1.4-1.4-1.1l-30.2,11.8C552.8,149.1,552.8,150.2,553.6,150.6L553.6,150.6z
	 M582.8,139.6l-4.6,23l-8-4.5c-0.4-0.2-1-0.1-1.3,0.3l-2.1,2.8v-5.7l11.5-10.2c0.9-0.8-0.1-2.2-1.2-1.6l-15.3,8.9l-5.4-2.7
	L582.8,139.6z"/>
<path d="M748.9,139.4l3.2,1.6c0.1,0.1,0.3,0.1,0.4,0l2.9-1.7l-1.7,1.5c-0.1,0.1-0.1,0.2-0.1,0.3v3.8c0,0.4,0.5,0.6,0.7,0.2l1.4-1.9
	l3.5,2c0.2,0.1,0.6,0,0.6-0.3l2.2-10.7c0.1-0.3-0.3-0.6-0.6-0.5l-12.4,4.8C748.6,138.8,748.5,139.2,748.9,139.4L748.9,139.4z
	 M760.9,134.8l-1.9,9.4l-3.3-1.9c-0.2-0.1-0.4-0.1-0.5,0.1l-0.9,1.2v-2.3l4.7-4.2c0.4-0.3-0.1-0.9-0.5-0.7l-6.3,3.6l-2.2-1.1
	L760.9,134.8z"/>
<path class="st8" d="M482.8,306.4l-3.2,3.5l0.9,6.1l9.5-7.1L482.8,306.4z"/>
<path class="st8" d="M466.1,299.2l9.6,4.8l7.1,2.4l16.7,14.3l7.2-35.7L466.1,299.2z"/>
<path class="st9" d="M475.7,304l4.8,11.9l2.4-9.5l16.7-14.3L475.7,304z"/>
<path class="st8" d="M742.8,280.8l-2.1,2.1l0.6,3.6l6.1-4.3L742.8,280.8z"/>
<path class="st8" d="M732,276.5l6.2,2.9l4.6,1.4l10.7,8.6l4.7-21.4L732,276.5z"/>
<path class="st9" d="M738.2,279.3l3.1,7.1l1.5-5.7l10.7-8.6L738.2,279.3z"/>
<path class="st8" d="M854.6,127.5l-2.1,2.1l0.6,3.6l6.1-4.3L854.6,127.5z"/>
<path class="st8" d="M843.8,123.2l6.2,2.9l4.6,1.4l10.7,8.6l4.7-21.4L843.8,123.2z"/>
<path class="st9" d="M850,126.1l3.1,7.1l1.5-5.7l10.7-8.6L850,126.1z"/>
<polygon class="st8" points="635.8,185.1 624.9,181.6 615.8,188.7 615.7,177.2 606.2,170.7 617.1,167.1 620.3,156 627.2,165.3 
	638.7,164.9 631.9,174.3 "/>
<polygon class="st8" points="1249.2,224.5 1238.3,221 1229.2,228.1 1229.1,216.5 1219.6,210.1 1230.5,206.5 1233.7,195.4 
	1240.6,204.7 1252.1,204.3 1245.3,213.7 "/>
<polygon class="st8" points="707.6,67 701.8,65.2 697,68.9 697,62.8 692,59.4 697.7,57.5 699.4,51.6 703,56.5 709.1,56.3 
	705.6,61.3 "/>
<polygon class="st8" points="833.1,58.4 827.3,56.5 822.5,60.3 822.5,54.2 817.4,50.8 823.2,48.8 824.9,43 828.5,47.9 834.6,47.7 
	831,52.7 "/>
<polygon class="st8" points="631.5,209.9 625.7,208.1 621,211.8 621,205.8 616,202.4 621.7,200.5 623.4,194.7 626.9,199.6 
	633,199.4 629.4,204.3 "/>
<polygon class="st8" points="891.5,278.8 885.8,277 881,280.7 881,274.7 876.1,271.3 881.8,269.4 883.4,263.7 887,268.5 893,268.3 
	889.5,273.2 "/>
<polygon class="st8" points="776.1,72.2 772.7,71.1 769.9,73.3 769.9,69.8 767,67.8 770.3,66.6 771.3,63.2 773.4,66.1 777,66 
	774.9,68.9 "/>
<polygon class="st8" points="913.5,67.2 910.1,66.1 907.3,68.3 907.3,64.7 904.3,62.7 907.7,61.6 908.7,58.2 910.8,61 914.4,60.9 
	912.3,63.8 "/>
<polygon class="st8" points="950.4,101.7 947,100.6 944.2,102.8 944.2,99.2 941.2,97.2 944.6,96.1 945.6,92.7 947.7,95.5 
	951.3,95.4 949.2,98.3 "/>
<polygon class="st8" points="973.7,124.2 970.3,123.2 967.5,125.3 967.5,121.8 964.5,119.8 967.9,118.7 968.9,115.2 971,118.1 
	974.6,118 972.5,120.9 "/>
<polygon class="st8" points="844.8,180.7 833.8,177.2 824.7,184.2 824.7,172.7 815.2,166.2 826.1,162.6 829.3,151.6 836.1,160.8 
	847.7,160.5 840.9,169.8 "/>
<polygon class="st8" points="637.6,121.8 626.6,118.3 617.5,125.3 617.4,113.8 607.9,107.3 618.9,103.7 622.1,92.7 628.9,102 
	640.4,101.6 633.7,111 "/>
<text transform="matrix(1 0 0 1 909.3687 289.3257)" class="st10 st11">Add the sticky class to the navbar when you reach its </text>
<text transform="matrix(1 0 0 1 909.3687 310.9257)" class="st10 st11">scroll position. Remove &quot;sticky&quot; when you leave the </text>
<text transform="matrix(1 0 0 1 909.3687 332.5258)" class="st10 st11">scroll position</text>
<g id="Layer_2_1_">
	<path class="st12" d="M58.7,331.3c0,0-9.4-20.2,0-25.6l96.9-28.9c0,0,14.1-6.1,14.1,4l23.6,96.9c0,0,4,6.1-5.4,9.4L89.6,417
		c0,0-9.4,3.8-11.4-5C76.2,403.4,58.7,331.3,58.7,331.3z"/>
</g>
<g id="Layer_3">
	<path class="st13" d="M170.5,280.2L288.9,194c0,0,8.1-7.4,10.1,0s43.8,181.8,43.8,181.8s5.4,10.8-7.4,9.4S194,377.8,194,377.8
		L170.5,280.2z"/>
	<polygon class="st14" points="343.9,380.7 336.7,385.1 289.6,192.7 297,190.7 	"/>
	<path class="st15" d="M72.9,396.6c0,0-18.7,13.3-31,0C30.6,384.4,10.3,334,57.4,332L72.9,396.6z"/>
	<polygon class="st16" points="72.7,396.8 61,399.6 45.3,334.4 57.1,332.3 	"/>
	<path class="st17" d="M173.8,391.9v8.9h-3.4l12.1,65.8c0,0-61.9-5-71.4-46.6h-6.7l-4-5.9L173.8,391.9z"/>
	<polygon class="st18" points="250.6,220.3 290.3,383.2 336.7,383.2 289.6,192.7 	"/>
	<text transform="matrix(1 0 0 1 683.75 244.4306)" class="st10 st19">Digital Marketing</text>
</g>
<g id="Layer_4">
</g>
<g id="Layer_5">
</g>
<g>
	<path class="st20" d="M656.9,151.1c-4.2-0.6-8.8,0.5-12.1,3.2c-4.1,3.4-4.6,8.8-4.2,13.7c0.9,11.2,7.2,22.5,13.7,31.5
		c0,0,0.1,0.1,0.1,0.1c0,0,0,0,0,0c0,0,0,0,0,0c0.2,0.3,0.9,0.1,1.1-0.2C664.1,187.8,682.7,154.7,656.9,151.1z M643,174.8
		c-1.6-5.5-2.6-12.3,0.4-17.5c2.8-4.8,9-6.1,14.1-5.2c23.3,4,5.7,35.1-2.5,46.6C649.7,191.5,645.5,183.3,643,174.8z"/>
	<path class="st20" d="M663.5,167.7c-0.6-10.4-15.8-9.7-16.4,0.3C646.6,178.4,663,177.7,663.5,167.7z M648.3,167.7
		c-0.3-5.3,5.7-8.6,10.3-6.2c2.4,1.3,3.6,3.9,3.7,6.5c-0.3,5.2-5.2,8.8-10.3,6.2C649.6,173,648.4,170.3,648.3,167.7z"/>
</g>
<g>
	<g>
		<path class="st20" d="M522.1,231.1c1.2-1.3,2.4-2.7,3.4-4.1c0.9-1.3,0.9-2.2,0.9-3.7c0.2-4.6,0.7-10.1,3.4-14
			c2.2-3.1,8.4-2.3,11.7-2.2c5.5,0.2,11.1,1,16.4,2.8c4.2,1.4,8,3.5,9.3,8c1.4,4.9,1.6,10.6-1.2,15.1c-4.7,7.4-16.2,5.1-23.1,2.9
			c-4.7-1.4-9.4-3.6-13.4-6.5c-0.5-0.4-1.8,0.2-2.3,0.3c-1.9,0.4-3.9,0.8-5.8,1.3c-0.7,0.1-0.1,0.4,0.3,0.3c1.6-0.3,3.2-0.7,4.8-1
			c0.8-0.2,1.6-0.3,2.4-0.5c-0.1,0-0.7-0.2,0.1,0.3c4.3,2.8,9,5,14,6.5c9.2,2.8,23.3,3.7,25.8-8.3c0.9-4,0.4-9.9-1.9-13.4
			c-2.1-3.2-6.5-4.7-9.9-5.7c-7.6-2.3-17.2-3.5-25.1-1.8c-4.7,1.1-5.6,7.4-6.2,11.4c-0.3,2.1-0.5,4.3-0.5,6.5c0,1.9-3.1,4.6-4.3,5.9
			C521,231.3,521.9,231.3,522.1,231.1z"/>
	</g>
	<g>
		<path class="st20" d="M538.5,220.9c-0.2,0.8-0.8,1.5-1.7,1.2c-0.7-0.2-1-1-1-1.7c0-0.9,0.8-1.7,1.7-1.4
			C538.3,219.3,538.6,220.2,538.5,220.9c0,0.4,1,0.4,1,0c0.3-2.8-4.1-3.2-4.7-0.6c-0.6,2.8,4.1,3.3,4.7,0.6
			C539.6,220.5,538.6,220.5,538.5,220.9z"/>
	</g>
	<g>
		<path class="st20" d="M548.5,222.5c-0.2,0.8-0.8,1.6-1.7,1.3c-0.7-0.2-1-1-1-1.7c0-0.9,0.8-1.7,1.7-1.4
			C548.3,220.9,548.5,221.8,548.5,222.5c0,0.3,1,0.3,1,0c0.3-2.8-4.1-3.2-4.7-0.6c-0.6,2.8,4.1,3.3,4.7,0.6
			C549.6,222.2,548.5,222.2,548.5,222.5z"/>
	</g>
	<g>
		<path class="st20" d="M558.4,224.2c-0.2,1-1.1,1.7-2,1c-0.5-0.4-0.7-1.1-0.6-1.7c0.1-1,1.2-1.6,2-1
			C558.3,222.9,558.5,223.6,558.4,224.2c0,0.2,1,0.2,1-0.1c0.3-2.8-4.2-3.1-4.7-0.5c-0.3,1.3,1,2.3,2.1,2.3c1.2,0,2.3-0.5,2.6-1.8
			C559.5,223.9,558.5,223.9,558.4,224.2z"/>
	</g>
</g>
<g>
	<g>
		<path class="st20" d="M698.1,153.3c0.6-0.7,1.2-1.3,1.7-2.1c0.5-0.6,0.4-1.1,0.5-1.8c0.1-2.3,0.4-5,1.7-7c1.1-1.6,4.2-1.1,5.8-1.1
			c2.8,0.1,5.6,0.5,8.2,1.4c2.1,0.7,4,1.8,4.6,4c0.7,2.4,0.8,5.3-0.6,7.5c-2.3,3.7-8.1,2.5-11.5,1.5c-2.3-0.7-4.7-1.8-6.7-3.2
			c-0.3-0.2-0.9,0.1-1.1,0.1c-1,0.2-1.9,0.4-2.9,0.6c-0.3,0.1-0.1,0.2,0.2,0.2c0.8-0.2,1.6-0.3,2.4-0.5c0.4-0.1,0.8-0.2,1.2-0.3
			c0,0-0.3-0.1,0.1,0.1c2.1,1.4,4.5,2.5,7,3.2c4.6,1.4,11.6,1.8,12.9-4.1c0.4-2,0.2-4.9-0.9-6.7c-1-1.6-3.2-2.3-4.9-2.8
			c-3.8-1.1-8.6-1.8-12.5-0.9c-2.4,0.5-2.8,3.7-3.1,5.7c-0.2,1.1-0.3,2.1-0.2,3.2c0,1-1.5,2.3-2.1,2.9
			C697.6,153.4,698,153.4,698.1,153.3z"/>
	</g>
	<g>
		<path class="st20" d="M706.3,148.2c-0.1,0.4-0.4,0.8-0.8,0.6c-0.3-0.1-0.5-0.5-0.5-0.8c0-0.4,0.4-0.8,0.9-0.7
			C706.2,147.4,706.3,147.9,706.3,148.2c0,0.2,0.5,0.2,0.5,0c0.2-1.4-2.1-1.6-2.3-0.3c-0.3,1.4,2.1,1.7,2.3,0.3
			C706.8,148,706.3,148,706.3,148.2z"/>
	</g>
	<g>
		<path class="st20" d="M711.3,149c-0.1,0.4-0.4,0.8-0.8,0.6c-0.3-0.1-0.5-0.5-0.5-0.8c0-0.4,0.4-0.8,0.9-0.7
			C711.1,148.2,711.3,148.7,711.3,149c0,0.2,0.5,0.2,0.5,0c0.2-1.4-2.1-1.6-2.3-0.3c-0.3,1.4,2.1,1.6,2.3,0.3
			C711.8,148.8,711.3,148.9,711.3,149z"/>
	</g>
	<g>
		<path class="st20" d="M716.2,149.9c-0.1,0.5-0.5,0.8-1,0.5c-0.3-0.2-0.3-0.5-0.3-0.8c0.1-0.5,0.6-0.8,1-0.5
			C716.2,149.2,716.2,149.5,716.2,149.9c0,0.1,0.5,0.1,0.5-0.1c0.2-1.4-2.1-1.5-2.4-0.3c-0.1,0.6,0.5,1.1,1.1,1.1
			c0.6,0,1.1-0.3,1.3-0.9C716.7,149.7,716.2,149.7,716.2,149.9z"/>
	</g>
</g>
<g>
	<g>
		<path class="st8" d="M585.1,312.5c-3-6-9.3-10.2-16.5-10.2c-9.4,0-17.2,7.1-18.3,16.2h4.6c1.1-6.6,6.8-11.7,13.7-11.7
			c6,0,11.1,3.8,13,9.1l-2.6,2.6h3.2h4.6h0.8v-8.6L585.1,312.5z"/>
	</g>
	<g>
		<path class="st8" d="M568.6,334.6c-6,0-11.1-3.8-13-9.1l2.6-2.6h-3.3h-4.6v0h-0.8v8.6l2.6-2.6c3,6,9.3,10.2,16.5,10.2
			c9.4,0,17.2-7.1,18.3-16.2h-4.6C581.3,329.6,575.5,334.6,568.6,334.6z"/>
	</g>
</g>
<g>
	<g>
		<line class="st21" x1="614.4" y1="302.9" x2="622.4" y2="294.8"/>
		<path class="st22" d="M613.3,304c-0.6-0.6-0.5-1.5,0.1-2.1l8.1-8.1c0.6-0.6,1.5-0.6,2.1-0.1c0.6,0.6,0.5,1.5-0.1,2.1l-8.1,8.1
			C614.8,304.5,613.8,304.5,613.3,304z"/>
	</g>
	<g>
		<line class="st21" x1="623.2" y1="294" x2="631.3" y2="285.9"/>
		<path class="st22" d="M622.6,294.7c-0.3-0.3-0.3-0.9,0-1.3l8.1-8.1c0.4-0.4,0.9-0.4,1.3,0c0.3,0.3,0.3,0.9,0,1.3l-8.1,8.1
			C623.5,295,622.9,295,622.6,294.7z"/>
	</g>
	<g>
		<path class="st8" d="M644.3,287.4c-4.2,4.2-10.9,4.4-14.9,0.4c-4-4-3.8-10.7,0.4-14.9c4.2-4.2,10.9-4.4,14.9-0.4
			C648.8,276.5,648.6,283.2,644.3,287.4z"/>
		<path class="st8" d="M629.4,287.8c4,4,10.7,3.8,14.9-0.4c2.1-2.1,3.2-4.8,3.3-7.5l-21.1,0.6C626.4,283.2,627.4,285.8,629.4,287.8z
			"/>
		<path class="st22" d="M628.6,288.7c-4.5-4.5-4.3-11.9,0.5-16.6c4.7-4.7,12.2-4.9,16.6-0.5c4.5,4.5,4.3,11.9-0.5,16.6
			C640.5,293,633,293.2,628.6,288.7z M643.9,273.4c-3.6-3.6-9.5-3.4-13.3,0.4c-3.8,3.8-3.9,9.7-0.4,13.3c3.6,3.6,9.5,3.4,13.3-0.4
			C647.3,282.9,647.4,276.9,643.9,273.4z"/>
	</g>
	<g>
		<g>
			<path class="st3" d="M631,275.4c-0.3-0.3-0.3-0.9,0-1.3c3.5-3.5,9.1-3.7,12.4-0.3c0.3,0.3,0.3,0.9,0,1.3c-0.4,0.4-0.9,0.4-1.3,0
				c-2.7-2.7-7.1-2.5-9.9,0.3C631.9,275.7,631.3,275.7,631,275.4z M644.2,281.8c-0.2-0.2-0.3-0.5-0.2-0.8c0.2-1.3,0.1-2.6-0.4-3.8
				c-0.2-0.4,0-1,0.5-1.2c0.5-0.2,1,0,1.2,0.4c0.6,1.5,0.8,3.2,0.5,4.8c-0.1,0.5-0.5,0.8-1,0.8C644.5,282,644.3,281.9,644.2,281.8z"
				/>
		</g>
	</g>
</g>
<g>
	<polygon class="st8" points="477.4,263.2 481.6,276.4 505.5,276.4 501.3,263.2 	"/>
	<polygon class="st9" points="501.3,262.4 501.9,262.4 502,262.9 505.5,273.8 505.5,260.6 486.6,260.6 485.6,258.9 481.6,258.9 
		481.6,262.4 	"/>
</g>
<g>
	<polygon class="st8" points="788.4,130.1 794.1,147.9 826.2,147.9 820.5,130.1 	"/>
	<polygon class="st9" points="820.5,129 821.3,129 821.5,129.8 826.2,144.4 826.2,126.6 800.8,126.6 799.5,124.3 794.1,124.3 
		794.1,129 	"/>
</g>
<g>
	<path class="st8" d="M839.7,107.6c-0.7,0.3-1.4,0.6-2.2,0.8c0.7-0.6,1.4-1.4,2-2.1l-0.4-3c-1.5,2.2-3.3,4.1-5.6,5.4v-8.3
		c1.9,0.1,3.7,0.5,5.3,1.2l-0.3-2.3c-1.6-0.5-3.3-0.9-5.1-0.9v-5.8h9c-0.1,1.7-0.3,3.3-0.8,4.8l1.8,1.5c0.6-2,1-4.1,1.1-6.3h5.3
		c-0.2,3.3-1.3,6.4-3.1,9l1.6,1.3c2.3-3.2,3.6-7.1,3.6-11.3c0-5.1-1.9-9.7-5.1-13.2l0,0l-0.7-0.7c-3.2-3.2-7.3-5.1-11.7-5.6
		c0,0-0.1,0-0.1,0c-0.3,0-0.5,0-0.8-0.1c-0.1,0-0.1,0-0.2,0c-0.1,0-0.2,0-0.3,0c-0.4,0-0.9-0.1-1.4-0.1c-0.1,0-0.3,0-0.4,0.1
		c0,0,0,0-0.1,0c-0.3,0-0.5,0-0.8,0.1c0,0-0.1,0-0.1,0c-4.4,0.5-8.5,2.4-11.7,5.6l-0.7,0.7l0,0c-3.2,3.5-5.1,8.1-5.1,13.2
		c0,5.1,1.9,9.7,5.1,13.2l0,0l0.7,0.7c3.2,3.2,7.3,5.1,11.7,5.6c0,0,0.1,0,0.1,0c0.3,0,0.5,0,0.8,0.1c0,0,0,0,0.1,0
		c0.1,0,0.3,0.1,0.4,0.1c0,0,0,0,0,0c0.5,0,0.9,0,1.4-0.1c0.1,0,0.2,0,0.3,0c0.1,0,0.1,0,0.2,0c0.3,0,0.5,0,0.8-0.1c0,0,0.1,0,0.1,0
		c1.9-0.2,3.7-0.7,5.4-1.4L839.7,107.6z M850.1,90.5h-5.3c-0.1-3.1-0.8-6-2-8.6c1-0.6,2-1.3,2.9-2.1
		C848.2,82.6,849.9,86.4,850.1,90.5z M844.2,78.3c-0.7,0.6-1.5,1.2-2.3,1.7c-1.1-2-2.6-3.9-4.3-5.4C840,75.4,842.3,76.7,844.2,78.3z
		 M833.6,74.4c2.6,1.6,4.8,4,6.4,6.7c-2,0.9-4.1,1.5-6.4,1.6V74.4z M833.6,84.7c2.5-0.1,5-0.8,7.3-1.8c1,2.3,1.6,4.9,1.7,7.6h-9
		V84.7z M827.5,74.7c-1.7,1.5-3.2,3.4-4.3,5.4c-0.8-0.5-1.6-1.1-2.3-1.7C822.8,76.7,825.1,75.4,827.5,74.7z M819.5,79.8
		c0.9,0.8,1.8,1.5,2.8,2.1c-1.2,2.6-1.9,5.6-2,8.6H815C815.2,86.4,816.9,82.6,819.5,79.8z M815,92.5h5.3c0.1,3.1,0.8,6,2,8.6
		c-1,0.6-2,1.3-2.8,2.1C816.9,100.4,815.2,96.6,815,92.5z M820.9,104.7c0.7-0.6,1.5-1.2,2.3-1.7c1.1,2,2.6,3.9,4.3,5.4
		C825.1,107.6,822.8,106.4,820.9,104.7z M831.5,108.7c-2.7-1.6-4.8-4-6.4-6.7c2-0.9,4.1-1.5,6.4-1.6V108.7z M831.5,98.3
		c-2.5,0.1-5,0.8-7.3,1.8c-1-2.3-1.6-4.9-1.7-7.6h9V98.3z M831.5,90.5h-9c0.1-2.7,0.7-5.3,1.7-7.6c2.3,1.1,4.7,1.7,7.3,1.8V90.5z
		 M831.5,82.7c-2.2-0.1-4.4-0.7-6.4-1.6c1.5-2.8,3.7-5.1,6.4-6.7V82.7z"/>
	<polygon class="st8" points="849.8,105.6 839.8,97.4 841.4,110.2 844.3,108.6 847.1,113.5 849.6,112.2 846.8,107.2 	"/>
</g>
<g>
	<path class="st8" d="M1012.3,126.6c-0.3,0.1-0.6,0.3-0.9,0.3c0.3-0.3,0.6-0.6,0.9-0.9l-0.2-1.3c-0.6,0.9-1.4,1.7-2.4,2.3v-3.5
		c0.8,0,1.6,0.2,2.3,0.5l-0.1-1c-0.7-0.2-1.4-0.4-2.2-0.4v-2.5h3.8c0,0.7-0.1,1.4-0.3,2l0.8,0.6c0.3-0.8,0.4-1.7,0.5-2.7h2.3
		c-0.1,1.4-0.6,2.7-1.3,3.8l0.7,0.5c1-1.4,1.5-3,1.5-4.8c0-2.1-0.8-4.1-2.2-5.6l0,0l-0.3-0.3c-1.4-1.4-3.1-2.2-5-2.4c0,0,0,0,0,0
		c-0.1,0-0.2,0-0.3,0c0,0-0.1,0-0.1,0c0,0-0.1,0-0.1,0c-0.2,0-0.4,0-0.6,0c-0.1,0-0.1,0-0.2,0c0,0,0,0,0,0c-0.1,0-0.2,0-0.3,0
		c0,0,0,0,0,0c-1.9,0.2-3.6,1-5,2.4l-0.3,0.3l0,0c-1.3,1.5-2.2,3.4-2.2,5.6c0,2.1,0.8,4.1,2.2,5.6l0,0l0.3,0.3
		c1.4,1.4,3.1,2.2,5,2.4c0,0,0,0,0,0c0.1,0,0.2,0,0.3,0c0,0,0,0,0,0c0.1,0,0.1,0,0.2,0c0,0,0,0,0,0c0.2,0,0.4,0,0.6,0
		c0,0,0.1,0,0.1,0c0,0,0.1,0,0.1,0c0.1,0,0.2,0,0.3,0c0,0,0,0,0,0c0.8-0.1,1.6-0.3,2.3-0.6L1012.3,126.6z M1016.8,119.3h-2.3
		c-0.1-1.3-0.3-2.5-0.8-3.7c0.4-0.3,0.8-0.6,1.2-0.9C1015.9,116,1016.7,117.6,1016.8,119.3z M1014.2,114.2c-0.3,0.3-0.6,0.5-1,0.7
		c-0.5-0.9-1.1-1.6-1.8-2.3C1012.5,112.9,1013.4,113.4,1014.2,114.2z M1009.8,112.5c1.1,0.7,2,1.7,2.7,2.9c-0.8,0.4-1.8,0.6-2.7,0.7
		V112.5z M1009.8,116.9c1.1-0.1,2.1-0.3,3.1-0.8c0.4,1,0.7,2.1,0.7,3.2h-3.8V116.9z M1007.2,112.6c-0.7,0.7-1.3,1.4-1.8,2.3
		c-0.3-0.2-0.7-0.5-1-0.7C1005.2,113.4,1006.1,112.9,1007.2,112.6z M1003.8,114.8c0.4,0.3,0.8,0.6,1.2,0.9c-0.5,1.1-0.8,2.4-0.8,3.7
		h-2.3C1001.9,117.6,1002.7,116,1003.8,114.8z M1001.8,120.2h2.3c0.1,1.3,0.3,2.5,0.8,3.7c-0.4,0.3-0.8,0.6-1.2,0.9
		C1002.7,123.5,1001.9,121.9,1001.8,120.2z M1004.4,125.3c0.3-0.3,0.6-0.5,1-0.7c0.5,0.9,1.1,1.6,1.8,2.3
		C1006.1,126.6,1005.2,126.1,1004.4,125.3z M1008.8,127c-1.1-0.7-2-1.7-2.7-2.9c0.8-0.4,1.8-0.6,2.7-0.7V127z M1008.8,122.6
		c-1.1,0.1-2.1,0.3-3.1,0.8c-0.4-1-0.7-2.1-0.7-3.2h3.8V122.6z M1008.8,119.3h-3.8c0.1-1.1,0.3-2.2,0.7-3.2c1,0.5,2,0.7,3.1,0.8
		V119.3z M1008.8,116c-0.9-0.1-1.9-0.3-2.7-0.7c0.7-1.2,1.6-2.2,2.7-2.9V116z"/>
	<polygon class="st8" points="1016.6,125.7 1012.4,122.2 1013.1,127.7 1014.3,127 1015.5,129.1 1016.5,128.5 1015.4,126.4 	"/>
</g>
<g>
	<path class="st8" d="M695,277.7c-0.3,0.1-0.6,0.3-0.9,0.3c0.3-0.3,0.6-0.6,0.9-0.9l-0.2-1.3c-0.6,0.9-1.4,1.7-2.4,2.3v-3.5
		c0.8,0,1.6,0.2,2.3,0.5l-0.1-1c-0.7-0.2-1.4-0.4-2.2-0.4v-2.5h3.8c0,0.7-0.1,1.4-0.3,2l0.8,0.6c0.3-0.8,0.4-1.7,0.5-2.7h2.3
		c-0.1,1.4-0.6,2.7-1.3,3.8l0.7,0.5c1-1.4,1.5-3,1.5-4.8c0-2.1-0.8-4.1-2.2-5.6l0,0l-0.3-0.3c-1.4-1.4-3.1-2.2-5-2.4c0,0,0,0,0,0
		c-0.1,0-0.2,0-0.3,0c0,0-0.1,0-0.1,0c0,0-0.1,0-0.1,0c-0.2,0-0.4,0-0.6,0c-0.1,0-0.1,0-0.2,0c0,0,0,0,0,0c-0.1,0-0.2,0-0.3,0
		c0,0,0,0,0,0c-1.9,0.2-3.6,1-5,2.4l-0.3,0.3l0,0c-1.3,1.5-2.2,3.4-2.2,5.6c0,2.1,0.8,4.1,2.2,5.6l0,0l0.3,0.3
		c1.4,1.4,3.1,2.2,5,2.4c0,0,0,0,0,0c0.1,0,0.2,0,0.3,0c0,0,0,0,0,0c0.1,0,0.1,0,0.2,0c0,0,0,0,0,0c0.2,0,0.4,0,0.6,0
		c0,0,0.1,0,0.1,0c0,0,0.1,0,0.1,0c0.1,0,0.2,0,0.3,0c0,0,0,0,0,0c0.8-0.1,1.6-0.3,2.3-0.6L695,277.7z M699.5,270.5h-2.3
		c-0.1-1.3-0.3-2.5-0.8-3.7c0.4-0.3,0.8-0.6,1.2-0.9C698.6,267.1,699.4,268.7,699.5,270.5z M696.9,265.3c-0.3,0.3-0.6,0.5-1,0.7
		c-0.5-0.9-1.1-1.6-1.8-2.3C695.2,264,696.1,264.6,696.9,265.3z M692.5,263.6c1.1,0.7,2,1.7,2.7,2.9c-0.8,0.4-1.8,0.6-2.7,0.7V263.6
		z M692.5,268c1.1-0.1,2.1-0.3,3.1-0.8c0.4,1,0.7,2.1,0.7,3.2h-3.8V268z M689.9,263.7c-0.7,0.7-1.3,1.4-1.8,2.3
		c-0.3-0.2-0.7-0.5-1-0.7C687.9,264.6,688.8,264,689.9,263.7z M686.5,265.9c0.4,0.3,0.8,0.6,1.2,0.9c-0.5,1.1-0.8,2.4-0.8,3.7h-2.3
		C684.6,268.7,685.4,267.1,686.5,265.9z M684.5,271.3h2.3c0.1,1.3,0.3,2.5,0.8,3.7c-0.4,0.3-0.8,0.6-1.2,0.9
		C685.4,274.7,684.6,273.1,684.5,271.3z M687.1,276.5c0.3-0.3,0.6-0.5,1-0.7c0.5,0.9,1.1,1.6,1.8,2.3
		C688.8,277.7,687.9,277.2,687.1,276.5z M691.5,278.2c-1.1-0.7-2-1.7-2.7-2.9c0.8-0.4,1.8-0.6,2.7-0.7V278.2z M691.5,273.8
		c-1.1,0.1-2.1,0.3-3.1,0.8c-0.4-1-0.7-2.1-0.7-3.2h3.8V273.8z M691.5,270.5h-3.8c0.1-1.1,0.3-2.2,0.7-3.2c1,0.5,2,0.7,3.1,0.8
		V270.5z M691.5,267.1c-0.9-0.1-1.9-0.3-2.7-0.7c0.7-1.2,1.6-2.2,2.7-2.9V267.1z"/>
	<polygon class="st8" points="699.3,276.9 695.1,273.4 695.8,278.8 697,278.1 698.2,280.2 699.2,279.7 698.1,277.5 	"/>
</g>
<g>
	<g>
		<g>
			<path class="st8" d="M536.7,172.8v-0.5c0-0.2-0.1-0.3-0.3-0.3h-2.7c-0.2,0-0.3,0.1-0.3,0.3v0.5H536.7z"/>
		</g>
		<g>
			<polygon class="st8" points="532.1,172.8 529.8,169.7 522.2,169.7 519.9,172.8 			"/>
		</g>
	</g>
	<path class="st8" d="M514.4,173.5v14.6h23.2v-14.6H514.4z M519.2,175.5c0,0.2-0.1,0.3-0.3,0.3h-3.2c-0.2,0-0.3-0.1-0.3-0.3v-0.7
		c0-0.2,0.1-0.3,0.3-0.3h3.2c0.2,0,0.3,0.1,0.3,0.3V175.5z M526,186.9c-3.4,0-6.1-2.7-6.1-6.1c0-3.4,2.7-6.1,6.1-6.1
		c3.4,0,6.1,2.7,6.1,6.1C532.1,184.2,529.4,186.9,526,186.9z"/>
	<path class="st8" d="M526,176.3c-2.5,0-4.5,2-4.5,4.5c0,2.5,2,4.5,4.5,4.5c2.5,0,4.5-2,4.5-4.5C530.5,178.3,528.5,176.3,526,176.3z
		 M529,181.2c-0.2,0-0.4-0.2-0.4-0.4c0-1.4-1.2-2.6-2.6-2.6c-0.2,0-0.4-0.2-0.4-0.4c0-0.2,0.2-0.4,0.4-0.4c1.9,0,3.4,1.5,3.4,3.4
		C529.4,181,529.2,181.2,529,181.2z"/>
</g>
<g>
	<g>
		<g>
			<path class="st8" d="M957.2,244.8V244c0-0.3-0.2-0.5-0.5-0.5h-4c-0.3,0-0.5,0.2-0.5,0.5v0.8H957.2z"/>
		</g>
		<g>
			<polygon class="st8" points="950.3,244.8 946.8,240.2 935.5,240.2 932,244.8 			"/>
		</g>
	</g>
	<path class="st8" d="M923.8,245.9v21.9h34.6v-21.9H923.8z M931,248.9c0,0.3-0.2,0.5-0.5,0.5h-4.8c-0.3,0-0.5-0.2-0.5-0.5v-1
		c0-0.3,0.2-0.5,0.5-0.5h4.8c0.3,0,0.5,0.2,0.5,0.5V248.9z M941.1,265.9c-5,0-9.1-4.1-9.1-9.1c0-5,4.1-9.1,9.1-9.1
		c5,0,9.1,4.1,9.1,9.1C950.2,261.8,946.2,265.9,941.1,265.9z"/>
	<path class="st8" d="M941.1,250.1c-3.7,0-6.7,3-6.7,6.7c0,3.7,3,6.7,6.7,6.7c3.7,0,6.7-3,6.7-6.7
		C947.9,253.1,944.9,250.1,941.1,250.1z M945.7,257.4c-0.3,0-0.6-0.3-0.6-0.6c0-2.2-1.8-3.9-3.9-3.9c-0.3,0-0.6-0.3-0.6-0.6
		c0-0.3,0.3-0.6,0.6-0.6c2.8,0,5.1,2.3,5.1,5.1C946.3,257.1,946,257.4,945.7,257.4z"/>
</g>
<path class="st8" d="M566.7,266c-0.1,0-0.3,0-0.4,0c0.3-0.8,0.4-1.7,0.4-2.6c0-4.9-4-8.8-8.8-8.8c-4.1,0-7.5,2.8-8.5,6.5
	c-1.1-0.6-2.3-0.9-3.6-0.9c-4.1,0-7.4,3.3-7.4,7.4c0,0.2,0,0.5,0,0.7c0,0,0,0,0,0c-3.5,0-6.3,2.8-6.3,6.3c0,3.5,2.8,6.3,6.3,6.3
	c1.6,0,7.2,0,13.1,0v-6.8h-2.9l5.2-8.3l5.3,8.3H556v6.8c4.8,0,9,0,10.6,0c4.1,0,7.4-3.3,7.4-7.4C574.1,269.3,570.8,266,566.7,266z"
	/>
<path class="st8" d="M931.7,82.9c-0.2,0-0.3,0-0.5,0c0.3-1.1,0.5-2.2,0.5-3.3c0-6.2-5-11.2-11.2-11.2c-5.2,0-9.6,3.5-10.8,8.3
	c-1.4-0.8-2.9-1.2-4.6-1.2c-5.2,0-9.5,4.2-9.5,9.5c0,0.3,0,0.6,0,0.9c0,0,0,0,0,0c-4.4,0-8,3.6-8,8c0,4.4,3.6,8,8,8
	c2,0,9.2,0,16.7,0v-8.7h-3.7l6.6-10.5l6.8,10.5h-3.7v8.7c6.1,0,11.5,0,13.5,0c5.2,0,9.5-4.2,9.5-9.5C941.2,87.2,937,82.9,931.7,82.9
	z"/>
<path class="st8" d="M689.9,320.2c-0.2,0-0.3,0-0.5,0c0.3-1.1,0.5-2.2,0.5-3.3c0-6.2-5-11.2-11.2-11.2c-5.2,0-9.6,3.5-10.8,8.3
	c-1.4-0.8-2.9-1.2-4.6-1.2c-5.2,0-9.5,4.2-9.5,9.5c0,0.3,0,0.6,0,0.9c0,0,0,0,0,0c-4.4,0-8,3.6-8,8c0,4.4,3.6,8,8,8
	c2,0,9.2,0,16.7,0v-8.7h-3.7l6.6-10.5l6.8,10.5h-3.7v8.7c6.1,0,11.5,0,13.5,0c5.2,0,9.5-4.2,9.5-9.5
	C699.3,324.4,695.1,320.2,689.9,320.2z"/>
<g>
	<g>
		<path class="st20" d="M659.2,117.3c0.1,5.5,0.3,10.9,0.4,16.4c0,0.1,0.1,0.2,0.2,0.2c7-0.1,14.1-0.5,21.2-0.1
			c0.8,0,0.8,0.1,0.7,1.1c0,0.5,0.1,0.3,0.2,0.3c-0.2,0-0.3,0-0.5,0c-1.5,0-3,0-4.4,0.1c-4.5,0.1-9.1,0.1-13.6,0.1
			c-1.4,0-3,0.2-4.4-0.1c-0.2,0-0.2-4.3-0.3-4.8c-0.1-2.8-0.2-5.6-0.3-8.4c0-1.1-0.1-2.2-0.1-3.2c0-0.3,0-0.6,0-0.9
			c0-0.6,0.5-0.4,0.9-0.3c0.2,0.1,0.6-0.3,0.3-0.3c-1.2-0.3-1.7-0.2-1.8,1c0,1.8,0,3.6,0.1,5.5c0.1,3.8,0.2,7.7,0.5,11.5
			c0.1,0.6,0.7,0.5,1.2,0.5c1.6,0.1,3.2,0.1,4.8,0.1c4.5,0,9-0.1,13.5-0.1c1.3,0,2.5,0,3.8-0.1c0.1,0,0.3-0.1,0.3-0.2
			c0.2-1.3,0.3-1.8-1-1.9c-1.6-0.1-3.2-0.1-4.8-0.1c-4.5,0-8.9,0.1-13.4,0.1c-1,0-2.1,0-3.1,0.1c0.2,0,0.2,0.3,0.2,0
			c0-0.2,0-0.4,0-0.6c0-0.8,0-1.6-0.1-2.4c-0.1-4.1-0.2-8.3-0.3-12.4c0-0.3,0-0.6,0-0.9C659.7,117,659.2,117.1,659.2,117.3z"/>
	</g>
	<g>
		<path class="st20" d="M661.9,127.1c0,1.4,0,2.7,0.1,4.1c0,0.3,0,0.9,0.4,1c0.6,0.2,1.4,0,2,0c0.1,0,0.4,0,0.4-0.2
			c0-1.6-0.1-3.1-0.2-4.7c0-0.3,0.1-1-0.4-0.9c-0.7,0-1.4,0.3-2.1,0.6c-0.3,0.1,0,0.2,0.2,0.1c0.3-0.1,1.7-0.8,1.7-0.3
			c0.1,0.6,0.1,1.2,0.1,1.8c0.1,1.2,0.1,2.4,0.1,3.5c0.1-0.1,0.2-0.1,0.4-0.2c-0.4,0-1.8,0.3-2,0c-0.3-0.4-0.2-1.2-0.2-1.6
			c-0.1-1.1-0.1-2.2-0.1-3.3C662.4,126.9,661.9,127,661.9,127.1z"/>
	</g>
	<g>
		<path class="st20" d="M666.7,124.3c0,1.3,0,2.6,0,3.8c0,1.2,0.3,2.7,0,3.8c0,0.1,0.1,0.1,0.2,0.1c0.7,0,1.3,0,2,0
			c0.1,0,0.3,0,0.3-0.2c0-1.9,0-3.9,0-5.8c0-0.5,0.1-1.9-0.3-2.3c-0.5-0.5-1.6,0.1-2,0.3c-0.3,0.2,0,0.4,0.2,0.2
			c0.8-0.4,1.4-0.7,1.5,0.3c0.1,1,0.1,2,0.1,2.9c0,1.5,0,2.9,0,4.4c0.1-0.1,0.2-0.1,0.3-0.2c-0.4,0-0.8,0-1.1,0c-0.2,0-0.5,0-0.7,0
			c-0.3,0,0,0.1,0,0.1c0.1-0.8,0-1.6,0-2.4c0-1.7,0-3.5,0-5.2C667.2,124,666.7,124.1,666.7,124.3z"/>
	</g>
	<g>
		<path class="st20" d="M671.4,122.7c-0.1,2-0.1,4-0.2,6c0,1-0.1,2.1,0.1,3.1c0.1,0.7,1.5,0.3,2,0.3c0.1,0,0.3,0,0.3-0.2
			c0.1-2.5,0.2-5,0.2-7.4c0-0.4,0.2-2.3-0.2-2.5C673.2,121.7,671.6,122.2,671.4,122.7C671.3,122.6,671.3,122.6,671.4,122.7
			C671.4,122.7,671.4,122.7,671.4,122.7c0.1,0.2,0.6,0,0.5-0.1c0.1,0.1,1.2-0.7,1.3-0.2c0.1,0.3,0.1,0.7,0.1,1c0,1.2,0,2.3,0,3.5
			c0,1.7-0.1,3.5-0.1,5.2c0.1-0.1,0.2-0.1,0.3-0.2c-0.8,0-1.6,0.4-1.7-0.6c-0.1-1,0-2,0-3c0-1.9,0.1-3.8,0.2-5.7
			C671.9,122.4,671.4,122.5,671.4,122.7z"/>
	</g>
	<g>
		<path class="st20" d="M676.4,120.6c0,2.4-0.1,4.9-0.1,7.3c0,1.2,0,2.4,0,3.6c0,0.8,1.3,0.4,1.9,0.4c0.1,0,0.4-0.1,0.4-0.2
			c0-2.6,0.1-5.3,0.1-7.9c0-1.1,0-2.3,0-3.4c-0.1-0.7-1.7,0-2,0.1c-0.3,0.1,0,0.2,0.2,0.1c0.4-0.2,1.3-0.7,1.4-0.1
			c0,0.4,0,0.8,0,1.2c0,1.3,0,2.6,0,3.9c0,2.1,0,4.1-0.1,6.2c0.1-0.1,0.2-0.1,0.4-0.2c-0.2,0-1.5,0.1-1.5,0c-0.1-0.3,0-0.6-0.1-0.9
			c0-1.3,0-2.6,0-3.9c0-2.1,0-4.3,0.1-6.4C676.9,120.4,676.4,120.5,676.4,120.6z"/>
	</g>
	<g>
		<path class="st20" d="M662.1,123.1c6-2.2,12.1-4.5,18.1-6.7c0.3-0.1,0-0.3-0.2-0.3c-6,2.2-12.1,4.5-18.1,6.7
			C661.6,123,661.8,123.2,662.1,123.1L662.1,123.1z"/>
	</g>
	<g>
		<path class="st20" d="M674.3,116.4c2.1-0.1,4.1-0.2,6.2-0.3c0.2,0,0.1-0.3,0-0.2c-0.1,0.1-0.2,0.2-0.3,0.3c-0.5,0.4-1,0.8-1.5,1.1
			c-0.8,0.6-1.7,1.2-2.5,1.9c-0.3,0.2,0.2,0.3,0.3,0.2c1.5-1.1,3-2.2,4.5-3.3c0.1-0.1,0.1-0.2-0.1-0.2c-2.1,0.1-4.2,0.2-6.3,0.3
			C674.3,116.1,674,116.4,674.3,116.4L674.3,116.4z"/>
	</g>
</g>
<g>
	<g>
		<path class="st20" d="M709.8,74.1c-0.5,6.8-0.8,13.6-0.7,20.3c0.1,9.4,2.4,18.6,2.2,28.1c0,0.3,0.3,0.4,0.5,0.4
			c12.6,0,25.2,0,37.7,0c0.2,0,0.6-0.2,0.6-0.4c0-7.2,0-14.3,0-21.5c0-4.7,0-9.3,0-14c0-1.1,0.6-4.3-0.2-5.3
			c-1.3-1.5-2.5-3.1-3.8-4.6c-0.6-0.8-1.9-3.1-2.9-3.4c-2.3-0.8-5.8-0.2-8.2-0.3c-5.2-0.2-10.3-0.3-15.5-0.3c-2.8,0-6.7-0.5-9.4,0.6
			c-0.7,0.3-0.1,0.9,0.5,0.6c1.1-0.5,2.7-0.3,3.9-0.4c2.5-0.1,4.9-0.1,7.4-0.1c5.3,0,10.6,0.2,15.9,0.4c1.4,0,2.8,0.1,4.3,0.2
			c0.5,0,0.6,0.2,0.3-0.1c0.5,0.6,1,1.3,1.6,1.9c1.6,2,5,4.7,5,6.9c0,8.7,0,17.4,0,26c0,3.9,0,7.8,0,11.6c0,0.4,0,0.9,0,1.3
			c0,0.8-0.1,0,0.6,0c-0.8,0-1.7,0-2.5,0c-11.7,0-23.5,0-35.2,0c0.7,0,0.5,0.5,0.5-0.5c0-1,0-2,0-3c-0.1-2.7-0.3-5.3-0.6-8
			c-0.5-5.2-1.5-10.2-1.6-15.5c-0.1-7,0.2-14.1,0.7-21.1C711,73.4,709.9,73.6,709.8,74.1z"/>
	</g>
	<g>
		<path class="st20" d="M742.4,74c0,2.7,0,5.4,0,8c0,0.3,0.3,0.4,0.5,0.4c2.2,0,4.4,0,6.6,0c0.6,0,0.8-0.8,0.1-0.8
			c-2.2,0-4.4,0-6.6,0c0.2,0.1,0.3,0.3,0.5,0.4c0-2.7,0-5.4,0-8C743.5,73.4,742.4,73.5,742.4,74L742.4,74z"/>
	</g>
	<g>
		<path class="st20" d="M715.3,84.7c8-0.6,16.7-0.7,24.5,1.4c0.3,0.1,1.2-0.3,0.9-0.4c-8-2.2-16.8-2.1-25-1.4
			C715.5,84.3,714.6,84.8,715.3,84.7L715.3,84.7z"/>
	</g>
	<g>
		<path class="st20" d="M716.5,93.2c7.8-0.3,15.8-0.7,23.6,0c0.5,0,1.1-0.7,0.4-0.8c-7.9-0.7-16-0.3-23.9,0
			C716,92.4,715.8,93.2,716.5,93.2L716.5,93.2z"/>
	</g>
	<g>
		<path class="st20" d="M715.3,102.7c4-0.1,8-0.5,12-0.7c4.8-0.2,10.5-1.1,15.3-0.2c0.3,0.1,1.3-0.4,0.9-0.5
			c-4.5-0.9-9.7-0.2-14.3,0.1c-4.4,0.2-8.9,0.6-13.3,0.8C715.4,102.2,714.6,102.7,715.3,102.7L715.3,102.7z"/>
	</g>
	<g>
		<path class="st20" d="M715.3,110.5c3.8-0.2,7.5-0.3,11.3-0.4c5.6-0.2,11.7-0.7,17.2,0.4c0.3,0.1,1.2-0.4,0.9-0.4
			c-5-1-10.4-0.6-15.5-0.5c-4.5,0.1-8.9,0.3-13.4,0.5C715.5,110.1,714.6,110.6,715.3,110.5L715.3,110.5z"/>
	</g>
</g>
<g>
	<g>
		<path class="st20" d="M920.2,143.6c0-2.1,0-4.2,0-6.4c0,0,0-0.1-0.1-0.1c-5-1.6-8.1-6.5-8.6-11.5c-0.8-8.7,7.9-13.7,15.7-11.2
			c6,1.9,8.7,9.8,6.5,15.2c-0.9,2.2-2.7,4-4.5,5.4c-0.6,0.5-2.4,1-2.4,1.9c0,2.3,0,4.6,0,7c0.2-0.1,0.5-0.2,0.7-0.4
			c-2.5,0-5.1,0-7.6,0c-0.3,0-1.1,0.5-0.4,0.5c2.5,0,5.1,0,7.6,0c0.2,0,0.7-0.1,0.7-0.4c0-1.5,0-3,0-4.4c0-0.8,0-1.5,0-2.3
			c0-0.8,2.2-1.8,2.9-2.3c3.4-2.6,5.3-6.6,4.8-10.9c-0.8-7.2-7.4-11.1-14.1-10.2c-3.4,0.5-6.5,1.8-8.7,4.4c-3,3.6-2.6,9.3-0.6,13.3
			c1.3,2.7,3.9,4.8,6.6,6c1.4,0.6,0.6,4.9,0.6,6.5C919.1,144.1,920.2,144,920.2,143.6z"/>
	</g>
	<g>
		<path class="st20" d="M919.1,143.9c-0.5,3.4,1.1,6.5,4.9,6.4c3.6-0.1,4.6-3.6,3.7-6.6c0-0.1-0.2-0.1-0.3-0.1c-2.5,0-5.1,0-7.6,0
			c-0.3,0-1.1,0.5-0.4,0.5c1.9,0,3.9,0,5.8,0c0.4,0,0.9,0,1.3,0c0.7,0,0.2,0.1,0.2-0.1c0.2,0.6,0.2,1.3,0.3,1.9
			c0.1,1.1-0.2,2.3-0.9,3.2c-1.3,1.4-3.8,0.7-4.9-0.6c-1-1.2-1.2-3.2-1-4.8C920.2,143.4,919.2,143.6,919.1,143.9z"/>
	</g>
	<g>
		<path class="st20" d="M919.1,130.4c1.1,4.5,2.3,9,3.4,13.5c0.1,0.3,1,0,1-0.2c1-5.6,2.1-11.2,3.1-16.8c0.1-0.3-1-0.1-1,0.2
			c-1,5.6-2.1,11.2-3.1,16.8c0.3-0.1,0.7-0.1,1-0.2c-1.1-4.5-2.3-9-3.4-13.5C920,129.9,919,130.1,919.1,130.4L919.1,130.4z"/>
	</g>
	<g>
		<path class="st20" d="M917.7,133.2c3.5-1.1,7-2.3,10.6-3.4c0.6-0.2,0.5-0.6-0.1-0.4c-3.5,1.1-7,2.3-10.6,3.4
			C917,133,917.1,133.3,917.7,133.2L917.7,133.2z"/>
	</g>
	<g>
		<path class="st20" d="M923,100.7c0,3.4,0,6.8,0,10.2c0,0.5,1,0.3,1-0.1c0-3.4,0-6.8,0-10.2C924.1,100.1,923,100.3,923,100.7
			L923,100.7z"/>
	</g>
	<g>
		<g>
			<path class="st20" d="M908.9,104.2c1.5,2.5,3.1,5,4.6,7.4c0.2,0.4,1.2,0,0.9-0.4c-1.5-2.5-3.1-5-4.6-7.4
				C909.6,103.4,908.6,103.8,908.9,104.2L908.9,104.2z"/>
		</g>
		<g>
			<path class="st20" d="M899.2,111.1c2.8,1.7,5.7,3.3,8.5,5c0.4,0.2,1.3-0.3,0.8-0.6c-2.8-1.7-5.7-3.3-8.5-5
				C899.6,110.2,898.7,110.8,899.2,111.1L899.2,111.1z"/>
		</g>
		<g>
			<path class="st20" d="M896.9,121.7c3.3,0.5,6.6,0.9,9.9,1.4c0.2,0,1.2-0.4,0.7-0.5c-3.3-0.5-6.6-0.9-9.9-1.4
				C897.3,121.2,896.3,121.6,896.9,121.7L896.9,121.7z"/>
		</g>
	</g>
	<g>
		<g>
			<path class="st20" d="M937.9,103.8c-1.5,2.5-3.1,5-4.6,7.4c-0.3,0.6,0.6,0.8,0.9,0.3c1.5-2.5,3.1-5,4.6-7.4
				C939.1,103.6,938.1,103.4,937.9,103.8L937.9,103.8z"/>
		</g>
		<g>
			<path class="st20" d="M947.7,110.6c-2.8,1.7-5.7,3.3-8.5,5c-0.6,0.4,0.3,0.6,0.7,0.4c2.8-1.7,5.7-3.3,8.5-5
				C949,110.6,948.1,110.3,947.7,110.6L947.7,110.6z"/>
		</g>
		<g>
			<path class="st20" d="M950.6,121.2c-3.3,0.5-6.6,0.9-9.9,1.4c-0.5,0.1-0.9,0.6-0.1,0.5c3.3-0.5,6.6-0.9,9.9-1.4
				C950.9,121.7,951.3,121.1,950.6,121.2L950.6,121.2z"/>
		</g>
	</g>
</g>
<g>
	<g>
		<g>
			<path class="st20" d="M651,217.4c6-0.4,12.1-0.8,18.1-1.1c3.9-0.2,7.7-0.4,11.6-0.4c0.9,0,1.8,0,2.7,0.1c0.3,0,0.2,1.7,0.2,2.1
				c0.2,8.6,0,17.3,0.3,25.9c0.1,3.5,0.2,7.1,0.9,10.5c0.1,0.4,0.8,0.1,0.3,0.2c-0.3,0-0.7,0-1,0.1c-1.4,0.1-2.9,0.2-4.3,0.2
				c-6.8,0.4-13.6,0.8-20.4,1.1c-1.9,0.1-3.9,0.3-5.8,0.2c-0.3,0-0.7-3.8-0.7-4.3c-0.8-6.6-1.2-13.3-1.5-19.9
				c-0.2-3.3-0.3-6.7-0.3-10c0-0.9-0.4-4,0.3-4.7c0.3-0.3-0.4-0.4-0.6-0.2c-0.9,0.9-0.4,3.9-0.4,5c0,3.7,0.2,7.4,0.4,11.2
				c0.4,7.3,0.5,14.8,1.9,22c0.3,1.4,0.5,1.5,1.9,1.5c3.2-0.1,6.4-0.3,9.7-0.4c7-0.4,14-0.8,21-1.2c0.1,0,0.2,0,0.3,0
				c0.2,0,0.5-0.1,0.4-0.4c-0.8-3.2-0.8-6.5-1-9.8c-0.2-4.5-0.2-8.9-0.3-13.4c0-3.9,0-7.7,0-11.6c0-0.6,0.4-4-0.3-4.4
				c-1.2-0.7-3.7-0.2-5-0.2c-3.8,0.1-7.7,0.3-11.5,0.5c-5.5,0.3-11,0.6-16.6,1C650.6,216.9,650.4,217.4,651,217.4z"/>
		</g>
		<g>
			<g>
				<path class="st20" d="M659.8,227.6c-1.7,0-3.5,0-5.2,0c0.1,0.1,0.2,0.1,0.2,0.2c0-1.7,0-3.5,0-5.2c-0.2,0.1-0.4,0.2-0.5,0.3
					c1.7,0,3.5,0,5.2,0c-0.1-0.1-0.2-0.1-0.2-0.2c0,1.7,0,3.5,0,5.2c0,0.3,0.8,0.2,0.8-0.1c0-1.7,0-3.5,0-5.2c0-0.1-0.1-0.2-0.2-0.2
					c-1.7,0-3.5,0-5.2,0c-0.1,0-0.5,0.1-0.5,0.3c0,1.7,0,3.5,0,5.2c0,0.1,0.1,0.2,0.2,0.2c1.7,0,3.5,0,5.2,0
					C659.8,228.1,660.3,227.6,659.8,227.6z"/>
			</g>
			<g>
				<path class="st20" d="M663.5,225.5c5,0,10-0.1,15,0c0.3,0,0.8-0.4,0.3-0.5c-5-0.1-10,0-15,0C663.5,225,663,225.5,663.5,225.5
					L663.5,225.5z"/>
			</g>
		</g>
		<g>
			<g>
				<path class="st20" d="M660.5,238.1c-1.7,0.1-3.4,0.2-5.2,0.2c0.3,0,0.2,0.1,0.2-0.1c0-0.2,0-0.4,0-0.6c0-0.6-0.1-1.2-0.1-1.8
					c0-0.9-0.1-1.7-0.1-2.6c-0.2,0.1-0.4,0.2-0.5,0.3c1.7-0.1,3.4-0.2,5.2-0.2c-0.3,0-0.2-0.1-0.2,0.1c0,0.2,0,0.4,0,0.6
					c0,0.6,0.1,1.2,0.1,1.8c0,0.9,0.1,1.7,0.1,2.6c0,0.2,0.8,0,0.8-0.2c-0.1-1.7-0.2-3.5-0.3-5.2c0-0.1-0.2-0.1-0.2-0.1
					c-1.7,0.1-3.5,0.2-5.2,0.3c-0.1,0-0.6,0.1-0.5,0.3c0.1,1.7,0.2,3.5,0.3,5.2c0,0.1,0.2,0.1,0.2,0.1c1.7-0.1,3.5-0.2,5.2-0.3
					C660.4,238.4,661,238,660.5,238.1z"/>
			</g>
			<g>
				<path class="st20" d="M664.2,235.7c5-0.3,10-0.6,15-0.7c0.4,0,0.6-0.6,0.1-0.6c-5,0.1-10,0.5-15,0.7
					C663.8,235.2,663.7,235.8,664.2,235.7L664.2,235.7z"/>
			</g>
		</g>
		<g>
			<g>
				<path class="st20" d="M662.6,248.8c-1.7,0.1-3.4,0.2-5.2,0.2c0.2,0,0.2,0.1,0.2-0.1c0-0.2,0-0.4,0-0.6c0-0.6-0.1-1.2-0.1-1.8
					c0-0.9-0.1-1.7-0.1-2.6c-0.2,0.1-0.4,0.2-0.5,0.3c1.7-0.1,3.4-0.2,5.2-0.2c-0.2,0-0.2-0.1-0.2,0.1c0,0.2,0,0.4,0,0.6
					c0,0.6,0.1,1.2,0.1,1.8c0,0.9,0.1,1.7,0.1,2.6c0,0.2,0.8,0,0.8-0.2c-0.1-1.7-0.2-3.5-0.3-5.2c0-0.1-0.2-0.1-0.2-0.1
					c-1.7,0.1-3.5,0.2-5.2,0.3c-0.1,0-0.6,0.1-0.5,0.3c0.1,1.7,0.2,3.5,0.3,5.2c0,0.1,0.2,0.1,0.2,0.1c1.7-0.1,3.5-0.2,5.2-0.3
					C662.5,249.1,663.1,248.8,662.6,248.8z"/>
			</g>
			<g>
				<path class="st20" d="M666.3,246.5c5-0.3,10-0.6,15-0.7c0.4,0,0.6-0.5,0.1-0.5c-5,0.1-10,0.5-15,0.7
					C665.9,246,665.8,246.5,666.3,246.5L666.3,246.5z"/>
			</g>
		</g>
	</g>
	<g>
		<path class="st20" d="M654.8,225.4c0.4,0.4,0.9,0.8,1.3,1.3c0.2,0.2,0.8,0,0.9-0.2c0.8-2.2,3.4-3.5,5.4-4.1
			c0.5-0.2,0.4-0.6-0.1-0.4c-2.3,0.7-5.4,2.1-6.2,4.6c0.3-0.1,0.6-0.2,0.9-0.2c-0.4-0.4-0.9-0.8-1.3-1.3
			C655.5,224.8,654.6,225.2,654.8,225.4L654.8,225.4z"/>
	</g>
	<g>
		<g>
			<path class="st20" d="M654.9,234.3c1.9,1.5,3.9,3.2,5.3,5.2c0.2,0.3,1.1,0,0.8-0.4c-1.4-2.1-3.5-3.8-5.5-5.3
				C655.3,233.6,654.5,234,654.9,234.3L654.9,234.3z"/>
		</g>
		<g>
			<path class="st20" d="M655.7,238.9c1.8-2.9,4.3-5.8,7.4-7.3c0.6-0.3,0.1-0.7-0.4-0.5c-3.3,1.6-6,4.6-7.9,7.7
				C654.6,239.2,655.5,239.2,655.7,238.9L655.7,238.9z"/>
		</g>
	</g>
	<g>
		<path class="st20" d="M655.3,246.4c1.1,0.6,2.7,1.4,3.3,2.5c0.2,0.3,0.8,0.1,1-0.1c2.4-2.4,3.3-6.4,6.5-8c0.6-0.3-0.3-0.3-0.6-0.2
			c-2.6,1.2-4.2,4.2-5.6,6.5c-0.3,0.4-0.6,0.9-0.9,1.3c-0.5,0.7,0.1-0.2,0.3,0.1c-0.1-0.2-0.3-0.3-0.4-0.5c-0.8-0.8-1.9-1.4-2.9-2
			C655.9,245.9,655.1,246.3,655.3,246.4L655.3,246.4z"/>
	</g>
</g>
<g>
	<path class="st20" d="M601.5,208.8c0.2-1,0.3-2,0.5-3c0-0.2-0.2-0.3-0.3-0.3c-0.4-0.1-0.7-0.1-1.1-0.2c-1.3-0.2-0.7-0.7-0.7-2
		c0-0.7-0.8-1.7-0.3-1.9c0.5-0.2,1-0.4,1.5-0.5c0.2-0.1,0.5-0.2,0.4-0.5c-0.3-0.9-0.7-1.9-1-2.8c-0.1-0.2-0.4-0.3-0.6-0.2
		c-0.3,0.1-0.7,0.2-1,0.4c-1.2,0.4-0.7,0-1.3-1c-0.4-0.6-1.7-1.6-1.3-2.1c0.3-0.4,0.7-0.8,1-1.2c0.1-0.1,0.1-0.3,0-0.5
		c-0.8-0.6-1.5-1.3-2.3-1.9c-0.2-0.2-0.6-0.1-0.8,0.1c-0.5,0.5-0.9,1.1-1.4,1.6c0.3,0,0.5-0.1,0.8-0.1c-1-0.6-2.1-1.2-3.2-1.6
		c-0.9-0.4-0.4-1.1-0.3-2.1c0-0.2-0.2-0.3-0.3-0.3c-1-0.2-2-0.3-3-0.5c-0.3,0-0.6,0.1-0.7,0.4c-0.1,0.4-0.1,0.7-0.2,1.1
		c-0.2,1.3-0.5,0.6-1.8,0.7c-0.6,0-1.7,0.6-1.9,0.1c-0.2-0.5-0.4-1-0.5-1.5c-0.1-0.2-0.4-0.3-0.6-0.2c-0.9,0.3-1.9,0.7-2.8,1
		c-0.2,0.1-0.5,0.2-0.4,0.5c0.2,0.5,0.4,1,0.5,1.5c0.2,0.5-0.6,0.7-1.2,1c-0.7,0.4-1.4,1.5-1.7,1.2c-0.4-0.3-0.8-0.7-1.2-1
		c-0.2-0.2-0.6-0.1-0.8,0.1c-0.6,0.8-1.3,1.5-1.9,2.3c-0.1,0.1-0.1,0.3,0,0.5c0.3,0.2,0.5,0.5,0.8,0.7c0.9,0.8,0.4,0.8-0.1,1.8
		c-0.3,0.5-0.5,1.1-0.7,1.6c0.4,0.5,0.3,0.6-0.2,0.4c-0.5-0.1-1-0.2-1.6-0.3c-0.3,0-0.6,0.1-0.7,0.4c-0.2,1-0.3,2-0.5,3
		c0,0.2,0.2,0.3,0.3,0.3c0.4,0.1,0.7,0.1,1.1,0.2c1.3,0.2,0.7,0.7,0.7,2c0,0.7,0.8,1.7,0.2,1.9c-0.5,0.2-1,0.4-1.5,0.5
		c-0.2,0.1-0.5,0.2-0.4,0.5c0.3,0.9,0.7,1.9,1,2.8c0.1,0.2,0.4,0.3,0.6,0.2c0.3-0.1,0.7-0.2,1-0.4c1.2-0.4,0.7,0,1.3,1
		c0.4,0.6,1.7,1.6,1.3,2.1c-0.3,0.4-0.7,0.8-1,1.2c-0.1,0.1-0.1,0.3,0,0.5c0.8,0.6,1.5,1.3,2.3,1.9c0.2,0.2,0.6,0.1,0.8-0.1
		c0.5-0.6,0.9-1.1,1.4-1.7c-0.3,0-0.5,0.1-0.8,0.1c1,0.6,2,1.2,3.2,1.6c0.9,0.4,0.4,1.1,0.3,2.1c0,0.2,0.2,0.3,0.3,0.3
		c1,0.2,2,0.3,3,0.5c0.3,0,0.6-0.1,0.7-0.4c0.1-0.4,0.1-0.7,0.2-1.1c0.2-1.3,0.5-0.6,1.8-0.7c0.6,0,1.7-0.6,1.9-0.1
		c0.2,0.5,0.4,1,0.5,1.5c0.1,0.2,0.4,0.3,0.6,0.2c0.9-0.3,1.9-0.7,2.8-1c0.2-0.1,0.5-0.2,0.4-0.5c-0.2-0.5-0.4-1-0.5-1.5
		c-0.2-0.5,0.6-0.7,1.1-1c0.7-0.4,1.4-1.5,1.7-1.2c0.4,0.3,0.8,0.7,1.2,1c0.2,0.2,0.6,0.1,0.8-0.1c0.6-0.8,1.3-1.5,1.9-2.3
		c0.1-0.1,0.1-0.3,0-0.5c-0.3-0.2-0.6-0.5-0.8-0.7c-0.9-0.8-0.4-0.8,0.1-1.8c0.3-0.5,0.5-1.1,0.7-1.6c-0.4-0.5-0.3-0.6,0.2-0.4
		c0.5,0.1,1,0.2,1.6,0.3c0.5,0.1,1-0.6,0.3-0.7c-0.7-0.1-1.4-0.2-2.1-0.4c-0.2,0-0.6,0.1-0.7,0.3c-0.5,1.4-1,2.7-1.8,3.9
		c-0.1,0.1,0,0.3,0.1,0.4c0.5,0.4,1.3,1.3,1.5,1c-0.6,0.7-1.2,1.5-1.9,2.2c0.3,0,0.5-0.1,0.8-0.1c-0.6-0.5-1.1-0.9-1.6-1.4
		c-0.2-0.2-0.6-0.1-0.7,0.1c-1.1,1-2.1,1.7-3.4,2.4c-0.1,0.1-0.3,0.2-0.3,0.4c0.2,0.5,0.4,1,0.5,1.5c0,0.5,0.2,0.5,0.5,0.1
		c-0.4,0.2-0.9,0.3-1.3,0.5c-0.3,0.1-0.7,0.2-1,0.4c-0.5,0.1-0.4,0.2,0.1,0.2c-0.2-0.6-0.5-1.2-0.7-1.9c-0.1-0.2-0.4-0.3-0.6-0.2
		c-1.5,0.3-2.7,0.4-4.2,0.4c-0.2,0-0.5,0.2-0.6,0.4c-0.1,0.7-0.2,1.4-0.4,2.1c0.2-0.1,0.5-0.3,0.7-0.4c-0.8-0.1-1.7-0.3-2.5-0.4
		c-0.5-0.1-0.1,0.3,0-0.3c0.1-0.5,0.2-1,0.3-1.6c0-0.1-0.1-0.3-0.2-0.3c-1.4-0.4-2.6-1-3.8-1.8c-0.3-0.2-0.6-0.1-0.8,0.1
		c-0.5,0.6-0.9,1.1-1.4,1.7c0.3,0,0.5-0.1,0.8-0.1c-0.7-0.5-1.3-1.1-2-1.6c-0.4-0.3-0.4,0.2,0-0.3c0.3-0.4,0.7-0.8,1-1.2
		c0.1-0.1,0.1-0.3,0-0.4c-1-1.1-1.8-2.2-2.5-3.5c-0.1-0.2-0.4-0.2-0.6-0.1c-0.5,0.2-1,0.4-1.5,0.5c-0.5,0.1-0.5,0.2,0,0.3
		c-0.2-0.4-0.3-0.9-0.5-1.3c-0.3-0.8-0.2-1.2-0.8-1c0.6-0.2,1.2-0.5,1.9-0.7c0.2-0.1,0.5-0.2,0.4-0.5c-0.3-1.4-0.4-2.8-0.4-4.2
		c0-0.2-0.2-0.3-0.3-0.3c-0.4-0.1-0.7-0.1-1.1-0.2c-0.7-0.1-0.7-0.2-0.7,0c0.2-0.9,0.3-1.9,0.5-2.9c-0.2,0.1-0.5,0.3-0.7,0.4
		c0.7,0.1,1.4,0.2,2.1,0.4c0.2,0,0.6-0.1,0.7-0.3c0.5-1.4,1-2.7,1.8-3.9c0.1-0.1,0-0.3-0.1-0.4c-0.5-0.4-1.3-1.3-1.5-1
		c0.6-0.7,1.2-1.5,1.9-2.2c-0.3,0-0.5,0.1-0.8,0.1c0.6,0.5,1.1,0.9,1.7,1.4c0.2,0.2,0.6,0.1,0.7-0.1c1.1-1,2.1-1.7,3.4-2.4
		c0.1-0.1,0.3-0.2,0.3-0.4c-0.2-0.5-0.4-1-0.5-1.5c0-0.5-0.2-0.5-0.5-0.1c0.4-0.2,0.9-0.3,1.3-0.5c0.3-0.1,0.7-0.2,1-0.4
		c0.5-0.1,0.4-0.2-0.1-0.2c0.2,0.6,0.5,1.2,0.7,1.9c0.1,0.2,0.4,0.3,0.6,0.2c1.5-0.3,2.7-0.4,4.2-0.4c0.2,0,0.5-0.2,0.6-0.4
		c0.1-0.7,0.2-1.4,0.4-2.1c-0.2,0.1-0.5,0.3-0.7,0.4c0.8,0.1,1.7,0.3,2.5,0.4c0.5,0.1,0.1-0.3,0,0.3c-0.1,0.5-0.2,1-0.3,1.6
		c0,0.1,0.1,0.3,0.2,0.3c1.4,0.4,2.6,1,3.8,1.8c0.3,0.2,0.6,0.1,0.8-0.1c0.5-0.5,0.9-1.1,1.4-1.6c-0.3,0-0.5,0.1-0.8,0.1
		c0.7,0.5,1.3,1.1,2,1.6c0.4,0.3,0.4-0.2,0,0.3c-0.3,0.4-0.7,0.8-1,1.2c-0.1,0.1-0.1,0.3,0,0.4c1,1.1,1.8,2.2,2.5,3.5
		c0.1,0.2,0.4,0.2,0.6,0.1c0.5-0.2,1-0.4,1.5-0.5c0.5-0.1,0.5-0.2,0-0.3c0.2,0.4,0.3,0.9,0.5,1.3c0.3,0.8,0.2,1.2,0.8,1
		c-0.6,0.2-1.2,0.5-1.9,0.7c-0.2,0.1-0.5,0.2-0.4,0.5c0.3,1.4,0.4,2.8,0.4,4.2c0,0.2,0.2,0.3,0.3,0.3c0.4,0.1,0.7,0.1,1.1,0.2
		c0.7,0.1,0.7,0.2,0.7,0c-0.2,0.9-0.3,1.9-0.5,2.8C600.4,209.4,601.4,209.3,601.5,208.8z"/>
	<path class="st20" d="M584.6,209.2c-5.6-1.3-4.5-9.8,1.4-9.1C591.7,200.8,590.5,209.9,584.6,209.2c-0.5-0.1-1,0.7-0.3,0.7
		c2.7,0.3,5.7-1.1,6.3-3.9c0.7-3.2-1.2-5.9-4.3-6.6c-2.6-0.6-5.7,1.3-6.3,3.9c-0.7,3.2,1.1,5.9,4.3,6.6
		C584.8,210,585.3,209.3,584.6,209.2z"/>
</g>
</svg>
