<svg id="Capa_1" enable-background="new 0 0 512 512" height="512" viewBox="0 0 512 512" width="512" xmlns="http://www.w3.org/2000/svg"><g><path d="m512 338.835c0-.013-.002-.026-.002-.039v-265.031c0-22.405-18.227-40.632-40.632-40.632h-25.633v-9.633c0-12.958-10.542-23.5-23.5-23.5h-332.466c-12.958 0-23.5 10.542-23.5 23.5v9.633h-25.633c-22.405 0-40.632 18.228-40.632 40.632v265.04c0 .01-.002.019-.002.029s.001.019.002.029v33.104c0 22.405 18.228 40.632 40.632 40.632h39.689c4.142 0 7.5-3.358 7.5-7.5s-3.358-7.5-7.5-7.5h-39.689c-14.134 0-25.632-11.499-25.632-25.632v-25.633h481.996v25.633c0 14.134-11.498 25.632-25.632 25.632h-361.044c-4.142 0-7.5 3.358-7.5 7.5s3.358 7.5 7.5 7.5h75.056l-6.409 51.268h-38.935c-4.142 0-7.5 3.358-7.5 7.5v33.133c0 4.142 3.358 7.5 7.5 7.5h231.933c4.142 0 7.5-3.358 7.5-7.5v-33.132c0-4.142-3.358-7.5-7.5-7.5h-38.937l-6.409-51.268h144.744c22.405 0 40.632-18.228 40.632-40.632v-33.095c.001-.013.003-.025.003-.038zm-265.066 73.765h18.133v18.133h-18.133zm117.533 84.4h-216.933v-18.132h216.933zm-46.553-33.132h-123.828l6.409-51.268h31.439v25.633c0 4.142 3.358 7.5 7.5 7.5h33.133c4.142 0 7.5-3.358 7.5-7.5v-25.633h31.438zm145.953-132.533h-18.134v-250.068h17.351c.432 0 .783.352.783.783zm-382.6-307.835c0-4.687 3.813-8.5 8.5-8.5h332.466c4.687 0 8.5 3.813 8.5 8.5v307.833h-349.466zm-66.265 50.265c0-14.134 11.498-25.632 25.632-25.632h25.633v18.134h-17.351c-8.703 0-15.783 7.08-15.783 15.783v19.181c0 4.142 3.358 7.5 7.5 7.5s7.5-3.358 7.5-7.5v-19.18c0-.432.352-.783.783-.783h17.351v250.067h-18.134v-200.103c0-4.142-3.358-7.5-7.5-7.5s-7.5 3.358-7.5 7.5v200.103h-18.131zm463.865 257.57v-249.284c0-8.703-7.081-15.783-15.783-15.783h-17.351v-18.135h25.633c14.134 0 25.632 11.499 25.632 25.632v257.569h-18.131z"/><path d="m272.566 379.466c4.142 0 7.5-3.358 7.5-7.5s-3.358-7.5-7.5-7.5h-33.133c-4.142 0-7.5 3.358-7.5 7.5s3.358 7.5 7.5 7.5z"/><path d="m185.592 155.817h8.283c4.142 0 7.5-3.358 7.5-7.5s-3.358-7.5-7.5-7.5h-8.283c-4.142 0-7.5 3.358-7.5 7.5s3.358 7.5 7.5 7.5z"/><path d="m139.467 115.967c-12.958 0-23.5 10.542-23.5 23.5v17.7c0 12.958 10.542 23.5 23.5 23.5h10.678c2.287 7.392 8.13 13.235 15.522 15.522v52.311h-1.067c-8.547 0-15.5 6.953-15.5 15.5v17.133c0 8.547 6.953 15.5 15.5 15.5h50.267c8.547 0 15.5-6.953 15.5-15.5v-17.133c0-8.547-6.953-15.5-15.5-15.5h-1.067v-51.267h7.849l93.117 31.039v3.161c0 8.547 6.953 15.5 15.5 15.5h17.134c8.547 0 15.5-6.953 15.5-15.5v-34.905c18.833-3.53 33.133-20.085 33.133-39.928s-14.3-36.397-33.133-39.928v-51.472c0-8.547-6.953-15.5-15.5-15.5h-17.133c-8.547 0-15.5 6.953-15.5 15.5v3.161l-93.118 31.039h-49.049c-10.545 0-19.49 6.982-22.455 16.566h-10.678zm-8.5 41.2v-17.7c0-4.687 3.813-8.5 8.5-8.5h9.633v34.7h-9.633c-4.687 0-8.5-3.813-8.5-8.5zm84.4 106.833v17.133c0 .276-.224.5-.5.5h-50.267c-.276 0-.5-.224-.5-.5v-17.133c0-.276.224-.5.5-.5h8.567 33.133 8.566c.277 0 .501.224.501.5zm-16.567-15.5h-18.133v-51.267h18.133zm182.233-91.9c0 11.526-7.647 21.296-18.133 24.511v-49.023c10.486 3.215 18.133 12.986 18.133 24.512zm-51.266-91.4c0-.276.224-.5.5-.5h17.133c.276 0 .5.224.5.5v166.233c0 .276-.224.5-.5.5h-17.133c-.276 0-.5-.224-.5-.5v-8.566-149.1zm-15 147.261-84.4-28.133v-72.021l84.4-28.133zm-150.667-89.561c0-4.687 3.813-8.5 8.5-8.5h42.767v67.833h-9.067-33.133-.567c-4.687 0-8.5-3.813-8.5-8.5v-.566-49.7z"/><path d="m396.033 272.566c0-4.142-3.358-7.5-7.5-7.5s-7.5 3.358-7.5 7.5v9.067h-9.067c-4.142 0-7.5 3.358-7.5 7.5s3.358 7.5 7.5 7.5h9.067v9.066c0 4.142 3.358 7.5 7.5 7.5s7.5-3.358 7.5-7.5v-9.066h9.066c4.142 0 7.5-3.358 7.5-7.5s-3.358-7.5-7.5-7.5h-9.066z"/><path d="m106.9 64.7h9.066v9.067c0 4.142 3.358 7.5 7.5 7.5s7.5-3.358 7.5-7.5v-9.067h9.067c4.142 0 7.5-3.358 7.5-7.5s-3.358-7.5-7.5-7.5h-9.067v-9.066c0-4.142-3.358-7.5-7.5-7.5s-7.5 3.358-7.5 7.5v9.066h-9.066c-4.142 0-7.5 3.358-7.5 7.5s3.358 7.5 7.5 7.5z"/></g></svg>