<svg id="Layer_1" data-name="Layer 1" xmlns="http://www.w3.org/2000/svg" viewBox="0 0 1280 299.82"><defs><style>.cls-1{fill:#f2f2f2;}.cls-2{fill:#e8e8e8;}.cls-3{fill:#dbdbdb;}</style></defs><title>footer</title><path class="cls-1" d="M1280,1024V725.81c-41.74-10.44-66.59,32.1-188.93,53-93.54,16-109.53-3.64-238.9,15.84-65.73,9.9-114.21,22.9-149.95,34.44-41.46,13.38-64.5,24.4-81,31-114,45.62-228.78,5.31-343.86,17.21-70.85,7.33-170,37.35-276.9,146L0,1024Z" transform="translate(0 -724.18)"/><path class="cls-2" d="M1280,1024V725.81c-41.75-10.44-49.6,58.26-172,79.19-93.56,16-109.56-3.64-238.95,15.84-65.73,9.9-114.22,22.9-150,34.44-41.47,13.38-64.51,24.4-81,31-114.07,45.62-228.83,5.31-343.93,17.21-70.85,7.33-187,11.18-293.93,119.83A2.11,2.11,0,0,0,0,1024Z" transform="translate(0 -724.18)"/><path class="cls-3" d="M1280,1024V725.81c-41.74-10.44-57.6,75.48-180,96.41-93.56,16-109.55-3.65-238.94,15.84-65.73,9.9-114.22,22.89-150,34.43-41.47,13.39-64.51,24.4-81,31-114.07,45.63-228.83,5.32-343.92,17.22-70.86,7.32-179-6-285.93,102.61A2.24,2.24,0,0,0,0,1024Z" transform="translate(0 -724.18)"/></svg>