<?xml version="1.0" encoding="utf-8"?>
<!-- Generator: Adobe Illustrator 22.0.0, SVG Export Plug-In . SVG Version: 6.00 Build 0)  -->
<svg version="1.1" id="Layer_1" xmlns="http://www.w3.org/2000/svg" xmlns:xlink="http://www.w3.org/1999/xlink" x="0px" y="0px"
	 viewBox="0 0 1367 705.2" style="enable-background:new 0 0 1367 705.2;" xml:space="preserve">
<style type="text/css">
	.st0{fill:#EFEFEF;}
	.st1{fill:url(#SVGID_1_);}
	.st2{fill:#D8D8D8;}
	.st3{fill:url(#SVGID_2_);}
	.st4{fill:#C6C6C6;}
	.st5{fill:url(#SVGID_3_);}
	.st6{fill:url(#SVGID_4_);}
	.st7{fill:url(#SVGID_5_);}
	.st8{fill:url(#SVGID_6_);}
</style>
<title>genesis landing page</title>
<path class="st0" d="M-0.1,518.7H0c0.1-0.2,0.2-0.4,0.2-0.5C0.2,518.3,0,518.5-0.1,518.7z"/>
<linearGradient id="SVGID_1_" gradientUnits="userSpaceOnUse" x1="0.2293" y1="379.7675" x2="1367.15" y2="379.7675">
	<stop  offset="0.5436" style="stop-color:#045DE9"/>
	<stop  offset="0.7385" style="stop-color:#09C6F9"/>
</linearGradient>
<path class="st1" d="M681.6,395.3c17.6-8.2,42.2-21.9,86.5-38.6c38.2-14.3,90-30.5,160.2-42.8c138.2-24.1,155.3,0.2,255.2-19.7
	c130.7-26,139.1-111.5,183.7-98.6c-44.6-12.9-71.1,39.9-201.8,66c-99.9,19.9-117-4.5-255.2,19.7c-70.2,12.3-122,28.5-160.2,42.8
	c-44.3,16.7-68.9,30.4-86.5,38.6C541.6,419.5,419,369.3,296,384.1c-75.7,9.1-181.6,46.5-295.8,181.7c0,0,0,0,0,0
	c114.2-135.1,238.2-139.9,313.9-149.1C437.2,401.9,559.8,452.1,681.6,395.3z"/>
<path class="st2" d="M0.4,518C0.4,518.1,0.3,518.1,0.4,518C0.3,518.1,0.4,518.1,0.4,518C0.4,518,0.4,518,0.4,518z"/>
<linearGradient id="SVGID_2_" gradientUnits="userSpaceOnUse" x1="0.229" y1="380.1087" x2="1367.15" y2="380.1087">
	<stop  offset="0.2974" style="stop-color:#045DE9"/>
	<stop  offset="0.9128" style="stop-color:#09C6F9"/>
</linearGradient>
<path class="st3" d="M305.6,438.3c123-14.8,245.6,35.3,367.5-21.5c17.6-8.2,42.2-21.9,86.5-38.6c38.2-14.3,90-30.5,160.2-42.8
	c138.2-24.1,155.3,0.2,255.2-19.7c130.7-26,147.6-132.9,192.2-120c-44.6-12.9-53,72.6-183.7,98.6c-99.9,19.9-117-4.5-255.2,19.7
	c-70.2,12.3-122,28.5-160.2,42.8c-44.3,16.7-68.9,30.4-86.5,38.6c-121.8,56.7-244.4,6.6-367.4,21.4
	c-75.7,9.2-199.7,14.1-313.9,149.1c0,0,0,0,0,0C114.4,430.8,229.9,447.3,305.6,438.3z"/>
<path class="st4" d="M-0.1,566.8h1367.3L-0.1,566.7C-0.1,566.7-0.1,566.8-0.1,566.8z"/>
<path class="st4" d="M0.3,518.1C0.3,518.1,0.3,518.1,0.3,518.1C0.3,518.1,0.3,518.1,0.3,518.1C0.4,518.1,0.3,518.1,0.3,518.1z"/>
<linearGradient id="SVGID_3_" gradientUnits="userSpaceOnUse" x1="-0.1113" y1="380.7116" x2="1367.15" y2="380.7116">
	<stop  offset="0" style="stop-color:#122ACC"/>
	<stop  offset="1" style="stop-color:#0B88EE"/>
</linearGradient>
<path class="st5" d="M1175,315.7c-99.9,19.9-117-4.5-255.2,19.7c-70.2,12.3-122,28.5-160.2,42.8c-44.3,16.7-68.9,30.4-86.5,38.6
	c-121.9,56.9-244.5,6.7-367.5,21.5c-75.7,9.1-191.1-7.5-305.3,127.6c0,0.1-0.1,0.1-0.1,0.2c-0.1,0.2-0.2,0.4-0.2,0.7l1367.3,0.1
	V195.7C1322.6,182.8,1305.7,289.7,1175,315.7z"/>
<linearGradient id="SVGID_4_" gradientUnits="userSpaceOnUse" x1="772.0771" y1="1110.0208" x2="2139.0771" y2="1110.0208">
	<stop  offset="0" style="stop-color:#122ACC"/>
	<stop  offset="1" style="stop-color:#0B88EE"/>
</linearGradient>
<path class="st6" d="M772.1,801.1V1419c0,0,0.1,0,0.1-0.1l0,0c114.2-95.2,220.1-121.6,295.8-128.1c123-10.4,245.6,24.9,367.4-15.1
	c17.6-5.8,42.2-15.4,86.5-27.2c38.2-10.1,90-21.5,160.2-30.2c138.2-17,155.3,0.2,255.2-13.9c130.7-18.3,157.2-55.6,201.8-46.5v-357
	H772.1z"/>
<linearGradient id="SVGID_5_" gradientUnits="userSpaceOnUse" x1="772.1771" y1="1287.7517" x2="2139.0771" y2="1287.7517">
	<stop  offset="0.2974" style="stop-color:#045DE9"/>
	<stop  offset="0.9128" style="stop-color:#09C6F9"/>
</linearGradient>
<path class="st7" d="M1937.3,1204.5c-99.9,14-117-3.2-255.2,13.9c-70.2,8.7-122,20.1-160.2,30.2c-44.3,11.8-68.9,21.4-86.5,27.2
	c-121.8,40-244.4,4.6-367.4,15.1c-75.7,6.4-181.6,32.8-295.8,128.1l0,0c114.2-95.2,238.2-98.6,313.9-105.1
	c123-10.4,245.6,24.9,367.4-15.1c17.6-5.8,42.2-15.4,86.5-27.2c38.2-10.1,90-21.5,160.2-30.2c138.2-17,155.3,0.2,255.2-13.9
	c130.7-18.3,139.1-78.6,183.7-69.5C2094.5,1148.9,2068,1186.2,1937.3,1204.5z"/>
<linearGradient id="SVGID_6_" gradientUnits="userSpaceOnUse" x1="772.1771" y1="1287.9921" x2="2139.0771" y2="1287.9921">
	<stop  offset="0.5436" style="stop-color:#045DE9"/>
	<stop  offset="0.7385" style="stop-color:#09C6F9"/>
</linearGradient>
<path class="st8" d="M1955.4,1227.5c-99.9,14-117-3.2-255.2,13.9c-70.2,8.7-122,20.1-160.2,30.2c-44.3,11.8-68.9,21.4-86.5,27.2
	c-121.8,40-244.4,4.6-367.4,15.1c-75.7,6.5-199.7,9.9-313.9,105.1l0,0c114.2-95.2,229.6-83.5,305.3-89.9
	c123-10.4,245.6,24.9,367.5-15.2c17.6-5.8,42.2-15.4,86.5-27.2c38.2-10.1,90-21.5,160.2-30.2c138.2-17,155.3,0.2,255.2-13.9
	c130.7-18.3,147.6-93.7,192.2-84.5C2094.5,1148.9,2086.1,1209.2,1955.4,1227.5z"/>
</svg>
