<?xml version="1.0" encoding="utf-8"?>
<!-- Generator: Adobe Illustrator 22.0.0, SVG Export Plug-In . SVG Version: 6.00 Build 0)  -->
<svg version="1.1" id="Layer_1" xmlns="http://www.w3.org/2000/svg" xmlns:xlink="http://www.w3.org/1999/xlink" x="0px" y="0px"
	 viewBox="0 0 1367 705.2" style="enable-background:new 0 0 1367 705.2;" xml:space="preserve">
<style type="text/css">
	.st0{fill:url(#SVGID_1_);}
	.st1{fill:#D6D6D6;}
	.st2{fill:url(#SVGID_2_);}
	.st3{fill:#EFEFEF;}
	.st4{fill:url(#SVGID_3_);}
	.st5{fill:#FFFFFF;}
	.st6{fill:#231F20;}
	.st7{fill:#D3DDE2;}
	.st8{fill:#F26B23;}
	.st9{fill:none;stroke:#231F20;stroke-miterlimit:10;}
	.st10{fill:#231F20;stroke:#231F20;stroke-miterlimit:10;}
	.st11{fill:#ED2D5D;}
</style>
<title>genesis landing page</title>
<linearGradient id="SVGID_1_" gradientUnits="userSpaceOnUse" x1="1539.7905" y1="290.9919" x2="359.7905" y2="436.992" gradientTransform="matrix(1 0 0 -1 0 705.8898)">
	<stop  offset="0" style="stop-color:#122ACC"/>
	<stop  offset="1" style="stop-color:#0B88EE"/>
</linearGradient>
<path class="st0" d="M0,0v617.9c0,0,0.1,0,0.1-0.1l0,0c114.2-95.2,220.1-121.6,295.8-128.1c123-10.4,245.6,24.9,367.4-15.1
	c17.6-5.8,42.2-15.4,86.5-27.2c38.2-10.1,90-21.5,160.2-30.2c138.2-17,155.3,0.2,255.2-13.9c130.7-18.3,157.2-55.6,201.8-46.5V0H0z"
	/>
<path class="st1" d="M-0.4,705.1L-0.4,705.1c0.2-0.2,0.3-0.4,0.3-0.5C-0.1,704.7-0.3,704.9-0.4,705.1z"/>
<linearGradient id="SVGID_2_" gradientUnits="userSpaceOnUse" x1="1370.9292" y1="55.162" x2="-1.0708" y2="381.162" gradientTransform="matrix(1 0 0 -1 0 705.8898)">
	<stop  offset="0.2974" style="stop-color:#045DE9"/>
	<stop  offset="0.9128" style="stop-color:#09C6F9"/>
</linearGradient>
<path class="st2" d="M1165.2,403.4c-99.9,14-117-3.2-255.2,13.9c-70.2,8.7-122,20.1-160.2,30.2c-44.3,11.8-68.9,21.4-86.5,27.2
	c-121.8,40-244.4,4.6-367.4,15.1c-75.7,6.4-181.6,32.8-295.8,128.1l0,0c114.2-95.2,238.2-98.6,313.9-105.1
	c123-10.4,245.6,24.9,367.4-15.1c17.6-5.8,42.2-15.4,86.5-27.2c38.2-10.1,90-21.5,160.2-30.2c138.2-17,155.3,0.2,255.2-13.9
	c130.7-18.3,139.1-78.6,183.7-69.5C1322.4,347.8,1295.9,385.1,1165.2,403.4z"/>
<path class="st3" d="M0.1,704.4C0.1,704.5,0,704.5,0.1,704.4C0,704.5,0.1,704.5,0.1,704.4L0.1,704.4z"/>
<linearGradient id="SVGID_3_" gradientUnits="userSpaceOnUse" x1="1316.3873" y1="54.684" x2="118.3873" y2="364.6839" gradientTransform="matrix(1 0 0 -1 0 705.8898)">
	<stop  offset="0.5436" style="stop-color:#045DE9"/>
	<stop  offset="0.7385" style="stop-color:#09C6F9"/>
</linearGradient>
<path class="st4" d="M1183.3,426.4c-99.9,14-117-3.2-255.2,13.9c-70.2,8.7-122,20.1-160.2,30.2c-44.3,11.8-68.9,21.4-86.5,27.2
	c-121.8,40-244.4,4.6-367.4,15.1c-75.7,6.5-199.7,9.9-313.9,105.1l0,0c114.2-95.2,229.6-83.5,305.3-89.9
	c123-10.4,245.6,24.9,367.5-15.2c17.6-5.8,42.2-15.4,86.5-27.2c38.2-10.1,90-21.5,160.2-30.2c138.2-17,155.3,0.2,255.2-13.9
	c130.7-18.3,147.6-93.7,192.2-84.5C1322.4,347.8,1314,408.1,1183.3,426.4z"/>
<path class="st5" d="M0,704.5L0,704.5L0,704.5L0,704.5z"/>
<path class="st5" d="M-0.3,705.1L-0.3,705.1l0.3,0.1v-0.1H-0.3z"/>
<rect y="705.1" class="st5" width="1367" height="0.1"/>
<path class="st5" d="M0.1,704.4C0.1,704.5,0,704.5,0.1,704.4L0.1,704.4C0,704.5,0,704.5,0.1,704.4z"/>
<path class="st5" d="M0,704.5L0,704.5c-0.1,0.2-0.2,0.4-0.3,0.6H0V704.5z"/>
<g id="XMLID_1_">
	<g id="XMLID_1343_">
		<g id="XMLID_1342_">
			<g id="XMLID_1293_">
				<path id="XMLID_1305_" class="st6" d="M780.5,358.8c-2.7-1.8-5.7-3.3-8.8-4.1c-1.8-0.4-3.6-0.5-5.3-0.1
					c-2.6,0.6-4.3,1.5-4.9,4.2c-0.2,0.8-0.4,1.6-0.7,2.5c-0.4,1.6-0.8,3.3-1,5c-0.1,1.3,0,2.7,0.6,4c0.5,1,2,2.8,3.2,2.8
					c3.7,1.4,8.5,0.9,12.4,0.7c3.2-0.2,8.5,0,11.3-1.8C792.5,368.3,783.3,360.8,780.5,358.8z"/>
				<path id="XMLID_1307_" class="st6" d="M782.4,371.7c-5.3,0.8-11.5,1.4-16.8,0.4c-7.8-1.5-3.5-9.6-2.6-14.6l0,0
					c4.3-4.1,11.8-0.9,16.1,1.8c2.1,1.4,4.1,3,5.7,4.9c0.7,0.8,2,2.1,2.2,3.1C788,371.3,784.4,371.4,782.4,371.7z"/>
			</g>
			<g id="XMLID_1287_">
				<path id="XMLID_1309_" class="st6" d="M736.8,357.1C736.7,357.1,736.7,357.1,736.8,357.1c-0.8-0.8-1.6-0.8-2.5-0.9
					s-1.9-0.1-2.8-0.1c-1.9,0-3.7,0.1-5.6,0.4c-3.7,0.6-7.3,1.7-10.7,3.3c-0.8,0.4-1.5,0.8-2.3,1.2c-3,1.7-14.2,9.7-5.4,11.4
					c4.7,0.9,9.8,0.8,14.6,0.7c4.6-0.1,9.5-0.2,14-1.4c2.8-0.7,5.2-2.4,5.5-5.5c0.2-1.8-0.4-3.6-1.4-5.1c-0.5-0.8-1.1-1.5-1.7-2.2
					C737.8,358.4,737.3,357.7,736.8,357.1z"/>
				<path id="XMLID_1310_" class="st6" d="M738.9,369c-2.3,2.4-7.2,2.3-10.2,2.6c-6.5,0.6-13,0.6-19.5-0.1c-2.4,0.3-3.3-1-2.7-4
					c0.5-0.5,1-0.9,1.4-1.4c1.2-1.1,2.5-2,3.8-2.9c2.4-1.6,5.1-2.9,7.8-3.9c2.5-0.9,5.2-1.4,7.8-1.7c1.3-0.1,2.7-0.2,4-0.2
					c0.6,0,1.1,0.1,1.7,0c0.6,0,1.3-0.1,1.9,0.1c0.6,0.2,0.9,0.6,1.3,1.1c0.4,0.5,0.9,1,1.3,1.5c0.7,0.9,1.4,1.8,1.9,2.8
					C740.6,365.1,740.6,367.3,738.9,369z"/>
			</g>
			<g id="XMLID_1284_">
				<path id="XMLID_1286_" class="st6" d="M779.2,356.9c-8.4-39-16.8-78.1-25.2-117.1c0-0.2,0-0.4-0.1-0.5c-0.2-0.4-0.6-0.4-0.9-0.2
					c-14.3-0.2-28.5,1.9-42.3,6c-0.1,0-0.2,0.1-0.3,0.2c-0.3,0-0.7,0.1-0.7,0.6c2.9,37.7,5.8,75.4,8.8,113.1c-0.1,0.3,0,0.7,0.4,0.8
					c6.6,1.4,13.3,1.5,20,0.2c0.5-0.1,0.5-0.5,0.4-0.8c0.1-0.1,0.2-0.2,0.1-0.4c-1.3-25.8-2.7-51.5-4-77.3c0.1,0.5,0.3,0.9,0.4,1.4
					c1.1,3.5,2.2,7,3.4,10.5l6.7,21.1c2.2,7,4.5,14,6.7,21.1c1.4,4.4,2.9,8.8,4.3,13.2c0.7,2.2,1.4,4.4,2,6.6c0.5,1.7,0.5,4,1.9,5.3
					c1.7,1.6,4.6,0.7,6.6,0.6c4-0.3,7.8-1.4,11.4-3.2c0.3-0.1,0.3-0.4,0.3-0.6C779.2,357.3,779.3,357.1,779.2,356.9z"/>
				<path id="XMLID_1292_" class="st5" d="M762.8,359.9c-1.2-0.1-1.2-0.3-1.6-1.4c-4.3-13.9-8.8-27.7-13.2-41.6
					c-4.5-14-9-28-13.4-42.1c-0.3-0.8-0.5-1.7-0.8-2.5c-0.2-0.8-1.5-0.5-1.2,0.3c0.2,0.8,0.6,1.5,0.9,2.3c0.8,2.6,0.7,5.3,0.8,8
					c0.1,1.7,0.2,3.4,0.3,5.1c0.2,3.4,0.4,6.8,0.5,10.2c0.4,6.8,0.7,13.6,1.1,20.4c0.4,6.8,0.7,13.6,1.1,20.4
					c0.3,6.6,0.7,13.2,1,19.8v0.1c0,0.1-4.1,0.6-4.5,0.6c-1.5,0.1-3.1,0.2-4.6,0.2c-1.6,0-3.2-0.1-4.8-0.3c-0.8-0.1-1.6-0.2-2.4-0.3
					c-0.6-0.1-1.8,0-2.1-0.5s-0.1-1.3-0.1-1.9c-0.1-0.8-0.1-1.7-0.2-2.5c-0.1-1.7-0.3-3.3-0.4-5c-0.3-3.3-0.5-6.7-0.8-10
					c-0.5-6.7-1-13.3-1.5-20s-1-13.3-1.5-20s-1-13.3-1.5-20s-1-13.3-1.5-20c-0.3-4.2-0.7-8.5-1-12.7c13.6-4.1,27.6-6.1,41.8-6
					c8.4,38.9,16.7,77.8,25.1,116.7c-3.1,1.5-6.4,2.5-9.9,2.9C766.3,360.1,764.6,360.1,762.8,359.9z"/>
			</g>
		</g>
		<g id="XMLID_1341_">
			<g id="XMLID_1311_">
				<path id="XMLID_1315_" class="st6" d="M715.6,173c-1.1-0.9-2-0.2-3.3,0.3c-1.2,0.5-2.3,1-3.5,1.5c-2.3,1-4.5,2.1-6.7,3.3
					c-4.4,2.3-8.7,5-12.7,8c-1,0.7-2,1.5-3,2.3c-4.2,3.4-8.2,7.1-11.8,11.1c-2.4,2.7-5.3,6-5.4,9.8c-0.1,3.4,2.3,6.1,5.4,7.2
					c4.3,1.5,8.7-0.2,12.6-2.1c5.4-2.6,10.7-5.5,15.7-8.6c4.5-2.8,9.3-5.7,13.1-9.5c5.3-5.3,6.5-14,2.1-20.3c-0.7-1.1-1.6-2-2.5-2.9
					C715.7,173.1,715.6,173.1,715.6,173z"/>
				<path id="XMLID_1324_" class="st5" d="M708.9,200.4c-4.6,3.2-9.4,6.1-14.3,8.8c-5,2.8-11.5,7.1-17.4,6.5
					c-3.9-0.4-7.3-3.3-6.5-7.5c0.5-2.5,2.2-4.7,3.8-6.6c3.3-3.9,7.1-7.5,11-10.9c8.6-7.3,18.5-12.9,29-16.9c0,0.1,0.1,0.1,0.2,0.2
					c4.1,3.6,6,9.3,4.7,14.6C718,194,713.3,197.4,708.9,200.4z"/>
			</g>
			<g id="XMLID_1332_">
				<g id="XMLID_1269_">
					<path id="XMLID_1288_" class="st6" d="M760.2,180.9c-0.2-0.8-0.4-1.6-0.6-2.4c-0.2-0.8-0.4-1.8-0.9-2.5
						c-0.4-0.6-1.1-1.1-1.7-1.3c-0.7-0.3-1.4-0.7-2.2-1.1c-1-0.5-2-0.9-3-1.4c-2-0.8-4.1-1.5-6.3-2.1c-4.3-1.1-8.7-1.7-13.1-1.7
						c-0.8,0-1.5,0-2.3,0.1c-7.7,0.4-17.2,2.2-21.6,9.3c-2.2,3.5-2.9,7.6-3.4,11.7c-0.7,5.5-1,11.1-1,16.7c0,5.6,0.5,11.1,1.2,16.7
						c0.6,4.6,1.8,9.3,2.4,14c0.5,4.9,0,9.9-0.1,14.8c0,0.5,0.5,0.7,0.9,0.6c2.7-1.1,5.5-2.3,8.2-3.4c4-1.7,7.4-3.7,11.1-0.2
						c2.7,2.5,4.8,6.2,8.9,6.2c4.4,0,8.9-3.8,12.5-5.9c1.8-1,3.8-1.7,5.4-3.1c1.8-1.5,1.9-4,1.8-6.2c-0.2-2.5-0.4-4.9-0.4-7.5
						c0-3,0.1-6.1,0.1-9.1c0.1-2.8,0.3-5.6,0.5-8.5c0.2-2.8,0.9-5.7,0.9-8.4c0.6-4.2,1.6-8.3,2.3-12.5
						C760.6,189.4,761,185.1,760.2,180.9z"/>
					<path id="XMLID_1291_" class="st5" d="M758.5,193.9c-0.9,5.1-1.9,10.1-2.6,15.2c-0.7,5.5-1.1,11-1.3,16.5
						c-0.1,2.8-0.1,5.7,0,8.5c0,1.5,0,3,0.1,4.5c0.2,2.2,1.1,4.1-0.6,5.9c-1.4,1.4-3.3,2-5,2.9c-2.1,1.2-4.2,2.5-6.3,3.7
						c-3,1.7-6.1,3.5-9.4,1.3c-1.9-1.2-3.1-3.3-4.7-4.8c-2.3-2.1-4.7-3-7.7-2c-4.1,1.4-8.2,3.3-12.2,5.1c0.1-3,0.2-6,0.2-8.9
						c0.1-4.6-1-9.1-1.8-13.7c-0.8-4.9-1.4-9.8-1.7-14.8c-0.1-1.2-0.1-2.4-0.1-3.6c-0.2-9-0.4-19.4,2.6-27.9
						c3.4-9.6,14.1-11.9,23.2-12.1c9.2-0.2,18.3,2.2,26.2,6.7C760,182,759.5,188,758.5,193.9z"/>
					<path id="XMLID_6_" class="st7" d="M749.1,247.4c1.6-1,3.6-1.6,5-2.9c1.7-1.8,0.9-3.7,0.6-5.9c-0.2-1.5-0.1-3-0.1-4.5
						c-0.1-2.8,0-5.7,0-8.5c0.2-5.5,0.6-11,1.3-16.5c0.7-5.1,1.7-10.1,2.6-15.2c1.1-5.9,1.6-11.9-1-17.5c-0.8-0.5-1.6-0.9-2.5-1.3
						c-0.6,16.3-3.6,32.5-9.2,47.9c-3.2,9-7.8,18.2-16.1,23.6c-0.4,0.3-0.9,0.5-1.3,0.8c0.1,0.1,0.2,0.1,0.2,0.2
						c1.6,1.5,2.8,3.5,4.7,4.8c3.3,2.2,6.4,0.4,9.4-1.3C744.9,249.8,747,248.6,749.1,247.4z"/>
				</g>
				<g id="XMLID_1280_">
					<path id="XMLID_1300_" class="st6" d="M729.7,174.7c-2.6-0.2-4.5,1.9-5,4.2c-0.1,0.1-0.2,0.3-0.1,0.5c0.3,1.4,0.5,3.8,1.5,5.1
						c0.1,0.1-2.1,3.1-2.3,3.5c-0.7,1.3-1.4,2.6-2,3.9c-0.7,1.6-1.2,3.3-1.7,5c-0.5,1.8-1.2,3.6-1.3,5.5c-0.2,1.9,0.4,3.7,0.7,5.6
						c0.1,0.9,0.2,1.9,1,2.5c1.9,1.4,3.3-1.1,4.1-2.3c2.1-3.2,4.2-6.5,5-10.3c0.9-4.2-0.3-8.5,0-12.7c1.9-1,3.4-3.7,3.7-5.5
						C733.8,177.2,732.2,174.9,729.7,174.7z"/>
					<path id="XMLID_1301_" class="st8" d="M726.7,202.2c-0.9,1.8-2.2,5-3.8,6.2c-2.4,1.9-2.3-1.2-2.5-2.7c-0.2-1.9-0.6-3.7-0.1-5.6
						c0.4-1.7,0.9-3.4,1.5-5.1c1.3-3.4,3-6.7,5.2-9.6c0.3,0.1,0.6,0.2,0.9,0.2c0.1,0,0.2,0,0.3,0
						C727.8,191.4,729.4,196.6,726.7,202.2z"/>
					<path id="XMLID_1306_" class="st8" d="M731.7,180.5c-0.6,1.4-3.2,5.8-5,2.6c-0.6-1-0.7-2.5-0.9-3.7c0-0.1,0.1-0.1,0.1-0.2
						c0.3-1.6,1.5-3.2,3.3-3.3C731.7,175.9,732.6,178.4,731.7,180.5z"/>
				</g>
				<g id="XMLID_1279_">
					<path id="XMLID_1295_" class="st6" d="M734.6,167c-12.5-1.3-19.3,11.6-17.7,22.5c0.1,0.5,0.7,0.6,1.1,0.3
						c3.6-3.3,7.2-6.6,10.8-9.9c1.8,3.1,3.7,6.1,5.5,9.2c0.2,0.4,0.7,0.4,1,0.1c4-3.5,9.7-8.2,9.5-14.1
						C744.6,170.1,738.9,167.4,734.6,167z"/>
					<path id="XMLID_1297_" class="st5" d="M735,187.7c-1-1.7-2-3.3-3-5c-0.6-1-1.5-4.5-3-4.3c-0.2,0-0.4,0.2-0.6,0.3
						c-1.8,1.2-3.3,2.8-4.8,4.2c-0.9,0.9-1.9,1.7-2.8,2.6c-0.4,0.3-2.7,2-2.7,2.4c-0.9-9.2,4.4-19.5,14.7-19.8
						c5.1-0.1,12.4,3.1,10.4,9.4C741.8,181.7,738.3,184.9,735,187.7z"/>
				</g>
				<g id="XMLID_1275_">
					<path id="XMLID_1289_" class="st6" d="M727.1,166.5c-1.3-1-4,1-5.1,1.7c-1.5,1-2.8,2.2-3.9,3.6c-2.3,2.7-4,5.9-5.4,9.1
						c-1.2,2.6-2.9,5.6-2,8.5c0.7,2.5,3,4.1,5,5.5c-1.2,1.1-2,2.6-1.7,4.6c0.3,1.8,1.4,3.6,2.2,5.2c0.8,1.5,1.6,2.9,2.5,4.4
						c0.5,0.8,1.1,2.7,2.1,3.5v-0.1c0.7,0.5,1.4-0.3,1.4-1c0.1-2.5-0.6-4.9-0.8-7.4c-0.2-2.9-0.3-5.7-0.2-8.6
						c0.1-4.8,0.7-9.6,1.7-14.3c0.6-3,1.4-5.9,2.4-8.8c0.5-1.4,1-2.8,1.5-4.3C727,167.6,727.6,166.9,727.1,166.5z"/>
					<path id="XMLID_1290_" class="st5" d="M717.3,204.1c-0.9-1.6-2.2-3.6-2.1-5.5c0.1-2.8,2.7-3.9,4.8-4.6
						c-0.2,5.3,0.1,10.6,0.8,15.8c0,0.2,0,0.3,0,0.5C719.6,208.2,718.4,206.2,717.3,204.1z"/>
					<path id="XMLID_1296_" class="st5" d="M720.1,192.6c-1.2,0.4-2.3,0.9-3.3,1.5c0,0,0,0-0.1-0.1c-2.8-1.9-5.4-3.9-4.8-7.7
						c0.4-2.6,2-5.4,3.2-7.8c2.3-4.5,5.4-8.7,10.3-10.6C722.4,175.9,720.6,184.2,720.1,192.6z"/>
				</g>
			</g>
		</g>
		<g id="XMLID_1312_">
			<g id="XMLID_1308_">
				<path id="XMLID_1318_" class="st6" d="M707.5,201.7c-3.1-1.2-6.3-2-9.6-2.6c-0.1-0.3-0.5-0.5-0.8-0.2L697,199
					c-1.2-0.2-2.4-0.3-3.6-0.4c-0.2-0.1-0.4-0.1-0.6,0c-3.1-0.2-6.2-0.1-9.2,0.2c-6,0.7-13.1,2.9-14.8,9.5c-1.5,5.8,3.4,10,8.6,11
					c7.9,1.5,16.8-0.2,24.4-2.2c0.4-0.1,0.5-0.4,0.4-0.7c3.2-4.1,5.3-8.7,6.3-13.8C708.6,201.8,707.9,201.4,707.5,201.7z"/>
				<path id="XMLID_1322_" class="st5" d="M682.6,218.3c-3.3,0-6.9-0.2-9.7-2.3c-3.4-2.4-4-6.5-1.9-10c3.5-5.7,11.7-6.4,17.7-6.5
					c0.9,0,1.7,0,2.6,0c-5.1,4.9-5.4,12.8-0.7,18.2C688,218.2,685.3,218.3,682.6,218.3z"/>
				<path id="XMLID_1329_" class="st5" d="M692.2,217.6c-5.2-5.3-4.6-13.3,1-17.9c0.9,0.1,1.7,0.1,2.5,0.3c-4.9,4.6-5.8,11.7-2,17.4
					C693.2,217.5,692.7,217.6,692.2,217.6z"/>
				<path id="XMLID_1330_" class="st6" d="M701.1,215.6c-0.1,0.1-0.1,0.1-0.1,0.2c-1.9,0.5-3.9,1-5.9,1.3c-4-5.5-3.1-12.7,2.3-16.9
					c3.3,0.5,6.6,1.4,9.7,2.6C706.1,207.6,704.1,211.9,701.1,215.6z"/>
			</g>
			<g id="XMLID_1299_">
				<path id="XMLID_1316_" class="st6" d="M718.9,213.2c1.3-2.4,0.8-5.5-0.9-8c-3-4.3-12.1-5.3-13.6-4.9c-4.8,1.9-8.5,6.4-8.5,11.8
					c0,2,0.7,4.5,2.8,5.3c0.8,0.3,1.6,0.3,2.2,0.1c0.4,2.2,2.8,3.7,5,2.4c0.5-0.3,0.8-0.6,1.1-1c1.3,1.4,3.6,0.8,4.7-0.7
					c0.4,1.9,2.9,1.9,4.4,1.1c2-1.1,3.1-3.2,3.2-5.4C719.3,213.4,719.1,213.3,718.9,213.2z"/>
				<path id="XMLID_1317_" class="st5" d="M709.4,210.6c0.8,1.3,1.7,2.7,1.8,4.3c0,0.7,0,1.5-0.4,2.1c-0.5,0.8-2.2,2-3,0.8
					c-0.1-0.1-0.2-0.2-0.3-0.2c0.4-1.6-0.1-3.5-0.6-5c-0.3-0.8-1.5-0.5-1.2,0.3c0.5,1.4,1.1,3,0.5,4.5c-0.8,2.3-4.1,1.9-4.1-0.6
					c0-0.1,0-0.1,0-0.2c0.3-0.4,0.6-0.8,0.8-1.4c0.3-0.8-0.9-1.1-1.2-0.4c-2.9,3-4.6,0-4.5-2.4c0-0.8,0.1-1.6,0.2-2.5
					c0.3-1.2,0.8-2.4,1.4-3.5c1.6-2.6,3.9-4.4,6.8-5.3c0.2-0.1,6.7,0.5,9.3,2.5c3.2,2.5,5.4,7.9,1.3,10.7c0.6-2.4-0.8-4.7-2.1-6.6
					c-0.4-0.7-1.6-0.1-1.1,0.6c0.7,1.1,1.5,2.3,1.9,3.6c0.4,1.8-0.2,4-2.3,4.1c-0.1,0-0.1,0-0.2,0c0.4-2.1-0.8-4.4-1.9-6.2
					C710.1,209.3,709,209.9,709.4,210.6z"/>
				<path id="XMLID_1319_" class="st5" d="M716.7,217c-0.4,0.4-0.8,0.7-1.3,1c-0.8,0.4-2.6,0.8-2.5-0.6c1.2-0.2,2.3-0.9,2.9-1.9
					c0.2,0.3,0.5,0.4,0.8,0.2c0.5-0.3,1-0.7,1.3-1.1C717.8,215.5,717.4,216.3,716.7,217z"/>
			</g>
			<g id="XMLID_1304_">
				<path id="XMLID_1320_" class="st6" d="M705.8,197.7c-0.7-1.1-2-1-3.2-1.2c-1.3-0.2-2.6-0.4-4-0.4c-1.5,0-3.2-0.4-4.6,0.2
					c-2.1,0.9-2.7,5.4-0.4,6.2c3,1,6.8,1.4,9.9,0.5c1.1-0.3,1.9-1.2,2.2-2.3c0.2-0.9,0.6-2,0.2-2.8
					C705.9,197.8,705.9,197.7,705.8,197.7z"/>
				<path id="XMLID_1321_" class="st5" d="M704,198.1c-1.4,0.4-2.8,0.7-4.3,0.7c-1.1,0.1-4.7,0.3-5.3-1.1
					C697.6,197.2,700.8,197.3,704,198.1z"/>
				<path id="XMLID_1323_" class="st5" d="M703.4,201.7c-0.1,0-0.2-0.1-0.3,0c-3.2,0.8-6.3,0.6-9.3-0.5c-0.2-0.8-0.2-1.5,0-2.3
					c0.8,0.8,2,0.9,3.1,1c2.6,0.3,5.2,0,7.7-0.8c-0.1,0.7-0.2,1.4-0.4,2.1C703.9,201.5,703.7,201.6,703.4,201.7z"/>
			</g>
		</g>
		<g id="XMLID_1340_">
			<g id="XMLID_1313_">
				<path id="XMLID_1328_" class="st6" d="M763.4,265.2c-1.4-0.9-3.1-0.9-4.7-0.9c-2.6,0-5.2,0.1-7.8,0.1c-0.1,0-0.1,0-0.2,0
					c-3.4-0.2-7.2-0.2-9.9,2.1c-1.4,1.2-2.4,3.4-2.5,5.3c-0.1,2.6,2.1,4,4.6,2.9c1.6-0.7,0.3-2.4,1.2-3.5c0.7-0.9,2-1.2,3-1.5
					c2.2-0.6,4.4-0.6,6.6-0.7c2-0.2,4.3-0.3,6.2,0.5c0.9,0.3,1.7,0.9,2,1.8c0.4,1-0.7,2.5,0.1,3.4c0.3,0.4,0.9,0.4,1.4,0.3
					c0.4-0.1,0.8-0.1,1.2-0.2c0.3-0.1,0.5-0.1,0.7-0.3c0.5-0.4,0.3-1.5,0.3-2.1c0-1,0.1-2,0-3C765.6,267.8,764.9,266.2,763.4,265.2z
					"/>
				<path id="XMLID_1331_" class="st6" d="M753.8,267.7c-3.1,0.3-12.9,0.2-11.3,5.7c-0.8,0-1.7-0.1-2.5-0.1
					c-0.6-2.6,0.4-5.4,2.8-6.7c2.4-1.3,5.2-1.2,7.9-1c0.1,0,0.1,0,0.2,0c2.6,0,5.2-0.1,7.8-0.1c1.6,0,3.4-0.1,4.6,1.2
					c1.7,1.8,1.3,4.6,1,6.7c0,0,0,0,0,0.1c-0.3,0-0.7,0.1-1,0.1C764.6,268.2,757.6,267.4,753.8,267.7z"/>
			</g>
			<g id="XMLID_1314_">
				<path id="XMLID_1333_" class="st6" d="M785.1,311.6c-0.3-8.1-0.6-16.1-1-24.2c-0.2-5.7-0.5-11.4-7.1-12.7
					c-7.3-1.5-15.4-1-22.8-1.1c-5.9,0-11.9,0.1-17.8,0.4c-2.3,0.1-7.2,0.4-7.5,0.4c-6.1,1.7-5.2,8.6-4.8,13.6
					c0.3,4.3,0.6,8.6,1,12.9c0.2,2.2,0.3,4.4,0.5,6.5s0.2,4.3,0.3,6.4c0.2,3,3.1,3.6,5.6,3.9c5.3,0.6,10.7,0.5,16,0.5
					c10.8,0,21.6-0.7,32.4-2.1c2.3-0.2,4.4-1.7,5.3-4C785.4,311.9,785.3,311.7,785.1,311.6z"/>
				<path id="XMLID_1334_" class="st5" d="M780,315c-2.6,0.7-5.3,0.5-7.9,0.7c-6.5,0.6-13,1-19.5,1.2c-5.8,0.1-11.6,0.2-17.3,0.2
					c-1.8,0-3.7-0.1-5.5-0.7c-1.6-0.6-2.4-2.2-2.8-3.8c-0.5-2.7,0-5.4-0.2-8.1c-0.3-3.4-0.5-6.9-0.8-10.3
					c-0.4-4.9-3.1-15.9,2.6-18.5c0.1,0,0.2,0,0.3,0c14.3-1,28.6-1.2,42.8-0.3c4.1,0.2,8.7,0.3,10.5,4.8c1.2,3,0.7,7.1,0.9,10.3
					c0.3,7.2,0.6,14.3,0.9,21.5c0,0.1,0,0.1,0,0.2c0.3,1-2.2,2.3-2.8,2.5C780.7,314.8,780.3,314.9,780,315z"/>
			</g>
		</g>
		<g id="XMLID_1327_">
			<g id="XMLID_1274_">
				<g id="XMLID_10_">
					<path id="XMLID_1264_" class="st6" d="M744.1,147.4c-4.9-1.8-9,6.8-4,9.1c2.5,1.2,5.4-0.3,6.6-2.7
						C747.9,151.4,746.7,148.4,744.1,147.4z"/>
					<path id="XMLID_1268_" class="st5" d="M745.7,152.4c-0.4,1.8-2.1,3.3-3.9,3.2c-1.1-0.1-2.2-0.8-2.6-1.9c-1-2.3,1.5-5.8,4.1-5.2
						C745,149,746.1,150.7,745.7,152.4z"/>
				</g>
				<g id="XMLID_55_">
					<path id="XMLID_1267_" class="st6" d="M709.9,146.8c-5.2-0.9-7.6,8.4-2.3,9.7c2.7,0.7,5.3-1.3,6-3.8
						C714.3,150.1,712.6,147.3,709.9,146.8z"/>
					<path id="XMLID_1266_" class="st5" d="M712.4,151.4c0,1.8-1.4,3.6-3.3,3.9c-1.1,0.1-2.3-0.4-2.9-1.3c-1.4-2.1,0.4-6,3.1-5.9
						C711.1,148.2,712.4,149.7,712.4,151.4z"/>
				</g>
				<g id="XMLID_5_">
					<path id="XMLID_1270_" class="st6" d="M740.1,154.8c0-0.1,0-0.1-0.1-0.2c3.7-8.4,5.6-17.9,2.2-26.7c-2.8-7.3-9.1-13-17.1-13.4
						c-20.9-1.1-20.6,28.9-15,42.2c2.3,5.6,8.7,11.4,14.6,10c1.2,3.4-0.6,7.4,1.6,10.5c2,2.9,5.8,2.6,8.6,1.2c2.9-1.4,7-4.2,7.7-7.5
						c0.4-2-0.3-4.3-0.6-6.3C741.3,161.4,740.7,158.1,740.1,154.8z"/>
					<path id="XMLID_1271_" class="st5" d="M739.5,173.6c-1.3,1.3-3,2.5-4.5,3.4c-2,1.2-4.4,2-6.5,0.7c-1.9-1.2-2.1-3.2-2.1-5.3
						c0-1.9,0.3-4.6-0.6-6.3c-0.5-1.1-1.5-0.5-2.4-0.4c-1.1,0.1-2.2,0-3.2-0.3c-2.2-0.6-4.3-2-5.8-3.7c-3.2-3.6-4.5-8.6-5.4-13.2
						c-1.7-9.1-1.9-23.5,6.4-29.7c8-6,19-1.8,23.9,6.1c5.7,9.2,3.8,20.4-0.5,29.8c-0.1,0.3,0,0.6,0.2,0.8c0.7,3.9,1.4,7.7,2.1,11.6
						C741.4,169.4,741.5,171.6,739.5,173.6z"/>
					<path id="XMLID_7_" class="st7" d="M739.2,124.7c-4.8-7.9-15.8-12.1-23.9-6.1c-7.3,5.5-8,17.2-7,26.2
						c8.1-2.3,15.6-6.5,21.9-12.1c0.2,7,4.2,13.3,10.6,16.4C743.4,141,743.8,132.2,739.2,124.7z"/>
					<path id="XMLID_8_" class="st7" d="M730.9,163.8c-1.8,0.6-3.6,1.2-5.4,1.8c0.1,0.1,0.2,0.2,0.3,0.4c0.9,1.8,0.6,4.4,0.6,6.3
						c0,1.8,0.1,3.4,1.3,4.6c1.5-1,2.7-3,3.4-4.1c1-1.7,4.3-7,2.4-8.9C732.8,163.2,731.7,163.6,730.9,163.8z"/>
				</g>
			</g>
			<g id="XMLID_1265_">
				<path id="XMLID_1273_" class="st6" d="M713.9,147.9c-0.3-0.9-0.9-1.7-1.6-1.7c-1.3,0-1.1,2.7-0.8,3.4c0.3,0.6,1.1,1.3,1.9,0.9
					C714.3,150,714.1,148.7,713.9,147.9z"/>
				<path id="XMLID_1272_" class="st6" d="M726.4,147.4c-0.3-0.9-0.9-1.7-1.6-1.7c-1.3,0-1.1,2.7-0.8,3.4c0.3,0.6,1.1,1.3,1.9,0.9
					C726.8,149.6,726.6,148.2,726.4,147.4z"/>
				<path id="XMLID_1276_" class="st6" d="M718.7,152.5c-1.1-0.2-1.3-2.1-1.5-3c-0.2-1.1-0.2-2.3-0.1-3.4c0.1-0.8-1.2-0.8-1.3,0
					c-0.2,2.1-0.2,7,2.5,7.6C719.2,153.9,719.5,152.7,718.7,152.5z"/>
				<path id="XMLID_1277_" class="st6" d="M727,152.3c-1.4,1.4-3.1,2.2-5.1,2.5c-0.8,0.1-0.5,1.3,0.3,1.2c2.1-0.3,4.1-1.3,5.6-2.8
					C728.4,152.6,727.5,151.7,727,152.3z"/>
			</g>
			<g id="XMLID_54_">
				<g id="XMLID_1325_">
					<path id="XMLID_1335_" class="st6" d="M746.6,131.9c-0.3-3.7-1.6-11.5-6.8-11c-5.7,0.6-6.8,9.2-6.5,13.5
						c0.2,2.9,1.1,5.8,2.6,8.4c0.7,1.3,1.6,2.5,2.6,3.5c0.7,0.8,1.6,1.5,2.4,2.2c0.4,0.4,1.2,1.3,1.6,0.6
						C745.7,144,747.2,138,746.6,131.9z"/>
					<path id="XMLID_1336_" class="st6" d="M741.9,147.7c-3.5-2.7-6-6.3-7-10.6c-0.9-3.9-0.3-16.9,6.3-14.3c4.2,1.6,4.4,9,4.3,12.8
						C745.2,139.9,744,144,741.9,147.7z"/>
				</g>
				<g id="XMLID_1326_">
					<path id="XMLID_1338_" class="st6" d="M729.5,112.3c-8.6-2-18.6,3-23.3,10.3c-2.5,3.9-3.6,8.6-3.2,13.2
						c0.2,2.5,0.9,7.6,4.4,7.3c2-0.2,4.4-1.6,6.3-2.4c2.6-1.2,5.2-2.5,7.7-3.9c4.8-2.7,9.2-5.8,13.4-9.3c0.2-0.2,0.2-0.4,0.2-0.6
						C741.1,122.4,736,113.8,729.5,112.3z"/>
					<path id="XMLID_1339_" class="st6" d="M716,138.3c-1.9,0.9-3.8,1.8-5.8,2.6c-1.2,0.5-1.9,0.9-3.2,0.5c-1.6-0.5-1.7-1.1-2.1-2.7
						c-1-3.6-0.8-7.5,0.4-11c2.4-6.9,8.4-11.9,15.4-13.7c3.9-1,8.4-1.2,11.9,1.1c4.1,2.6,5.6,8.9,0.7,11.7c-0.3,0.2-0.4,0.5-0.3,0.8
						C727.8,131.6,722.1,135.3,716,138.3z"/>
				</g>
			</g>
		</g>
		<g id="XMLID_1337_">
			<g id="XMLID_1281_">
				<path id="XMLID_1294_" class="st6" d="M769.1,191.2c-0.9-5.3-3.1-10.5-7.5-13.8c-1.2-0.9-2.4-1.7-3.8-2.1
					c-1.4-0.4-3.7,0.8-3.6,0.9c-5.1,3.8-5.7,11-6.3,17c-0.5,5-0.6,10.1-0.3,15.2c0.3,4.7,1.2,9.3,1.6,14c0.4,4.6,0.2,9.2-0.1,13.8
					c-0.2,3.2-0.4,6.4-0.8,9.6c-0.2,1.6-0.4,3.3-0.7,4.9c-0.1,0.9-0.1,1.8-0.2,2.7c-0.1,0.8-1.6,3,0,3.2c-0.1,0.4-0.3,0.8-0.4,1.3
					c-2.9,0.1-5.4,1.9-6.1,4.7c-0.3,1.1-0.4,2.4,0.4,3.3c0.7,0.7,1.6,0.9,2.6,0.8c-0.7,1.9-1.2,4.1,0.4,5.6c1,0.9,2.4,0.9,3.4,0.2
					c0.3,1.1,1.4,2,2.7,2c1.5,0,2.6-0.9,3.2-2.1c0.5,0.8,1.4,1.4,2.4,1.4c1.3,0,2.2-0.7,2.8-1.7c1.2,1.3,3.1,0.3,4-1.1
					c1.9-3,2.3-7,1.8-10.4c0,0,0,0,0-0.1c0.3-0.5,0.5-1.1,0.4-1.8c0.2-0.1,0.5-0.1,0.7-0.2c0.4-0.1,0.5-0.5,0.3-0.8
					c1.2-16.7,2.3-33.4,3.5-50.1C769.8,202.1,770,196.6,769.1,191.2z"/>
				<path id="XMLID_1298_" class="st5" d="M763.1,266.3c-0.2,1-0.5,2-0.9,2.9c-0.3,0.6-1.8,3.7-2.9,1.7c0,0,0-0.1-0.1-0.1
					c0.1-0.2,0.1-0.4,0.1-0.6c0.1-0.8-1.1-1-1.3-0.2c-0.2,1.1-0.7,2.2-1.8,2.5s-2.2-0.4-1.9-1.6c0.1-0.5-0.3-0.7-0.7-0.7
					c-0.3-0.2-0.9-0.1-1,0.4c-0.2,1-0.7,2.1-1.8,2.5s-2.7-0.4-2.2-1.7c0.2-0.5-0.3-0.9-0.7-0.9c-0.3-0.2-0.7-0.1-0.8,0.3
					c-0.5,1.6-2.3,1.2-2.8-0.1c-0.5-1.3,0.1-2.7,0.6-3.9c0.1-0.3,0-0.5-0.1-0.6c0-0.3-0.2-0.7-0.7-0.6c-0.3,0-0.6,0.1-0.9,0.1
					c-0.8,0-1.5-0.9-1.6-1.7c-0.1-0.8,0.5-1.9,0.9-2.5c1-1.5,2.6-2.2,4.4-2.2c1.1,2.1,5.6,2.8,7.6,2.9c1.8,0.1,6.2,0.6,8.7-0.6
					C763.5,263.1,763.5,264.7,763.1,266.3z"/>
				<path id="XMLID_1302_" class="st5" d="M755.4,260.9c-1.3-0.1-8.8-0.6-7-3.6c4.8,2.2,10,2.8,15.2,1.8
					C763.8,261.4,756.2,260.9,755.4,260.9z"/>
				<path id="XMLID_1303_" class="st5" d="M768.3,205.8c-0.2,2.6-0.4,5.2-0.6,7.8c-1,14.6-2,29.3-3,43.9c-5.7,1.4-11.5,0.7-16.7-2
					c-0.2-0.1,0.8-5.1,0.9-5.6c0.3-2,0.6-4.1,0.8-6.1c0.4-4,0.7-8,0.8-12c0.1-4.8,0-9.6-0.4-14.4c-0.3-3.5-0.9-7-1.3-10.5
					c-0.4-3.4-0.2-6.8,0-10.2c0.4-6.6,0.5-16.4,6.9-20.2l0,0c0.4-0.1,0.9-0.2,1.3-0.1c1,0.1,1.9,0.7,2.7,1.3s1.7,1.1,2.5,1.8
					c1.3,1.2,2.4,2.7,3.2,4.2c1.7,3.2,2.5,6.9,2.9,10.5C768.7,198.1,768.6,202,768.3,205.8z"/>
			</g>
			<g id="XMLID_1278_">
				<path id="XMLID_1282_" class="st6" d="M748.1,173.9c-0.1-1.3-0.4-2.7-1-3.8c-0.3-0.6-0.7-1.1-1.2-1.5c-0.3-0.3-1.5-0.9-1.6-1.2
					c-0.6-0.2-1.2-0.3-1.7,0.2c-0.3,0.3-0.5,0.7-0.7,1.1c-0.7,1.5-1.6,2.9-2.5,4.3c-1.3,2.1-2.5,4.2-3.7,6.3
					c-2.4,4.2-4.7,8.6-6.8,12.9c-2.3,4.7-4.4,9.4-6.4,14.2c-0.7,1.7-1.3,3.4-1.9,5.1c-0.1,0.4,0.2,0.6,0.4,0.8
					c0.1,0.2,0.9-0.2,1.1-0.3c0.3-0.2,0.6-0.4,0.9-0.6c0.6-0.5,1.1-1.1,1.8-1.5c1.7-1.2,3.4-2.5,5-3.7c1.7-1.3,3.8-2.6,4.7-4.6
					c0.7-1.6,0.5-3-0.2-4.3c2.8-1.6,6.2-0.9,9.1-2.5c2.9-1.7,3.4-5.2,3.9-8.3C748,182.6,748.4,178.2,748.1,173.9z"/>
				<path id="XMLID_1283_" class="st5" d="M729.7,205c-2.4,1.8-4.8,3.5-7.3,5.3c0.1-0.2,0.1-0.4,0.2-0.6c2-5.1,4.2-10.1,6.6-15.1
					c0-0.1,2.4,1.5,2.6,1.7c0.8,0.7,1.5,1.6,1.7,2.6C733.9,201.7,731.6,203.5,729.7,205z"/>
				<path id="XMLID_1285_" class="st5" d="M746.8,179.7c-0.2,3.3-0.5,6.8-1.4,10c-1.8,6.6-7.5,4.1-11.9,6.9c-1-1.2-2.5-2.2-3.8-3
					c4.1-8.6,8.8-16.9,13.9-24.9C747.8,170.1,747,176.2,746.8,179.7z"/>
			</g>
		</g>
	</g>
	<g id="XMLID_1423_">
		<g id="XMLID_1370_">
			<path id="XMLID_1380_" class="st6" d="M1008,258.9c-3.7,1.3-6.9,3.6-9.2,6.8c-3.9,5.4-4.4,13.1-3.5,19.5c0.3,1.9,0.9,4.3,2.7,5.4
				c3,1.8,6.2-1.6,8.2-3.3c4.4-3.7,8.7-7.6,12.5-11.9c3.2-3.5,7.5-8,9.1-12.5C1031.2,253.4,1012,257.5,1008,258.9z"/>
			<path id="XMLID_1381_" class="st6" d="M1024.1,266.1c-4,5.8-8.8,10.9-14,15.7c-2.3,2.1-4.6,4.2-7.1,6.1c-1.5,1.1-3.4,1.9-4.7,0.2
				c-1.4-1.9-1.7-4.3-1.7-6.6c0-2.3-0.1-4.8,0.2-7.1c0.1-1,0.3-1.9,0.6-2.9c0.1-0.5,0.3-0.9,0.5-1.4c0.1-0.3,0.7-1,0.7-1.4
				c1.8-3.4,4.8-6,8.3-7.6c0.5-0.2,1-0.4,1.5-0.6c3.7-1.3,7.8-1.8,11.7-1.9c1.4,0,3.4-0.3,4.6,0.3
				C1028.7,260.6,1025.5,264.2,1024.1,266.1z"/>
		</g>
		<path id="XMLID_1403_" class="st6" d="M959.1,306.8c0-0.4-0.2-0.6-0.5-0.7c1.4-3.5,0.1-7.8-4.2-10.2c-4.6-2.6-10.8-2.3-15.9-2.3
			c-4.3-0.1-8.7,0-13,0.3c-4.1,0.3-8.1,0.8-12.2,0.8c-2.6,0-5.1,0.2-7.6,0.8c-5,1.2-9.4,4.2-9.5,9.8c0,1.7,0.3,3,1,4.1
			c0,0.1-0.1,0.1-0.1,0.2c-1,4.5-0.4,9,0,13.6l1.4,14.6c0.5,5,0.8,9.9,1.3,14.9c0.5,4.1-0.6,10.9,3.9,13.1c1.8,0.9,3.9,0.8,5.9,1
			c2.2,0.2,4.4,0.5,6.6,0.6c5,0.4,10.2,0.7,15.3,0.5c4.9-0.2,9.8-0.8,14.7-1.6c2.4-0.4,4.8-0.9,7.2-1.5c3.5-0.8,4.9-2.1,4.8-5.8
			c-0.2-6.1,0.6-12.3,0.8-18.3C959.5,329.4,959.6,318.1,959.1,306.8z"/>
		<path id="XMLID_1404_" class="st5" d="M955.1,361.5c-1.6,1.1-3.3,2.3-5.7,2.7c-2,0.3-3.9,0.6-5.9,0.9c-4.4,0.7-8.9,1.1-13.4,1.3
			c-4.7,0.2-9.3,0-14-0.4c-2.4-0.2-4.7-0.5-7.1-0.8c-2.2-0.3-5.2-0.4-6.4-2.7c-1.6-3-1-7.4-1.4-10.7c-0.5-4.6-0.8-9.3-1.2-14
			l-1.2-13c-0.4-4.6-1.1-9.2-0.4-13.8c4.2,3.7,13.3,2.7,18.3,2.8c6.5,0.1,13-0.1,19.5-0.4c5.5-0.3,12-0.1,17.2-2.2
			c1.8-0.7,3.2-1.8,4.2-3.1c-0.6,0.9,0.2,5.1,0.2,6.3c0.1,2.3,0.1,4.7,0.1,7c0,4.7,0,9.3-0.1,14C957.6,341.9,958,359.6,955.1,361.5z
			"/>
		<path id="XMLID_22_" class="st7" d="M956.6,358.3c-14.9,3.3-32.4,5.6-42.8-8.3c-7.8-10.5-8.1-23.7-7.1-36.3
			c-3.2-0.3-6.2-1-8.1-2.7c-0.8,4.6-0.1,9.2,0.4,13.8l1.2,13c0.4,4.6,0.7,9.3,1.2,14c0.4,3.3-0.2,7.7,1.4,10.7
			c1.2,2.3,4.2,2.4,6.4,2.7c2.4,0.3,4.7,0.6,7.1,0.8c4.6,0.4,9.3,0.6,14,0.4c4.5-0.2,8.9-0.6,13.4-1.3c2-0.3,3.9-0.6,5.9-0.9
			c2.4-0.4,4.1-1.6,5.7-2.7C955.8,361.1,956.2,359.9,956.6,358.3z"/>
		<path id="XMLID_1406_" class="st8" d="M956,307.7c-3.9,3.9-11.5,3.5-16.6,3.8c-10.6,0.7-21.3,0.9-31.9,0.3c-2.6-0.1-6.1,0-8.1-2.1
			c-2.2-2.3-1.9-6.1-0.3-8.5c2.3-3.4,6-4.5,9.9-4.8c12.6-1,25.5-2.3,38.1-1C952.5,296.1,962.4,301.2,956,307.7z"/>
		<g id="XMLID_1382_">
			<path id="XMLID_1409_" class="st6" d="M980.3,216.5c0-3.5-0.8-7.1-1.6-10.5c-1-4-2.5-7.8-4.4-11.4l-0.1-0.1
				c-0.2-0.2,0.9-3.5,0.9-4.1c0.1-1.3-0.3-2.7,0.3-3.8c1.1-1.9,0.5-4.6-0.9-6.2c-0.8-0.9-2.1-1.2-3.2-0.6c-0.1-0.2-0.2-0.5-0.4-0.7
				c-0.7-1.1-2.2-1.5-3.3-0.8c-0.3-1.4-0.9-2.8-2.2-3.5c-1.4-0.7-2.9-0.2-3.5,1.1c-0.4-0.5-1-0.8-1.6-0.9c-2.1-0.3-3.2,1.6-2.7,3.3
				c-0.1,1.1-0.2,2.4,0.2,3.5c-2.5-0.4-5-0.7-7.6-1.1c-0.1-0.2-0.3-0.3-0.6-0.3c-1.3,0.1-2.6,0.3-4,0.4c-0.8,0.1-1.1,1-0.4,1.5
				c1,0.7,1.9,1.4,2.9,2.1c0.3,0.2,0.5,0.2,0.7,0.1c1.9,0.4,3.8,0.7,5.6,1.1l0,0c-1.1,1.6-0.3,3.5,0.6,5c1.2,2.2,2.7,4.1,4.4,6
				c1.2,5.8,1.9,13.8-3.7,16.4c-0.2,0-0.5,0.1-0.6,0.3c-0.9,0.3-2,0.5-3.3,0.5c-5.9,0.1-12-1.1-17.8-1.7c-0.3-0.2-0.7-0.2-1-0.1
				c-0.4,0.1-0.6,0.6-0.4,1c-1.9,7.8-3.7,17.6,3.1,23.7c2.8,2.5,6.5,3.1,10.1,3.1c4.9-0.1,10.1-0.7,15-1.7c4.2-0.9,8.4-2.6,11.8-5.3
				c2.9-2.3,5.3-5.6,6.6-9.2C980,221.1,980.3,218.8,980.3,216.5z"/>
			<path id="XMLID_1410_" class="st5" d="M948.4,182.5c-0.2-0.1-0.4-0.3-0.6-0.4c0.2,0,0.5-0.1,0.7-0.1
				C948.5,182.2,948.5,182.4,948.4,182.5z"/>
			<path id="XMLID_1412_" class="st5" d="M971.9,181.3L971.9,181.3c1.3-1.4,2.3,1.7,2.5,2.4c0.2,0.8,0.1,1.8-0.5,2.5
				c-0.7,0.8-2.1,0.5-1.9-0.7c0-0.2,0-0.4-0.2-0.5c0.1-0.2,0.1-0.3,0.2-0.5C972.1,183.6,972.1,182.4,971.9,181.3z"/>
			<path id="XMLID_1413_" class="st5" d="M967.9,180c0.1,0,0.3-0.1,0.4-0.2c1.4-1.7,2.2,2.9,2.2,3.6c0,1.2-1,2.4-2.1,1.3
				c-0.7-0.6-0.5-2-0.5-2.8c0-0.2,0-0.3-0.1-0.4C967.9,181,968,180.5,967.9,180z"/>
			<path id="XMLID_1414_" class="st5" d="M963.3,176.7c0.6-2.2,2.4,0.3,2.7,0.9c0.2,0.5,0.3,1,0.3,1.5c0.1,0.7,0.2,1.6,0,2.3
				c-0.7,1.9-2.3,0.6-2.8-0.6c0-0.3,0-0.5,0-0.8c-0.1-0.8-0.2-1.9-0.6-2.8C963,177.1,963.2,177,963.3,176.7z"/>
			<path id="XMLID_1415_" class="st5" d="M962.7,182.7c0.4,0.5,0.9,1,1.4,1.2c-0.1,0.2-0.1,0.4,0,0.7c0.4,0.7-0.7,0.8-1.8,0.7
				c0-0.7,0-1.4-0.1-2.1C962.4,183,962.6,182.8,962.7,182.7z"/>
			<path id="XMLID_1416_" class="st5" d="M959.2,177.7L959.2,177.7c0.2-0.5,0.3-0.9,0.5-1.3c0.3,0.1,0.6,0.2,1,0.3
				c0.4,0.3,0.6,0.8,0.7,1.3c0.3,0.7,0.5,1.6,0.5,2.3c-0.1,0.2-0.2,0.4-0.1,0.6l0,0c-0.2,0.6-0.6,1.1-1.2,1.2
				c-0.1-0.1-0.2-0.1-0.3-0.1s-0.2,0-0.3,0c-0.1-0.1-0.2-0.1-0.3-0.2c-0.9-0.9-0.6-2.4-0.4-3.5C959.3,178,959.2,177.9,959.2,177.7z"
				/>
			<path id="XMLID_1417_" class="st5" d="M949.9,183c0.1-0.3,0.2-0.5,0.2-0.8c3,0.4,6.1,0.9,9.1,1.3c0.2,0.1,0.4,0.2,0.6,0.2
				c0.3,0.1,0.5,0.1,0.8,0.1c0,0.4,0,0.8,0,1.2c-0.4-0.1-0.8-0.1-0.8-0.1c-1.2-0.2-2.4-0.5-3.6-0.7
				C954.2,183.8,952.1,183.4,949.9,183z"/>
			<path id="XMLID_1418_" class="st8" d="M950.3,237.6c-3.9,0.4-8.2,0.8-11.7-1.2c-8.2-4.6-6.3-15.5-4.4-23.1
				c4.8,0.5,9.7,1.1,14.5,1.5c2.1,0.2,4.2,0.3,6.2-0.1c-0.4,7.6,0.9,14.9,4,21.8C956,237.1,953.1,237.4,950.3,237.6z"/>
			<path id="XMLID_1419_" class="st5" d="M978.6,219.5c-1.6,8.2-7.3,13.6-15.2,16c-1,0.3-2,0.5-3,0.8c-3.2-7-4.5-14.4-3.9-22
				c0.5-0.2,1-0.5,1.5-0.8c5.5-4.1,4.4-11.7,3.1-17.5c0-0.1,0-0.1-0.1-0.2c0,0,0,0,0-0.1c0,0,0-0.1-0.1-0.1c0,0,0-0.1-0.1-0.1
				c-1.6-1.7-3-3.5-4.1-5.5c-0.3-0.5-0.7-1.2-0.9-1.8c-0.2-0.8-0.1-2.1,1-2.3c0.1,0,0.2,0,0.3,0s0.3,0.1,0.4,0.1
				c1.1,0.4,1.8,2.2,2.1,3.1c0.1,0.4,0.4,0.5,0.7,0.5c0.1,0,0.2,0,0.4,0c0.9-0.2,1.7,0,2.4,0.6c0.8,0.6,1.6-0.8,0.8-1.4
				c-0.9-0.7-2-0.9-3.1-0.8c-0.2-0.5-0.4-1-0.7-1.4c0.9,0.2,1.9,0.4,2.8,0.4c1.9,0,3.5-1.2,2.6-3h0.1c0.2-0.1,0.4-0.2,0.6-0.3
				c0.2,1.3,0.7,2.5,2,3c0.7,0.3,1.4,0.2,2-0.2c0.3,1.1,1.4,1.8,2.6,1.8c0.2,0,0.4,0,0.5-0.1c0.2,2-0.1,4.1-0.9,6
				c-0.2,0.4,0,0.7,0.2,0.9c0,0.1,0,0.1,0.1,0.2c3.9,7.4,5.9,15.3,5.8,23.6C978.6,219.1,978.6,219.3,978.6,219.5z"/>
		</g>
		<g id="XMLID_1356_">
			<path id="XMLID_1364_" class="st6" d="M949.8,277.8c-1.3-4.2-3.4-8.3-5-12.3c-4.3-10.7-5.6-22.5-4-33.9c0.7-4.7,1.8-9.8-0.4-14.1
				c-1.5-3.1-4.6-5.2-7.8-6.2s-6.7-1.2-10.2-1.3c-5.2,0-10.7,0.3-15.7,2c-4.3,1.5-8.4,4.2-10.9,8.1c-2.7,4.2-4.8,8.7-6.1,13.5
				c-2.3,8.4-2.7,17.3-2,26c0.6,7.6,2,15.2,4.9,22.2s7.5,13.5,13.8,17.8c7.3,5.1,16.7,7.1,25.5,5.4c4.5-0.9,8.9-2.7,12.4-5.7
				s6-7.1,6.7-11.7C951.4,284.4,950.9,281.1,949.8,277.8z"/>
			<path id="XMLID_1366_" class="st8" d="M948.7,290.5c-5.8,16.9-29.9,16.5-41.9,7.6c-13.5-10-17.3-27.7-17.6-43.5
				c-0.2-9.5,0.2-19.5,4.4-28.2c1.9-4,4.8-7.5,8.4-10.1c3.8-2.7,8.4-3.6,12.9-4.1c4.9-0.5,10-1.2,14.9-0.2c2.6,0.5,5,1.7,6.9,3.6
				c1.1,1,1.9,2.3,2.5,3.6c1.9,4.3,0.5,9.1-0.1,13.5c-0.5,3.7-0.7,7.5-0.5,11.2c0.3,7.6,2,15.2,4.9,22.3
				C946.5,273.6,951.6,282.1,948.7,290.5z"/>
		</g>
		<g id="XMLID_1388_">
			<g id="XMLID_1384_">
				<g id="XMLID_1346_">
					<path id="XMLID_1352_" class="st6" d="M909.7,203.2c-0.4-2.6-2.4-5.1-5.3-4.7c-3,0.4-4.8,3.3-4.2,6.2c0.6,2.8,3.3,4.9,6.2,4.3
						C909.2,208.4,910.2,205.7,909.7,203.2z"/>
					<path id="XMLID_1353_" class="st5" d="M905.5,207.3c-1.8,0-3.2-1.4-3.5-3.1c-0.4-2,1.2-3.8,3.2-3.8
						C908.8,200.5,909.4,207.2,905.5,207.3z"/>
				</g>
				<g id="XMLID_1347_">
					<path id="XMLID_1351_" class="st6" d="M945.1,197.9c-0.4-2.6-2.4-5.1-5.3-4.7c-3,0.4-4.8,3.3-4.2,6.2c0.6,2.8,3.3,4.9,6.2,4.3
						C944.5,203.1,945.5,200.4,945.1,197.9z"/>
					<path id="XMLID_1348_" class="st5" d="M940.8,202c-1.8,0-3.2-1.4-3.5-3.1c-0.4-2,1.2-3.8,3.2-3.8
						C944.1,195.2,944.7,201.9,940.8,202z"/>
				</g>
				<g id="XMLID_1355_">
					<path id="XMLID_1368_" class="st6" d="M925.8,210.6c-3.6-4.1-9.3-4.5-14.2-2.4c-0.4,0.2-0.5,0.6-0.3,0.9c0,0.1-0.1,0.1-0.1,0.2
						c-1.4,5.2-1.7,11.5,2.8,15.3c3.7,3.1,9.4,2.4,12.4-1.4C929.4,219.3,929,214.1,925.8,210.6z"/>
					<path id="XMLID_1369_" class="st7" d="M925.2,222.1c-3.1,3.8-9,3.6-11.7-0.6c-2.3-3.6-1.8-8-0.7-11.9c0-0.1,0-0.2,0-0.3
						c3.8-1.5,8.2-1.3,11.3,1.7C927.2,213.9,927.9,218.7,925.2,222.1z"/>
				</g>
				<g id="XMLID_1345_">
					<path id="XMLID_1349_" class="st6" d="M938.3,181.6c-3.5-7.8-12.6-11.4-20.6-8.4c-4.8,1.8-8.6,5.5-10.7,10.1
						c-1.4,3.2-1.9,6.7-2,10.2c-0.1,3.3-0.2,6.9,0.5,10.1c1.2,5.7,4.9,10.7,10.3,13.2c7.7,3.5,17.3,0.7,21.3-6.9
						c2.1-3.9,2.6-8.5,3-12.8C940.5,191.9,940.5,186.5,938.3,181.6z"/>
					<path id="XMLID_1350_" class="st5" d="M938.7,194.2c-0.4,9.7-2.8,21.6-14.6,22.6c-5.3,0.5-10.2-1.9-13.4-6.1
						c-4.3-5.8-5.1-15-3.7-21.9c0.5-2.5,1.4-4.9,2.7-7c2.7-4.5,7.3-7.5,12.5-7.9C934.2,172.8,939.1,183.9,938.7,194.2z"/>
					<path id="XMLID_11_" class="st5" d="M938.7,194.2c-0.4,9.7-2.8,21.6-14.6,22.6c-5.3,0.5-10.2-1.9-13.4-6.1
						c-4.3-5.8-5.1-15-3.7-21.9c0.5-2.5,1.4-4.9,2.7-7c2.7-4.5,7.3-7.5,12.5-7.9C934.2,172.8,939.1,183.9,938.7,194.2z"/>
					<path id="XMLID_12_" class="st7" d="M922.3,173.8c-5.3,0.4-9.8,3.4-12.5,7.9c-1.3,2.2-2.2,4.6-2.7,7c-0.7,3.6-0.9,7.8-0.2,11.8
						c3.7-2.3,6.7-5.4,9.1-9.1c1.7,2.7,4.1,5.6,7.6,5c2.1-0.3,3.4-1.9,3.5-3.8c3.4,2.5,7.3,4.7,11.6,4.1c0.1-0.9,0.1-1.7,0.2-2.6
						C939.1,183.9,934.2,172.8,922.3,173.8z"/>
				</g>
			</g>
			<g id="XMLID_1354_">
				<path id="XMLID_1362_" class="st6" d="M944,176.8c-3.1-5.5-10.8-6.9-16.8-7.8c0.8-0.7,1.4-1.5,1.2-2.7c-0.4-2-2.2-1.9-3.8-1.5
					c-6,1.4-11.1,5.4-14.5,10.5c-3.7,0.5-6.5,5.3-7.6,8.3c-2,5.3-1,11,2.1,15.6c0.2,0.3,0.4,0.4,0.7,0.4c0.1,0.5,0.8,0.9,1.3,0.4
					c3.9-4.4,6.6-9.6,7.7-15.5c0-0.1,0-0.2,0.1-0.3c1.3,3.6,3.7,6.5,7,8.7c0.5,0.3,1.2-0.1,1.2-0.7c0-2.1-0.4-4-1-5.9
					c5,3.7,10.6,6.1,16.8,7.3c0.3,0.3,0.7,0.3,1-0.1C942.9,189,947.3,182.7,944,176.8z"/>
				<path id="XMLID_1363_" class="st6" d="M911.3,189.1c-1.2,3.4-3.1,6.4-5.4,9.2c-2-3.1-3.1-6.5-2.8-10.2c0.2-2.2,0.9-4.3,2-6.2
					c0.7-1.3,5.8-8.8,8.1-2.5c0.1,0.1,0.1,0.3,0.1,0.5s0.1,0.4,0.1,0.6C913.5,183.1,912,187.1,911.3,189.1z"/>
				<path id="XMLID_1365_" class="st6" d="M938.4,192c-6.9-1.3-13-4.2-18.3-8.8c-0.7-0.6-1.7,0.1-1.2,1c1.1,2.1,1.7,4.1,1.9,6.4
					c-3.4-2.7-5.4-6.4-6-10.8c0-0.1-0.1-0.3-0.1-0.4c-0.1-1.9-0.8-3.5-2.7-4c1.8-2.5,4.1-4.7,6.7-6.3c1.4-0.9,2.9-1.6,4.4-2.1
					c0.4-0.2,1.5-0.7,2-0.6c1,0.2,0.8,1.8-0.3,2.3c-0.5,0.2-0.5,0.7-0.2,1.1c0,0.3,0.2,0.5,0.6,0.6c4.9,0.7,10.3,1.4,14.5,4.3
					C946.7,179.4,942.5,186.8,938.4,192z"/>
			</g>
			<g id="XMLID_1387_">
				<path id="XMLID_1357_" class="st6" d="M920.7,203.6c-0.8,0.5-1.8,0.7-2.8,0.5s-1.4,1.3-0.4,1.5c1.4,0.3,2.8,0.1,4-0.7
					C922.3,204.4,921.5,203,920.7,203.6z"/>
				<path id="XMLID_1358_" class="st6" d="M933.7,200.9c-0.6,0.5-1.4,0.6-2.2,0.4c-1-0.3-1.4,1.2-0.4,1.5c1.3,0.5,2.7,0.1,3.7-0.8
					C935.5,201.4,934.4,200.3,933.7,200.9z"/>
				<path id="XMLID_1359_" class="st6" d="M927.7,201.1c-0.5-0.9-1.9-0.1-1.4,0.8c0.9,1.5,1.1,3.1,0.7,4.8c-0.2,1,1.3,1.4,1.5,0.4
					C929.1,205,928.8,202.9,927.7,201.1z"/>
			</g>
		</g>
		<g id="XMLID_1391_">
			<g id="XMLID_1361_">
				<path id="XMLID_1371_" class="st6" d="M915,254.6c-0.4-11.6-2.3-23-4.9-34.3c-0.4-1.9-0.8-3.9-1.3-5.8c-0.1-0.5-0.3-1-0.5-1.4
					c-0.8-1.3-2.7-1.5-3.9-2.1c-1.7-0.7-3.4-1.3-5.2-1.5c-3.5-0.5-6.9,0.6-8.9,3.7c-0.3,0.5-0.6,1.1-0.9,1.7c-1.9,4.3-2,9.7-2,14.3
					c0,5.6,0.7,11.2,2,16.7c1.9,7.9,5.3,20,14.6,21.9C912.2,269.3,915.2,261.5,915,254.6z"/>
				<path id="XMLID_1372_" class="st8" d="M912.3,262.1c-3.4,7.4-12.1,3.7-15.6-1.5c-5.8-8.5-7.7-20.7-7.9-30.8
					c-0.1-4.9-0.2-11,2.3-15.4c3.7-6.4,10.8-3.3,15.8-0.5v0.1c2.9,11.3,4.9,22.7,6,34.3C913.4,252.7,914.3,258,912.3,262.1z"/>
			</g>
			<g id="XMLID_1360_">
				<path id="XMLID_1375_" class="st6" d="M919.4,211.8c0.1-0.8-0.3-1.7-1.3-2.1c-0.2-0.1-0.4-0.1-0.6-0.1c0.2-1-0.3-2-1.8-2.2
					c-0.7-0.1-1.4-0.1-2.1,0.1c0.4-0.8,0.4-1.7-0.4-2.4c-1.7-1.6-4.1,0.3-5.3,1.5c-3.3,3.6-3.5,8.6-1.3,12.6
					c-3.2,11.9-12.3,22.1-12,34.8c-0.1,0.1-0.1,0.3-0.1,0.5c0.4,4.8,2.4,9.7,7,12c4.3,2.2,9.5,1.3,12.7-2.4
					c3.7-4.5,3.9-11.1,4.4-16.7c0.7-8.2,0.8-16.4,0.3-24.6c1.2-0.6,1.5-2,1.6-3.4c0.1-1.1,0-1.7,0.8-2.7c0.3-0.3,0.6-0.6,0.9-1
					c0.4-0.6,0.8-1.3,0.7-2.1C922.5,211.9,920.8,211.5,919.4,211.8z"/>
				<path id="XMLID_1376_" class="st5" d="M920.7,214.8c-0.2,0.3-0.4,0.5-0.7,0.7c-0.5,0.5-0.9,1.1-1.1,1.8
					c-0.3,1.2,0.3,3.8-1.3,4.1c-0.5,0.1-0.6,0.6-0.5,1c0,0,0,0,0,0.1c0.7,10.4,0.5,20.9-1,31.2c-0.8,5.2-2.7,11.8-9,12.3
					s-10.2-4.8-11.1-10.4c0-0.1,0-0.2,0-0.3c-0.9-12.7,8-22.9,11.6-34.5c0.4,0.5,0.8,0.9,1.3,1.4c0.8,0.7,1.9-0.4,1.1-1.1
					c-2.4-2.1-3.8-4.8-3.5-8.1c0.1-1.4,0.5-2.7,1.3-3.9c0.4-0.7,0.8-1.3,1.4-1.8c3-2.1,3.4,0,1.6,1.1c-0.7,0.4-1.4,0.9-1.9,1.4
					c-0.7,0.7,0.4,1.8,1.1,1.1c1-0.9,2.1-1.5,3.3-1.8c0.5-0.1,1.3-0.3,1.8-0.2c0.6-0.1,0.8,0.2,0.6,0.8c-0.1,0.1-0.3,0.2-0.4,0.4
					c-0.1,0-0.1,0.1-0.2,0.1c-1.3,0.7-2.6,1.7-3.9,2.6c-0.8,0.6-0.1,1.9,0.8,1.4c0.9-0.6,1.9-1.3,2.8-1.9c0.4-0.2,0.7-0.5,1.1-0.7
					c0.3-0.2,0.7-0.3,1-0.4c0.5-0.1,1.8,0.1,0.2,1.6c-1.3,0.8-2.5,1.9-3.5,3c-0.7,0.8,0.5,1.9,1.1,1.1c0.9-1,1.8-1.9,2.9-2.6
					c0.4-0.3,1.2-0.9,1.7-0.9C921,213.7,921.4,214.2,920.7,214.8z"/>
			</g>
		</g>
		<g id="XMLID_1393_">
			<g id="XMLID_1392_">
				<g id="XMLID_1377_">
					<path id="XMLID_1389_" class="st6" d="M1010.3,347.8c-6.3-2.5-13.4-3-20.1-1.4c-2.7,0.7-5.4,1.8-7.1,4.2
						c-1.8,2.5-3.6,5.2-3.7,8.3c0,0.7,0.1,1.4,0.2,2.1c0.8,3.5,3.8,5.3,7.2,5.6c6.3,0.6,13.2-1.1,19.4-1.8c4.2-0.5,10.5,0,14.2-2.5
						C1028.1,357,1014.3,349.4,1010.3,347.8z"/>
					<path id="XMLID_1390_" class="st6" d="M1018.6,361.5c-3,1.6-7.5,1.3-10.8,1.6c-4,0.4-7.9,0.9-11.9,1.3c-3.4,0.4-7.6,1.4-11,0.3
						c-2.1-0.7-3.8-2.2-3.9-4.6c-0.1-2.2,0.9-4.3,1.9-6.1c1-1.8,1.9-3.9,3.8-4.8c2.2-1.1,5.2-1.6,7.6-1.8c3.2-0.4,6.4-0.2,9.5,0.4
						c3.3,0.6,6.5,1.7,9.4,3.3C1015.8,352.3,1024.9,358.1,1018.6,361.5z"/>
				</g>
				<g id="XMLID_1373_">
					<path id="XMLID_1374_" class="st6" d="M1009.8,346.5L1009.8,346.5c-2.7-12-5.6-23.9-8.8-35.7c-3.1-11.2-5.9-22.7-10.3-33.5
						c-3.3-7.9-8.3-15.6-16.2-19.5c-7-3.5-15.4-3-21.4,2.1c-0.3-0.1-0.7-0.1-1,0.3c-7.2,11.8-12.2,24.7-14.9,38.2
						c-0.1,0.3,0.1,0.6,0.3,0.8c-0.1,0.6,0.7,1.2,1.3,0.7c5.3-4.6,13.2-5.7,19.5-2.4c6.2,3.2,9,10.1,11.3,16.3
						c4.9,13.5,8.6,27.4,11.1,41.5c0,0.1,0.1,0.3,0.2,0.3c0.1,0.3,0.3,0.6,0.7,0.5c10-0.7,19.5-3.6,28-8.8
						C1009.8,347.1,1009.9,346.8,1009.8,346.5z"/>
					<path id="XMLID_1383_" class="st5" d="M975.8,328.1c-2.3-7.7-4.5-16-8.4-23.1c-5.8-10.5-18.8-14.5-28.6-7.2
						c2.7-12.9,7.5-25.1,14.3-36.4c0.2,0.1,0.5,0,0.7-0.2c7.9-6.9,19.2-4.2,26.2,2.5c6.9,6.6,10,15.8,12.8,24.7
						c5.9,19,11,38.3,15.3,57.8c-8,4.8-16.8,7.6-26.2,8.3C980.4,345.6,978.3,336.8,975.8,328.1z"/>
					<path id="XMLID_13_" class="st5" d="M975.8,328.1c-2.3-7.7-4.5-16-8.4-23.1c-5.8-10.5-18.8-14.5-28.6-7.2
						c2.7-12.9,7.5-25.1,14.3-36.4c0.2,0.1,0.5,0,0.7-0.2c7.9-6.9,19.2-4.2,26.2,2.5c6.9,6.6,10,15.8,12.8,24.7
						c5.9,19,11,38.3,15.3,57.8c-8,4.8-16.8,7.6-26.2,8.3C980.4,345.6,978.3,336.8,975.8,328.1z"/>
					<path id="XMLID_18_" class="st7" d="M993,289.2c-0.1-0.2-0.1-0.5-0.2-0.7c-2.7-8.9-5.9-18.1-12.8-24.7
						c-7-6.8-18.3-9.4-26.2-2.5c-0.2,0.2-0.5,0.2-0.7,0.2c-6.8,11.3-11.6,23.5-14.3,36.4c8.9-6.6,20.5-3.9,26.9,4.6
						c-0.3-5.2,1.8-10.5,6.4-13.6C978.7,284.3,986.6,285.4,993,289.2z"/>
					<path id="XMLID_1385_" class="st6" d="M1007.2,341.8c-8.3,4.3-17.2,6.9-26.6,7.8c-1,0.1-1,1.7,0,1.6c9.6-0.9,18.8-3.6,27.3-8.1
						C1008.9,342.7,1008.1,341.3,1007.2,341.8z"/>
				</g>
			</g>
			<g id="XMLID_1367_">
				<path id="XMLID_1378_" class="st6" d="M1008.6,257.6c-7.3-16.2-26.4-21.9-42.8-18.1c-14.4,3.3-25.9,12.2-36.2,22.5
					c-0.1,0-0.2,0-0.3,0c-13.4,4.7-25.3,12.6-34.8,23.1c0,0,0,0,0,0.1l0,0c-0.3,0.4-0.2,0.8,0.1,1c6.5,18.8,28.2,25.9,45,15.7
					c9.4-5.7,16.4-14.8,25.9-20.3c9.3-5.5,24.8-6.7,29.7,5.5c0,0.1,0.1,0.2,0.2,0.3c0.2,0.5,0.8,0.8,1.2,0.3
					c7-8.3,11-18.3,11.9-29.2C1008.7,258.2,1008.8,257.9,1008.6,257.6z"/>
				<path id="XMLID_1379_" class="st5" d="M996.3,285.6c-3.2-6.6-10.4-10-17.6-9.8c-9.7,0.2-18,6.6-24.9,12.7
					c-8.9,7.8-18.1,16.8-30.8,16.8c-12.3,0-22.9-8-26.8-19.5c8.6-9.4,19.2-16.7,31.1-21.3c-3.5,3.7-6.9,7.4-10.2,11.2
					c-0.7,0.8,0.4,1.9,1.1,1.1c12.5-14,25.9-28.9,44.4-34.7c16.5-5.2,36.7-0.8,44.6,15.9c0,0.1-0.1,0.1-0.1,0.2
					C1006.3,268.2,1002.6,277.7,996.3,285.6z"/>
				<path id="XMLID_1386_" class="st6" d="M1002.9,252.1c-0.9,8-3.2,15.5-6.8,22.6c-7.1-4.1-15.5-5.4-23.6-3.4
					c-8.8,2.2-15.8,8.4-22.4,14.3c-7.9,7-17,14.9-28.3,14.3c-10.9-0.6-16.6-10.3-21.2-19c-0.5-0.9-1.8-0.1-1.4,0.8
					c3.8,7.1,8.1,14.9,15.8,18.2c8.2,3.5,17.5,0.7,24.7-3.9c8.6-5.5,15.2-13.7,23.8-19.1c9.9-6.1,21.7-6.6,31.8-0.8
					c-0.9,1.7-2,3.5-3.1,5.1c-0.6,0.8,0.8,1.6,1.4,0.8c6-9,9.6-19.2,10.8-29.9C1004.6,251.1,1003,251.1,1002.9,252.1z"/>
			</g>
		</g>
		<path id="XMLID_1396_" class="st6" d="M831.6,270.7"/>
		<g id="XMLID_1394_">
			<g id="XMLID_1399_">
				<path id="XMLID_9_" class="st5" d="M864.9,366.1v-95.5c0-2.4,2-4.4,4.4-4.4l0,0c2.4,0,4.4,2,4.4,4.4v95.5c0,2.4-2,4.4-4.4,4.4
					l0,0C866.9,370.5,864.9,368.5,864.9,366.1z"/>
				<path id="XMLID_21_" class="st7" d="M873.7,270.6c0-0.8-0.2-1.5-0.6-2.2c-2.5-0.1-5.1-0.1-7.6-0.2c-0.4,0.7-0.7,1.5-0.7,2.3
					v15.2c3-0.3,5.9-0.7,8.8-1.3L873.7,270.6z"/>
				<path id="XMLID_1398_" class="st9" d="M864.9,367.7v-95.5c0-2.4,2-4.4,4.4-4.4l0,0c2.4,0,4.4,2,4.4,4.4v95.5
					c0,2.4-2,4.4-4.4,4.4l0,0C866.9,372.1,864.9,370.1,864.9,367.7z"/>
				<path id="XMLID_1397_" class="st10" d="M923.9,275.1H814.7c-2.4,0-4.4-2-4.4-4.4l0,0c0-2.4,2-4.4,4.4-4.4h109.2
					c2.4,0,4.4,2,4.4,4.4l0,0C928.3,273.1,926.3,275.1,923.9,275.1z"/>
				<path id="XMLID_1402_" class="st10" d="M869.3,366.9c-24.1,0-43.6,3.1-43.6,7h87.1C912.9,370,893.4,366.9,869.3,366.9z"/>
			</g>
			<g id="XMLID_1407_">
				<g id="XMLID_1400_">
					<path id="XMLID_1405_" class="st6" d="M893,264.4l-0.8-4.1c0-0.2-0.2-0.3-0.3-0.4c-0.2-0.2-0.4-0.2-0.6-0.3
						c-0.3-0.1-0.8-0.2-1.3-0.3c-1.5-0.2-3.9-0.4-6.5-0.4h-62.4c-2.1,0-4,0.1-5.4,0.3c-0.7,0.1-1.3,0.2-1.7,0.3
						c-0.2,0.1-0.4,0.1-0.6,0.2c-0.1,0.1-0.2,0.1-0.3,0.2s-0.2,0.3-0.2,0.5v0.1l0.8,4.1c0,0.2,0.2,0.3,0.3,0.4
						c0.2,0.2,0.4,0.2,0.6,0.3c0.3,0.1,0.8,0.2,1.3,0.3c1.5,0.2,3.9,0.4,6.5,0.4h62.4c2.1,0,4-0.1,5.4-0.3c0.7-0.1,1.3-0.2,1.7-0.3
						c0.2-0.1,0.4-0.1,0.6-0.2c0.1-0.1,0.2-0.1,0.3-0.2s0.2-0.3,0.2-0.5V264.4z"/>
					<path id="XMLID_1411_" class="st7" d="M884.8,264.7h-62.4c-2.1,0-4-0.1-5.3-0.3c-0.7-0.1-1.2-0.2-1.6-0.3c-0.1,0-0.1,0-0.2,0
						l-0.7-3.5c0.1,0,0.3-0.1,0.5-0.1c1.2-0.2,3.5-0.4,6.1-0.4h62.4c2.1,0,4,0.1,5.3,0.3c0.7,0.1,1.2,0.2,1.6,0.3c0.1,0,0.1,0,0.2,0
						l0.7,3.5c-0.1,0-0.3,0.1-0.5,0.1C889.7,264.5,887.4,264.7,884.8,264.7z"/>
				</g>
				<g id="XMLID_1401_">
					<path id="XMLID_1420_" class="st6" d="M875.2,255.1l-8.7-32c-0.6-2.1-1.9-3.9-3.5-5.2s-3.6-2.2-5.6-2.2h-53.1
						c-1.7,0-3.1,0.6-4.1,1.7c-1,1-1.6,2.5-1.6,4.1c0,0.7,0.1,1.4,0.3,2.1l8.7,32c0.6,2.1,1.9,3.9,3.5,5.2s3.6,2.2,5.6,2.2h53.1
						c1.7,0,3.1-0.6,4.1-1.7c1-1,1.6-2.5,1.6-4.1C875.5,256.5,875.4,255.8,875.2,255.1z"/>
					<path id="XMLID_1421_" class="st5" d="M872.8,260.2c-0.7,0.7-1.7,1.2-3,1.2h-53.1c-1.6,0-3.2-0.7-4.6-1.8
						c-1.4-1.1-2.5-2.7-3-4.4l-8.7-32c-0.2-0.6-0.2-1.1-0.2-1.7c0-1.3,0.4-2.3,1.1-3c0.7-0.7,1.7-1.2,3-1.2h53.1
						c1.6,0,3.2,0.7,4.6,1.8c1.4,1.1,2.5,2.7,3,4.4l8.7,32c0.2,0.6,0.2,1.1,0.2,1.7C873.9,258.4,873.5,259.5,872.8,260.2z"/>
					<path id="XMLID_15_" class="st7" d="M869.5,260.3c-0.7,0.7-1.6,1.1-2.8,1.1h-50.3c-1.5,0-3.1-0.6-4.4-1.7
						c-1.3-1.1-2.4-2.6-2.8-4.2l-8.2-30.2c-0.2-0.6-0.2-1.1-0.2-1.6c0-1.2,0.4-2.2,1.1-2.9c0.7-0.7,1.6-1.1,2.8-1.1H855
						c1.5,0,3.1,0.6,4.4,1.7c1.3,1.1,2.4,2.6,2.8,4.2l8.2,30.2c0.2,0.6,0.2,1.1,0.2,1.6C870.5,258.6,870.1,259.6,869.5,260.3z"/>
				</g>
			</g>
		</g>
		<g id="XMLID_1422_">
			<g id="XMLID_1395_">
				<path id="XMLID_1424_" class="st6" d="M879.1,162c-2.4-11.1-14.5-15.6-23.5-8.8c-4.8,3.6-7.1,9.8-5.8,15.7
					c0.6,2.5,1.8,4.8,3.6,6.7c0.9,1,2,1.8,3.2,2.4c2.1,1.1,4.7,1.8,7,0.9c2.1-0.9,3.6-3,3.3-5.3c-0.4-3-3.5-4.2-5.4-6.2
					c-1.8-1.8-0.5-4.5,1.2-5.9c1.2-1,2.8-1.1,4.2-0.5c1.6,0.7,3.1,2,3.9,3.5c3.6,6.1-0.3,13.7,2.3,20.1c1.3,3.3,4.5,6.4,8.3,5.8
					c4.3-0.7,4.9-4.9,2.3-7.7c-1.6-1.7-3.2-2.7-4-5.2c-0.6-2.1-0.5-4.3-0.3-6.4C879.5,168,879.8,165,879.1,162z"/>
				<path id="XMLID_1425_" class="st8" d="M879.2,180.4c0.7,1.1,1.6,1.8,2.5,2.7c2.9,2,2.8,6.6-3.4,5.3c-0.9-0.4-1.6-0.9-2.1-1.6
					c-6.5-6.8,2.9-24.5-9.6-27.5c-4.4-1.1-9.5,2.8-7.8,7.6c0.5,1.3,1.6,2.2,2.7,3c0.9,0.6,2,1,2.8,1.8c0.8,0.9,0.7,2.3,0.3,3.4
					c-0.4,1.1-1.4,2.3-2.6,2.5c-1.5,0.3-3.6-0.4-4.9-1.1c-1.4-0.8-2.7-1.9-3.7-3.2c-2-2.5-2.9-5.8-2.7-9c0.2-2.3,1-4.6,2.4-6.5
					c4.4-6.3,14-8.8,20.1-3.3c6,5.4,4.1,12.5,4.3,19.5C877.6,176.2,878,178.5,879.2,180.4z"/>
			</g>
			<g id="XMLID_1408_">
				<path id="XMLID_1427_" class="st6" d="M891.9,193.2c-0.7-1.4-2.6-2.3-4.2-2.2c-2.1,0-3,1.4-3.4,3.2c-0.3,1.2,0,2.4,0.7,3.4
					c1.3,1.7,3.7,2.1,5.5,0.9C892.3,197.4,892.8,195,891.9,193.2z"/>
				<path id="XMLID_1428_" class="st8" d="M889.7,197.2c-1.2,0.7-2.7,0.5-3.5-0.7c-0.8-1.1-0.6-2.8,0.5-3.6s2.9-0.5,3.6,0.6
					C891.1,194.8,890.9,196.5,889.7,197.2z"/>
			</g>
		</g>
	</g>
	<g id="XMLID_14_">
		<g id="XMLID_1439_">
			<path id="XMLID_1447_" class="st6" d="M587.7,159.9c-0.3-0.3-0.7-0.2-0.9,0.1c-3.1-0.8-5.5,1.1-3.8,4.4c2.1,4.2,6.3,7.4,10.4,9.4
				c0.4,0.2,1,0,1-0.5C594.2,168.1,591.8,163.3,587.7,159.9z"/>
			<path id="XMLID_1448_" class="st6" d="M585.2,165.5c-0.3-0.4-0.8-0.9-0.9-1.3c-0.2-0.9,1.4-3.2,2.4-2.8c0.2,0.1,0.4,0,0.6-0.1
				c3.3,2.9,5.3,6.7,5.7,11c-1.9-1-3.7-2.2-5.3-3.8C586.8,167.6,585.9,166.6,585.2,165.5z"/>
		</g>
		<g id="XMLID_3_">
			<g id="XMLID_1470_">
				<path id="XMLID_1478_" class="st6" d="M654.9,282.6c0.1-0.3,0.1-0.6-0.2-0.8c-2-10.4-5.3-20.6-9.9-30.1
					c-3.5-7.2-8.5-15.9-17.6-16.1c-9.4-0.3-12.2,9.6-11.9,17.3c0.5,12.2,1.8,24.5,2.7,36.7c0,0.5,0.5,0.8,1,0.5
					c10.9-5,22.7-7.4,34.7-7.1c0,0.2,0.1,0.4,0.1,0.5c0.1,0.8,1.4,0.5,1.2-0.3C654.9,282.9,654.9,282.8,654.9,282.6z"/>
				<path id="XMLID_1479_" class="st7" d="M619.2,288.5c-0.7-9.5-1.4-19.1-2.1-28.6c-0.4-4.9-1.2-10.1,0.1-14.9
					c1.5-5.4,5.9-9.1,11.7-8.1c9.1,1.6,13.4,12,16.7,19.5c3.5,8.1,6.1,16.5,7.8,25.2C641.6,281.4,630,283.8,619.2,288.5z"/>
			</g>
			<g id="XMLID_1500_">
				<g id="XMLID_1494_">
					<g id="XMLID_1491_">
						<g id="XMLID_1446_">
							<path id="XMLID_1455_" class="st6" d="M554.3,207.3c-1.9-2.1-3.6-4.7-2.6-7.7c0.9-2.7,3.3-4.5,5.2-6.4
								c2.1-2.1,4.2-4.9,3.7-8.1c-0.7-4.3-5.3-5.9-7.2-9.5c-2.7-5.3,4.6-5.1,4.8-9.5c0.1-2.7-6.6-4.4-8.6-4.7
								c-3.7-0.7-7.5-0.1-10.7,1.9c-5.1,3.2-7.4,10.1-4.3,15.4c0.8,1.4,2,2.5,2.9,3.8c1.9,2.9,1.5,5.9,0,8.8
								c-2,3.8-5.4,6.6-7.2,10.5c-2.6,5.7,0.2,9.9,4.7,13.2c2.4,1.8,5.3,3.4,6.9,6.1c2.7,4.5,0,9.7,0.5,14.5
								c0.4,4.2,5.2,9.7,9.4,5.8c2.8-2.5,1.6-6.7,2.4-9.9c0.9-3.6,3.6-6.2,5.3-9.4C563.2,215.7,558.5,211.9,554.3,207.3z"/>
							<path id="XMLID_1456_" class="st6" d="M559.6,218.8c-0.6,3-2.8,5.4-4.4,7.8c-1.2,1.9-2.1,3.8-2.4,6c-0.3,2,0.1,4.1-0.6,6
								c-1.9,5-7.2,2.3-8.2-1.5c-1.6-6,2.6-12.2-1.8-17.6c-3-3.8-8.5-5.4-10.8-9.7c-3.9-7.1,5.5-13.3,7.9-19.3
								c1.1-2.7,1.1-5.5-0.4-8.1c-2.4-3.8-5.3-6.3-4.1-11.3c2.4-10.3,14.9-9.9,22-5.2c0.3,2.3-3,2.9-4.2,4.1c-0.6,0.7-1,1.6-1.1,2.5
								c-0.3,2.1,0.7,4,2,5.5c2.5,2.9,7,5.3,5.5,9.8c-1.2,3.7-5,5.7-7.2,8.7c-3.2,4.5-1.4,8.7,2.2,12.2
								C556.8,211.6,560.5,214.4,559.6,218.8z"/>
						</g>
						<g id="XMLID_1471_">
							<path id="XMLID_1488_" class="st6" d="M559.7,162.6c-0.1-0.4-0.5-0.5-0.8-0.4c0,0-0.1,0-0.1-0.1c-5.8-1.6-10.7,4.9-6.9,9.9
								c1.5,1.9,4.5,3.1,6.3,1C560.5,170.5,560.3,165.6,559.7,162.6z"/>
							<path id="XMLID_1489_" class="st11" d="M558.2,170.3c-0.4,1.1-0.8,2.4-2.4,2.5c-1.3,0.1-2.6-1.1-3.2-2.1
								c-2.4-4.1,1.5-8.6,5.9-7.4c0,0,0,0,0.1,0C558.9,165.7,558.9,168.1,558.2,170.3z"/>
						</g>
					</g>
					<g id="XMLID_1493_">
						<g id="XMLID_1492_">
							<g id="XMLID_1458_">
								<path id="XMLID_1472_" class="st6" d="M596.4,364.1c-0.3-0.2-0.8-0.2-1,0.3c-0.7,1.5-1.3,3-2,4.4c-0.4,1-1,2-0.6,3.1
									c0.7,2,3.4,1.9,5.2,2c3.4,0.1,6.8,0,10.1-0.4c1.5-0.1,3.1-0.7,3-2.5c-0.2-2-3.1-3-4.6-3.7
									C603.4,365.7,599.9,364.7,596.4,364.1z"/>
								<path id="XMLID_1475_" class="st6" d="M608.7,369.6l0.1,0.1c0.4,0.3,1.3,0.8,1.2,1.4c-0.3,1.4-2.6,1.2-3.6,1.2
									c-1.5,0-3,0.1-4.4,0.1c-1.9,0-3.9,0.2-5.8,0c-1.1-0.1-1.9-0.1-2-1.4c0-1.1,0.6-2.1,1-3.1c0.4-0.8,0.7-1.6,1.1-2.5
									c2.1,0.3,4.1,0.8,6.1,1.5c1.5,0.5,2.9,1,4.3,1.7C607.5,368.9,608.1,369.2,608.7,369.6z"/>
							</g>
							<g id="XMLID_1461_">
								<path id="XMLID_1467_" class="st6" d="M571,349.7c0-0.4-0.3-0.8-0.7-0.7c-1.6,0.2-3.2,0.5-4.8,0.7c-1.1,0.2-2.2,0.3-2.9,1.2
									c-1.3,1.7,0.2,3.9,1.1,5.5c1.7,2.9,3.6,5.7,5.7,8.4c0.9,1.2,2.2,2.3,3.7,1.2c1.6-1.2,0.9-4.3,0.7-5.9
									C573.3,356.4,572.3,353,571,349.7z"/>
								<path id="XMLID_1464_" class="st6" d="M572.8,363.1c0,0.1,0,0.1,0,0.2c0,0.5,0,1.5-0.6,1.8c-1.3,0.5-2.3-1.6-2.9-2.4
									c-0.8-1.2-1.6-2.5-2.4-3.7c-1-1.6-2.2-3.2-3.1-4.9c-0.5-1-0.9-1.7,0.2-2.4c1-0.6,2.1-0.6,3.2-0.8c0.9-0.1,1.8-0.3,2.7-0.4
									c0.8,2,1.5,3.9,1.9,6c0.3,1.5,0.7,3,0.9,4.6C572.8,361.6,572.8,362.3,572.8,363.1z"/>
							</g>
						</g>
						<g id="XMLID_1487_">
							<g id="XMLID_1451_">
								<path id="XMLID_1459_" class="st6" d="M646.1,159.5c-1.1-4.1-4.7-12.5-10.3-8.3c-0.2,0.2-0.4,0.4-0.3,0.7
									c5,13.1-3.7,25.7-14.9,31.9c-5.9,3.3-12.3,5.4-18.8,6.9c-3.2,0.7-6.5,1.3-9.8,1.9c-3,0.5-5.9,0.9-8.8,2.1
									c-3.1,1.3-6,3-8.8,4.9c-12,8.1-22.7,18.5-30.2,30.9c-2.1,3.4-4,7.2-3.6,11.2c0.3,3.6,2.5,6.9,5.4,9.1
									c2.9,2.2,6.4,3.4,10,4.1c4,0.8,8.2,1,12.3,0.6c2.1-0.2,4.2-0.6,6-1.7c1.8-1.1,3.2-3,3.2-5.1c0-0.3-0.1-0.7-0.3-0.9
									c-0.3-0.2-0.6-0.2-0.9-0.1c-4.9,0.6-10.3,0.2-14.1-3c-1-0.8-1.9-2-1.8-3.2c0.1-1.7,1.7-2.8,3.2-3.6
									c5.2-2.6,10.9-3.8,16.1-6.2l0,0c0.3-0.1,5.3,12.4,5.7,13.5c0.8,2.3,1.6,4.7,2.3,7.1c0.3,1.2,0.7,2.5,1,3.7
									c0.4,1.5,0.6,2.5,2,3.4c1.3,0.9,2.8,1.5,4.2,2.1c2,1,4,1.7,6.2,2.3c4.2,1.1,8.6,1.3,12.9,0.5c2.9-0.5,5.8-1.5,8.3-3.1
									c1.3-0.8,2.4-1.6,3.5-2.7c0.6-0.5,1.1-1.1,1.6-1.7c0.3-0.3,1.4-1.3,1.4-1.8c4.9-7.1,1.9-16.8-0.4-24.4
									c-2.2-7.2-5.4-14.1-9.2-20.6c13-4.4,23.3-14.9,27-28.2C648.1,174.7,648.1,166.8,646.1,159.5z"/>
								<path id="XMLID_1460_" class="st8" d="M642.5,188c-4.7,10-13.7,17.6-24.1,21.1c-0.8-1.2-1.5-2.4-2.3-3.6
									c-0.5-0.7-1.6,0-1.1,0.6c4.5,6.6,8.2,13.8,10.9,21.3c2.5,7.1,6,16.7,3.3,24.1c-2.7,7.2-11,11-18.2,11.8
									c-7.4,0.8-14.8-1.4-20.6-6.1l0,0c-2.7-11.4-7-22.3-12.8-32.5c-0.4-0.7-1.5-0.1-1.1,0.6c1,1.7,1.9,3.4,2.8,5.2
									c-5.3,1.6-10.4,3.5-15.5,5.7c-2.2,1-4.7,2.4-4.9,4.8c-0.3,2.5,1.9,4.5,4.1,5.6c4,2.1,8.7,2.9,13.2,2.1c0.1,1.6-1,3-2.3,3.8
									s-2.9,1.1-4.5,1.3c-3.8,0.4-7.7,0.4-11.5-0.1s-7.6-1.5-10.7-3.7c-3.1-2.2-5.4-5.8-5.4-9.6c0-2.8,1.4-5.5,2.8-8
									c8.4-14.7,21.2-25,34.9-34.5c7.1-4.9,15.9-4.6,24-6.5c6.7-1.6,13.5-3.7,19.4-7.3c4.8-3,9-7,11.8-11.9
									c2-3.6,3.3-7.6,3.5-11.7c0.1-2-0.1-4.1-0.6-6.1c-0.4-1.6-1.1-2.6,1.1-2.8c2.1-0.2,3.6,1.8,4.5,3.5
									C648.2,165,647.1,178.3,642.5,188z"/>
							</g>
							<g id="XMLID_1454_">
								<path id="XMLID_1465_" class="st6" d="M654.5,138.4c0-1.1-0.9-1.9-1.9-2c-1.5-0.2-3.3,0.6-4.7,1.2c0.5-0.4,1-0.9,1.5-1.3
									c0.8-0.7,1.9-1.4,2.3-2.4c0.5-1.3-0.2-2.4-1.5-2.5c-0.8-0.1-1.8,0.2-2.7,0.6c0,0,0,0,0-0.1c-4.8-4.7-12.1,7.5-13.6,10.8
									c0,0.1-0.1,0.2-0.1,0.3c-0.4-0.5-0.7-1-1.1-1.5c-0.4-0.5-0.8-1-1.5-1.1c-1.5-0.3-2.1,1.2-2,2.4c0.3,3.2,2.5,6.1,4.8,8.2
									c1.2,1.1,2.4,2.1,3.8,3c0.5,0.3,0.9,0,1.3-0.2c0.4-0.2,0.8-0.5,1.1-0.7c0.8-0.5,1.5-1,2.2-1.6c1.4-1.1,2.8-2.3,4.2-3.4
									c1.7-1.4,3.3-2.8,5-4.2c0.6-0.5,1.6-1.1,1.7-2c0-0.5-0.1-0.9-0.3-1.1C653.8,140.1,654.5,139.4,654.5,138.4z"/>
								<path id="XMLID_1466_" class="st5" d="M651.4,140.1c-0.8,0.4-1.8,0.5-2.6,0.9c-0.7,0.3-1.5,0.7-2.2,1.1
									c-1.1,0.6-2.2,1.3-3.2,2.1c-0.2,0.1-0.4,0.3-0.6,0.4c-0.6,0.5,0.3,1.3,0.8,0.8c1.6-1.3,3.4-2.5,5.3-3.4
									c0.6-0.3,1.1-0.7,1.8-0.8c0.2,0,0.3,0,0.5,0c0.3,0.1,0.4,0.4,0.4,0.7c0,0.4-0.4,0.7-0.7,0.9c-0.4,0.3-0.8,0.7-1.2,1
									c-0.5,0.4-1,0.7-1.5,1.1c-1.6,1.3-3.1,2.6-4.6,3.9c-0.9,0.7-1.7,1.4-2.6,2c-0.6,0.4-1.2,0.8-1.7,1.2c-0.3,0.2-0.6,0.4-1,0.4
									c-0.6,0-1.1-0.5-1.6-0.9s-1.1-0.9-1.6-1.4c-0.4-0.4-0.9-0.8-1.3-1.3c-0.1-0.1-0.2-0.3-0.3-0.4c-0.7-0.8-3.4-4.3-3-5.5
									c0.8-2.6,1.4-0.6,1.8,0c0.4,0.6,0.9,1.1,1.4,1.5c0.9,0.6,1.8,0.9,2.9,1c0.8,0.1,0.7-1.1,0-1.2c-1.1-0.1-2.3-0.5-1.8-1.4
									c1.3-2.2,2.3-4.5,4-6.4c1.3-1.5,5.1-6.2,7.5-4.4c-1,0.6-1.9,1.3-2.6,1.8c-1.9,1.5-3.4,3.4-4.5,5.6c-0.4,0.7,0.7,1.3,1,0.6
									c1.5-2.8,3.6-5.1,6.4-6.7c0.6-0.3,1.9-1.4,2.5-1.2c1.4-0.1,1.6,0.6,0.8,1.6c-0.5,0.4-0.9,0.8-1.4,1.2
									c-1.8,1.6-3.5,3.5-5.6,4.8c-0.5,0.3-1,0.7-1.5,1.1c-0.6,0.5,0,1.5,0.6,1c1.5-1.1,3-2.1,4.7-2.9c1.3-0.6,2.7-1.2,4.1-1.6
									c0.6-0.2,2.1-0.2,2,0.8c0,0.3-0.2,0.6-0.4,0.8C652.1,139.7,651.7,140,651.4,140.1z"/>
							</g>
							<g id="XMLID_1457_">
								<path id="XMLID_1473_" class="st6" d="M632.7,255.6c-0.1-3.8-0.1-7.8-0.6-11.6c0-0.2-0.1-0.3-0.1-0.5c0-0.1,0-0.2-0.1-0.3
									c-0.1-0.2-0.5-0.2-0.7-0.1c-13.2,6.3-27.4,9.8-42,10.4c-0.3,0-1.9,0.3-1.7,1c1.2,4.9,2.1,9.9,2.6,15s0.7,10.1,0.5,15.2
									s-0.7,10.1-1.6,15.1c-0.9,5-2.1,9.9-3.7,14.7c-1.6,4.8-3.5,9.5-5.7,14.1s-4.8,9-7.6,13.2c-0.9,1.3-1.7,2.5-2.7,3.7
									c-0.5,0.6-0.9,1.2-1.4,1.8c-0.5,0.6-1,1.1-1.4,1.8c-0.5,0.9,0.2,1.3,0.8,1.8s1.2,1.1,1.7,1.6c0.6,0.6,1.2,1.3,1.9,1.7
									c0.8,0.5,1.3-0.2,1.9-0.7c0.5-0.4,1-0.8,1.5-1.2c1-0.8,2-1.6,3-2.4c2-1.7,3.9-3.4,5.7-5.2c3.7-3.6,7-7.4,10.2-11.4
									c3.1-4,5.9-8.3,8.4-12.7c2.5-4.4,4.7-9.1,6.5-13.8c0.1-0.2,0.1-0.3,0.2-0.5c-0.3,0.7-0.2,1.8-0.2,2.6
									c-0.1,0.9-0.2,1.8-0.3,2.7c-0.2,1.8-0.4,3.5-0.7,5.3c-0.5,3.5-1.1,7-1.7,10.5c-1.3,7-3,13.9-5,20.7c-0.9,3-1.9,6-2.9,8.9
									c-1,2.8-2.2,5.6-3,8.5c0,0.1-0.1,0.2-0.1,0.3c0.1,0.6,1.7,0.9,2.2,1.1c1,0.4,2,0.6,3,0.7c1.5,0.1,4,0.6,5.2-0.6
									c0.3-0.3,0.4-0.7,0.6-1c1-2.4,2.4-4.5,3.6-6.8c1.3-2.5,2.5-4.9,3.6-7.4c2.3-5,4.4-10.1,6.4-15.3c1.9-5.2,3.6-10.4,5.2-15.7
									c1.5-5.3,2.8-10.6,3.9-16c1.1-5.4,2-10.8,2.7-16.3s1.2-11,1.4-16.5C632.8,266.7,632.9,261.1,632.7,255.6z"/>
								<path id="XMLID_1474_" class="st5" d="M604.2,366.3c-2.8,0.7-5.5,0.4-8.1-0.9c8-20.3,12.7-41.6,14.1-63.4
									c2.4-7.1,4-14.4,4.8-21.9c1.3-0.8,2.7-1.7,4-2.5c0.7-0.4,0.1-1.5-0.6-1.1c-0.9,0.5-1.8,1.1-2.6,1.6
									c-0.7,0.4-1.6,0.7-1.9,1.5c-0.3,0.6-0.2,1.5-0.3,2.2c-0.1,0.9-0.2,1.8-0.4,2.7c-4,25.7-17.6,49.6-37.8,65.9
									c-1.2,1-2.4,1.9-3.6,2.8c-1.3-1.2-2.6-2.4-3.9-3.6c0,0,4.6-6.2,5-6.7c1.6-2.3,3.1-4.7,4.5-7.2c2.8-4.9,5.2-10,7.2-15.2
									s3.6-10.6,4.8-16.1s2-11,2.4-16.6s0.3-11.2-0.2-16.8c-0.2-2.7-0.6-5.4-1-8.1c-0.2-1.3-0.5-2.7-0.7-4c-0.2-1-0.5-2.1-0.7-3.1
									c-0.1-0.5-0.3-0.8,0.3-1c1.3-0.3,2.8-0.1,4.1-0.2c1.6-0.1,3.2-0.3,4.8-0.5c3.2-0.4,6.3-0.9,9.4-1.6
									c6.2-1.3,12.4-3.2,18.3-5.6c0.8-0.3,1.7-0.7,2.5-1c0.2-0.1,2.4-0.9,2.4-1.1C634.3,286.8,624.9,329.5,604.2,366.3z"/>
								<path id="XMLID_26_" class="st7" d="M619.1,277.6L619.1,277.6c-1.4,0.9-2.7,1.7-4.1,2.5c-0.8,7.5-2.5,14.8-4.8,21.9
									c-0.4,6.5-1.1,12.9-2.1,19.3c6.2-8.7,10.3-18.9,11.7-29.6C620.3,287.5,621.1,281.8,619.1,277.6z"/>
								<path id="XMLID_1484_" class="st6" d="M616.5,270c0,0.1,0,0.2,0,0.3c-0.1,2.6-0.3,5.2-0.7,7.8v0.1l0,0
									c0.2-0.1,0.4-0.3,0.6-0.4c0.3-2.4,0.5-4.9,0.6-7.3c4.1-0.8,4.8-5.4,4.5-8.9c-0.3-4.2-1-8.4-2-12.4c-0.2,0.1-0.4,0.1-0.6,0.2
									c0.8,3.3,1.4,6.5,1.7,9.9c0.4,3.6,0.9,9.6-3.6,10.6c0.2-6.5-0.4-13-1.7-19.3c-0.2,0.1-0.4,0.1-0.6,0.2
									C616.1,257,616.7,263.5,616.5,270z"/>
								<path id="XMLID_1480_" class="st6" d="M595,275c0.3-6.9,0.3-13.7,0.2-20.6c-0.2,0-0.4,0-0.6,0.1c0.2,26.1-0.6,53.2-13,76.7
									c-3.3,6.4-7.5,12.3-12.4,17.5c-0.1-0.1-0.2-0.3-0.3-0.4c-0.1,0.2-0.3,0.4-0.4,0.5c1.1,1.5,2.4,2.8,4,3.9
									c0.2-0.1,0.4-0.3,0.5-0.4c-1.3-0.9-2.4-1.9-3.4-3.1l0,0C588.4,329.4,594,301.4,595,275z"/>
								<path id="XMLID_1477_" class="st6" d="M604.7,365.3c-2.9,0.1-5.7-0.4-8.4-1.5c-0.4-0.2-0.5,0.5-0.2,0.6
									c2.8,1.1,5.6,1.7,8.6,1.5C605.1,366,605.1,365.3,604.7,365.3z"/>
							</g>
						</g>
					</g>
					<g id="XMLID_1490_">
						<g id="XMLID_1468_">
							<path id="XMLID_1482_" class="st6" d="M594.7,313.8c0.1,0,0.2,0,0.3-0.1c0.5-0.1,1.1-0.2,1.5-0.5c0.9-0.6,0.8-1.7,1-2.6
								c0.8-3,1.5-5.9,2.1-9c1.2-6,2-12.1,2.4-18.2c0.8-12.2-0.1-24.5-2.6-36.4c-2.4-12-6.5-23.6-12-34.5c-1.5-3.1-3.2-6.1-5-9
								c-0.9-1.5-1.8-3-2.8-4.4c-0.5-0.8-1.2-3-2.5-2.8c-0.3,0.1-0.5,0.2-0.7,0.4c-1.9,1.5-3.8,3-5.7,4.4c-1,0.7-1.9,1.5-2.9,2.2
								c-0.4,0.3-2.8,1.8-2.8,2.3c-2.4,2.1-3.3,4.4-2.1,7.4c1.6,4,4.7,7.6,7,11.1l8.4,12.7c7.9,23.5,4.7,50.1-8.8,71.1
								c-0.2,0.1-0.3,0.2-0.3,0.5c-0.1,0.2,0,0.4,0.1,0.6c1.7,9.3,13.9,7.1,20.5,5.8C591.6,314.6,593.1,314.1,594.7,313.8z"/>
							<path id="XMLID_1483_" class="st5" d="M570.8,308.8c13.6-21,16.9-47.8,9.2-71.4c0.1-0.2,0.1-0.4,0-0.6
								c-0.1-0.1-0.2-0.3-0.3-0.4c-0.8-2.5-1.8-5-2.9-7.4c-0.3-0.7-1.4-0.1-1.1,0.6c0.3,0.7,0.6,1.4,0.9,2.1
								c-3.4-5.2-6.9-10.3-10.3-15.5c-1.1-1.6-2.5-3.5-2.5-5.5c0-2.6,2.2-4,3.9-5.3c3.2-2.5,6.4-5,9.6-7.5l0,0
								c22.8,33.2,29.7,76,18.4,114.7C589.3,313.5,572.4,319,570.8,308.8z"/>
						</g>
						<g id="XMLID_1453_">
							<path id="XMLID_1462_" class="st6" d="M589.2,238.1c-3.5,0.6-6.7,2.5-9.3,4.9c-1.2,1.1-2.3,2.4-3.3,3.7
								c-0.9,1.1-2.2,2.5-2.5,3.9c-0.3,1.5,0.5,2.9,1.7,3.7c2.1,1.4,4.9,1.1,7.1,0.1v0.1c0.6,2.1,3.3,2.3,4.5,0.5
								c0.5-0.7,0.6-1.4,0.5-2.1c1.3-0.3,2.1-1.5,2-2.9c1.9-0.9,1.7-3.4,0.6-5c-0.6-0.9-1.5-1.6-2.5-2c1.5-0.8,4.1-0.7,4.4-2.8
								C592.6,238.2,590.6,237.8,589.2,238.1z"/>
							<path id="XMLID_1463_" class="st5" d="M589.3,241.1c-0.7,0.3-2.2,0.7-2.9,1.4l0,0c-0.7-0.1-1.5,0-2.2,0.2
								c-0.8,0.2-0.5,1.4,0.3,1.2c1.5-0.4,3-0.2,4.2,0.8c0.9,0.8,2.1,3,0.9,3.8c-0.6-1.4-2.2-2.4-3.5-3.1c-0.7-0.4-1.4,0.7-0.6,1.1
								c1,0.5,2.1,1.1,2.7,2c0.6,1,0.7,2.7-0.6,3c-0.5-1.1-1.6-2.1-2.6-2.7c-0.7-0.4-1.3,0.7-0.6,1.1c1.1,0.7,2.2,1.6,2.3,2.9
								c0.1,1.4-2,3-2.5,1.1c0-0.2-0.1-0.3-0.2-0.3c0.3-0.2,0.6-0.4,0.8-0.6c0.6-0.5,0-1.6-0.6-1.1c-1.4,1.1-2.9,1.7-4.7,1.7
								c-0.8,0-1.6-0.1-2.3-0.4c-1.7-0.7-2.4-2.3-1.2-3.8c1.3-1.6,2.4-3.3,3.8-4.7c1.4-1.5,3.1-2.7,4.8-3.7c0.9-0.5,1.8-1,2.8-1.3
								C589.3,239.3,593.2,239.4,589.3,241.1z"/>
						</g>
						<g id="XMLID_1469_">
							<path id="XMLID_1485_" class="st6" d="M663,285.2c0.2-0.9,0-2.1,0-3c-0.1-1.2-0.2-2.4-0.3-3.6c-0.3-2.3-0.8-4.7-1.4-6.9
								c-1.2-4.5-3.1-8.8-5.2-12.9c-4.5-8.5-10.4-16-16.3-23.5c-2.9-3.7-5.9-7.4-8.7-11.2c-1.4-1.9-2.8-3.9-4.2-5.9
								c-0.7-1-1.3-2-1.9-3c-0.4-0.6-1.7-2-1.6-2.8c0-0.2,0.1-0.3,0.1-0.5c0.2-0.8-0.2-2.1-0.4-2.8c-0.2-1-0.4-2-0.7-3
								c-0.6-2.1-1.3-4.1-2.1-6c-1.6-3.7-3.9-7.3-7.1-9.9c-2.4-1.9-5-2.5-8-2.1c-2.8,0.3-5.6,0.9-8.4,1.6c-1.4,0.3-2.8,0.7-4.3,1
								c-1.3,0.3-4,0.7-2.1,2.5c0.7,0.7,1.7,1,2.5,1.5c1.1,0.7,2.2,1.5,3.1,2.4c1.9,1.7,3.5,3.7,4.9,5.9c2.8,4.3,4.8,9.2,6.8,14
								c1.9,4.5,3.8,9.1,6.7,13.1c2.6,3.7,5.7,7,8.7,10.3c7,7.5,12.9,15.4,16.5,25c1.8,4.8,3.1,9.8,3.8,14.9
								c0.3,2.6,0.5,5.2,0.6,7.7c0,2.2-1,4.8-0.1,6.9c0.1,0.3,0.3,0.5,0.6,0.6c0.2,0.1,0.4,0,0.7,0c1.6-0.3,3.3-1,4.9-1.5
								c2.2-0.8,4.3-1.8,6.3-3c0.5-0.3,5.7-3.8,5.6-3.9l0,0c0,0,0.8-0.9,0.8-1C662.9,285.6,662.9,285.4,663,285.2z"/>
							<path id="XMLID_1486_" class="st5" d="M645,293.8c1.4-20-6.1-38.5-19.6-53.1c-3.7-4-7.6-7.9-10.6-12.5
								c-3.2-4.8-5.2-10.3-7.4-15.6c-3.4-8.2-7.8-16.6-16.3-20.6c3.5-0.8,7.1-1.5,10.6-2.3c4.5-1,8.4-1.2,11.9,2.4
								c4.6,4.7,7.2,11.4,8.4,17.9c-0.6-1-1.1-2.1-1.6-3.2c-0.4-0.7-1.4-0.1-1.1,0.6c12.6,26.3,42.7,46.2,42.5,77.7
								C656.9,289.4,651.3,292.3,645,293.8z"/>
						</g>
					</g>
					<g id="XMLID_1481_">
						<g id="XMLID_1476_">
							<g id="XMLID_1429_">
								<path id="XMLID_1433_" class="st6" d="M574.2,186.9c-2.1-1.5-5.3-0.3-6.3,2c-1,2.2,0,5,2.2,6s4.8,0.1,5.9-2
									C577.1,190.8,576.1,188.2,574.2,186.9C574.3,186.9,574.3,186.9,574.2,186.9z"/>
								<path id="XMLID_1434_" class="st5" d="M574.9,192.2c-0.8,1.7-2.9,2.2-4.5,1.4c-1.5-0.8-2-2.9-1.2-4.4
									C571.2,185.6,576.6,188.8,574.9,192.2z"/>
							</g>
							<g id="XMLID_1430_">
								<path id="XMLID_1432_" class="st6" d="M597.5,172.6c-2.1-1.5-5.3-0.3-6.3,2c-1,2.2,0,5,2.2,6s4.8,0.1,5.9-2
									C600.3,176.6,599.3,173.9,597.5,172.6L597.5,172.6z"/>
								<path id="XMLID_1431_" class="st5" d="M598.2,178c-0.8,1.7-2.9,2.2-4.5,1.4c-1.5-0.8-2-2.9-1.2-4.4
									C594.4,171.4,599.8,174.5,598.2,178z"/>
							</g>
							<g id="XMLID_1426_">
								<path id="XMLID_1435_" class="st6" d="M592,194.5c-1-1.3-1.4-3-1.1-4.7c4.8-4.7,5.5-11.8,3-17.8c-1.5-3.7-3.9-6.9-6.7-9.7
									c-1.4-1.4-2.9-2.7-4.4-4c-0.9-0.7-1.8-1.6-2.8-2.2c-2.3-1.3-5.1-2-7.7-1.8c-1.6,0.1-3.2,0.5-4.6,1.2
									c-2.9,1.4-5.3,3.9-6.8,6.8c-1,1.9-1.7,4.2-1.7,6.3c-0.7,11.5,9,19.8,18.5,24.2l0,0c0.4,1.8,0.8,3.5,1.2,5.3
									c0.3,1.3,0.4,3,1.2,4.1c1.3,1.8,3.6,1.8,5.6,1.5c2.7-0.3,5.7-1.2,7.2-3.7c1.1-1.9,0.7-4-0.8-5.5
									C592.1,194.6,592,194.6,592,194.5z"/>
								<path id="XMLID_1436_" class="st5" d="M582.7,202.6c-2.4-1.2-2.7-4.1-2.9-6.5c-0.1-1.3-0.2-2.9-1.1-4c-0.8-1-2.4-1-3.5-1.6
									c-1-0.6-2-1.3-3-2c-1.8-1.2-3.6-2.6-5.2-4.1c-3.2-3-5.6-6.8-6.4-11.2c0-0.2-0.1-0.5-0.1-0.7l0,0c-0.5-3.2,0-6.6,1.5-9.5
									c1.4-2.8,3.7-5.2,6.5-6.4c1.2-0.5,2.5-0.8,3.8-0.9c1.8-0.1,3.7,0.2,5.4,0.9c3.6,1.4,6.2,4.4,8.8,7.1c2,2,3.7,4.2,5,6.7
									c2,3.7,2.9,8.1,1.9,12.3c-0.5,2.1-1.5,4-2.8,5.6c-0.9,1-1.3,1.2-1.2,2.7c0.1,1.8,0.6,3.6,1.8,4.9
									C595,200,586.2,204.3,582.7,202.6z"/>
								<path id="XMLID_24_" class="st7" d="M591.3,195.7c-1.2-1.4-1.8-3.1-1.8-4.9c0-0.6,0-1,0.2-1.3c-1.2,0.4-2.4,0.7-3.6,0.8
									c-1.2,0.1-2.5,0.1-3.5,1c-2.2,2.2,0.5,4.7,2.4,5.8c2.1,1.2,4.9,2.2,7.2,1.1C592.3,197.4,592,196.6,591.3,195.7z"/>
								<path id="XMLID_23_" class="st7" d="M586.7,163.6c-2.6-2.7-5.3-5.7-8.8-7.1c-1.7-0.7-3.6-0.9-5.4-0.9
									c-1.3,0.1-2.6,0.4-3.8,0.9c-2.9,1.2-5.1,3.7-6.5,6.4c-1.5,2.9-2,6.3-1.5,9.5l0,0c0,0.2,0.1,0.5,0.1,0.7
									c0.9,4.3,3.3,8.1,6.4,11.2c1.3,1.3,2.7,2.4,4.2,3.4c0.5-0.2,0.4-0.8,0-1.1c1.1-5.6,1-11.3-0.2-16.9c6-0.1,11.7-3.4,17.6-4.1
									C588,165,587.4,164.3,586.7,163.6z"/>
							</g>
						</g>
						<g id="XMLID_1437_">
							<path id="XMLID_1441_" class="st6" d="M566.5,169.6c-2-3.3-7-8.6-10.7-4.1c-3,3.6-1,9.7,1,13.3c1.6,2.8,3.8,5.2,6.4,7
								c1.2,0.8,6.7,4.5,7.8,2.4c0.5-0.9,0-3.3,0-4.3c-0.1-1.6-0.4-3.3-0.7-4.8c-0.7-3.2-1.9-6.3-3.6-9.1
								C566.7,169.8,566.6,169.7,566.5,169.6z"/>
							<path id="XMLID_1442_" class="st6" d="M555.8,169c0.7-4.9,5.6-4.1,8.1-1.1c1.4,1.7,2.5,3.7,3.4,5.7c2,4.4,2.8,9.1,2.6,13.9
								C562.3,185.4,554.5,177.4,555.8,169z"/>
						</g>
						<g id="XMLID_1438_">
							<path id="XMLID_1444_" class="st6" d="M574.2,147c-8.9,1-20.1,8.6-16.7,18.8c0.1,0.3,0.3,0.4,0.5,0.5c0.1,0,0.1,0.1,0.2,0.1
								c11.8,5.3,22.5-7.3,34.3-3.2c0.5,0.2,1-0.3,0.9-0.7C593.3,152.4,583.9,145.9,574.2,147z"/>
							<path id="XMLID_1445_" class="st6" d="M559.1,165.1L559.1,165.1c-3.1-9.5,8.3-16.3,16.4-16.7s15.8,4.9,16.5,13.1
								C580.6,158.4,570.1,170.1,559.1,165.1z"/>
						</g>
						<g id="XMLID_1440_">
							<path id="XMLID_1452_" class="st6" d="M580.2,175.2c-0.1-0.3-0.2-0.5-0.4-0.7c-1.2-1-2,0.9-1.5,1.9c0.2,0.4,0.6,0.8,1,0.8
								C580.2,177.2,580.5,176.1,580.2,175.2z"/>
							<path id="XMLID_1443_" class="st6" d="M588.5,171.7c-0.1-0.3-0.2-0.5-0.4-0.7c-1.2-1-2,0.9-1.5,1.9c0.2,0.4,0.6,0.8,1,0.8
								C588.5,173.7,588.7,172.6,588.5,171.7z"/>
							<path id="XMLID_1449_" class="st6" d="M587.3,175.5c0-0.4-0.3-0.6-0.6-0.6c-1.4-0.1-2.1-1.2-2-2.5c0.1-0.8-1.2-0.8-1.3,0
								c-0.2,1.8,1,3.3,2.6,3.7c0,0.6,0.1,1.1,0.1,1.7c0,0.8,1.3,0.8,1.3,0C587.4,177,587.4,176.3,587.3,175.5z"/>
							<path id="XMLID_1450_" class="st6" d="M586.1,179.2c0-0.5-0.4-0.7-0.9-0.6c-0.9,0-1.8,0-2.6-0.1c-0.6,0-1.2,0-1.5,0.5
								c-0.7,1,0,2.8,0.7,3.6c0.8,1,2.1,1.1,3.1,0.3C586,182,586.1,180.5,586.1,179.2z"/>
						</g>
					</g>
				</g>
				<g id="XMLID_1499_">
					<rect id="XMLID_1495_" x="608" y="87.4" class="st8" width="13.9" height="50.9"/>
					<rect id="XMLID_1497_" x="584.2" y="100.5" class="st8" width="13.9" height="37.8"/>
					<rect id="XMLID_1498_" x="560.3" y="128.3" class="st8" width="13.9" height="10"/>
					<path id="XMLID_1506_" class="st8" d="M619.8,66.6c-1.9,0.2-3.7,0.3-5.6,0.5c-0.2,0-0.4,0.1-0.6,0.2c-0.7,0.3-0.9,1.1-0.4,1.7
						c0.4,0.5,0.8,1,1.2,1.4c-19.7,14-39.5,28-59.2,42.1c-1.1,0.8,0,2.6,1.1,1.8c19.8-14.1,39.6-28.2,59.5-42.3
						c0.4,0.5,0.9,1.1,1.3,1.6c0.5,0.7,1.5,0.2,1.7-0.5c0.6-1.8,1.3-3.6,1.9-5.3C621,67.4,620.4,66.6,619.8,66.6z"/>
				</g>
			</g>
		</g>
	</g>
	<g id="XMLID_33_">
		<g id="XMLID_1571_">
			<g id="XMLID_1558_">
				<path id="XMLID_1573_" class="st6" d="M498.9,314.9c-7-19-24-29.3-41.8-36.7c-9.3-3.9-18.8-7.6-27.3-13
					c-2.6-1.7-5.1-3.5-7.5-5.5c-6.1-5.4-11.8-12.5-14.8-20.1c-1.8-4.4-4.1-8.3-7.6-11.7c-6.7-6.6-15.9-10.5-25.2-10.8
					c-15.7-0.6-30.3,8.5-39.6,20.6c-11.4,14.8-15.2,34-15.7,52.3c-0.5,18.6,2.7,37.8,13.2,53.6c10.1,15.2,25.1,23.6,42.8,26.9
					c21.1,3.9,43.3,4.2,64.7,2.4c16.4-1.4,35.3-3.3,48.5-14.3C501.2,348,504.5,330,498.9,314.9z"/>
				<path id="XMLID_1574_" class="st5" d="M461.6,368.5c-19.1,3.9-39.2,4.5-58.6,3.5c-18.2-1-38.7-2.5-54.1-13.4
					c-14.4-10.3-22.8-26.8-26.1-43.9c-3.5-17.9-2.6-37.9,2.9-55.3c5.7-18,18.8-34.6,37.6-39.6c8.3-2.2,17.3-1.4,25.1,2
					c7.7,3.4,14.6,9.7,17.5,17.7c1.6,4.3,4,8.2,6.7,11.9c2.7,3.6,5.6,7.1,9,10c6.2,5.3,13.6,9.1,21.1,12.4
					c7.7,3.5,15.7,6.5,23.3,10.1c6,2.9,11.9,6.2,16.9,10.6c12.8,11.3,20.5,28.7,15.6,45.7C493.8,357.5,477.8,365.2,461.6,368.5z"/>
				<path id="XMLID_27_" class="st7" d="M483,294.6c-5-4.4-10.9-7.8-16.9-10.6c-7.6-3.7-15.6-6.7-23.3-10.1
					c-7.4-3.3-14.8-7.1-21.1-12.4c-3.4-2.9-6.3-6.4-9-10s-5.2-7.6-6.7-11.9c-0.3-0.8-0.6-1.6-1-2.4c-3.2-2.3-6.7-4.1-10.4-4.9
					c-5.2-2.3-11-1.2-15.5,2.2c-6.2,4.6-8.7,12.2-10.3,19.4c-3.4,16.4-2.9,33.5,5.9,48.1c8.1,13.4,21.6,22.8,37,25.8
					c9,1.7,17.9,0.8,26.8-1.2c5.9-1.3,11.8-3,17.7-4.1c0,0,0.1,0,0.1,0.1c15.3,2.9,21.4,21.1,11,32.7c-9.7,10.6-25.7,11-39,11.3
					c-15.4,0.4-30.7-1-45.8-3.2c-0.1-0.2-0.3-0.4-0.6-0.4c-1.1-0.1-2.2-0.1-3.3-0.2c-5.2-0.8-10.3-1.7-15.5-2.7
					c-8.3-2.2-16.2-5.5-23.6-9.9c2.8,3.1,5.9,6,9.4,8.4c15.3,11,35.8,12.5,54.1,13.4c19.4,1,39.5,0.4,58.6-3.5
					c16.2-3.3,32.2-11,37.1-28.1C503.5,323.3,495.8,306,483,294.6z"/>
			</g>
			<g id="XMLID_1557_">
				<g id="XMLID_1541_">
					<path id="XMLID_1555_" class="st6" d="M483,207.5c0-0.8-0.2-1.5-0.5-2.2c-0.8-1.5-2.4-2.4-4-2.1c-0.2-0.7-0.5-1.4-1-2
						c-0.8-1-2.2-1.3-3.3-0.9c1.5-4.2,2.7-9.5-0.9-10.6c-2-0.6-3.4,1.3-4.1,2.9c-1.5,3.8-2.5,7.9-3.8,11.8c-0.1,0.2,0,0.3,0,0.5
						c-1.2,0.7-2.1,1.7-2.7,3c-1.4,2.8-0.9,6,0.4,8.7c-4.2,9.2-10,18.1-19.2,22.8c-9.4,4.8-21.5,3.7-27.9-5.3
						c-0.1-0.1-0.2-0.2-0.3-0.3c-0.3-0.4-0.9-0.6-1.3,0c-5.1,8.2-8,18.3-3.7,27.5c4.2,9.1,14.1,12.1,23.4,11.8
						c20.5-0.8,36.9-16.8,39.2-36.9l2-9.1c0.5-2.1,0.8-3.3,2.5-4.7c1.2-1,2.3-1.9,3.3-3.1l0,0c0.8-0.3,1.5-0.8,2.1-1.3
						C485.9,215.2,487.8,208.8,483,207.5z"/>
					<path id="XMLID_1556_" class="st5" d="M478.2,208.6c0.4-1.2,0.6-2.6,0.5-4c3.2-0.8,2.8,4,2.2,5.9c-0.4,1.2-1.1,2.4-2.2,3.1
						c-1.3,0.8-3,0.6-3.6-0.8C476.6,212,477.7,210.2,478.2,208.6z"/>
					<path id="XMLID_1561_" class="st5" d="M477.2,204.1c0.2,1.1,0.1,2.4-0.1,3.4c-0.2,0.9-0.6,1.8-1.2,2.6
						c-0.2,0.3-0.5,0.5-0.7,0.8c-0.9,1-1.9,1-3-0.2c1-0.3,1.7-1.1,1.9-2.4c0.1-1.4-0.7-2.6-1.9-3.4l0,0c0.3-0.6,0.7-1.5,1.2-2.6
						c0.2,0.1,0.5,0,0.7-0.2C475.9,199.8,477,203.3,477.2,204.1z"/>
					<path id="XMLID_1562_" class="st5" d="M468.8,198.8c0.5-1.7,1.2-4.1,1.9-5.7c0.7-1.5,2.8-2.5,3.4,0.4c0,0.3,0,0.5-0.1,0.8
						c0.1,0.9-0.4,2.7-0.7,3.7c-0.5,2.2-1.4,4.2-2.4,6.2v0.1c-0.4-0.2-0.9-0.3-1.3-0.3c-0.9-0.1-1.7,0-2.5,0.2
						C467.6,202.3,468.2,200.6,468.8,198.8z"/>
					<path id="XMLID_1566_" class="st5" d="M412.7,262c-4.9-8.6-2.4-18.7,2.4-26.7c4.9,6.5,12.9,9.2,20.7,8.1
						c0.4,9.2,0.7,18.4,1.1,27.7c0,0.1,0,0.2,0.1,0.2c-0.2,0-0.3,0-0.5,0.1C427.7,272.2,417.5,270.3,412.7,262z"/>
					<path id="XMLID_1567_" class="st5" d="M477.8,220.4c-0.7,0.6-2.1,1-2.7,1.7c-2.3,2.7-2.2,9.5-2.9,12.8
						c-1.9,9.7-5,18.3-12.1,25.3c-5.9,5.8-13.6,9.7-21.8,10.9l0,0c-0.4-9.3-0.7-18.6-1.1-27.9c1.3-0.3,2.6-0.6,3.9-1.1
						c11.4-4.2,18.5-14.5,23.3-25.1c0.1-0.3,0.1-0.5-0.1-0.7c0-0.1,0-0.3-0.1-0.4c-1.5-3-1.7-6.7,1-9.1c1.2-1.1,3-1.6,4.6-1.2
						c1.1,0.3,4.5,2.4,1.3,4.1c-0.8,0.4-2.5-0.2-3.3-0.5c-0.9-0.3-1.3,1.1-0.4,1.4c0.8,0.3,1.9,0.5,2.9,0.5c0.3,1.4,1.6,2.4,3.1,2.2
						c0.4,1.2,1.4,2,2.6,2.3c-0.3,1.5,0.3,3,1.8,3.6c0.3,0.1,0.6,0.2,0.9,0.2C478.6,219.7,478.2,220,477.8,220.4z"/>
					<path id="XMLID_1568_" class="st5" d="M483.6,215c-0.5,0.9-1.2,1.8-2.1,2.4c-1.2,0.8-4.9,0.8-3.7-1.8l0,0
						c2.1-0.3,3.5-2.1,4.3-3.9c0.3-0.8,0.6-1.7,0.8-2.7C485.2,209.9,484.7,213.1,483.6,215z"/>
				</g>
				<g id="XMLID_1514_">
					<path id="XMLID_1530_" class="st6" d="M435.5,303c-1.3-4.1-3.5-7.9-5.4-11.7c-2.9-5.9-4.2-12-4.8-18.6c-0.9-10.7-0.1-22-4.9-32
						c-1.7-3.6-4.3-6.8-7.5-9.2c-4.8-3.5-10.6-5.6-16.4-6.5c-1.8-0.3-3.6-0.2-5.4,0.2c-3.6,0.8-6.9,2.9-9.3,5.7
						c-5.6,6.6-7.2,16-8.2,24.3c-2.4,19.2,0.6,41,10.5,57.9c4.4,7.5,10.7,12.1,19.4,13.4c8.2,1.2,18.2,1.3,25.4-3.2
						C436.2,318.8,437.9,310.9,435.5,303z"/>
					<path id="XMLID_1531_" class="st5" d="M433.8,316.2c-4.2,8.4-14.7,9.6-22.9,9.4c-8.6-0.1-16.7-1.8-22.4-8.7
						c-5.2-6.3-8.1-14.8-10.3-22.5c-2.3-8.3-3.6-16.9-3.7-25.5c-0.1-9.2,0.8-18.7,3.6-27.5c2.2-7,8.4-16.1,16.8-15.3
						c2.6,0.2,5.1,1,7.5,1.9c2.3,0.8,4.6,1.6,6.8,2.7c13.4,6.9,13.8,23.6,14.5,36.7c0.4,7.7,1.1,15.3,4.2,22.4
						C431.3,297.8,438.3,307.2,433.8,316.2z"/>
				</g>
				<g id="XMLID_1550_">
					<g id="XMLID_1524_">
						<path id="XMLID_1529_" class="st6" d="M523.8,340.8c-9.9-3.9-20.9-2.4-29.6,3.5c-0.4,0.3-0.4,0.8-0.2,1.1
							c-2.4,3.4-4.9,7.6-3,11.8c1.6,3.4,5.2,4,8.6,3.9c5.9-0.2,11.9-1,17.8-2c4.9-0.8,11.3-1.3,15.7-3.8
							C541.5,350.3,528,342.4,523.8,340.8z"/>
						<path id="XMLID_1525_" class="st5" d="M533.3,353.3c-0.6,1-2.7,1.5-3.6,1.7c-7.6,2.2-15.7,3.4-23.5,4.2
							c-3.2,0.3-7.2,1.1-10.4,0.2c-7.3-2.1-2.8-10-0.1-13.7c0.2-0.2,0.2-0.4,0.1-0.6c6.3-4,13.6-5.8,21-4.7
							c3.8,0.6,7.4,1.8,10.7,3.8c1.5,0.9,3.4,1.9,4.5,3.2C532.9,348.4,534,352.1,533.3,353.3z"/>
					</g>
					<g id="XMLID_1518_">
						<path id="XMLID_1551_" class="st6" d="M491.1,282.7c-21.6-10.8-45.9-1.5-66.5,7c-0.7,0.3-0.6,1.4,0,1.5
							c-1.5,6,2.3,11.7,7.8,14.2c8.3,3.8,17.6,0.8,26.3,1.6c20.2,1.9,30.9,21.7,37,38.8c-0.4,0.4-0.3,1.3,0.5,1.3
							c7.4-0.1,14.4-2.1,20.7-5.9l0,0c0.1,0,0.1-0.1,0.2-0.2l0,0c0-0.1,0.1-0.1,0.1-0.2v-0.1c0,0,0,0,0-0.1
							C516.9,319,512.5,293.4,491.1,282.7z"/>
						<path id="XMLID_1552_" class="st8" d="M497.2,345.5c-5.1-14.5-12.5-29.6-27-36.8c-7.4-3.6-14.7-3.5-22.8-3
							c-4.5,0.2-9.2,0.3-13.4-1.3c-5.4-2.1-9.6-7.5-7.8-13.4c0-0.1,0-0.3,0-0.4c19.6-8,42.5-16.7,63.1-7.1
							c21.6,10,26,35.3,26.4,56.7C510,343.5,503.8,345.3,497.2,345.5z"/>
					</g>
				</g>
				<g id="XMLID_1546_">
					<g id="XMLID_1523_">
						<path id="XMLID_1532_" class="st6" d="M509.3,349c-9.9-3.9-20.9-2.4-29.6,3.5c-0.4,0.3-0.4,0.8-0.2,1.1
							c-2.4,3.4-4.9,7.6-3,11.8c1.6,3.4,5.2,4,8.6,3.9c5.9-0.2,11.9-1,17.8-2c4.9-0.8,11.3-1.3,15.7-3.8
							C527,358.5,513.5,350.7,509.3,349z"/>
						<path id="XMLID_1533_" class="st5" d="M518.7,361.6c-0.6,1-2.7,1.5-3.6,1.7c-7.6,2.2-15.7,3.4-23.5,4.2
							c-3.2,0.3-7.2,1.1-10.4,0.2c-7.3-2.1-2.8-10-0.1-13.7c0.2-0.2,0.2-0.4,0.1-0.6c6.3-4,13.6-5.8,21-4.7
							c3.8,0.6,7.4,1.8,10.7,3.8c1.5,0.9,3.4,1.9,4.5,3.2C518.3,356.7,519.4,360.4,518.7,361.6z"/>
					</g>
					<g id="XMLID_1519_">
						<path id="XMLID_1521_" class="st6" d="M505.8,347.1c0.3-2.8-1-6.2-1.3-8.8c-0.5-4.1-1-8.2-1.8-12.3c-1.4-8-3.7-16-7.8-23.1
							c-3.4-5.8-8.1-11.1-14-14.6c-16.1-10-34.5-5.6-51.1,1.3c-0.6-0.8-2.3-4.1-3.5-4.1c-0.2,0-0.4,0.1-0.6,0.2
							c-7.4,3.1-14.4,7-21.9,9.9c-4.3,1.7-8.6,3.2-13,4.6c-2.2,0.7-4.4,1.4-6.6,2c-1.1,0.3-2.3,0.5-3.3,0.9
							c-1.4,0.6-0.7,2.4-0.4,3.5c2.7,8.6,8.1,15.8,16.2,19.8c9.8,4.8,21.3,4.7,31.8,2.3c6-1.4,11.9-3.5,17.6-5.8s12.8-5.7,18.6-1.9
							c5.2,3.4,7.3,11.5,8.9,17c1.1,3.8,1.9,7.6,2.5,11.5c0.3,2.1,0.5,4.1,0.7,6.2c0.2,2-0.2,3.4,2.3,3.6c3,0.2,6.1-0.7,9-1.4
							c3.3-0.9,6.4-2.2,9.3-3.8c1.5-0.9,3-1.8,4.3-2.8c1.1-0.8,3.3-1.7,3.7-3.2C505.7,347.8,505.7,347.5,505.8,347.1z"/>
						<path id="XMLID_1526_" class="st8" d="M470,325c-6.1-10.4-16.4-6.5-25.5-2.9c-12.2,4.9-25.7,8.8-38.9,5.9
							c-11.8-2.6-22.1-11.1-23.9-23.5c15.4-4.1,30.2-9.9,44.4-17.3l2.3,3.1c-4.3,1.8-8.5,3.8-12.4,5.7c-0.8,0.4-0.1,1.7,0.7,1.3
							c19-9.2,43.2-20.2,63.5-7.7c19.3,12,22,37,23.8,57.5c0,0.1,0.1,0.3,0.1,0.4c-7.1,6.6-16.1,10.2-25.7,10.4
							C477.9,346.9,475.6,334.6,470,325z"/>
					</g>
				</g>
				<g id="XMLID_1554_">
					<g id="XMLID_1536_">
						<g id="XMLID_1535_">
							<path id="XMLID_1547_" class="st6" d="M487.3,284.4c0.8,0,1.6,0,2.1-0.3c0.7-0.4,1.1-1.7,1.3-2.4c0.2-1,0.3-2.6-1-2.8
								c-2.4-0.3-5-0.2-7.4-0.2c-5.2-0.2-10.4-0.3-15.6-0.4c-2,0-4-0.1-5.9-0.1l-13.9-0.4c-2.3-0.1-4.7-0.1-7-0.2
								c-1.1,0-2.3-0.1-3.4-0.1c-0.7,0-2.3-0.4-3,0.1c-1,0.7-1.1,1.9-0.7,2.9c0.3,1,0.9,2,1.8,2.6c1.2,0.7,2.7,0.3,4,0.3l5.3,0.1
								c3.6,0.1,7.1,0.1,10.7,0.2c7.1,0.1,14.3,0.3,21.4,0.4c2,0,4,0.1,6,0.1c1.3,0,2.7,0.1,4,0.1
								C486.3,284.3,486.8,284.4,487.3,284.4z"/>
							<path id="XMLID_1548_" class="st5" d="M459.8,282.4c-4.4-0.1-8.8-0.2-13.2-0.3c-2.2,0-4.5-0.1-6.7-0.1c-1.1,0-2.2,0-3.3,0
								c-0.9,0-1.7-0.2-2.2-1.1c-0.2-0.4-0.4-1-0.4-1.5c0.1-1,4.2-0.4,5-0.4c2.4,0.1,4.8,0.1,7.1,0.2c4.8,0.1,9.5,0.3,14.3,0.4
								c4.9,0.1,9.7,0.3,14.6,0.4c2.4,0.1,4.9,0.1,7.3,0.2c1.2,0,2.5,0.1,3.7,0.1c0.7,0,3.4-0.5,3.2,0.7c-0.1,0.6-0.2,1.5-0.7,1.8
								c-0.7,0.4-1.7,0.2-2.5,0.1c-1.1-0.1-2.2-0.1-3.3-0.1c-2.6-0.1-5.2-0.1-7.8-0.2C469.9,282.6,464.9,282.5,459.8,282.4z"/>
						</g>
						<g id="XMLID_1534_">
							<path id="XMLID_1538_" class="st6" d="M503.8,238.7c-0.2-0.1-0.5-0.1-0.8-0.2c-9.9-1-19.8-2.4-29.6-3.7
								c-1.3-0.2-3.5-1-4.7-0.1c-0.9,0.7-0.8,2.1-1,3.1c-0.3,1.6-0.5,3.3-0.8,4.9c-0.5,3.3-1.1,6.6-1.6,9.9
								c-1.1,6.5-2.1,13-3.2,19.5c-0.5,3-1.2,6.4,1.8,8.3c3.3,2.1,9,1.2,12.6,1.3c4.7,0.2,10.2,1.2,14.8,0.1
								c3.6-0.8,5.4-3.4,6.2-6.8c1.6-6.1,2.8-12.3,3.9-18.5c0.5-3.1,1.1-6.1,1.6-9.2c0.3-1.5,0.5-3.1,0.8-4.6
								C504.1,241.8,505.2,239.5,503.8,238.7C503.9,238.7,503.8,238.7,503.8,238.7z"/>
							<path id="XMLID_1539_" class="st5" d="M493.1,279.5c-3.6,2.3-9.8,1-13.9,0.9s-9,0.4-13.1-0.6c-5.5-1.4-2-11.8-1.3-15.7
								c0.7-4.5,1.5-9.1,2.3-13.6c0.6-3.6,0.9-7.4,1.3-11c0.2-1.4,0.5-3,2-3.5c1-0.3,2-0.1,3,0.2c4.4,1.1,8.8,1.5,13.2,2.1
								c3.5,0.5,7,0.7,10.5,1.1c1.7,0.2,4.4-0.5,5.4,1.4c1,1.8-0.4,4.3-0.8,6c-1.5,6.8-2.9,13.6-4.2,20.5
								C496.9,271.1,496.8,277.1,493.1,279.5z"/>
							<path id="XMLID_32_" class="st7" d="M502.7,240.6c-1-1.9-3.7-1.2-5.4-1.4c-3.5-0.5-7-0.7-10.5-1.1c-4.4-0.6-8.9-1-13.2-2.1
								c-0.4-0.1-0.8-0.2-1.2-0.3c-2.9,12.4-4.9,25-5.9,37.6c-0.2,3.2,0.2,5.4,2.1,6.8c3.5,0.4,7.3,0.1,10.7,0.2
								c4.1,0.1,10.3,1.4,13.9-0.9c3.7-2.4,3.8-8.4,4.6-12.4c1.4-6.8,2.7-13.7,4.2-20.5C502.3,244.9,503.7,242.4,502.7,240.6z"/>
						</g>
					</g>
					<g id="XMLID_1537_">
						<path id="XMLID_1540_" class="st6" d="M456.1,262.5c-0.9-4.9-7.4-6.9-11.6-6.8c-2.8,0.1-5.6,0.8-8.1,1.9
							c-4.6,2-7.9,5.8-11.1,9.4c-3,3.4-6.4,6.6-11.3,6.6c-7.2-0.1-8.1-7.6-9.5-13.1c-1.4-5.8-2.6-11.7-4.4-17.4
							c-1.2-3.7-2.9-7.2-6-9.5c-6.7-5-14.3-0.5-17.3,6.3c-3.9,8.8-3.2,19.5,0.2,28.4c3.6,13.9,9.3,32.2,25.9,34.8
							c17,2.6,28.3-13.4,36.1-25.8c0,0,0,0,0-0.1c0.1-0.1,0.2-0.1,0.4-0.2c0,0.2,0.2,0.4,0.5,0.5c2.4,0.8,4.7-0.8,5.1-3.2
							c0-0.1,0-0.1,0-0.2h0.1c2.6-0.4,3.2-2.2,2.9-4.4c0.5,0.7,1.1,1.2,2,1.4c1.2,0.2,2.2-0.6,2.5-1.8c0.3-1.6-0.6-3.3-1.4-4.6
							c-0.1-0.2-0.2-0.3-0.3-0.5c1.1,0.7,2.1,1.5,3.5,1.2C455.6,265.2,456.3,263.8,456.1,262.5z"/>
						<path id="XMLID_1542_" class="st5" d="M376.5,261.4c-0.6-2.9-0.9-5.9-0.8-9c0.2-5.6,1.3-12.5,5.5-16.6
							c5.1-5.1,12.1-2.9,15.5,2.9c2.8,4.7,3.6,10.6,4.8,15.8c0.9,3.7,1.5,7.7,2.6,11.4c-7.1,5-14.7,9.2-22.7,12.5l0,0
							C379.3,272.9,377.6,267,376.5,261.4z"/>
						<path id="XMLID_1549_" class="st5" d="M454.6,263.4c-0.5,0.9-1.6,0.5-2.3,0.1c-1-0.6-1.7-1.3-2.9-1.5c-0.1,0-0.2,0-0.3,0
							c-0.6-0.7-1.3-1.4-2.1-2c-0.7-0.6-1.8,0.5-1,1c1.7,1.4,3.2,3,4.2,4.9c0.2,0.4,0.5,1,0.7,1.5c0.2,0.6,0.7,1.7-0.1,1.9
							c-0.1,0-0.7,0.3-1.5-0.4c-0.6-0.5-1-1.1-1.5-1.7s-0.9-1.3-1.3-1.9c-0.1-0.2-0.3-0.4-0.4-0.7c-0.1-0.1-0.2-0.4-0.3-0.5
							c-0.4-0.6-0.9-1.2-1.4-1.8c-0.7-0.6-1.7,0.4-1,1c1.5,1.4,5.8,8.3,1.8,9.3c-0.3-2.3-2.1-4.2-3.9-5.6c-0.7-0.6-1.8,0.4-1,1
							c1.3,1,2.5,2.1,3.1,3.6c0.9,2-0.1,5.3-2.8,4.4c0.3-0.3,0.5-0.7,0.6-1.2c0.3-0.9-1.1-1.3-1.4-0.4c-0.4,1-1.5,1.3-2.1,2.2
							c-7.3,11.7-19.1,28.7-35.4,24.7c-8.6-1.8-14.3-8.3-17.8-15.9c-0.9-1.9-1.7-3.8-2.4-5.8c8-3.3,15.6-7.4,22.7-12.4
							c0.2,0.7,0.5,1.4,0.8,2c1.2,2.8,3.4,4.8,6.4,5.4c8.8,1.9,13.6-6.7,19.1-11.8c5.8-5.5,15.9-8.8,22.3-2.4
							C453.8,261.2,455.1,262.5,454.6,263.4z"/>
					</g>
				</g>
				<g id="XMLID_1544_">
					<g id="XMLID_1543_">
						<g id="XMLID_1501_">
							<path id="XMLID_1503_" class="st6" d="M433.2,214.3c-1.9-2.4-6.7-2.6-8.9-0.8c-2.2,1.9-2.9,5.2-1.2,7.6
								c1.8,2.5,5.2,3.1,7.8,1.5c2.3-1.4,3.9-4.9,2.8-7.5C433.6,214.9,433.4,214.6,433.2,214.3z"/>
							<path id="XMLID_1502_" class="st5" d="M431.1,220.7c-1.8,1.7-4.6,1.9-6.4,0.1c-1.7-1.7-1.4-4.3,0.2-5.9
								c0.9-0.9,2.2-1.3,3.5-1.2C432.2,213.9,434.1,217.8,431.1,220.7z"/>
						</g>
						<g id="XMLID_1504_">
							<path id="XMLID_1512_" class="st6" d="M436.7,192.7c-1.3-8.5-7.9-14.7-16.3-16c-8.3-1.3-16.3,2.7-21.3,9.3
								c-6.9,9-6.9,21-3,31.3c-0.5,4.4-4.1,8.3-2.4,12.9c1.3,3.4,4.6,5.3,7.7,6.6c2.7,1.1,7.2,3.2,9.4,0.2c0.9-1.2,0.9-2.8,1-4.2
								c0.2-2.1,0.5-4.2,0.7-6.3c6.5,2.2,13.6-1.5,17.5-7.1C435.3,212.1,438.1,201.4,436.7,192.7z"/>
							<path id="XMLID_1513_" class="st5" d="M433.7,208.1c-2,6.5-6.2,14.2-12.8,16.9c-1.3,0.5-2.8,0.8-4.2,0.8
								c-1,0-1.9-0.3-2.8-0.5c-1-0.3-2-0.8-2.4,0.5c-0.8,2.6-0.1,5.5-1.1,8.2c-2,5.3-8.3,1.9-11.4-0.1c-3.6-2.3-4.9-5.7-3.5-9.7
								c0.7-2.1,1.6-4.1,2.1-6.2c0.1-0.2,0.1-0.5,0.1-0.7c-0.1-0.9-0.7-2.1-1-2.9c-0.3-1.1-0.6-2.2-0.9-3.3
								c-0.5-2.2-0.8-4.5-0.8-6.7c-0.1-4.5,0.7-9,2.7-13.1c0.9-1.8,1.9-3.5,3.2-5c6.3-7.7,17.2-10.9,26.1-5.7
								C436.9,186.1,436.7,198.4,433.7,208.1z"/>
							<g id="XMLID_25_">
								<path id="XMLID_28_" class="st7" d="M426.9,180.4c-9-5.1-19.8-2-26.1,5.7c-1.3,1.5-2.3,3.2-3.2,5c-1.9,4.1-2.8,8.6-2.7,13.1
									c0,0.5,0,1,0.1,1.5c1.9,0.8,4,1.3,6,1.7c0.1,0.5,0.5,0.9,1.1,0.6c6.7-4.3,12.2-9.9,16.5-16.6c5.6,2.8,11.1,5.8,16.7,8.4
									C436,192.2,434.1,184.6,426.9,180.4z"/>
								<path id="XMLID_29_" class="st7" d="M413.2,225.1c-1.4-0.6-2.8-1.3-4.2-1.9c-1.2-0.5-3.4-2.1-4.8-1.6
									c-2.4,1-0.7,5.6,0.1,7.1c1.2,2.3,3.5,4.5,6.1,5.1c0.9-2.6,0.3-5.4,1.1-8C411.8,224.8,412.4,224.9,413.2,225.1z"/>
							</g>
						</g>
						<g id="XMLID_1509_">
							<path id="XMLID_1516_" class="st6" d="M440.8,189.1c0.9-1.1,1.8-2.3,2.6-3.4c1-1.3,3.1-3.2,3-5.1c-0.2-2.8-3.7-2.4-6.2-1.7
								c1.5-1.8,3.5-4.6,1.4-5.9c-1.1-0.8-2.9-0.4-4.1-0.3c-1.2,0.2-2.4,0.4-3.6,0.8c1.4-2.3,3.3-5.8,0.8-6.7
								c-1.5-0.5-3.6,0.6-4.9,1.2c-1.5,0.6-3,1.3-4.5,2.2c1.1-2.3,2.1-5.4-1.2-5.1c-2.1,0.2-4.6,1.6-6.4,2.5c-2.3,1.1-4.5,2.5-6.6,4
								c-0.2-1.3-0.3-2.6-0.5-4c-0.1-0.5-0.8-1.1-1.2-0.5c-5.7,6.9-12.8,13.2-16,21.8c-2.8,7.7-1.4,16.1,3.5,22.6
								c0.3,0.4,0.8,0.4,1.1,0.2c0.1,0,0.2-0.1,0.3-0.1c8.5-5.9,14.7-14.2,17.9-23.9c7.3,1.7,14,4.7,20.1,9.1c0.1,0,0.1,0.1,0.2,0.1
								c0.2,0.2,0.5,0.3,0.8,0.1c2-1.2,3.9-2.5,5.9-3.7c1-0.6,3.2-1.4,3.3-2.8C446.7,188,443.1,188.6,440.8,189.1z"/>
							<path id="XMLID_1517_" class="st6" d="M442.9,191.4c-2,1.3-4.1,2.6-6.1,3.8c-6.3-4.5-13.3-7.5-20.8-9.2c-0.1,0-0.2,0-0.4,0
								c-0.3,0-0.7,0.1-0.8,0.5c-3,9.6-9,17.8-17.2,23.6c-4.8-6.8-5.6-15.3-2.1-22.8c3.2-6.9,8.9-12.3,13.8-18
								c0.1,1.1,0.3,2.3,0.4,3.4c-0.2,0.6,0.4,1.3,1,0.8c2.4-1.8,4.9-3.4,7.6-4.7c1.3-0.6,2.9-1.7,4.4-1.8c0.3-0.1,0.6-0.2,0.9-0.3
								c0.7,0.9,0.8,1.8,0.3,2.6c-0.2,0.8-0.8,1.7-1.2,2.4c-0.4,0.8,0.6,1.4,1.1,0.9h0.1c2.4-1.5,4.9-2.8,7.5-3.7
								c0.3-0.1,1.2-0.6,1.5-0.5c1.9,0.4,0.8,1.7,0.4,2.4c-0.7,1.2-1.3,2.5-2,3.7c0,0,0,0.1-0.1,0.1l0,0c-0.4,0.8,0.7,1.5,1.2,0.8
								c2.1-0.8,4.3-1.3,6.6-1.4c0.8,0,0.8-0.2,1.2,0.6c0.5,0.9,0.1,1-0.4,1.7c-0.7,1.1-1.4,2.1-2.2,3.1c-0.1,0.2-0.2,0.4-0.1,0.6
								c-0.1,0.5,0.2,1.1,0.8,0.9c1.3-0.5,3.1-1.3,4.5-1c3,0.6,0.4,3.2-0.5,4.3c-1.8,2.3-3.6,4.6-5.4,7c-0.6,0.7,0.7,1.5,1.3,0.7
								c0.3-0.3,0.5-0.7,0.8-1l0,0c1.3-0.2,2.5-0.4,3.8-0.6C445.9,189.9,444,190.7,442.9,191.4z"/>
						</g>
						<g id="XMLID_1508_">
							<path id="XMLID_1505_" class="st6" d="M400.4,206.8c-1.9-2.4-6.7-2.6-8.9-0.8c-2.2,1.9-2.9,5.2-1.2,7.6
								c1.8,2.5,4.8,3.5,7.4,2c2.3-1.4,3.5-5.1,3.2-7.9C400.9,207.6,400.7,207.2,400.4,206.8z"/>
							<path id="XMLID_1507_" class="st5" d="M401.3,214c-1.8,1.7-7.5,1.1-9.3-0.7c-1.7-1.7-1.4-4.3,0.2-5.9
								c0.9-0.9,2.2-1.5,3.5-1.2C400.5,207.4,404.2,211.1,401.3,214z"/>
						</g>
					</g>
					<g id="XMLID_1510_">
						<path id="XMLID_1520_" class="st6" d="M420.1,206.1c-1.1,0-2.4,1.2-2,2.6c0.6,1.9,2.7,0.7,3-0.7
							C421.5,206.6,420.9,206.1,420.1,206.1z"/>
						<path id="XMLID_1511_" class="st6" d="M429.4,208.8c-1.1,0-2.4,1.2-2,2.6c0.6,1.9,2.7,0.7,3-0.7
							C430.8,209.3,430.2,208.8,429.4,208.8z"/>
						<path id="XMLID_1515_" class="st6" d="M425.9,208.9c-0.3,1.3-1,4.6-2.7,4.9c-0.9,0.1-0.5,1.5,0.4,1.4c2.4-0.3,3.2-4,3.7-5.9
							C427.6,208.4,426.2,208,425.9,208.9z"/>
						<path id="XMLID_1545_" class="st6" d="M421.3,215.6c-0.5-0.6-1.4-1.1-1.8-1.4c-1-0.6-2.4-1.7-3.5-0.8
							c-1.6,1.3-1.9,4.5-0.1,5.7c1.2,0.8,2.6,0.5,3.7-0.3C420.5,218.2,422.1,216.6,421.3,215.6z"/>
					</g>
				</g>
			</g>
			<g id="XMLID_1565_">
				<g id="XMLID_1559_">
					<path id="XMLID_1569_" class="st6" d="M419.6,338.6c-8.7-16.6-25.1-28.3-43.7-30.9c-0.3,0-0.6,0.1-0.7,0.3
						c-0.4-0.1-0.8,0-1,0.4c-4.3,11.8,1.9,23.9,12.1,30.3c5.6,3.5,12.2,5.2,18.7,5.7c4.9,0.4,12.5,1.1,14.2-4.8
						C419.6,339.5,419.8,339.1,419.6,338.6z"/>
					<path id="XMLID_1570_" class="st5" d="M420.3,352.5c-4.8-1.1-37.7-6.5-41.7-9.4c-8.6-6.2-6.5-42.1-3.2-34l0,0
						c18,2.5,35.1,14.5,43.7,30.6C419.2,339.7,425.1,353.5,420.3,352.5z"/>
				</g>
				<g id="XMLID_1560_">
					<path id="XMLID_1564_" class="st6" d="M456,323.1c-17.4-6.9-37.6-5-53.3,5.2c-0.3,0.2-0.4,0.5-0.4,0.7c-0.4,0.1-0.6,0.5-0.5,1
						c4.5,11.7,17.1,16.8,29,15c6.5-1,12.6-4,17.9-7.9c3.9-2.9,10.1-7.4,7.6-12.9C456.5,323.8,456.5,323.3,456,323.1z"/>
					<path id="XMLID_1563_" class="st5" d="M465.6,333.1c-4.3,2.4-32.8,19.7-37.7,20.1c-10.5,0.9-32.5-27.6-24.6-23.6l0,0
						c15.3-9.9,36.1-12,53.1-5.4C456.4,324.2,469.9,330.8,465.6,333.1z"/>
				</g>
			</g>
		</g>
		<g id="XMLID_31_">
			<g id="XMLID_20_">
				<g id="XMLID_17_">
					<path id="XMLID_35_" class="st6" d="M474.6,137.7c-5.3-2.2-11.9-0.5-15.3,4.2c-4.2,5.7-2.5,13.2,0.3,19.2
						c0.3,1.2,0.3,2.4,0,3.5c-0.9-0.1-1.8,0.3-2.2,1.2c-0.2,0.5-0.2,1,0,1.4c-0.4,0.2-0.7,0.5-0.9,0.9c-0.2,0.5-0.2,1,0,1.4
						c-0.3,0.3-0.6,0.8-0.6,1.3c0,0.6,0.2,1.1,0.6,1.5c0,0.2,0.1,0.3,0.3,0.4c0.2,0.1,0.4,0.3,0.6,0.4c-0.7,3.3,2.4,6.3,5.7,5
						c1-0.4,2.6-1.6,2.3-2.9c0.1,0,0.3,0,0.4,0c1.5,0.2,2.8-0.9,2.7-2.4c0.8-0.5,1.1-1.7,0.5-2.5c0.8-0.9,1-2.2,0.2-3.2
						c0,0,0,0-0.1-0.1c0.6-1,1.4-1.8,2.4-2.5c5.6-1.6,10.3-6.2,11.2-12.1C483.6,146.4,480.2,140,474.6,137.7z"/>
					<path id="XMLID_38_" class="st7" d="M467.8,169.4c-0.3,0.2-0.4,0.5-0.3,0.8c0,0.2,0,0.5,0.2,0.6c0.4,0.3,0.3,0.7-0.2,0.8
						c-0.4,0.1-0.6,0.6-0.5,0.9c0,0.1,0.1,0.1,0.1,0.2c0.1,0.5-0.2,1-0.7,1c-0.1,0-0.2-0.1-0.4-0.1c-2.8,0.4-5.5-0.3-7.8-1.8
						c-0.1-0.2-0.2-0.4-0.4-0.5c-0.5-0.2-0.4-0.7-0.1-0.9c0.3,0,0.6-0.2,0.8-0.4v-0.1c0-0.1,0-0.1,0-0.2c0,0,0,0,0-0.1s0-0.1,0-0.2
						c-0.1-0.3-0.3-0.5-0.6-0.6c-0.2-0.3,0.1-0.6,0.6-0.5c0.3,0.1,0.7-0.1,0.8-0.4l0.1-0.1c0.2-0.3,0.1-0.8-0.3-1
						c-0.6-0.3-0.4-1,0.2-1c0,0.1,0.1,0.2,0.2,0.2c2.4,2.4,5.7,3,8.8,1.9C468.4,168.5,468.3,169.1,467.8,169.4z"/>
					<path id="XMLID_40_" class="st5" d="M481.3,152.2c-0.4,2.6-1.6,5-3.5,6.9c-0.9,0.9-2,1.7-3.1,2.4c-2.2,1.3-4.4,1.4-5.9,3.6
						c-0.3,0.4-0.6,1.4-1.1,1.5c-2.4,0.9-4.9,0.5-6.8-1.2c-0.4-0.3,0.3-1.9,0.4-2.3c0.3-3-1.7-5.7-2.4-8.5c-0.9-3.7-1-7.8,1.1-11.2
						c2.8-4.7,9.2-6.5,14.1-4.4C479.1,141.2,482.1,146.9,481.3,152.2z"/>
				</g>
				<path id="XMLID_34_" class="st6" d="M471.2,154.6c-0.5-0.8-1.6-1.2-2.6-1c-1,0.1-1.7,0.7-2.4,1.4c-0.6-1.3-1.8-2.4-3.2-1.3
					c-1.9,1.4-0.2,4.2,0.4,5.8c0,0.1,0.1,0.1,0.1,0.2c-0.4,2.4-0.8,4.8-1.2,7.1c-0.2,0.9,1.3,1.3,1.4,0.4l1.3-7.7
					c0.1-0.3-0.1-0.6-0.3-0.8c-0.3-0.8-0.7-1.7-0.9-2.5c-0.1-0.5-0.3-2.1,0.8-1.3c0.4,0.3,0.5,1,0.6,1.5c0.1,0.4,0.4,0.6,0.7,0.5
					c0.2,0.1,0.5,0.1,0.7-0.2c0.6-0.7,1.9-2.4,3.1-1.6c0.6,0.5,0.2,1.2-0.3,1.6c-0.6,0.4-1.4,0.4-2.1,0.5c-0.5,0-0.7,0.4-0.7,0.8
					c-0.6,3-1.3,5.9-1.9,8.9c-0.2,0.9,1.2,1.3,1.4,0.4c0.6-2.9,1.2-5.8,1.8-8.7c1-0.1,2-0.3,2.7-1
					C471.5,156.8,471.9,155.5,471.2,154.6z"/>
			</g>
			<path id="XMLID_36_" class="st6" d="M451.3,137.5c-1.4-1.7-2.8-3.4-4.2-5.1c-0.6-0.7-1.6,0.3-1,1c1.4,1.7,2.8,3.4,4.2,5.1
				C450.9,139.3,451.9,138.3,451.3,137.5z"/>
			<path id="XMLID_37_" class="st6" d="M469.6,122.6c-0.1,2.2-0.3,4.4-0.4,6.6c-0.1,0.9,1.4,0.9,1.5,0c0.1-2.2,0.3-4.4,0.4-6.6
				C471.2,121.7,469.7,121.7,469.6,122.6z"/>
			<path id="XMLID_39_" class="st6" d="M495.8,134.3c-2.1,1.8-4.1,3.5-6.2,5.3c-0.7,0.6,0.3,1.6,1,1c2.1-1.8,4.1-3.5,6.2-5.3
				C497.5,134.7,496.5,133.7,495.8,134.3z"/>
		</g>
	</g>
</g>
</svg>
