<?xml version="1.0" encoding="utf-8"?>
<!-- Generator: Adobe Illustrator 22.0.0, SVG Export Plug-In . SVG Version: 6.00 Build 0)  -->
<svg version="1.1" id="Layer_1" xmlns="http://www.w3.org/2000/svg" xmlns:xlink="http://www.w3.org/1999/xlink" x="0px" y="0px"
	 viewBox="0 0 1367.5 707.4" style="enable-background:new 0 0 1367.5 707.4;" xml:space="preserve">
<style type="text/css">
	.st0{fill:#DBDBDB;}
	.st1{fill:#E8E8E8;}
	.st2{fill:#F2F2F2;}
	.st3{fill:#FFFFFF;}
</style>
<title>genesis landing page</title>
<rect x="0.5" class="st0" width="1367" height="705.2"/>
<path class="st1" d="M1367.5,705.2V407c-44.6-10.4-71.1,32.1-201.8,53c-99.9,16-117-3.6-255.2,15.8c-70.2,9.9-122,22.9-160.2,34.4
	c-44.3,13.4-68.9,24.4-86.5,31c-121.8,45.6-244.4,5.3-367.4,17.2c-75.7,7.3-181.6,37.4-295.8,146c-0.2,0.2-0.3,0.4-0.5,0.7H1367.5z"
	/>
<path class="st2" d="M1367.5,705.2V407c-44.6-10.4-53,58.3-183.7,79.2c-99.9,16-117-3.6-255.2,15.8c-70.2,9.9-122,22.9-160.2,34.4
	c-44.3,13.4-68.9,24.4-86.5,31c-121.8,45.6-244.4,5.3-367.4,17.2c-75.7,7.3-199.8,11.2-314,119.8c-0.1,0.2-0.2,0.4-0.3,0.7H1367.5z"
	/>
<g>
	<path class="st3" d="M1367.5,705.2V407c-44.6-10.4-61.5,75.5-192.2,96.4c-99.9,16-117-3.6-255.2,15.8
		c-70.2,9.9-122,22.9-160.2,34.4c-44.3,13.4-68.9,24.4-86.5,31C551.5,630.3,428.9,590,306,601.9c-75.7,7.3-191.2-6-305.4,102.6
		c-0.1,0.2-0.2,0.4-0.3,0.7H1367.5z"/>
</g>
</svg>
