<?xml version="1.0" encoding="utf-8"?>
<!-- Generator: Adobe Illustrator 22.0.0, SVG Export Plug-In . SVG Version: 6.00 Build 0)  -->
<svg version="1.1" id="Layer_1" xmlns="http://www.w3.org/2000/svg" xmlns:xlink="http://www.w3.org/1999/xlink" x="0px" y="0px"
	 viewBox="0 0 1367.5 707.4" style="enable-background:new 0 0 1367.5 707.4;" xml:space="preserve">
<style type="text/css">
	.st0{fill:url(#SVGID_1_);}
	.st1{fill:url(#SVGID_2_);}
	.st2{fill:url(#SVGID_3_);}
	.st3{fill:#FFFFFF;}
	.st4{fill:none;stroke:#FFFFFF;stroke-width:2;stroke-linecap:round;stroke-linejoin:round;stroke-dasharray:5.0145,5.0145;}
	.st5{fill:#4A4040;}
	.st6{fill:#2B2222;}
	.st7{fill:#161616;}
	.st8{fill:#3461A8;}
	.st9{fill:#0396C8;}
	.st10{fill:#282828;}
	.st11{fill:none;stroke:#847272;stroke-width:4;stroke-miterlimit:10;}
	.st12{fill:#1A2B34;}
	.st13{fill:#2A4A5B;}
	.st14{fill:#E8E8E8;}
	.st15{fill:#77868F;}
	.st16{fill:#2C5E73;}
	.st17{font-family:'ArialMT';}
	.st18{font-size:24.9052px;}
	.st19{fill:none;stroke:#2C5E73;stroke-width:1.5;stroke-linecap:round;stroke-linejoin:round;stroke-miterlimit:10;}
	.st20{fill:none;stroke:#2C5E73;stroke-width:0.7;stroke-linecap:round;stroke-linejoin:round;stroke-miterlimit:10;}
	.st21{fill:#DBDBDB;}
	.st22{font-family:'MyriadPro-Regular';}
	.st23{font-size:91px;}
</style>
<linearGradient id="SVGID_1_" gradientUnits="userSpaceOnUse" x1="1541.7905" y1="291.9919" x2="361.7905" y2="437.992" gradientTransform="matrix(1 0 0 -1 0 707.8898)">
	<stop  offset="0" style="stop-color:#122ACC"/>
	<stop  offset="1" style="stop-color:#0B88EE"/>
</linearGradient>
<path class="st0" d="M2,1v617.9c0,0,0.1,0,0.1-0.1l0,0c114.2-95.2,220.1-121.6,295.8-128.1c123-10.4,245.6,24.9,367.4-15.1
	c17.6-5.8,42.2-15.4,86.5-27.2c38.2-10.1,90-21.5,160.2-30.2c138.2-17,155.3,0.2,255.2-13.9c130.7-18.3,157.2-55.6,201.8-46.5V1H2z"
	/>
<linearGradient id="SVGID_2_" gradientUnits="userSpaceOnUse" x1="1372.9292" y1="56.162" x2="0.9292" y2="382.162" gradientTransform="matrix(1 0 0 -1 0 707.8898)">
	<stop  offset="0.2974" style="stop-color:#045DE9"/>
	<stop  offset="0.9128" style="stop-color:#09C6F9"/>
</linearGradient>
<path class="st1" d="M1167.2,404.4c-99.9,14-117-3.2-255.2,13.9c-70.2,8.7-122,20.1-160.2,30.2c-44.3,11.8-68.9,21.4-86.5,27.2
	c-121.8,40-244.4,4.6-367.4,15.1c-75.7,6.4-181.6,32.8-295.8,128.1l0,0c114.2-95.2,238.2-98.6,313.9-105.1
	c123-10.4,245.6,24.9,367.4-15.1c17.6-5.8,42.2-15.4,86.5-27.2c38.2-10.1,90-21.5,160.2-30.2c138.2-17,155.3,0.2,255.2-13.9
	c130.7-18.3,139.1-78.6,183.7-69.5C1324.4,348.8,1297.9,386.1,1167.2,404.4z"/>
<linearGradient id="SVGID_3_" gradientUnits="userSpaceOnUse" x1="1318.3873" y1="55.684" x2="120.3873" y2="365.6839" gradientTransform="matrix(1 0 0 -1 0 707.8898)">
	<stop  offset="0.5436" style="stop-color:#045DE9"/>
	<stop  offset="0.7385" style="stop-color:#09C6F9"/>
</linearGradient>
<path class="st2" d="M1185.3,427.4c-99.9,14-117-3.2-255.2,13.9c-70.2,8.7-122,20.1-160.2,30.2c-44.3,11.8-68.9,21.4-86.5,27.2
	c-121.8,40-244.4,4.6-367.4,15.1c-75.7,6.5-199.7,9.9-313.9,105.1l0,0c114.2-95.2,229.6-83.5,305.3-89.9
	c123-10.4,245.6,24.9,367.5-15.2c17.6-5.8,42.2-15.4,86.5-27.2c38.2-10.1,90-21.5,160.2-30.2c138.2-17,155.3,0.2,255.2-13.9
	c130.7-18.3,147.6-93.7,192.2-84.5C1324.4,348.8,1316,409.1,1185.3,427.4z"/>
<rect x="2" y="706.1" class="st3" width="1367" height="0.1"/>
<title>genesis landing page</title>
<g>
	<g>
		<ellipse class="st4" cx="428.6" cy="222" rx="156.4" ry="156.4"/>
	</g>
	<g>
		<path class="st5" d="M532,424c0,5.5-4.3,10.1-9.5,10.1h-108c-5.3,0-9.5-4.5-9.5-10.1v-82.3c0-5.5,4.3-10.1,9.5-10.1h108.1
			c5.3,0,9.5,4.5,9.5,10.1L532,424L532,424z"/>
		<path class="st6" d="M524.5,419.5c0,5-4.1,9.1-9.1,9.1h-103c-5,0-9.1-4.1-9.1-9.1v-74.3c0-5,4.1-9.1,9.1-9.1h103
			c5,0,9.1,4.1,9.1,9.1V419.5z"/>
	</g>
	<path class="st5" d="M374.4,236.7c-8.7,0-15.7-7-15.7-15.7s7-15.7,15.7-15.7V236.7z"/>
	<path d="M369.5,236c0.4,4.2,4.1,7.2,8.3,6.8l0,0c4.2-0.4,7.2-4.1,6.8-8.3l-2.8-28.5c-0.4-4.2-4.1-7.2-8.3-6.8l0,0
		c-4.2,0.4-7.2,4.1-6.8,8.3L369.5,236z"/>
	<path class="st7" d="M464.8,168.6c7.5,3.8,14.5,4.4,15.4,13.8c0.9,8.8,0.3,17.9-0.6,26.4c-0.9,11.3,9.4,56-12.3,55.1
		c0.3,5-12.3,13.5-13.2,7.5c-6,1.6-9.1,4.1-14.5,0.9c-5.7-3.5-6-1.9-12.9-2.2c-17.3-0.6-27.7-15.4-34-29.6
		c-9.1-21.1-35.2-62.6-8.5-81.2c5.7-3.8,13.8-6.6,20.5-7.5c13.2-1.3,24.2,6,37.1,7.2L464.8,168.6z"/>
	<path class="st8" d="M451.9,315.5c4.4-3.8,10.7-10.7,11.3-17.9c0.6-11.3-11-12.6-19.8-12.3c-8.8,0.3-17.9,2.5-26.4,4.7
		c-6.3,1.3-17.3,0.9-20.1,7.9c-6.3,14.5,16.7,17.9,25.2,18.9L451.9,315.5z"/>
	<g>
		<path class="st3" d="M420.8,316.1c8.7,1.1,26.2-1.9,30.9-11.5c1.3,0.6,2.7,1.2,4,2l-5.3,7.2c-5,14.8-6,79.9-29.6,78
			c-17.9-1.6-19.5-56.6-19.5-71.7c0-5.7-0.3-9.1,5-11.3c0.7-0.3,1.5-0.5,2.3-0.7C410.3,312.7,413.1,315,420.8,316.1z"/>
		<path class="st3" d="M382.4,215.5c-0.9-10.1-2.2-18.9-0.9-28.9c1.3-10.1,1.3-22,8.8-29.6c6.9-6.6,16-7.9,24.9-7.5
			c13.5,0.3,31.1,1.9,41.5,11.6c6.3,5.7,11.3,14.5,15.1,22c1.6,3.8,2.8,7.9,4.1,12c1.9,7.2,0,9.8-2.2,16.4c8.2-5.3,18.2-12,22,2.8
			c1.3,5.3,0.3,12.9-4.7,16c-3.8,2.8-9.8,1.6-12.9,4.4c-2.8,2.5-3.8,9.8-5.7,13.2c-2.2,4.1-5,7.9-7.6,12
			c-5.3,7.5-9.4,13.2-17.9,17.3c-4.7,2.2-6.3,1.9-6.9,6.3c-0.3,3.5,0.9,8.2,1.6,11.6c1.7,6.6,5.7,7.7,10.1,9.6
			c-4.7,9.6-22.2,12.5-30.9,11.5c-7.7-1.1-10.5-3.5-12.2-7.9c3.6-0.8,7.4-1,9.7-4.4c2.2-3.8,2.5-15.1-1.3-17.9
			c-2.2-1.6-9.8-3.1-12.6-4.1c-5-1.3-10.4-3.1-14.5-6.6c-7.5-6.6-10.1-15.7-9.7-25.5C380.8,238.4,383.4,227.1,382.4,215.5z"/>
	</g>
	<path d="M439,207.7c0.9-2.7,0.8-6.8-1.2-7.6c-3.8-1.4-4.1,6.9-2.9,8.8C436.6,211.6,438.2,210.1,439,207.7z"/>
	<path d="M407.3,207c0.5-2.8-0.1-6.8-2.2-7.4c-4-0.9-3.2,7.4-1.7,9.1C405.5,211.2,406.9,209.6,407.3,207z"/>
	<path class="st8" d="M362.8,514.5c-1.5-5.8,6.5-108.3,6.5-111.2c-3.3-0.7-17.2-1.7-19.4-4.2c0,0,1.6-8.4,2.7-13.1
		c1.8-13.1,4.6-28.7,7.5-41.5c4.4-21.5,16.9-30.2,37.3-37.2c3.3-1.1,6.6-2.5,9.8-3.3c4.4,9.8,5.4,20.4,7.9,30.6
		c2.5,9.1,3.5,16.4,7,28.7c0.4-1.1,6.3-16.8,6.3-18.3l19.1-45.8c13.1,0,40.4,6.5,45.5,20.6c9,25.4-0.7,90,3.3,137
		c1.8,21.1,4.4,43,3.6,64.1"/>
	<path class="st9" d="M438.6,321c2.3,1.4,19.5,3.9,19.5,3.9s7.7-23.4,6.5-28.4c-2.3-9.7-10.3-10.3-13.4-10.9
		C451.1,285.6,443.3,311.5,438.6,321z"/>
	<path class="st9" d="M413,324.9c-4.8,0.8-10.9,2.2-16.3,3.6c-1-11.7-1-12.1-1.4-20.4c-0.2-3.4-0.5-9,1.7-11.8
		c3.4-4,9.3-4.5,9.3-4.5L413,324.9z"/>
	<path class="st3" d="M500.2,343.1c9.1,17.8,16.4,36.9,25.5,54.7c6.4,13.2,14.6,25.1,21,38.3c5.5,10.9,5.9,19.6-8.2,22.8
		c-25.5,5.9-31.9-25.1-40.1-42.4c-8.7-17.3-16-36-24.2-52.9L500.2,343.1z"/>
	<g>
		<path class="st5" d="M427.2,257.5c5.6-1.5,12.6-5,16.6-9.9c0.1,0,0.2-0.1,0.3-0.1c-2.8,6.3-5.9,17-15.6,19.1
			c-4.8,1.1-8.6,0.1-11.6-1.8c1-2.1,2-4.1,3.2-6.1C422.5,258.7,425,258.1,427.2,257.5z"/>
		<path class="st10" d="M408.8,255.9c1.2,0.7,2.6,1.2,4.3,1.6c1.7,0.4,3.4,0.9,5.1,1.1c0.6,0.1,1.3,0.1,1.9,0.1
			c-1.2,2-2.2,4-3.2,6.1C413.4,262.6,410.9,259.1,408.8,255.9z"/>
		<path class="st3" d="M443.8,247.7c-3.9,4.9-11,8.4-16.6,9.9c-2.8,0.8-6,1.5-9,1.1c-1.7-0.2-3.4-0.8-5.1-1.1
			c-1.7-0.4-3.1-1-4.3-1.6c-0.9-1.3-1.7-2.5-2.4-3.6C411.5,253.6,430.5,253.9,443.8,247.7z"/>
		<path class="st5" d="M448.3,245.6c0,0-0.7,0.2-1.9,0.6c-0.6,0.2-1.3,0.5-2.1,0.7c-0.8,0.3-1.8,0.5-2.8,0.9c-1,0.3-2.1,0.7-3.3,1.1
			c-1.2,0.3-2.4,0.5-3.7,0.8c-1.3,0.4-2.6,0.5-4,0.8c-1.4,0.2-2.8,0.5-4.2,0.6c-1.4,0.2-2.8,0.3-4.2,0.5c-1.4,0.1-2.8,0.2-4.1,0.3
			c-1.3,0.1-2.6,0.1-3.8,0.2c-1.2,0.1-2.4,0.1-3.4,0c-1.1,0-2,0-2.9-0.1s-1.6-0.1-2.3-0.2c-1.3-0.1-2-0.1-2-0.1s0.7,0.2,1.9,0.6
			c0.6,0.2,1.4,0.4,2.2,0.6c0.9,0.3,1.9,0.4,2.9,0.6c1.1,0.2,2.3,0.3,3.5,0.4c1.3,0.1,2.6,0.2,3.9,0.1c1.4,0,2.8,0,4.2-0.1
			c1.4-0.1,2.9-0.3,4.3-0.4c1.5-0.1,2.9-0.5,4.3-0.7s2.8-0.6,4.1-1c1.3-0.4,2.6-0.8,3.8-1.2c1.1-0.5,2.2-1,3.2-1.4
			c1-0.5,1.9-0.9,2.7-1.3c0.8-0.4,1.4-0.8,2-1.1C447.7,246,448.3,245.6,448.3,245.6z"/>
	</g>
	<g>
		<path class="st7" d="M482.1,160.4c-3.8-6.2-10.6-13.7-18.4-14.8c-4.4-0.7-11.7-0.6-11.7-0.6s-6.2-6.5-10.3-8.9
			c-14.7-8.6-46.2-14.4-62.3-6.5c-9.5,4.8-7.2,20.7,0.2,26.2c1,0.9,2.2,1.8,3.4,2.4c12,6.3,25.2,6.9,38.4,6.3
			c7.9-0.6,23.9,0.3,28.3-8.5c-2.2,5.3,0.3,14.5,0.9,20.1c1.6,9.4,7.5,16.7,17.6,16c-0.6,0.9-1.3,2.5-1.6,3.8
			c-0.6,4.4-4.4,32.1,7.9,25.2c5-3.1,6.3-14.8,8.2-19.8C489.3,189.3,490,173,482.1,160.4z"/>
	</g>
	<g>
		<path class="st5" d="M416.9,205.7c0.2,2.7,0.2,5.4-0.1,8.1c-0.2,2.7-0.6,5.4-1.1,8s-1,5.3-1.6,7.9l-1.7,7.8l-0.7-1
			c1.9,0.3,3.9,0.2,5.9,0.1c2-0.1,4.1-0.3,6.1,0c-2,0.3-4,0.7-6,1.1c-2,0.4-4,0.7-6.2,0.5l-0.8-0.1l0.1-0.9c0.4-2.7,0.9-5.3,1.4-7.9
			c0.5-2.6,1.1-5.2,1.7-7.8C415.1,216.2,416.2,211.1,416.9,205.7z"/>
	</g>
	<g>
		<path class="st8" d="M530.7,386.5c0,0-8.1-21.9-11.1-29.4c-3.5-8.1-7.9-16.4-12.2-24c-5.1-8.5-11.8-16.1-19.5-20.7
			c0,0-9.2,1.5-12.8,5.1c-10.3,10-11.3,28.5-10,42.3c1,13,5.3,25.3,9.5,37.5c1.8,5.5,1,9.5,8,8.8c0.9-0.1,1.8-0.3,2.7-0.5
			C508.2,404.6,531.7,393,530.7,386.5z"/>
	</g>
	<g>
		<g>
			<g>
				<g>
					<path d="M374.8,216.6c-1-9.1-1.5-18.2-1.3-27.4c0.2-4.6,0.6-9.3,1.4-13.9c0.9-4.6,2.3-9.3,4.4-13.7c2.2-4.4,5.2-8.6,9-11.9
						c3.8-3.4,8.2-5.9,12.8-7.7c9.2-3.6,18.9-4.6,28.2-4.7c4.7,0,9.4,0.3,14.2,0.9c4.7,0.7,9.5,1.8,14.1,3.7c4.6,1.8,9,4.4,12.8,7.8
						c3.8,3.4,6.8,7.5,8.9,11.9c2.2,4.4,3.6,9.1,4.5,13.7c0.9,4.6,1.3,9.3,1.5,13.9c0.3,9.2-0.2,18.3-1.2,27.4
						c-1-9.1-1.7-18.1-3.2-27c-1.5-8.8-3.6-17.5-7.8-24.7c-2.1-3.6-4.8-6.7-7.9-9.3c-3.1-2.5-6.7-4.5-10.6-5.8
						c-3.9-1.4-8-2.3-12.3-2.8c-4.2-0.6-8.6-0.8-12.9-0.7c-4.4,0-8.7,0.2-13,0.8c-4.2,0.5-8.4,1.5-12.3,2.8
						c-3.9,1.4-7.5,3.3-10.7,5.8c-3.1,2.5-5.8,5.6-7.9,9.2c-4.2,7.2-6.3,15.9-7.7,24.7C376.4,198.5,375.8,207.6,374.8,216.6z"/>
				</g>
				<path class="st11" d="M482,228.6c0,0-2.3,47.1-42.6,47.1"/>
				<path d="M448.2,275.7c0,3.4-2.7,6.1-6.1,6.1h-10.3c-3.4,0-6.1-2.7-6.1-6.1l0,0c0-3.4,2.7-6.1,6.1-6.1h10.3
					C445.4,269.7,448.2,272.4,448.2,275.7L448.2,275.7z"/>
				<path class="st5" d="M484.1,236.7c8.7,0,15.7-7,15.7-15.7s-7-15.7-15.7-15.7V236.7z"/>
				<path d="M489,236c-0.4,4.2-4.1,7.2-8.3,6.8l0,0c-4.2-0.4-7.2-4.1-6.8-8.3l2.8-28.5c0.4-4.2,4.1-7.2,8.3-6.8l0,0
					c4.2,0.4,7.2,4.1,6.8,8.3L489,236z"/>
			</g>
		</g>
	</g>
	<path class="st5" d="M401.7,179.5c-1.4-0.6-1.3-2.7-0.6-4.1c0.5-1,1.5-2.3,2.5-2.8c1.4-0.8,4.2-1.7,5.5-0.6c2,1.7,0.5,3.9-0.9,5.2
		c-1.3,1.1-3.5,2.3-5.2,2.5C402.4,179.7,402,179.6,401.7,179.5z"/>
	<path class="st5" d="M441.8,179.5c1.4-0.6,1.3-2.7,0.6-4.1c-0.5-1-1.5-2.3-2.5-2.8c-1.4-0.8-4.2-1.7-5.5-0.6
		c-2,1.7-0.5,3.9,0.9,5.2c1.3,1.1,3.5,2.3,5.2,2.5C441,179.7,441.5,179.6,441.8,179.5z"/>
	<g>
		<g>
			<polygon class="st12" points="337,478.2 389,455.6 530.9,451.8 530.9,455.6 492.5,478.2 			"/>
			<polygon class="st13" points="337,474.4 389,451.8 530.9,451.8 492.5,474.4 			"/>
			<polygon class="st12" points="347.2,474.9 392.7,455.1 516.9,455.1 483.3,474.9 			"/>
		</g>
		<g>
			<path class="st3" d="M516.8,427.7c-2.3,0.8-4.4,1.5-6.1,1.9c-10.5,3.6-24.7,11.6-24.6,18c0.1,19.2,41,15.6,53.8,11.1
				c0,0,19.1-2.8,5.8-24.6"/>
			<path class="st3" d="M516.8,427.7c-2,0.7-4,1.5-6.1,2.1l0,0c-3.6,1.4-7.1,3.1-10.4,4.9c-3.3,1.9-6.6,4-9.4,6.5
				c-1.4,1.3-2.7,2.7-3.4,4.2c-0.4,0.8-0.6,1.5-0.5,2.4c0,0.9,0.2,1.8,0.4,2.6c1,3.5,3.9,6,7.3,7.5s7.1,2.3,10.9,2.8
				s7.6,0.6,11.4,0.5c3.8-0.1,7.7-0.4,11.5-0.9s7.6-1.2,11.2-2.4h0.1h0.1c2.4-0.4,4.8-1.4,6.7-3s3.2-3.9,3.4-6.4
				c0.3-2.5-0.2-5.1-1-7.5s-2-4.8-3.2-7c1.4,2.2,2.7,4.5,3.6,6.9c0.9,2.4,1.6,5.1,1.4,7.7c-0.1,1.3-0.4,2.7-1,3.9
				c-0.6,1.2-1.5,2.3-2.5,3.2c-2.1,1.8-4.5,2.9-7.2,3.5h0.1c-3.7,1.3-7.6,2.1-11.4,2.8c-3.9,0.6-7.7,1-11.6,1.1
				c-3.9,0.1-7.8,0-11.7-0.4c-3.9-0.5-7.8-1.3-11.5-3c-1.8-0.9-3.6-1.9-5.1-3.4c-1.5-1.4-2.6-3.3-3.2-5.3c-0.3-1-0.4-2.1-0.4-3.1
				c-0.1-1.1,0.3-2.3,0.8-3.2c1-1.9,2.5-3.3,3.9-4.6c3-2.6,6.4-4.5,9.9-6.3c3.5-1.7,7.1-3.2,10.8-4.4l0,0l0,0
				C512.7,428.8,514.7,428.2,516.8,427.7z"/>
		</g>
		<g>
			<path class="st3" d="M507.9,446.2c-7.8-10.9-23.3-23.3-35.6-10c-8.2,9.1-5.9,22.3,5,27.4c8.2,3.2,19.1,1.8,27.4-0.9
				c1.4-0.5,2.7-0.9,4.1-1.4"/>
			<path class="st14" d="M507.9,446.2c-2.8-3.5-5.9-6.8-9.5-9.4c-3.5-2.7-7.6-4.8-11.8-5.4c-2.1-0.3-4.3-0.1-6.3,0.5
				s-3.9,1.8-5.5,3.2c-3.3,2.8-5.6,6.7-6.2,10.9c-0.7,4.2,0.4,8.6,3,11.9c1.3,1.7,2.9,3.1,4.8,4.1c0.4,0.3,1,0.5,1.4,0.7
				c0.5,0.2,1,0.4,1.5,0.5c1,0.3,2.1,0.6,3.2,0.8c4.3,0.8,8.8,0.7,13.2,0.2c2.2-0.3,4.4-0.7,6.6-1.2c1.1-0.3,2.2-0.6,3.2-0.9
				l3.2-0.9c-2.1,0.8-4.2,1.6-6.3,2.3c-2.2,0.7-4.3,1.2-6.6,1.7c-4.5,0.8-9.1,1.1-13.6,0.4c-1.1-0.2-2.3-0.4-3.4-0.7
				c-0.6-0.2-1.1-0.4-1.7-0.5c-0.7-0.3-1.1-0.5-1.6-0.8c-2.1-1.1-3.9-2.6-5.4-4.5c-3-3.7-4.3-8.7-3.5-13.4c0.8-4.7,3.4-9,7-12
				c1.8-1.5,3.9-2.7,6.2-3.4c2.3-0.7,4.7-0.8,7-0.4c4.7,0.8,8.7,3.3,12.2,6.2C502.5,438.9,505.5,442.4,507.9,446.2z"/>
		</g>
		<polygon class="st12" points="492.5,478.2 481.2,374.7 321.9,374.7 337,478.2 		"/>
		<polygon class="st13" points="487.6,478.2 476.6,374.7 321.9,374.7 336.6,478.2 		"/>
		<path class="st15" d="M394.9,428.7c0-5.6,4.5-10.1,10.1-10.1s10.1,4.5,10.1,10.1s-4.5,10.1-10.1,10.1
			C399.4,438.7,394.9,434.2,394.9,428.7z"/>
	</g>
	<path class="st3" d="M530.2,136c0-23.3,18.9-42.2,42.2-42.2s42.2,18.9,42.2,42.2s-18.9,42.2-42.2,42.2
		C549.1,178.2,530.2,159.3,530.2,136z"/>
	<path class="st3" d="M457.8,72.5c0-13.9,11.3-25.3,25.2-25.3c13.9,0,25.3,11.3,25.3,25.3S497,97.8,483,97.8
		C469.1,97.8,457.8,86.5,457.8,72.5z"/>
	<path class="st3" d="M572.3,230.3c0-13.9,11.3-25.3,25.3-25.3c13.9,0,25.3,11.3,25.3,25.3c0,13.9-11.3,25.3-25.3,25.3
		S572.3,244.3,572.3,230.3z"/>
	<ellipse class="st3" cx="364.5" cy="76.9" rx="16.9" ry="16.9"/>
	<path class="st3" d="M547.5,297.7c0-9.3,7.6-16.9,16.9-16.9c9.3,0,16.9,7.6,16.9,16.9s-7.6,16.9-16.9,16.9S547.5,307,547.5,297.7z"
		/>
	<path class="st3" d="M250.4,254.3c0-16,13-28.9,28.9-28.9c16,0,28.9,13,28.9,28.9c0,16-13,28.9-28.9,28.9
		C263.4,283.3,250.4,270.3,250.4,254.3z"/>
	<ellipse class="st3" cx="279.4" cy="126.5" rx="61.1" ry="61.1"/>
	<g>
		<path class="st16" d="M365.9,65.8c0.8-0.3,1.8,0,2.3,0.7c1.2,1.6,0.6,4.3-1.3,5.1c-0.8,0.4-1.9,0.1-2.4-0.6
			C363.2,69.4,364,66.5,365.9,65.8z"/>
		<path class="st16" d="M363.8,72.5c0.8-0.1,1.6-0.2,2.4,0c0.5,0.1,0.8,0.6,0.9,1.1c0.2,0.7,0.1,1.5-0.1,2.2c-0.6,2.6-1.5,5.1-2,7.7
			c-0.1,0.5-0.2,1.1-0.1,1.6c0.1,0.3,0.5,0.1,0.6-0.1c0.9-0.8,1.6-1.8,2.5-2.6c0.2-0.1,0.4-0.3,0.6-0.2c0.1,0.4-0.1,0.9-0.2,1.3
			c-0.7,1.6-1.7,3-3.2,3.9c-1.2,0.7-2.6,0.8-3.9,0.6c-0.5-0.1-0.9-0.4-1.2-0.7c-0.4-0.4-0.3-1-0.3-1.5c0.1-0.9,0.2-1.8,0.5-2.7
			c0.7-2.5,1.8-4.8,2.3-7.3c0-0.3,0.2-0.8-0.2-1c-0.3,0-0.6,0.2-0.8,0.5c-0.6,0.7-1.3,1.4-2.1,2c-0.3,0.3-0.7,0.5-1.2,0.5
			c-0.1-0.3,0-0.7,0.2-1c0.9-1.1,1.8-2.2,2.9-3.1C362.2,73.1,363,72.6,363.8,72.5z"/>
	</g>
	<path class="st16" d="M247.6,163.1l7-6.2c1.9-1.7,2.3-4.4,0.9-6.1l-2.5-3.1c-1.4-1.7-4-1.6-5.9,0l-7,6.2l0,0
		c-1.3-4.4-0.5-9.3,2.6-12.8c4.2-4.8,11.1-5.6,16.7-2.3l31.3-29.9c-3.2-5.2-3-11.9,1-16.4c4-4.6,10.6-5.5,16-2.7c0,0-0.1,0-0.1,0.1
		l-7,6.2c-1.9,1.7-2.3,4.4-0.9,6.1l2.5,3.1c1.4,1.7,4,1.6,5.9,0l7-6.2l0,0c1.3,4.4,0.5,9.3-2.6,12.8c-3.9,4.5-10.3,5.5-15.6,2.9
		L265,144.9c2.7,5.1,2.3,11.3-1.5,15.6C259.5,165.1,252.9,166,247.6,163.1C247.5,163.1,247.6,163.1,247.6,163.1z"/>
	<polygon class="st3" points="310.8,173.4 333.3,190 322,158 	"/>
	<polygon class="st3" points="574.1,238.6 559.7,235.6 576.2,228.7 	"/>
	<polygon class="st3" points="291.4,262.9 318.8,257.7 287.7,244.1 	"/>
	<polygon class="st3" points="550.8,166.6 526.4,180.2 541.6,149.8 	"/>
	<polygon class="st3" points="364.3,91.6 369.8,102.4 371.7,87.8 	"/>
	<polygon class="st3" points="479.7,94.2 474.2,105.1 472.3,90.5 	"/>
	<g>
		<g>
			<g>
				<path class="st16" d="M575.5,145.3l3,4.9l-7.3,4l-3-4.9c-1.8,0.5-3.7,0.7-5.6,0.6l-1.3,5.4l-8.4-2.3l1.3-5.4
					c-1.1-0.6-2.2-1.3-3.2-2.1c-0.5-0.4-1-0.8-1.4-1.3l-4.9,2.7l-4.5-7.2l4.9-2.7c-0.6-1.8-0.9-3.6-0.9-5.5l-5.6-1.5l1.9-8l5.6,1.5
					c0.9-1.6,2-3.1,3.3-4.3l-3-4.9l7.3-4l3,4.9c1.8-0.5,3.7-0.7,5.6-0.6l1.3-5.4l8.4,2.3l-1.3,5.4c1.1,0.6,2.2,1.3,3.2,2.1
					c0.5,0.4,1,0.8,1.4,1.3l4.9-2.7l4.5,7.2l-4.9,2.7c0.6,1.7,0.9,3.6,0.9,5.4l5.6,1.5l-1.9,8l-5.6-1.5
					C578,142.6,576.9,144.1,575.5,145.3z M560,139.5c4.2,1.2,8.5-1.2,9.5-5.3c0.7-2.9-0.5-5.9-2.8-7.8c-0.9-0.7-1.9-1.3-3.1-1.6
					c-4.2-1.1-8.5,1.2-9.5,5.3c-0.7,2.9,0.5,5.9,2.8,7.8C557.8,138.6,558.8,139.2,560,139.5"/>
			</g>
		</g>
		<g>
			<g>
				<path class="st16" d="M594.6,161.6l0.6,2.8l-4.1,0.7l-0.6-2.8c-0.9-0.1-1.8-0.3-2.7-0.6l-1.5,2.3l-3.6-2.4l1.5-2.3
					c-0.4-0.5-0.8-1-1.2-1.5c-0.2-0.3-0.3-0.6-0.5-0.8l-2.7,0.5l-0.9-4.2l2.7-0.5c0-0.9,0.2-1.8,0.5-2.7l-2.4-1.6l2.2-3.4l2.4,1.6
					c0.7-0.6,1.4-1.1,2.3-1.5l-0.6-2.8l4.1-0.7l0.6,2.8c0.9,0.1,1.8,0.3,2.7,0.6l1.5-2.3l3.6,2.4l-1.5,2.3c0.4,0.5,0.8,1,1.2,1.5
					c0.2,0.3,0.3,0.6,0.5,0.8l2.7-0.5l0.9,4.2l-2.7,0.5c0,0.9-0.2,1.8-0.5,2.7l2.4,1.6l-2.2,3.4l-2.4-1.6
					C596.1,160.7,595.4,161.2,594.6,161.6z M588.2,156.3c1.8,1.2,4.2,0.8,5.3-0.9c0.8-1.3,0.8-2.9,0-4.1c-0.3-0.5-0.7-0.9-1.2-1.3
					c-1.8-1.2-4.2-0.8-5.3,0.9c-0.8,1.3-0.8,2.9,0,4.1C587.3,155.5,587.7,155.9,588.2,156.3"/>
			</g>
		</g>
	</g>
	<g>
		<path class="st16" d="M282.7,235.1c0.4-1,1.6-1.2,2.5-0.7c1.3,1,1.8,2.7,1.6,4.2c-0.3,2.5-1.8,4.6-3,6.8c0.5,0.6,0.9,1.3,1.7,1.4
			c3,0,6,0,9,0c1.5,0,2.9,1.4,2.7,2.9c-0.1,1.3-1.3,2.3-2.5,2.5c0.8,0.3,1.4,0.9,1.7,1.6c0.7,1.6-0.6,3.8-2.5,3.6
			c1.6,0.5,2.5,2.6,1.6,4.1c-0.5,0.9-1.4,1.3-2.3,1.4c1.1,0.6,1.9,2,1.4,3.3c-0.4,1.1-1.5,1.8-2.6,1.8c-5.7,0-11.4,0.1-17.1-0.1
			c-1.2-0.1-2.5-0.1-3.6-0.5c-0.1-6.1,0-12.2,0-18.4c0.6-0.3,1.3-0.4,1.9-0.8c0.9-1,1.1-2.4,1.8-3.4c1.1-1.3,2.7-2,3.9-3.3
			C280.5,239.8,281.7,237.5,282.7,235.1z"/>
		<g>
			<path class="st16" d="M262.5,247.7c1.9-0.1,3.7,0,5.6,0c0.8,0,1.5,0.7,1.4,1.5c0,6.3,0,12.5,0,18.8c0.1,0.8-0.6,1.5-1.4,1.5
				c-1.8,0-3.5,0-5.3,0c-0.8,0-1.4-0.7-1.4-1.5c0-6.2,0-12.4,0-18.6C261.4,248.6,261.8,247.8,262.5,247.7z M266.5,265.5
				c-1.5,0.4-0.9,2.8,0.6,2.4C268.7,267.5,268,265,266.5,265.5z"/>
		</g>
	</g>
	<g>
		<text transform="matrix(1 0 0 1 473.0063 81.2871)" class="st16 st17 st18">24</text>
		<g>
			<path class="st19" d="M470.3,58.2h3.8c-5.2,2.9-8.8,8.5-8.8,15c0,9.5,7.7,17.2,17.2,17.2s17.2-7.7,17.2-17.2c0-2-0.3-3.9-1-5.7"
				/>
			<line class="st19" x1="474.1" y1="58.2" x2="473.3" y2="61.5"/>
		</g>
	</g>
	<g>
		<path class="st16" d="M587,223.2c0,0,8.9-1.1,10.3-6.3c0,0,2.3,6.4,10.8,6.3c0,0,3.4,14-10.5,21.3
			C597.6,244.5,584.4,238.2,587,223.2z"/>
		<path class="st20" d="M585.5,221.5c0,0,10.2-1.3,11.8-7.4c0,0,2.6,7.5,12.4,7.4c0,0,3.9,16.4-12.1,25.1
			C597.6,246.6,582.4,239.2,585.5,221.5z"/>
		<g>
			<path class="st3" d="M592.8,229.7c0.9,0.5,1.7,1.2,2.5,1.9c0.7,0.7,1.4,1.5,1.9,2.6l-1.3-0.1c0.4-0.7,0.8-1.4,1.2-2.1
				c0.4-0.7,0.9-1.4,1.4-2c1.1-1.3,2.3-2.5,3.9-3.1c-1.1,1.3-2,2.5-2.8,3.9l-1.2,2c-0.4,0.7-0.8,1.4-1.3,2.1l0,0
				c-0.2,0.3-0.6,0.4-1,0.2c-0.1-0.1-0.2-0.2-0.3-0.4c-0.3-0.8-0.8-1.7-1.4-2.5L592.8,229.7z"/>
		</g>
	</g>
	<g>
		<line class="st20" x1="559.7" y1="290.9" x2="569.2" y2="290.9"/>
		<line class="st20" x1="559.7" y1="292.9" x2="569.2" y2="292.9"/>
		<line class="st20" x1="559.7" y1="295" x2="569.2" y2="295"/>
		<line class="st20" x1="559.7" y1="297" x2="569.2" y2="297"/>
		<line class="st20" x1="559.7" y1="299" x2="569.2" y2="299"/>
		<line class="st20" x1="559.7" y1="301.1" x2="569.2" y2="301.1"/>
		<g>
			<path class="st20" d="M571.5,304.9v-16.1c0-0.7-0.6-1.3-1.3-1.3h-11.6c-0.7,0-1.3,0.6-1.3,1.3v17.6c0,0.7,0.6,1.3,1.3,1.3h9.5
				v-2.8H571.5z"/>
			<polygon class="st20" points="568.1,304.9 568.1,307.8 571.5,304.9 			"/>
		</g>
	</g>
	<rect x="303.3" y="478.2" class="st21" width="228.8" height="63.2"/>
</g>
<text transform="matrix(1 0 0 1 683.75 252.1672)" class="st22 st23">IT Support</text>
</svg>
