<?xml version="1.0" encoding="utf-8"?>
<!-- Generator: Adobe Illustrator 22.0.0, SVG Export Plug-In . SVG Version: 6.00 Build 0)  -->
<svg version="1.1" id="Layer_1" xmlns="http://www.w3.org/2000/svg" xmlns:xlink="http://www.w3.org/1999/xlink" x="0px" y="0px"
	 viewBox="0 0 1353.3 511.5" style="enable-background:new 0 0 1353.3 511.5;" xml:space="preserve">
<style type="text/css">
	.st0{fill:#4585C5;}
	.st1{font-family:'FranklinGothic-Demi';}
	.st2{font-size:110.3106px;}
	.st3{fill:#F36B21;}
</style>
<title>logo</title>
<text transform="matrix(1 0 0 1 364.8015 319.7139)" class="st0 st1 st2">      Genesis </text>
<text transform="matrix(1 0 0 1 775.1833 319.7139)" class="st0 st1 st2"> </text>
<text transform="matrix(1 0 0 1 254.3318 400.961)" class="st0 st1 st2">Technologies</text>
<path class="st0" d="M143.5,194.8v87.7c0,15.5-12.6,28.1-28.1,28.1l0,0l0.1-117.9L143.5,194.8z"/>
<path class="st3" d="M115.6,113.2v60.5c0,0,18.3,0.6,28.1,3.5v-35.9C143.8,125.8,131.1,113.2,115.6,113.2z"/>
<path class="st0" d="M119,190.6c-1.1,0-2.3,0-3.4,0.1v28c1,0,2.1-0.1,3.1-0.1c50,0.1,90.6,40.6,90.5,90.6s-40.6,90.6-90.6,90.5
	S28,359.1,28.1,309.1c0-37.9,23.7-71.7,59.1-84.9l0.1-29.4C37,208.8,0,254.9,0,309.6c0,65.7,53.3,119,119,119s119-53.3,119-119
	S184.8,190.6,119,190.6z"/>
</svg>
