<?xml version="1.0" encoding="utf-8"?>
<!-- Generator: Adobe Illustrator 22.0.0, SVG Export Plug-In . SVG Version: 6.00 Build 0)  -->
<svg version="1.1" id="Layer_1" xmlns="http://www.w3.org/2000/svg" xmlns:xlink="http://www.w3.org/1999/xlink" x="0px" y="0px"
	 viewBox="0 0 1353.3 511.5" style="enable-background:new 0 0 1353.3 511.5;" xml:space="preserve">
<style type="text/css">
	.st0{fill:#4585C5;}
	.st1{font-family:'FranklinGothic-Demi';}
	.st2{font-size:155.7751px;}
	.st3{fill:#F26B21;}
</style>
<title>logo</title>
<text transform="matrix(1 0 0 1 540.0542 324.667)" class="st0 st1 st2 padding">      Genesis </text>
<text transform="matrix(1 0 0 1 1119.5742 324.667)" class="st0 st1 st2"> </text>
<text transform="matrix(1 0 0 1 384.0542 439.3994)" class="st0 st1 st2">Technologies</text>
<path class="st0" d="M227.6,148.3v123.9c0,21.9-17.8,39.7-39.7,39.7l0,0l0.2-166.5L227.6,148.3z"/>
<path class="st3" d="M188.2,33v85.4c0,0,25.8,0.8,39.7,5V72.7C227.9,50.8,210.1,33,188.2,33z"/>
<path class="st0" d="M193,142.3c-1.6,0-3.2,0-4.8,0.1V182c1.4,0,2.9-0.1,4.4-0.1c70.6,0.1,127.9,57.4,127.8,128
	s-57.4,127.9-128,127.8s-127.9-57.4-127.8-128c0-53.5,33.4-101.3,83.5-119.9l0.1-41.5C77.1,168,24.9,233.1,24.9,310.4
	c0,92.8,75.3,168.1,168.1,168.1s168.1-75.3,168.1-168.1S285.8,142.3,193,142.3z"/>
</svg>
