<?xml version="1.0" encoding="utf-8"?>
<!-- Generator: Adobe Illustrator 22.0.0, SVG Export Plug-In . SVG Version: 6.00 Build 0)  -->
<svg version="1.1" id="Layer_1" xmlns="http://www.w3.org/2000/svg" xmlns:xlink="http://www.w3.org/1999/xlink" x="0px" y="0px"
	 viewBox="0 0 960 560" style="enable-background:new 0 0 960 560;" xml:space="preserve">
<style type="text/css">
	.st0{fill:url(#h-wave_5_);}
	.st1{fill:none;}
	.st2{fill:url(#h-wave_6_);}
	.st3{fill:url(#h-wave_7_);}
	.st4{fill:url(#h-wave_8_);}
	.st5{fill:#FFFFFF;filter:url(#Adobe_OpacityMaskFilter);}
	.st6{mask:url(#h-mask_2_);}
	.st7{fill:#C9F5F2;}
	.st8{fill:none;stroke:#C9F5F2;stroke-miterlimit:10;}
	.st9{fill:#00AEA0;}
	.st10{fill:none;stroke:#00AEA0;stroke-miterlimit:10;}
	.st11{fill:#FFFFFF;}
	.st12{clip-path:url(#SVGID_2_);}
	.st13{fill:#00D6C6;}
	.st14{opacity:0.25;fill:url(#SVGID_3_);enable-background:new    ;}
	.st15{fill:#00506B;}
	.st16{opacity:0.25;fill:#53007A;enable-background:new    ;}
	.st17{opacity:0.5;fill:url(#SVGID_4_);enable-background:new    ;}
	.st18{fill:url(#SVGID_5_);}
	.st19{fill:#53007A;}
	.st20{fill:#6F0084;}
	.st21{fill:#007585;}
	.st22{opacity:0.25;fill:url(#SVGID_6_);enable-background:new    ;}
	.st23{opacity:0.25;fill:url(#SVGID_7_);enable-background:new    ;}
	.st24{opacity:0.25;fill:url(#SVGID_8_);enable-background:new    ;}
	.st25{opacity:0.25;fill:#6F0084;enable-background:new    ;}
	.st26{opacity:0.25;fill:#A8009C;enable-background:new    ;}
	.st27{opacity:0.2;fill:url(#SVGID_9_);enable-background:new    ;}
	.st28{opacity:0.25;fill:url(#SVGID_10_);enable-background:new    ;}
	.st29{opacity:0.25;fill:url(#SVGID_11_);enable-background:new    ;}
	.st30{opacity:0.5;fill:url(#SVGID_12_);enable-background:new    ;}
	.st31{opacity:0.25;fill:url(#SVGID_13_);enable-background:new    ;}
	.st32{opacity:0.25;fill:url(#SVGID_14_);enable-background:new    ;}
	.st33{opacity:0.5;fill:url(#SVGID_15_);enable-background:new    ;}
	.st34{opacity:0.5;fill:url(#SVGID_16_);enable-background:new    ;}
	.st35{opacity:0.25;fill:url(#SVGID_17_);enable-background:new    ;}
	.st36{opacity:0.25;fill:url(#SVGID_18_);enable-background:new    ;}
	.st37{opacity:0.5;fill:url(#SVGID_19_);enable-background:new    ;}
	.st38{fill:url(#SVGID_20_);}
	.st39{fill:none;stroke:#00D6C6;stroke-miterlimit:10;}
</style>
<g>
	<g>
		
			<linearGradient id="h-wave_5_" gradientUnits="userSpaceOnUse" x1="288.739" y1="534.3707" x2="4384.3022" y2="534.3707" gradientTransform="matrix(0.2344 0 0 0.2344 -70.2684 46.0635)">
			<stop  offset="0" style="stop-color:#6F0084"/>
			<stop  offset="0.1" style="stop-color:#59238A"/>
			<stop  offset="0.28" style="stop-color:#335E93"/>
			<stop  offset="0.43" style="stop-color:#178A9A"/>
			<stop  offset="0.55" style="stop-color:#06A49E"/>
			<stop  offset="0.62" style="stop-color:#00AEA0"/>
		</linearGradient>
		<path id="h-wave" class="st0" d="M-2.6,1.1v340.5c0,0,85.7,5.8,187.6-79.2c61.8-51.6,139.1,20.7,187.7,13.4
			c42.4-6.4,41.8-30.4,81.5-44.9s62.6,3.5,118.1-60.5C612.7,123.5,678.1,15.3,773,49.1c94.9,33.8,184.4,5.7,184.4-48H-2.6z"/>
	</g>
	<g>
		<path id="h-wave_1_" class="st1" d="M-2.6,1.1v340.5c0,0,85.7,5.8,187.6-79.2c61.8-51.6,139.1,20.7,187.7,13.4
			c42.4-6.4,41.8-30.4,81.5-44.9s62.6,3.5,118.1-60.5C612.7,123.5,678.1,15.3,773,49.1c94.9,33.8,184.4,5.7,184.4-48H-2.6z"/>
	</g>
	<g>
		
			<linearGradient id="h-wave_6_" gradientUnits="userSpaceOnUse" x1="949.5257" y1="-852.8094" x2="3038.812" y2="1236.4873" gradientTransform="matrix(0.2344 0 0 0.2344 -70.2684 46.0635)">
			<stop  offset="0" style="stop-color:#010758"/>
			<stop  offset="0.6" style="stop-color:#010758;stop-opacity:0.2"/>
			<stop  offset="1" style="stop-color:#010758;stop-opacity:0"/>
		</linearGradient>
		<path id="h-wave_2_" class="st2" d="M-2.6,1.1v340.5c0,0,85.7,5.8,187.6-79.2c61.8-51.6,139.1,20.7,187.7,13.4
			c42.4-6.4,41.8-30.4,81.5-44.9s62.6,3.5,118.1-60.5C612.7,123.5,678.1,15.3,773,49.1c94.9,33.8,184.4,5.7,184.4-48H-2.6z"/>
	</g>
	<g>
		
			<linearGradient id="h-wave_7_" gradientUnits="userSpaceOnUse" x1="288.739" y1="534.3707" x2="4384.3022" y2="534.3707" gradientTransform="matrix(0.2344 0 0 0.2344 -70.2684 46.0635)">
			<stop  offset="0" style="stop-color:#FFFFFF;stop-opacity:0"/>
			<stop  offset="0.44" style="stop-color:#FBFEFE;stop-opacity:1.000000e-02"/>
			<stop  offset="0.6" style="stop-color:#EAFCFA;stop-opacity:4.000000e-02"/>
			<stop  offset="0.72" style="stop-color:#CEF7F4;stop-opacity:0.1"/>
			<stop  offset="0.81" style="stop-color:#A6F1EB;stop-opacity:0.17"/>
			<stop  offset="0.89" style="stop-color:#72E8DF;stop-opacity:0.28"/>
			<stop  offset="0.96" style="stop-color:#32DED1;stop-opacity:0.4"/>
			<stop  offset="1" style="stop-color:#00D6C6;stop-opacity:0.5"/>
		</linearGradient>
		<path id="h-wave_3_" class="st3" d="M-2.6,1.1v340.5c0,0,85.7,5.8,187.6-79.2c61.8-51.6,139.1,20.7,187.7,13.4
			c42.4-6.4,41.8-30.4,81.5-44.9s62.6,3.5,118.1-60.5C612.7,123.5,678.1,15.3,773,49.1c94.9,33.8,184.4,5.7,184.4-48H-2.6z"/>
	</g>
	<g>
		
			<linearGradient id="h-wave_8_" gradientUnits="userSpaceOnUse" x1="-2.588" y1="390.68" x2="957.412" y2="390.68" gradientTransform="matrix(1 0 0 -1 0 562)">
			<stop  offset="8.870000e-02" style="stop-color:#219BD9"/>
			<stop  offset="0.2414" style="stop-color:#27A1DB"/>
			<stop  offset="0.4499" style="stop-color:#38B3E2"/>
			<stop  offset="0.6906" style="stop-color:#53CFED"/>
			<stop  offset="0.9535" style="stop-color:#79F7FC"/>
			<stop  offset="1" style="stop-color:#81FFFF"/>
		</linearGradient>
		<path id="h-wave_4_" class="st4" d="M-2.6,1.1v340.5c0,0,85.7,5.8,187.6-79.2c61.8-51.6,139.1,20.7,187.7,13.4
			c42.4-6.4,41.8-30.4,81.5-44.9s62.6,3.5,118.1-60.5C612.7,123.5,678.1,15.3,773,49.1c94.9,33.8,184.4,5.7,184.4-48H-2.6z"/>
	</g>
</g>
<defs>
	<filter id="Adobe_OpacityMaskFilter" filterUnits="userSpaceOnUse" x="292.6" y="57.2" width="313.5" height="205.8">
		<feColorMatrix  type="matrix" values="1 0 0 0 0  0 1 0 0 0  0 0 1 0 0  0 0 0 1 0"/>
	</filter>
</defs>
<mask maskUnits="userSpaceOnUse" x="292.6" y="57.2" width="313.5" height="205.8" id="h-mask_2_">
	<rect x="-696.1" y="102.4" class="st5" width="1977.9" height="1009.9"/>
</mask>
<g class="st6">
	<path class="st7" d="M520.9,209c0.5-0.4,1.5-0.7,1.8-0.4c0.4,0.5,0.7,1,0.8,1.6l-1.8,0.8L520.9,209z"/>
	<path class="st7" d="M521.6,211.2l-1-2.3l0.1-0.1c0.5-0.3,1.6-0.8,2.2-0.4c0.5,0.5,0.8,1.1,0.9,1.7v0.1L521.6,211.2z M521.2,209
		l0.6,1.6l1.4-0.6c-0.1-0.5-0.4-0.9-0.7-1.3C522.4,208.5,521.7,208.7,521.2,209L521.2,209z"/>
	<path class="st7" d="M522.9,209.5c0.6-0.3,1.3,1.4-0.5,2.4l-1-1.6L522.9,209.5z"/>
	<path class="st8" d="M522.9,209.5c0.6-0.3,1.3,1.4-0.5,2.4l-1-1.6L522.9,209.5z"/>
	<ellipse class="st7" cx="518.2" cy="211.2" rx="4.1" ry="3.6"/>
	<ellipse class="st8" cx="518.2" cy="211.2" rx="4.1" ry="3.6"/>
	<path class="st7" d="M522.2,210.7c0.7,1.7,1.3,4.1-0.9,5.3c-2.4,1.2-4.3-0.6-5.7-1.9L522.2,210.7z"/>
	<path class="st8" d="M522.2,210.7c0.7,1.7,1.3,4.1-0.9,5.3c-2.4,1.2-4.3-0.6-5.7-1.9L522.2,210.7z"/>
	<ellipse class="st9" cx="518" cy="211" rx="2.6" ry="2.3"/>
	<ellipse class="st10" cx="518" cy="211" rx="2.6" ry="2.3"/>
	<path class="st11" d="M515.1,227.1L485.7,242c-0.9,0.4-2,0.2-2.5-0.6l0,0l-11.2-17l32.5-16.5l11.2,17
		C516.3,225.7,516,226.7,515.1,227.1z"/>
	<path class="st11" d="M507.6,230.5c-1.7,0.8-10.2,5.2-19.6,9.9l-1.8,0.9l-0.4,0.2c-0.1,0.1-0.3,0.2-0.4,0.2
		c-0.2,0.1-0.5,0.1-0.8,0.1c-0.3,0-0.5-0.1-0.7-0.3c-0.2-0.2-0.4-0.4-0.5-0.6c-0.3-0.5-0.7-1-1-1.5l-4-5.9l-6-8.9l0.1,0
		c1.7-0.9,3.4-1.8,5.1-2.6c5.8-2.9,11.5-5.7,17.2-8.7c0.9-0.4,2.3-1.2,4.1-2l5.5-2.8l5.4,8.1l4.8,7.1l0.9,1.4
		c0.3,0.4,0.4,0.9,0.3,1.4c-0.1,0.3-0.4,0.6-0.7,0.9c0,0.1,0,0.1,0.1,0c0.2-0.1,0.4-0.2,0.5-0.3c0.3-0.3,0.5-0.7,0.5-1.1
		c0-0.2,0-0.4-0.1-0.6c0-0.1-0.1-0.2-0.1-0.3l-0.2-0.3c-0.7-1.1-1.4-2.3-2.2-3.4l-9-13.6l-27,13.7l-6.2,3.1l6.9,10.5
		c0.8,1.3,1.9,2.9,3,4.5l0.8,1.3l0.4,0.6l0.2,0.3c0.1,0.1,0.2,0.2,0.3,0.3c0.7,0.7,1.8,0.9,2.7,0.5c0.3-0.1,0.5-0.2,0.7-0.4l6.5-3.3
		l11-5.6c3.2-1.6,6.4-3.3,9.5-4.9c0.6-0.3,1.1-0.6,1.6-1c0.1-0.1-1.3,0.5-2.9,1.3C510.6,229.2,508.6,230,507.6,230.5L507.6,230.5z"
		/>
	<path class="st7" d="M479.7,229.3l1.8-0.9c0.2-0.1,0.5,0,0.6,0.1l1,1.6c0.1,0.2,0,0.4-0.2,0.5l-1.8,0.9c-0.2,0.1-0.5,0-0.6-0.1
		l-1-1.6C479.5,229.6,479.5,229.4,479.7,229.3z"/>
	<path class="st8" d="M479.7,229.3l1.8-0.9c0.2-0.1,0.5,0,0.6,0.1l1,1.6c0.1,0.2,0,0.4-0.2,0.5l-1.8,0.9c-0.2,0.1-0.5,0-0.6-0.1
		l-1-1.6C479.5,229.6,479.5,229.4,479.7,229.3z"/>
	<path class="st7" d="M484.1,227.1l1.8-0.9c0.2-0.1,0.5,0,0.6,0.1l1,1.6c0.1,0.2,0,0.4-0.2,0.5l-1.8,0.9c-0.2,0.1-0.5,0-0.6-0.1
		l-1-1.6C483.8,227.4,483.9,227.2,484.1,227.1z"/>
	<path class="st7" d="M486.6,228.4c-0.1,0-0.3,0.1-0.6,0.3l-0.5,0.3c0,0,0,0,0,0l0-0.1c-0.3-0.4-0.5-0.8-0.8-1.1l-0.3-0.4
		c0,0,0-0.1,0-0.1v0l0.1-0.1c0.1-0.1,0.1-0.1,0.2-0.1c0.3-0.1,0.5-0.2,0.8-0.3c0.1-0.1,0.3-0.1,0.4-0.2l0.2-0.1l0.1-0.1l0,0
		c0,0,0.1,0,0.1,0.1l0.3,0.4l0.5,0.7l0.2,0.3l0.1,0.1c0,0,0.1,0.1,0.1,0.1c0,0.1,0,0.1,0,0.2c0,0.1,0,0.2,0.2,0.2
		c0.1,0,0.2-0.1,0.3-0.2c0.1-0.2,0.1-0.4,0-0.6l-0.5-0.8l-0.3-0.4l-0.1-0.2l-0.1-0.1c0-0.1-0.1-0.1-0.1-0.2
		c-0.2-0.2-0.6-0.2-0.9-0.1l-0.5,0.2l-1,0.5l-0.4,0.2c-0.2,0.1-0.4,0.4-0.4,0.6c0,0.1,0,0.2,0.1,0.3l0.1,0.2l0.2,0.3l0.6,0.8
		l0.2,0.2c0.1,0.1,0.2,0.2,0.3,0.2c0.1,0,0.2,0.1,0.2,0.1h0.1c0.1,0,0.2,0,0.3,0c0,0,0.1,0,0.1,0l0.1,0l0.3-0.1
		c0.2-0.1,0.3-0.2,0.5-0.2c0.3-0.2,0.5-0.3,0.8-0.5c0.1-0.1,0.1-0.2,0-0.2C487.1,228.3,486.8,228.4,486.6,228.4L486.6,228.4z"/>
	<path class="st7" d="M488.5,224.8l1.8-0.9c0.2-0.1,0.5,0,0.6,0.1l1,1.6c0.1,0.2,0,0.4-0.2,0.5l-1.8,0.9c-0.2,0.1-0.5,0-0.6-0.1
		l-1-1.6C488.2,225.2,488.3,224.9,488.5,224.8z"/>
	<path class="st8" d="M488.5,224.8l1.8-0.9c0.2-0.1,0.5,0,0.6,0.1l1,1.6c0.1,0.2,0,0.4-0.2,0.5l-1.8,0.9c-0.2,0.1-0.5,0-0.6-0.1
		l-1-1.6C488.2,225.2,488.3,224.9,488.5,224.8z"/>
	<path class="st7" d="M492.9,222.6l1.8-0.9c0.2-0.1,0.5,0,0.6,0.1l1,1.6c0.1,0.2,0,0.4-0.2,0.5l-1.8,0.9c-0.2,0.1-0.5,0-0.6-0.1
		l-1-1.6C492.6,222.9,492.7,222.7,492.9,222.6z"/>
	<path class="st8" d="M492.9,222.6l1.8-0.9c0.2-0.1,0.5,0,0.6,0.1l1,1.6c0.1,0.2,0,0.4-0.2,0.5l-1.8,0.9c-0.2,0.1-0.5,0-0.6-0.1
		l-1-1.6C492.6,222.9,492.7,222.7,492.9,222.6z"/>
	<path class="st7" d="M502.6,222.3l8.3-4.2c0.2-0.1,0.5,0,0.6,0.1l1,1.6c0.1,0.2,0,0.4-0.2,0.5l-8.3,4.2c-0.2,0.1-0.5,0-0.6-0.1
		l-1-1.6C502.3,222.7,502.4,222.4,502.6,222.3z"/>
	<path class="st8" d="M502.6,222.3l8.3-4.2c0.2-0.1,0.5,0,0.6,0.1l1,1.6c0.1,0.2,0,0.4-0.2,0.5l-8.3,4.2c-0.2,0.1-0.5,0-0.6-0.1
		l-1-1.6C502.3,222.7,502.4,222.4,502.6,222.3z"/>
	<path class="st7" d="M480.1,223.4l1.8-0.9c0.2-0.1,0.5,0,0.6,0.1l1,1.6c0.1,0.2,0,0.4-0.2,0.5l-1.8,0.9c-0.2,0.1-0.5,0-0.6-0.1
		l-1-1.6C479.9,223.7,479.9,223.5,480.1,223.4z"/>
	<path class="st8" d="M480.1,223.4l1.8-0.9c0.2-0.1,0.5,0,0.6,0.1l1,1.6c0.1,0.2,0,0.4-0.2,0.5l-1.8,0.9c-0.2,0.1-0.5,0-0.6-0.1
		l-1-1.6C479.9,223.7,479.9,223.5,480.1,223.4z"/>
	<path class="st7" d="M484.5,221.2l1.8-0.9c0.2-0.1,0.5,0,0.6,0.1l1,1.6c0.1,0.2,0,0.4-0.2,0.5l-1.8,0.9c-0.2,0.1-0.5,0-0.6-0.1
		l-1-1.6C484.2,221.5,484.3,221.3,484.5,221.2z"/>
	<path class="st8" d="M484.5,221.2l1.8-0.9c0.2-0.1,0.5,0,0.6,0.1l1,1.6c0.1,0.2,0,0.4-0.2,0.5l-1.8,0.9c-0.2,0.1-0.5,0-0.6-0.1
		l-1-1.6C484.2,221.5,484.3,221.3,484.5,221.2z"/>
	<path class="st7" d="M475.8,225.6l1.8-0.9c0.2-0.1,0.5,0,0.6,0.1l1,1.6c0.1,0.2,0,0.4-0.2,0.5l-1.8,0.9c-0.2,0.1-0.5,0-0.6-0.1
		l-1-1.6C475.5,225.9,475.6,225.7,475.8,225.6z"/>
	<path class="st8" d="M475.8,225.6l1.8-0.9c0.2-0.1,0.5,0,0.6,0.1l1,1.6c0.1,0.2,0,0.4-0.2,0.5l-1.8,0.9c-0.2,0.1-0.5,0-0.6-0.1
		l-1-1.6C475.5,225.9,475.6,225.7,475.8,225.6z"/>
	<path class="st7" d="M488.9,219l1.8-0.9c0.2-0.1,0.5,0,0.6,0.1l1,1.6c0.1,0.2,0,0.4-0.2,0.5l-1.8,0.9c-0.2,0.1-0.5,0-0.6-0.1
		l-1-1.6C488.6,219.3,488.7,219.1,488.9,219z"/>
	<path class="st8" d="M488.9,219l1.8-0.9c0.2-0.1,0.5,0,0.6,0.1l1,1.6c0.1,0.2,0,0.4-0.2,0.5l-1.8,0.9c-0.2,0.1-0.5,0-0.6-0.1
		l-1-1.6C488.6,219.3,488.7,219.1,488.9,219z"/>
	<path class="st7" d="M493.3,216.7l1.8-0.9c0.2-0.1,0.5,0,0.6,0.1l1,1.6c0.1,0.2,0,0.4-0.2,0.5l-1.8,0.9c-0.2,0.1-0.5,0-0.6-0.1
		l-1-1.6C493,217.1,493.1,216.8,493.3,216.7z"/>
	<path class="st8" d="M493.3,216.7l1.8-0.9c0.2-0.1,0.5,0,0.6,0.1l1,1.6c0.1,0.2,0,0.4-0.2,0.5l-1.8,0.9c-0.2,0.1-0.5,0-0.6-0.1
		l-1-1.6C493,217.1,493.1,216.8,493.3,216.7z"/>
	<path class="st7" d="M489.9,229.8l11-5.6c0.2-0.1,0.5,0,0.6,0.1l1.8,2.8c0.1,0.2,0,0.4-0.2,0.5l-11,5.6c-0.2,0.1-0.5,0-0.6-0.1
		l-1.8-2.8C489.7,230.1,489.7,229.9,489.9,229.8z"/>
	<path class="st8" d="M489.9,229.8l11-5.6c0.2-0.1,0.5,0,0.6,0.1l1.8,2.8c0.1,0.2,0,0.4-0.2,0.5l-11,5.6c-0.2,0.1-0.5,0-0.6-0.1
		l-1.8-2.8C489.7,230.1,489.7,229.9,489.9,229.8z"/>
	<path class="st7" d="M497.7,214.5l1.8-0.9c0.2-0.1,0.5,0,0.6,0.1l1,1.6c0.1,0.2,0,0.4-0.2,0.5l-1.8,0.9c-0.2,0.1-0.5,0-0.6-0.1
		l-1-1.6C497.4,214.8,497.5,214.6,497.7,214.5z"/>
	<path class="st8" d="M497.7,214.5l1.8-0.9c0.2-0.1,0.5,0,0.6,0.1l1,1.6c0.1,0.2,0,0.4-0.2,0.5l-1.8,0.9c-0.2,0.1-0.5,0-0.6-0.1
		l-1-1.6C497.4,214.8,497.5,214.6,497.7,214.5z"/>
	<path class="st7" d="M502,212.3l1.8-0.9c0.2-0.1,0.5,0,0.6,0.1l1,1.6c0.1,0.2,0,0.4-0.2,0.5l-1.8,0.9c-0.2,0.1-0.5,0-0.6-0.1
		l-1-1.6C501.8,212.6,501.8,212.4,502,212.3z"/>
	<path class="st8" d="M502,212.3l1.8-0.9c0.2-0.1,0.5,0,0.6,0.1l1,1.6c0.1,0.2,0,0.4-0.2,0.5l-1.8,0.9c-0.2,0.1-0.5,0-0.6-0.1
		l-1-1.6C501.8,212.6,501.8,212.4,502,212.3z"/>
	<path class="st10" d="M483.8,243.5"/>
	<path class="st10" d="M513.8,253.7"/>
	<g>
		<g>
			<defs>
				<path id="SVGID_1_" d="M606.1,71.1v86.1c-24.4,10.8-46.6,22.2-66.8,32.7c-18.8,9.8-35.7,18.9-51,26.2
					c-16.7,8-31.9,14.5-46.1,19.8c-62.6,23.6-103.3,23.7-149.6,27V71.1H606.1z"/>
			</defs>
			<clipPath id="SVGID_2_">
				<use xlink:href="#SVGID_1_"  style="overflow:visible;"/>
			</clipPath>
			<g class="st12">
				<g>
					<path class="st13" d="M454,198.2c-0.2-0.2-0.5-0.2-0.7-0.2c-0.3,0-0.5,0.1-0.7,0.3c-6.5,6.2-8.9,11.2-9,11.4
						c-0.2,0.4,0,1,0.5,1.2c0,0,0,0,0,0c0.1,0,0.3,0.1,0.4,0.1c0.2,0,0.4,0,0.5-0.1c0.2-0.1,0.3-0.2,0.4-0.4c0,0,2.4-4.9,8.7-10.9
						C454.4,199.1,454.4,198.6,454,198.2L454,198.2L454,198.2L454,198.2z M473.8,185.5c-0.3-0.4-0.9-0.6-1.3-0.4c0,0,0,0,0,0
						c-2.9,1.4-5.8,2.9-8.5,4.5c-0.4,0.3-0.6,0.8-0.2,1.2c0.3,0.4,0.9,0.5,1.3,0.2l0.1,0c2.6-1.6,5.4-3.1,8.3-4.4
						c0.2-0.1,0.4-0.3,0.5-0.5C473.9,185.9,473.9,185.7,473.8,185.5L473.8,185.5z M502.8,178.3c-0.2,0-6-0.4-14.8,1.5
						c-0.5,0.1-0.9,0.6-0.7,1.1c0.1,0.4,0.5,0.6,1,0.7c0.1,0,0.2,0,0.2,0c8.4-1.8,14-1.4,14.1-1.4c0.2,0,0.4,0,0.6-0.1
						c0.3-0.1,0.5-0.4,0.5-0.7C503.8,178.8,503.4,178.4,502.8,178.3z"/>
					
						<linearGradient id="SVGID_3_" gradientUnits="userSpaceOnUse" x1="2512.2986" y1="344.5653" x2="2743.9375" y2="344.5653" gradientTransform="matrix(0.2344 0 0 0.2344 -70.2684 46.0635)">
						<stop  offset="0" style="stop-color:#6F0084"/>
						<stop  offset="1" style="stop-color:#00AEA0"/>
					</linearGradient>
					<path class="st14" d="M523.3,112.8c0.7-4.1,12.3-7.1,19.3,0.6s9.3,10.8,18.5,10c11.1-1,12.9,6.7,11,10l-9.6,11.5
						c-5.3-3.7-11.4-6.5-17.9-8.2c-12-3-26.1-3.3-26.1-3.3L523.3,112.8z"/>
					<path class="st15" d="M546.3,135.7c-0.3-0.1-7.4-1.9-18.8-2.9c-1-0.1-1.9,0.5-2,1.4c0,0,0,0,0,0c0,0.4,0.1,0.8,0.4,1.2
						c0.3,0.3,0.7,0.5,1.2,0.6c11.1,1,18.1,2.8,18.2,2.8c1,0.2,2-0.3,2.2-1.2C547.8,136.8,547.2,135.9,546.3,135.7L546.3,135.7z"/>
					<path class="st16" d="M558,135.9l-0.3-0.8l6.1-1.6l-1.8-5.3l0.9-0.2l2.1,6.2L558,135.9L558,135.9z"/>
					<path class="st7" d="M462.3,226.8c-0.3-0.2-0.6-0.3-1-0.3c-0.8,0.1-1.3,0.7-1.2,1.3c0.1,0.7,0.7,1.2,1.5,1.1
						c0.8-0.1,1.3-0.7,1.2-1.3l0,0C462.7,227.3,462.5,227.1,462.3,226.8z M452.9,224.5c-0.4-0.2-0.9-0.2-1.1,0.1
						c-0.3,0.3-0.2,0.8,0.1,1c0.1,0.1,0.3,0.1,0.5,0.2h0.1c0.2,0,0.4-0.1,0.6-0.3c0.1-0.1,0.2-0.3,0.2-0.5
						C453.1,224.8,453,224.6,452.9,224.5L452.9,224.5z"/>
					
						<linearGradient id="SVGID_4_" gradientUnits="userSpaceOnUse" x1="1730.4686" y1="670.5427" x2="2039.9038" y2="670.5427" gradientTransform="matrix(0.2339 1.420000e-02 -1.420000e-02 0.2339 -62.9498 18.7147)">
						<stop  offset="0" style="stop-color:#B800AA"/>
						<stop  offset="1" style="stop-color:#00AEA0"/>
					</linearGradient>
					<path class="st17" d="M337.5,196.9c2.3,0.5,23.5,4.6,30.1,5.8c1.2,0.2,2.4,0.4,3.5,0.6c3.9,0.8,7.7,1.7,11.7,2.3
						c2.4,0.6,12.4,2.4,13.2,2.5c3.1,0.6,2.5,0.5,5.6,1c0.7,0.1,1.4,0.2,2.1,0.3c0.8,0.1,1.1-0.1,0.5-0.3c-0.5-0.2-1-0.3-1.4-0.4
						c-0.8-0.2-1.7-0.4-2.6-0.6l-28.5-5.6c-3.9-0.8-7.9-1.6-11.9-2.3c-4-0.8-11.9-2.2-11.9-2.2c-2.5-0.5-5-1-7.5-1.5
						c-2.2-0.4-4.4-0.7-6.5-1.1c-0.4-0.1-0.8,0-1.2,0.1C332.6,195.4,336.1,196.5,337.5,196.9z"/>
					
						<linearGradient id="SVGID_5_" gradientUnits="userSpaceOnUse" x1="2374.1982" y1="694.0125" x2="2420.2141" y2="740.0046" gradientTransform="matrix(0.2344 0 0 0.2344 -70.2684 46.0635)">
						<stop  offset="0" style="stop-color:#010758"/>
						<stop  offset="0.6" style="stop-color:#010758;stop-opacity:0.2"/>
						<stop  offset="1" style="stop-color:#010758;stop-opacity:0"/>
					</linearGradient>
					<path class="st18" d="M512.6,203.9c-8.5,4.4-16.6,8.6-24.3,12.3c-6.1,2.9-12,5.6-17.7,8.2l3-1.6l28.2-14.4L512.6,203.9z"/>
					<path class="st19" d="M505.1,87l0-0.8l-3.3,0l0-2.7h-0.5l0,2.7l-3.3,0l0,0.8l3.3,0l0,2.7l0.5,0l0-2.7L505.1,87z"/>
					<path class="st20" d="M391,139.3l-2.2-1.9l2.1-1.9l-0.7-0.6l-2.1,1.9l-2.2-1.9l-0.7,0.6l2.2,1.9l-2.1,1.9l0.7,0.6l2.1-1.9
						l2.2,1.9L391,139.3z"/>
					<path class="st21" d="M427.3,176.6l-1.8-1.4l1.6-1.5l-0.7-0.6l-1.6,1.5l-1.8-1.4l-0.6,0.6l1.8,1.4l-1.6,1.5l0.7,0.6l1.6-1.5
						l1.8,1.4L427.3,176.6z"/>
					<path class="st16" d="M304.5,243.1c-3.8-4-1-7.9,1.9-11.3c2-2.4,1.1-4-0.1-6.1c-0.9-1.6-1.9-3.4-1.6-5.7c0.3-2.6,1.7-3.6,3-4.5
						c1.4-1,2.8-1.9,3.5-5.2c0.6-2.9-0.2-4.5-1-6c-0.9-1.8-1.8-3.5-0.4-7l0.9,0.3c-1.3,3.2-0.5,4.6,0.3,6.3c0.8,1.6,1.7,3.3,1,6.5
						c-0.7,3.5-2.4,4.7-3.8,5.7c-1.2,0.8-2.3,1.6-2.6,3.9c-0.3,2.1,0.6,3.7,1.5,5.2c1.2,2.2,2.3,4.2,0,7c-2.8,3.3-5.2,6.8-1.9,10.2
						L304.5,243.1z"/>
					
						<linearGradient id="SVGID_6_" gradientUnits="userSpaceOnUse" x1="1775.3093" y1="732.6951" x2="2050.0137" y2="732.6951" gradientTransform="matrix(0.2344 0 0 0.2344 -70.2684 46.0635)">
						<stop  offset="0" style="stop-color:#6F0084"/>
						<stop  offset="1" style="stop-color:#00AEA0"/>
					</linearGradient>
					<path class="st22" d="M387.4,253.1c0-39.4,22.7-69.6,22.7-69.6l-16.3-7.2c-10.1-0.8-13.7,2.9-14.4,11.9
						c-0.5,6.1-13.5,4.5-17.1,11.4c-4,7.9,4.2,12.1-5.3,20.9c-8.6,8-18.6,26.6-3.9,39c0,0,10.4-1.5,17.1-2.9
						C377.1,255.3,387.4,253.1,387.4,253.1L387.4,253.1z"/>
					
						<linearGradient id="SVGID_7_" gradientUnits="userSpaceOnUse" x1="1988.0746" y1="220.8455" x2="2335.9509" y2="220.8455" gradientTransform="matrix(0.2344 0 0 0.2344 -70.2684 46.0635)">
						<stop  offset="0" style="stop-color:#6F0084"/>
						<stop  offset="1" style="stop-color:#00AEA0"/>
					</linearGradient>
					<path class="st23" d="M397,119.8c-5.8-12.6,8.2-16.9,13.8-16.3c6.1,0.7,9.3-1.3,8.8-7.4c-0.6-8.1,6.3-13.2,16.2-13.5
						c9.9-0.3,10.4-1.1,14.5-7.6s12.7-9.2,20.9-11l6.1,37.2c0,0-30.2,2.8-70.1,30.6L397,119.8z"/>
					
						<linearGradient id="SVGID_8_" gradientUnits="userSpaceOnUse" x1="2196.8801" y1="507.7901" x2="2323.7041" y2="507.7901" gradientTransform="matrix(0.2344 0 0 0.2344 -70.2684 46.0635)">
						<stop  offset="0" style="stop-color:#6F0084"/>
						<stop  offset="1" style="stop-color:#00AEA0"/>
					</linearGradient>
					<path class="st24" d="M444.7,166.3c-1.2-7.2,6.9-10.8,12.9-7.5c7.4,4.1,3.8-4.8,13.9-3.7l2.8,9.3c0,0-14.9,5.5-22.6,10.7
						L444.7,166.3z"/>
					<path class="st16" d="M319.8,244c-2.8-2.9-1.9-7.8,2.2-11.3c3.3-3,1.5-5.6,0-7.9l-0.3-0.5c-1.7-2.5-0.4-8.5,5.3-11.8
						c1.9-1.1,1.3-2.5,0-5c-1.3-2.4-2.8-5.3-1-8.7l0.9,0.4c-1.6,3-0.2,5.6,1,7.9c1.2,2.3,2.4,4.4-0.4,6.1c-5,3-6.5,8.5-5,10.7
						c0.1,0.2,0.2,0.3,0.3,0.5c1.6,2.3,3.7,5.5-0.1,8.9c-3.7,3.3-4.6,7.6-2.1,10.2L319.8,244z"/>
					<path class="st20" d="M354.4,147.4l-0.6-7l1-0.1l0.5,6.2l7.1-0.4l0.1,0.8L354.4,147.4z"/>
					<path class="st13" d="M431.9,236.4l-5.3-3.2l0.6-0.7l4.5,2.7l3.1-4l0.8,0.5L431.9,236.4L431.9,236.4z"/>
					<path class="st16" d="M370.3,225.7l-4.1-5.3l0.8-0.5l3.6,4.6l5.2-3.1l0.5,0.7L370.3,225.7L370.3,225.7z"/>
					<path class="st13" d="M460,193.6c-0.3-0.6-1.2-0.9-1.9-0.7c-0.7,0.3-1.1,1-0.7,1.7c0,0.1,0.1,0.2,0.2,0.3
						c0.3,0.4,0.7,0.6,1.2,0.6c0.8,0,1.4-0.6,1.4-1.3C460.2,194,460.1,193.8,460,193.6z"/>
					<path class="st21" d="M421.1,205.6c-0.6-0.9-1.9-1.2-2.9-0.6c0,0,0,0,0,0c-1,0.5-1.3,1.7-0.7,2.5c0.3,0.4,0.7,0.7,1.3,0.8
						c0.2,0,0.3,0.1,0.5,0.1c1.2,0,2.1-0.8,2.1-1.8C421.3,206.2,421.2,205.9,421.1,205.6L421.1,205.6L421.1,205.6z"/>
					<path class="st15" d="M424.8,162.1c-0.1-0.1-0.3-0.1-0.5,0c0.1,0,0.2-0.1,0.3-0.2c0-0.1,0-0.3,0-0.4c-0.1-0.2-0.3-0.3-0.5-0.4
						c-1-0.6-2.4-0.6-3.4,0c-0.5,0.3-0.9,0.7-1.1,1.2c-0.2,0.5-0.3,1.1-0.1,1.6c0.3,0.9,1.1,1.6,2.2,1.8c0.6,0.1,1.3,0,1.9-0.2
						c0.2-0.1,0.5-0.2,0.7-0.4c0.1-0.1,0.2-0.1,0.2-0.2c0.5-0.4,0.8-0.9,0.9-1.5C425.3,162.9,425.1,162.4,424.8,162.1L424.8,162.1z
						 M383.4,252.1c-0.8-1.2-2.5-1.5-3.9-0.8c-1.3,0.7-1.8,2.2-1,3.4c0.4,0.6,1,0.9,1.7,1.1c0.2,0,0.4,0.1,0.6,0.1
						c0.5,0,1-0.1,1.5-0.4C383.7,254.7,384.1,253.2,383.4,252.1L383.4,252.1z"/>
					<path class="st25" d="M418.3,113.7c-0.4-0.5-1-0.9-1.7-1.1c-1.5-0.3-3,0.5-3.4,1.8c-0.2,0.6-0.1,1.3,0.3,1.8
						c0.5,0.7,1.4,1.1,2.3,1.1c1.3,0,2.4-0.8,2.8-1.9C418.8,114.9,418.7,114.2,418.3,113.7L418.3,113.7z"/>
					<path class="st19" d="M373.5,113.8c-0.3-0.5-0.9-0.9-1.6-1c-1.4-0.3-2.7,0.5-3.1,1.6c-0.2,0.6-0.1,1.2,0.3,1.7
						c0.5,0.6,1.3,1,2.1,1c0.5,0,0.9-0.1,1.4-0.3C373.8,116.2,374.2,114.9,373.5,113.8z"/>
					<path class="st15" d="M511,133c-0.2-0.6-0.6-1.2-1.2-1.5c-1.2-0.7-2.9-0.4-3.7,0.6c0,0-0.1,0.1-0.1,0.1
						c-0.8,1.2-0.4,2.6,0.9,3.4c0.4,0.3,1,0.4,1.5,0.4c0.2,0,0.4,0,0.6-0.1c0.7-0.1,1.3-0.5,1.7-1.1C511,134.3,511.1,133.7,511,133z
						 M512.4,114.1c-0.2-0.6-0.6-1.2-1.2-1.5c-1.2-0.7-2.9-0.4-3.7,0.6c0,0,0,0.1-0.1,0.1c-0.4,0.6-0.5,1.2-0.3,1.8
						c0.3,1.1,1.4,1.9,2.7,1.9c0.2,0,0.4,0,0.6-0.1C511.8,116.7,512.7,115.4,512.4,114.1z M578,147.7c-0.2-0.6-0.6-1.2-1.2-1.5
						c-0.6-0.4-1.4-0.5-2.1-0.3c-1.5,0.3-2.5,1.6-2.1,3c0.3,1.3,1.9,2.2,3.4,1.9l0,0c0.7-0.1,1.3-0.5,1.7-1.1
						C578,149,578.1,148.3,578,147.7z"/>
					<path class="st19" d="M583.4,93.7c-0.7-0.4-1.6-0.6-2.5-0.4c-0.8,0.1-1.6,0.6-2,1.2c-0.9,1.3-0.4,3.1,1.1,3.9
						c0.5,0.3,1.2,0.5,1.8,0.5c1.1,0,2.1-0.5,2.7-1.3C585.4,96.3,584.9,94.6,583.4,93.7C583.4,93.8,583.4,93.7,583.4,93.7
						L583.4,93.7z"/>
					<path class="st15" d="M352.1,204.2c-0.2-0.8-0.8-1.5-1.6-1.9c-1.5-1-3.7-0.7-4.8,0.6c-1.1,1.3-0.8,3.2,0.7,4.2
						c0.1,0.1,0.3,0.2,0.5,0.3c0.6,0.3,1.2,0.5,1.9,0.5c1.9,0,3.4-1.3,3.4-2.9C352.2,204.7,352.1,204.5,352.1,204.2L352.1,204.2
						L352.1,204.2z M467,100.7c-1.5-1-3.7-0.7-4.8,0.6c-1.1,1.3-0.8,3.2,0.7,4.2c0.1,0.1,0.3,0.2,0.5,0.3c0.6,0.3,1.2,0.5,1.9,0.5
						c1.2,0,2.3-0.5,2.9-1.4C469.1,103.4,468.6,101.6,467,100.7z"/>
					<path class="st19" d="M348.2,114.3c-0.3-0.9-0.9-1.7-1.9-2.2c-1.9-1.1-4.4-0.6-5.6,1c-0.6,0.8-0.7,1.8-0.5,2.7
						c0.5,1.7,2.2,2.8,4.1,2.8c1.4,0,2.6-0.6,3.4-1.6C348.3,116.1,348.4,115.2,348.2,114.3z M424.2,90.9c-0.8-1.4-2.5-2.2-4.3-2.1
						c-0.9,0.1-1.7,0.4-2.4,0.9c-1.1,0.9-1.6,2.2-1.2,3.5c0.2,0.8,0.7,1.5,1.4,2c0.3,0.2,0.6,0.4,1,0.5c0.1,0.1,0.3,0.1,0.4,0.2
						c0.9,0.3,1.8,0.3,2.7,0c0.7-0.2,1.4-0.7,1.8-1.2c0.1-0.1,0.1-0.3,0.1-0.4c0,0.1,0.1,0.1,0.2,0c0.1-0.1,0.3-0.2,0.3-0.4
						c0.1-0.3,0.2-0.5,0.3-0.8C424.8,92.3,424.6,91.6,424.2,90.9z"/>
					<path class="st21" d="M443.4,180.9c-0.3-0.4-0.7-0.7-1.3-0.8c-1.1-0.2-2.3,0.3-2.5,1.3c-0.3,1,0.4,2,1.5,2.2s2.3-0.3,2.5-1.3
						C443.8,181.8,443.7,181.4,443.4,180.9z M464.8,168c-0.6-0.9-1.9-1.1-2.9-0.6c-1,0.5-1.3,1.7-0.7,2.5c0.3,0.4,0.7,0.7,1.3,0.8
						c0.2,0,0.3,0.1,0.5,0.1c1.2,0,2.1-0.8,2.1-1.8C465,168.6,464.9,168.3,464.8,168L464.8,168z"/>
					<path class="st13" d="M505.2,157.9c-0.6-0.9-1.9-1.1-2.9-0.6c-1,0.5-1.3,1.7-0.7,2.5c0.3,0.4,0.8,0.7,1.3,0.8
						c0.5,0.1,1.1,0,1.6-0.2C505.5,159.9,505.8,158.8,505.2,157.9C505.2,157.9,505.2,157.9,505.2,157.9L505.2,157.9L505.2,157.9z"/>
					<path class="st7" d="M511.8,187.5c-0.3-0.2-0.6-0.3-1-0.3c-0.4,0-0.7,0.2-0.9,0.4c-0.5,0.5-0.4,1.3,0.2,1.7s1.5,0.4,1.9-0.1
						C512.5,188.7,512.4,187.9,511.8,187.5C511.8,187.5,511.8,187.5,511.8,187.5L511.8,187.5z"/>
					<path class="st13" d="M510.6,172.2c-0.7-0.5-1.7-0.4-2.3,0.2c-0.6,0.6-0.5,1.5,0.2,2c0.3,0.2,0.7,0.3,1,0.3h0.2
						c0.4,0,0.8-0.2,1.1-0.5C511.4,173.6,511.3,172.7,510.6,172.2L510.6,172.2L510.6,172.2z"/>
					<path class="st20" d="M551.7,90.3c-0.7-0.5-1.7-0.4-2.3,0.2c-0.6,0.6-0.5,1.5,0.2,2c0.3,0.2,0.7,0.3,1,0.3h0.2
						c0.4,0,0.8-0.2,1.1-0.5C552.5,91.7,552.4,90.8,551.7,90.3L551.7,90.3z"/>
					<path class="st15" d="M583.7,129.2c-0.3-0.2-0.8-0.4-1.2-0.3c-0.9,0.1-1.5,0.8-1.5,1.6c0.1,0.8,0.9,1.4,1.8,1.3
						c0.4,0,0.8-0.2,1.1-0.5C584.5,130.6,584.4,129.7,583.7,129.2z"/>
					<path class="st20" d="M549.5,83.9c-0.7-0.5-1.7-0.4-2.3,0.2c-0.6,0.6-0.5,1.5,0.2,2c0.7,0.5,1.7,0.4,2.3-0.2c0,0,0,0,0,0
						C550.3,85.3,550.2,84.4,549.5,83.9z"/>
					<ellipse class="st19" cx="555.5" cy="74" rx="1.1" ry="1"/>
					<path class="st19" d="M555.5,75.2c-0.7,0-1.3-0.5-1.4-1.1c0-0.3,0.1-0.6,0.3-0.9c0.5-0.5,1.3-0.6,1.9-0.2
						c0.6,0.4,0.7,1.2,0.2,1.7C556.3,75,555.9,75.2,555.5,75.2L555.5,75.2z M555.5,73.2L555.5,73.2c-0.6,0-0.9,0.4-0.9,0.8
						c0,0.2,0.1,0.4,0.3,0.5c0.4,0.3,0.9,0.2,1.3-0.1c0.3-0.3,0.3-0.8-0.1-1.1C555.9,73.2,555.7,73.2,555.5,73.2L555.5,73.2z"/>
					<path class="st26" d="M346.3,182.8c-0.7-0.5-1.7-0.4-2.3,0.2c0,0,0,0,0,0c-0.6,0.6-0.5,1.5,0.2,2c0,0,0,0,0,0
						c0.7,0.5,1.7,0.4,2.3-0.2c0,0,0,0,0,0C347.1,184.2,347,183.3,346.3,182.8z M362.7,181.8c-0.7-0.5-1.7-0.4-2.3,0.2
						c-0.6,0.6-0.5,1.5,0.2,2c0.7,0.5,1.7,0.4,2.3-0.2C363.5,183.2,363.4,182.3,362.7,181.8z"/>
					<path class="st13" d="M492.6,149.8c-0.6-0.4-1.4-0.3-1.9,0.2c-0.5,0.5-0.4,1.3,0.2,1.7c0.2,0.2,0.5,0.3,0.9,0.3
						c0.8,0,1.4-0.5,1.4-1.2C493.1,150.4,493,150.1,492.6,149.8L492.6,149.8L492.6,149.8z"/>
					<path class="st19" d="M323.3,253.7c-0.7-0.5-1.7-0.4-2.3,0.2c-0.6,0.6-0.4,1.5,0.3,2c0.3,0.2,0.6,0.3,1,0.3h0.2
						c0.9-0.1,1.5-0.8,1.5-1.6C323.8,254.3,323.6,254,323.3,253.7L323.3,253.7L323.3,253.7z M313,249c-0.7-0.5-1.7-0.4-2.3,0.2
						c-0.6,0.6-0.5,1.5,0.2,2c0.3,0.2,0.7,0.3,1,0.3c0.5,0,0.9-0.2,1.3-0.5C313.8,250.3,313.7,249.5,313,249z"/>
					<ellipse class="st19" cx="344.2" cy="173.1" rx="1.1" ry="1"/>
					<path class="st19" d="M344.2,174.3c-0.3,0-0.6-0.1-0.9-0.3c-0.3-0.2-0.5-0.5-0.5-0.8c0-0.3,0.1-0.6,0.3-0.9
						c0.5-0.5,1.3-0.6,1.9-0.2c0.6,0.4,0.7,1.2,0.2,1.7c-0.2,0.2-0.6,0.4-0.9,0.4L344.2,174.3z M344.2,172.3L344.2,172.3
						c-0.6,0-0.9,0.4-0.9,0.8c0,0.2,0.1,0.4,0.3,0.5c0.4,0.3,0.9,0.2,1.3-0.1c0.3-0.3,0.3-0.8-0.1-1.1
						C344.6,172.3,344.4,172.3,344.2,172.3L344.2,172.3L344.2,172.3z"/>
					<ellipse class="st19" cx="332.7" cy="175.1" rx="1.1" ry="1"/>
					<path class="st19" d="M332.7,176.3c-0.8,0-1.4-0.6-1.4-1.2c0-0.7,0.6-1.2,1.4-1.2c0.8,0,1.4,0.6,1.4,1.2c0,0.3-0.1,0.6-0.3,0.8
						C333.5,176.2,333.1,176.3,332.7,176.3z M332.7,174.3L332.7,174.3c-0.3,0-0.5,0.1-0.7,0.3c-0.3,0.3-0.2,0.8,0.2,1.1
						c0.4,0.2,0.9,0.2,1.2-0.1c0.3-0.3,0.2-0.8-0.2-1.1C333.1,174.4,332.9,174.4,332.7,174.3L332.7,174.3z"/>
					<ellipse class="st19" cx="322.2" cy="153.9" rx="1.1" ry="1"/>
					<path class="st19" d="M322.2,155.3c-0.9,0-1.6-0.6-1.6-1.4c0-0.8,0.7-1.4,1.6-1.4c0.9,0,1.6,0.6,1.6,1.4c0,0.3-0.1,0.6-0.4,0.9
						C323.2,155.1,322.7,155.3,322.2,155.3z M322.2,153.3c-0.4,0-0.7,0.2-0.7,0.6c0,0.2,0.1,0.4,0.3,0.5c0.1,0.1,0.3,0.1,0.5,0.1
						c0.2,0,0.3-0.1,0.4-0.2c0.2-0.2,0.2-0.6-0.1-0.8C322.6,153.4,322.4,153.3,322.2,153.3L322.2,153.3z"/>
					<path class="st13" d="M481.5,182.3c-0.4-0.6-1.3-0.8-2-0.4c-0.7,0.4-0.9,1.1-0.5,1.7c0.4,0.6,1.3,0.8,2,0.4c0,0,0,0,0,0
						C481.7,183.6,481.9,182.9,481.5,182.3z"/>
					<path class="st26" d="M426.1,133.9l-1-0.1c0-0.2,0.7-4.5,5.4-6.2c1.6-0.6,3.4-0.8,5.1-0.4c1.8,0.4,3.7,0.1,5.3-0.6
						c2.3-1,3-2.2,3.7-3.5c0.8-1.4,1.5-2.9,4.3-3.8c2.9-1,4.6-0.3,6.1,0.2c1.3,0.5,2.3,0.9,4,0.3c1.7-0.6,2.9-1.8,4.1-3.1
						c1.6-1.6,3.2-3.3,6.1-3.9c5.2-1.1,8.9,2.1,9.1,2.3l-0.7,0.6c0,0-3.5-3.1-8.2-2.1c-2.6,0.6-4.1,2.1-5.5,3.7
						c-1.3,1.3-2.6,2.7-4.5,3.3c-2.1,0.7-3.4,0.2-4.8-0.3c-1.4-0.6-2.8-1.1-5.3-0.2c-2.4,0.8-3,2-3.8,3.4c-0.7,1.4-1.5,2.8-4.1,3.9
						c-2.7,1.1-4.3,0.9-5.9,0.7c-1.5-0.3-3.1-0.2-4.6,0.4C426.8,129.9,426.1,133.9,426.1,133.9L426.1,133.9z M431.3,141.4l-0.8-0.5
						c2.4-3.3,5.1-5.2,11.9-4.8c3.5,0.2,4.5-1.4,5.7-3.2c1-1.4,1.9-3,4.2-3.6c2.5-0.7,4.2-0.2,5.9,0.2c1.7,0.5,3.4,0.9,6,0.2
						c1.8-0.5,3.3-1.8,4.7-3.1c2.7-2.4,5.5-4.9,10.7-2.1l-0.5,0.7c-4.6-2.5-6.9-0.4-9.5,2c-1.5,1.4-3.1,2.8-5.1,3.3
						c-3,0.8-4.9,0.3-6.6-0.2c-1.6-0.4-3.1-0.8-5.3-0.2c-1.9,0.6-2.8,1.8-3.6,3.2c-1.2,1.9-2.5,3.9-6.6,3.6
						C436,136.7,433.5,138.3,431.3,141.4L431.3,141.4z M558.7,156.9c0,0-0.5-3.4-3.1-4.6c-1.2-0.6-2.5-0.3-3.9,0.1
						c-1.6,0.4-3.4,0.8-5.6,0.1c-2.1-0.7-3.1-2.1-4-3.2c-0.8-1-1.4-1.9-2.8-2.4c-1.1-0.3-2.5,0.1-4.1,0.5c-2.7,0.7-5.7,1.6-7.5-1.2
						c-1.3-2-2.7-3.1-4.3-3.3c-1.5-0.2-3.3,0.5-5.2,2.1l-0.7-0.6c2.2-1.8,4.1-2.5,6-2.3c1.8,0.2,3.5,1.5,4.9,3.7
						c1.4,2.2,3.9,1.5,6.4,0.8c1.7-0.5,3.4-0.9,4.7-0.5c1.7,0.5,2.5,1.6,3.3,2.7c0.8,1.1,1.6,2.2,3.5,2.9c1.9,0.7,3.4,0.3,5-0.1
						c1.5-0.4,3-0.7,4.6,0c3.1,1.4,3.6,5.1,3.6,5.3L558.7,156.9z M555.5,161.1l-1-0.1c0,0,0.2-1.8-1.2-2.8c-0.9-0.6-2.1-0.4-3.7,0
						c-1.5,0.3-3.4,0.8-5.3,0.2c-1.9-0.6-2.8-1.7-3.7-2.7c-0.9-1-1.6-1.9-3.3-2.4c-1.3-0.3-2.9,0.3-4.4,0.8
						c-2.3,0.8-4.8,1.8-6.4-0.6c-2.2-3.4-6.3-4.4-10.4-2.5l-0.4-0.7c4.6-2.1,9.1-1,11.7,2.8c1.1,1.6,2.7,1.1,5.2,0.2
						c1.7-0.6,3.5-1.3,5.1-0.9c2,0.5,2.9,1.6,3.8,2.7c0.8,1,1.6,1.9,3.3,2.4c1.7,0.5,3.2,0.2,4.8-0.2c1.7-0.4,3.2-0.7,4.5,0.2
						C555.8,158.8,555.5,161,555.5,161.1L555.5,161.1z"/>
					
						<linearGradient id="SVGID_9_" gradientUnits="userSpaceOnUse" x1="2147.6035" y1="714.7783" x2="2341.981" y2="714.7783" gradientTransform="matrix(0.2344 0 0 0.2344 -70.2684 46.0635)">
						<stop  offset="0" style="stop-color:#6F0084"/>
						<stop  offset="1" style="stop-color:#00AEA0"/>
					</linearGradient>
					<path class="st27" d="M457.6,230.2l-8.4,1.1c0,0-11.5,1.5-13-6.9c-1.5-8.4,8.1-11.7,1.8-14.9s-5.7-8.2-2.8-13.6l37.5,17.5
						l5.9,7.2L457.6,230.2z"/>
					
						<linearGradient id="SVGID_10_" gradientUnits="userSpaceOnUse" x1="2113.0854" y1="758.8455" x2="2275.9714" y2="758.8455" gradientTransform="matrix(0.2344 0 0 0.2344 -70.2684 46.0635)">
						<stop  offset="0" style="stop-color:#6F0084"/>
						<stop  offset="1" style="stop-color:#00AEA0"/>
					</linearGradient>
					<path class="st28" d="M427.5,224.5c1.2,0.1,12.5,0,16-0.2c0.6,0,1.2-0.1,1.9-0.1c2.1,0.1,4.1,0.1,6.2,0c1.3,0.1,6.6-0.1,7-0.1
						c1.6,0,1.3,0,2.9-0.1c0.4,0,0.8,0,1.1-0.1c0.4-0.1,0.6-0.3,0.2-0.4c-0.3-0.1-0.5-0.1-0.8-0.2c-0.5,0-0.9,0-1.4,0h-15.2
						c-2.1,0-4.2,0-6.3,0c-2.1,0-6.3,0.1-6.3,0.1c-1.3,0-2.7,0-4,0c-1.2,0-2.3,0.1-3.4,0.2c-0.2,0-0.5,0.1-0.6,0.3
						C424.9,224.1,426.8,224.5,427.5,224.5L427.5,224.5z"/>
					
						<linearGradient id="SVGID_11_" gradientUnits="userSpaceOnUse" x1="2482.1301" y1="584.5634" x2="2576.4824" y2="584.5634" gradientTransform="matrix(0.2344 0 0 0.2344 -70.2684 46.0635)">
						<stop  offset="0" style="stop-color:#00AEA0"/>
						<stop  offset="1" style="stop-color:#B800AA"/>
					</linearGradient>
					<path class="st29" d="M513.5,196.8c0.8-1,7.3-10.2,9.2-13.1c0.3-0.5,0.6-1.1,1-1.6c1.3-1.6,2.5-3.3,3.6-5.1
						c0.9-1,3.8-5.4,4-5.8c0.9-1.3,0.7-1.1,1.7-2.4c0.2-0.3,0.4-0.6,0.6-1c0.2-0.4,0-0.6-0.3-0.4c-0.2,0.2-0.4,0.4-0.6,0.6
						c-0.3,0.3-0.6,0.7-0.8,1.1l-8.9,12.4c-1.2,1.7-2.4,3.4-3.6,5.1c-1.2,1.7-3.5,5.2-3.6,5.2c-0.8,1.1-1.6,2.1-2.3,3.2
						c-0.6,1-1.2,1.9-1.8,2.9c-0.1,0.2-0.1,0.4-0.1,0.7C511.5,198.8,513,197.4,513.5,196.8L513.5,196.8z"/>
					
						<linearGradient id="SVGID_12_" gradientUnits="userSpaceOnUse" x1="1743.4349" y1="519.8629" x2="2069.5488" y2="519.8629" gradientTransform="matrix(0.2344 0 0 0.2344 -70.2684 46.0635)">
						<stop  offset="0" style="stop-color:#B800AA"/>
						<stop  offset="1" style="stop-color:#00AEA0"/>
					</linearGradient>
					<path class="st30" d="M343.3,152.7c2.4,1.2,25,12,32,15.2c1.2,0.6,2.5,1.1,3.7,1.7c4.1,2,8.2,4.1,12.4,5.9
						c2.5,1.4,13.3,6.2,14,6.6c3.3,1.5,2.6,1.2,5.9,2.8c0.8,0.4,1.6,0.7,2.3,1c0.9,0.4,1.3,0.2,0.6-0.2c-0.5-0.3-1-0.6-1.5-0.9
						c-0.9-0.5-1.8-0.9-2.8-1.4c-10.1-4.8-20.2-9.7-30.3-14.5c-4.2-2-8.4-4-12.6-6c-4.2-2-12.6-5.9-12.6-5.9
						c-2.6-1.3-5.3-2.6-7.9-3.8c-2.3-1.1-4.7-2.1-7-3.1c-0.4-0.2-0.9-0.3-1.4-0.3C338.2,149.8,341.8,152,343.3,152.7L343.3,152.7z"
						/>
					
						<linearGradient id="SVGID_13_" gradientUnits="userSpaceOnUse" x1="2259.8904" y1="419.839" x2="2336.5813" y2="419.839" gradientTransform="matrix(0.2344 0 0 0.2344 -70.2684 46.0635)">
						<stop  offset="0" style="stop-color:#B800AA"/>
						<stop  offset="1" style="stop-color:#00AEA0"/>
					</linearGradient>
					<path class="st31" d="M460,118.7c0.5,1.9,5.8,19.8,7.5,25.2c0.3,1,0.7,1.9,1,2.9c0.9,3.3,1.7,6.6,2.9,9.8
						c0.5,2.1,3.1,10.4,3.3,11c0.8,2.6,0.6,2.1,1.4,4.6c0.2,0.6,0.4,1.2,0.6,1.8c0.3,0.7,0.6,0.8,0.6,0.2c0-0.4-0.1-0.9-0.2-1.3
						c-0.2-0.7-0.4-1.5-0.6-2.2c-2.3-8-4.6-16-7-23.9c-1-3.3-1.9-6.6-2.9-9.9c-1-3.3-3-9.9-3-9.9c-0.6-2.1-1.2-4.2-1.8-6.3
						c-0.6-1.8-1.2-3.6-1.8-5.4c-0.1-0.3-0.3-0.6-0.6-0.9C459.3,114.3,459.7,117.5,460,118.7z"/>
					
						<linearGradient id="SVGID_14_" gradientUnits="userSpaceOnUse" x1="2416.6812" y1="406.5576" x2="2426.8162" y2="406.5576" gradientTransform="matrix(0.2344 0 0 0.2344 -70.2684 46.0635)">
						<stop  offset="0" style="stop-color:#B800AA"/>
						<stop  offset="1" style="stop-color:#00AEA0"/>
					</linearGradient>
					<path class="st32" d="M496.1,122.6c-0.1,1.4,0.4,14.3,0.7,18.3c0,0.7,0.2,1.4,0.2,2.1c0,2.4,0,4.7,0.2,7.1
						c-0.1,1.5,0.3,7.5,0.3,8c0.1,1.9,0.1,1.5,0.2,3.4c0,0.4,0.1,0.8,0.1,1.3c0.1,0.5,0.4,0.6,0.5,0.2c0.1-0.3,0.1-0.6,0.2-0.9v-1.6
						c-0.1-5.8-0.3-11.6-0.5-17.3c-0.1-2.4-0.1-4.8-0.2-7.2c-0.1-2.4-0.3-7.2-0.3-7.2c0-1.5,0-3-0.1-4.5c-0.1-1.3-0.2-2.6-0.3-3.9
						c0-0.3-0.2-0.5-0.4-0.7C496.5,119.5,496.1,121.7,496.1,122.6L496.1,122.6z"/>
					
						<linearGradient id="SVGID_15_" gradientUnits="userSpaceOnUse" x1="2582.8459" y1="287.2587" x2="2765.6592" y2="287.2587" gradientTransform="matrix(0.2344 0 0 0.2344 -70.2684 46.0635)">
						<stop  offset="0" style="stop-color:#00AEA0"/>
						<stop  offset="1" style="stop-color:#B800AA"/>
					</linearGradient>
					<path class="st33" d="M538.5,139.1c1.4-1.8,14.1-19.3,17.9-24.7c0.7-1,1.3-2,2-2.9c2.4-3.2,4.8-6.3,7-9.6
						c1.6-1.9,7.4-10.2,7.8-10.8c1.8-2.5,1.4-2,3.3-4.6c0.4-0.6,0.8-1.2,1.2-1.8c0.4-0.7,0.3-1-0.2-0.5c-0.4,0.4-0.7,0.7-1,1.1
						c-0.5,0.7-1.1,1.4-1.6,2.1c-5.7,7.8-11.4,15.6-17.1,23.4c-2.4,3.2-4.7,6.5-7.1,9.7c-2.3,3.2-7,9.8-7,9.8c-1.5,2-3,4.1-4.5,6.1
						c-1.3,1.8-2.5,3.6-3.7,5.4c-0.2,0.3-0.4,0.7-0.4,1.1C535.1,143,537.6,140.2,538.5,139.1L538.5,139.1z"/>
					
						<linearGradient id="SVGID_16_" gradientUnits="userSpaceOnUse" x1="1910.3441" y1="352.9081" x2="2142.7407" y2="352.9081" gradientTransform="matrix(0.2344 0 0 0.2344 -70.2684 46.0635)">
						<stop  offset="0" style="stop-color:#B800AA"/>
						<stop  offset="1" style="stop-color:#00AEA0"/>
					</linearGradient>
					<path class="st34" d="M380.7,101.2c1.7,2.1,17.8,21.3,22.9,27.1c0.9,1,1.9,2.1,2.7,3.1c2.9,3.6,5.7,7.1,8.8,10.6
						c1.7,2.3,9.5,11.2,10,11.8c2.3,2.8,1.9,2.2,4.2,5c0.5,0.6,1.1,1.3,1.7,1.9c0.7,0.7,1.1,0.7,0.7,0.1c-0.3-0.5-0.6-1-1-1.4
						c-0.6-0.8-1.3-1.6-1.9-2.4l-21.5-25.8c-3-3.6-6-7.1-9-10.7c-3-3.5-9.1-10.6-9-10.6c-1.9-2.3-3.7-4.5-5.6-6.8
						c-1.7-1.9-3.4-3.9-5.1-5.7c-0.3-0.4-0.7-0.6-1.2-0.8C377.3,96.4,379.7,99.9,380.7,101.2L380.7,101.2z"/>
					
						<linearGradient id="SVGID_17_" gradientUnits="userSpaceOnUse" x1="2304.9597" y1="162.5257" x2="2344.0793" y2="162.5257" gradientTransform="matrix(0.2344 0 0 0.2344 -70.2684 46.0635)">
						<stop  offset="0" style="stop-color:#00AEA0"/>
						<stop  offset="1" style="stop-color:#B800AA"/>
					</linearGradient>
					<path class="st35" d="M470,61c0.2,1.7,2.8,17.7,3.8,22.6c0.2,0.9,0.4,1.7,0.5,2.6c0.4,3,0.8,5.9,1.4,8.8
						c0.1,1.9,1.6,9.3,1.7,9.9c0.4,2.3,0.3,1.9,0.7,4.2c0.1,0.5,0.2,1.1,0.4,1.6c0.2,0.6,0.5,0.7,0.5,0.2c0-0.4,0-0.8,0-1.1
						c-0.1-0.6-0.2-1.3-0.3-2c-1.1-7.2-2.3-14.3-3.4-21.5c-0.5-3-1-5.9-1.4-8.9c-0.5-3-1.6-8.9-1.5-8.9c-0.3-1.9-0.6-3.7-0.9-5.6
						c-0.3-1.6-0.6-3.2-1-4.8c-0.1-0.3-0.2-0.6-0.5-0.8C469.9,57.2,469.9,59.9,470,61z"/>
					
						<linearGradient id="SVGID_18_" gradientUnits="userSpaceOnUse" x1="2125.9705" y1="522.8491" x2="2285.2024" y2="522.8491" gradientTransform="matrix(0.2344 0 0 0.2344 -70.2684 46.0635)">
						<stop  offset="0" style="stop-color:#B800AA"/>
						<stop  offset="1" style="stop-color:#00AEA0"/>
					</linearGradient>
					<path class="st36" d="M430,148.6c1.1,1.6,12.1,15.5,15.6,19.7c0.6,0.7,1.3,1.5,1.9,2.2c1.9,2.6,3.9,5.2,6,7.7
						c1.1,1.7,6.5,8.1,6.9,8.6c1.6,2,1.3,1.6,2.9,3.6c0.4,0.5,0.8,0.9,1.2,1.3c0.5,0.5,0.8,0.5,0.6,0c-0.2-0.4-0.4-0.7-0.6-1.1
						c-0.4-0.6-0.9-1.2-1.3-1.7c-4.9-6.3-9.8-12.5-14.7-18.8c-2-2.6-4.1-5.2-6.1-7.8c-2.1-2.6-6.2-7.7-6.2-7.7
						c-1.3-1.6-2.5-3.3-3.9-4.9c-1.1-1.4-2.3-2.8-3.5-4.1c-0.2-0.3-0.5-0.5-0.9-0.6C427.8,145.1,429.4,147.7,430,148.6L430,148.6z"
						/>
					
						<linearGradient id="SVGID_19_" gradientUnits="userSpaceOnUse" x1="2511.4634" y1="269.68" x2="2556.2886" y2="269.68" gradientTransform="matrix(0.2341 1.100000e-02 -1.100000e-02 0.2341 -66.3573 19.7041)">
						<stop  offset="0" style="stop-color:#00AEA0"/>
						<stop  offset="1" style="stop-color:#B800AA"/>
					</linearGradient>
					<path class="st37" d="M528.9,85.3c-0.5,1.9-4.3,19.3-5.4,24.7c-0.2,1-0.3,1.9-0.5,2.9c-0.8,3.2-1.6,6.3-2.1,9.6
						c-0.6,2-2.2,10.2-2.3,10.8c-0.5,2.5-0.4,2-1,4.6c-0.1,0.6-0.2,1.2-0.3,1.8c-0.1,0.7,0.2,0.9,0.4,0.4c0.2-0.4,0.3-0.8,0.4-1.2
						c0.2-0.7,0.4-1.4,0.5-2.1c1.8-7.8,3.5-15.6,5.3-23.4c0.7-3.2,1.4-6.5,2.1-9.7c0.7-3.2,2-9.7,2.1-9.7c0.5-2,1-4.1,1.4-6.1
						c0.4-1.8,0.7-3.6,1-5.3c0.1-0.3,0-0.7-0.1-1C530.3,81.2,529.2,84.1,528.9,85.3L528.9,85.3z"/>
				</g>
				<path class="st21" d="M410.4,227.6c-0.9-0.2-1.7,0.3-1.9,1.1c0,0,0,0,0,0c-1.5,6.6-1.5,10.9-1.5,11.1c0,0.8,0.7,1.4,1.6,1.4
					c0.9,0,1.6-0.6,1.6-1.4c0,0,0-4.2,1.4-10.5C411.8,228.5,411.2,227.8,410.4,227.6L410.4,227.6z M437.5,185.3
					c-0.3-0.3-0.7-0.4-1.2-0.4c-0.4,0-0.8,0.2-1.1,0.4c-4.7,4.2-9,8.8-12.7,13.7c-0.5,0.7-0.3,1.5,0.5,2c0.5,0.3,1.2,0.3,1.7,0
					c0.2-0.1,0.4-0.3,0.5-0.4c3.6-4.8,7.7-9.2,12.3-13.2C438.2,186.7,438.2,185.8,437.5,185.3L437.5,185.3L437.5,185.3z
					 M491.6,159.9c-0.2-0.8-1.1-1.2-1.9-1.1c-7.4,1.5-14.5,3.6-21.4,6.4c-0.8,0.3-1.2,1.2-0.8,1.9c0,0,0,0,0,0
					c0.2,0.3,0.5,0.6,0.9,0.7c0.4,0.1,0.9,0.1,1.2,0c6.6-2.7,13.6-4.8,20.7-6.2c0.2,0,0.3-0.1,0.5-0.2
					C491.4,161.1,491.7,160.5,491.6,159.9z M550.4,164c-0.2-0.1-6-2.8-15.8-4.9c-0.4-0.1-0.9,0-1.2,0.2c-0.4,0.2-0.6,0.5-0.7,0.9
					c-0.2,0.8,0.3,1.5,1.2,1.7c0,0,0,0,0,0c9.2,2,14.8,4.5,15,4.6c0.2,0.1,0.5,0.2,0.8,0.2c0.3,0,0.6-0.1,0.8-0.2
					c0.3-0.1,0.5-0.3,0.6-0.6C551.5,165.3,551.2,164.4,550.4,164C550.4,164,550.4,164,550.4,164L550.4,164z"/>
				<path class="st15" d="M400.6,188c-0.2-0.9-1.2-1.4-2.2-1.2c-0.5,0.1-0.9,0.4-1.1,0.7c-6,8.6-10.8,17.8-14.4,27.3
					c-0.3,0.8,0.2,1.7,1.1,2c0,0,0,0,0,0c0.2,0.1,0.4,0.1,0.6,0.1c0.3,0,0.7-0.1,0.9-0.2c0.4-0.2,0.7-0.5,0.8-0.9
					c3.5-9.3,8.2-18.2,14.1-26.6C400.7,188.8,400.7,188.4,400.6,188z M476.3,137.3c-0.3-0.8-1.3-1.4-2.2-1.1c0,0,0,0,0,0
					c-11.4,2.7-22.3,6.7-32.4,12.1c-0.9,0.5-1.1,1.4-0.6,2.2c0.5,0.8,1.6,1,2.5,0.5c9.8-5.2,20.4-9.1,31.5-11.7
					C476,139,476.5,138.2,476.3,137.3C476.3,137.3,476.3,137.3,476.3,137.3L476.3,137.3L476.3,137.3z M340.4,228.6
					c-1.1-0.2-2.1,0.4-2.4,1.3c0,0,0,0,0,0c-2.5,10.1-3.6,19.6-3.3,28.1c0,0.9,0.9,1.7,2,1.7h0.1c0.3,0,0.7-0.1,1-0.3
					c0.6-0.3,1-0.9,1-1.6c-0.3-8.3,0.8-17.5,3.2-27.3C342.1,229.7,341.4,228.8,340.4,228.6L340.4,228.6z M387.2,148.6
					c-0.8-0.6-2.1-0.6-2.8,0.2c-6.8,7-13.1,14.4-18.6,22.2c-0.6,0.8-0.3,1.9,0.6,2.4c0.6,0.4,1.5,0.4,2.1,0c0.3-0.1,0.5-0.3,0.7-0.6
					c5.4-7.6,11.5-14.9,18.2-21.7C388.1,150.4,388,149.3,387.2,148.6L387.2,148.6L387.2,148.6L387.2,148.6z M425.1,120.8
					c-0.6-0.8-1.8-1.1-2.8-0.6c-8.3,4.4-16.1,9.6-23.3,15.3c-0.8,0.7-0.9,1.8-0.1,2.5c0,0,0,0,0,0c0.6,0.6,1.7,0.8,2.5,0.3
					c0.1-0.1,0.2-0.1,0.3-0.2c7-5.6,14.5-10.6,22.6-14.9C425.3,122.7,425.6,121.7,425.1,120.8L425.1,120.8L425.1,120.8z
					 M603.4,117.7c-0.1-0.5-0.5-0.8-1-1.1c-6.8-3.3-14-6.1-21.4-8.3c-1-0.3-2.2,0.2-2.5,1.1c-0.2,0.4-0.1,0.9,0.1,1.4
					c0.2,0.4,0.6,0.7,1.2,0.9c7.2,2.1,14.1,4.8,20.8,8c0.3,0.1,0.6,0.2,1,0.2c0.4,0,0.7-0.1,1-0.3c0.3-0.2,0.5-0.4,0.7-0.6
					C603.5,118.6,603.6,118.1,603.4,117.7L603.4,117.7z M551.3,101.6c-0.3-0.4-0.8-0.6-1.3-0.7c-11.2-1.5-22.6-2.2-34-2.2
					c-1.1,0-2,0.8-2,1.8c0,1,0.9,1.8,2,1.8h0.5c11,0,22,0.7,32.8,2.2c0.1,0,0.2,0,0.3,0c0.4,0,0.7-0.1,1-0.3c0.5-0.3,0.9-0.7,1-1.2
					C551.7,102.4,551.6,102,551.3,101.6L551.3,101.6z"/>
				<path class="st11" d="M500.7,200.1c-1.7-3-3.4-6.1-5-9c-0.3-0.5-0.6-1.1-1.1-1.5c0,0,0,0,0-0.1l0,0c0.1,0,0.1,0,0.1-0.1
					c-0.1-0.2-0.2-0.3-0.4-0.5c-0.4-0.3-0.9-0.4-1.4-0.3c-0.1,0-0.2,0.1-0.4,0.1l-0.3,0.1l-0.6,0.3c-1.3,0.6-2.7,1.3-4,2l-21.9,11.1
					l-5.5,2.8l-0.7,0.3l-0.3,0.2l-0.2,0.1c-0.1,0-0.1,0.1-0.2,0.1c-0.5,0.4-0.8,1-0.6,1.6c0.1,0.3,0.2,0.5,0.4,0.7l0.4,0.6l0.9,1.1
					l7.2,9.1c1.6,2,3.1,4,4.7,5.9l11.6-5.9l18.1-9.2l3.3-1.7C503.5,205.4,502.1,202.7,500.7,200.1L500.7,200.1z"/>
				
					<linearGradient id="SVGID_20_" gradientUnits="userSpaceOnUse" x1="2574.8188" y1="1072.6407" x2="2136.9458" y2="438.1674" gradientTransform="matrix(0.2344 0 0 0.2344 -70.2684 46.0635)">
					<stop  offset="0" style="stop-color:#00D6C6;stop-opacity:0.5"/>
					<stop  offset="1" style="stop-color:#FFFFFF;stop-opacity:0"/>
				</linearGradient>
				<path class="st38" d="M534.3,63.9l-32,145.2l-28.1,14.3l-178.6-35.2C325.2,88.9,451.1,42.1,534.3,63.9z"/>
				<path class="st13" d="M474.1,223.3L462,207.9c-0.2-0.3-0.2-0.7,0.2-0.9c0,0,0,0,0.1,0l29.9-15.2c0.4-0.2,0.8-0.1,1,0.2
					c0,0,0,0,0,0.1l9.1,16.9L474.1,223.3z"/>
				<path class="st39" d="M474.1,223.3L462,207.9c-0.2-0.3-0.2-0.7,0.2-0.9c0,0,0,0,0.1,0l29.9-15.2c0.4-0.2,0.8-0.1,1,0.2
					c0,0,0,0,0,0.1l9.1,16.9L474.1,223.3z"/>
				<path class="st7" d="M471.2,207.2l-5.3,2.7c-0.1,0-0.2,0-0.2-0.1c0-0.1,0-0.1,0-0.2l5.3-2.7c0.1,0,0.2,0,0.2,0l0,0
					C471.3,207.1,471.3,207.2,471.2,207.2L471.2,207.2z"/>
				<g>
					<path class="st7" d="M470.3,207.5c-0.2,0.1-1.1,0.6-2.1,1.1l-1.5,0.8c-0.4,0.2-1,0.5-0.8,0.4l0.1-0.1c0.1-0.1,0.2-0.1,0.3-0.1
						c0.6-0.3,1.3-0.6,1.9-0.9c0.4-0.2,2-1,2.1-1.1l0.9-0.5c0,0,0.1,0,0.1,0c0,0,0,0,0,0.1c0,0,0,0.1,0,0.1c0,0,0,0.1,0.1,0
						c0.1-0.1,0.1-0.2,0-0.3c0,0,0,0-0.1,0c-0.1,0-0.2,0-0.2,0c-0.1,0-0.1,0-0.1,0.1l-0.2,0.1l-4.5,2.3l-0.5,0.2
						c-0.2,0.1-0.2,0.3-0.1,0.4c0,0,0,0,0,0c0.1,0.1,0.2,0.1,0.3,0.1c0.1,0,0.1,0,0.1,0l0.1,0l0.9-0.5l1.9-1
						c0.4-0.2,0.8-0.4,1.2-0.6c0.4-0.2,0.7-0.4,1-0.6c0.1,0,0.1-0.1,0.1-0.2C470.9,207.3,470.6,207.4,470.3,207.5L470.3,207.5z
						 M489.6,197.9l-5.3,2.7c-0.1,0.1-0.2,0-0.2,0c-0.1-0.1,0-0.1,0-0.2c0,0,0,0,0,0l5.3-2.7c0.1,0,0.2,0,0.2,0.1
						C489.7,197.8,489.7,197.9,489.6,197.9z"/>
					<path class="st7" d="M488.7,198.1c-0.2,0.1-1.1,0.6-2.1,1.1l-1.5,0.8c-0.4,0.2-1,0.5-0.8,0.4l0.1-0.1c0.1-0.1,0.2-0.1,0.3-0.1
						c0.6-0.3,1.3-0.6,1.9-0.9c0.4-0.2,2-1,2.1-1.1l0.9-0.5c0,0,0.1,0,0.1,0c0,0,0,0,0,0.1v0.1c0,0,0,0.1,0.1,0
						c0.1-0.1,0.1-0.2,0-0.3c0,0,0,0-0.1,0c-0.1,0-0.2,0-0.2,0c-0.1,0-0.1,0-0.1,0.1l-0.2,0.1l-4.5,2.3l-0.5,0.2
						c-0.2,0.1-0.2,0.3-0.1,0.4c0,0,0,0,0,0c0.1,0.1,0.2,0.1,0.3,0.1c0,0,0.1,0,0.1,0l0.1,0l0.9-0.5l1.9-1c0.4-0.2,0.8-0.4,1.2-0.6
						c0.4-0.2,0.7-0.4,1-0.6c0.1,0,0.1-0.1,0.1-0.2C489.3,198,489,198,488.7,198.1L488.7,198.1z"/>
					<ellipse class="st7" cx="472.8" cy="206.2" rx="0.4" ry="0.4"/>
					<path class="st7" d="M473.1,206.2c0,0.1-0.1,0.2-0.1,0.2c-0.1,0-0.2,0-0.3,0c0,0-0.1,0-0.1-0.1c0-0.1,0-0.2,0.1-0.2
						c0,0,0.1-0.1,0.2-0.1c0,0,0.1,0,0.2,0c0,0,0.1,0,0.1,0.1c0,0,0,0,0.1,0c0.1,0,0.1,0,0.1-0.1c0,0,0-0.1,0-0.1c0,0,0-0.1-0.1-0.1
						c-0.2-0.1-0.5-0.1-0.7,0c-0.2,0.1-0.3,0.4-0.3,0.6c0.1,0.3,0.4,0.4,0.7,0.4c0.1,0,0.2-0.1,0.3-0.1c0.1-0.1,0.2-0.2,0.2-0.3
						c0-0.1,0-0.2-0.1-0.3c0,0-0.1,0-0.1,0C473.2,206,473.1,206.2,473.1,206.2L473.1,206.2z M480.9,202.3l-2.4,1.2
						c-0.1,0-0.2,0-0.2-0.1c0-0.1,0-0.1,0.1-0.2l2.4-1.2c0.1,0,0.2,0,0.2,0.1C481,202.2,480.9,202.3,480.9,202.3z"/>
					<path class="st7" d="M480.4,202.4c-0.1,0-0.6,0.3-1.1,0.5l-0.7,0.4l-0.2,0.1c0,0,0,0,0,0l0.1,0c0,0,0.1-0.1,0.1-0.1
						c0.3-0.1,0.6-0.3,0.9-0.5c0.4-0.2,0.7-0.3,1-0.5l0.2-0.1c0,0,0,0,0.1,0c0,0,0,0.1,0,0.1c0,0,0,0.1,0.1,0.1
						c0.1,0,0.1-0.1,0.1-0.2c0-0.1-0.1-0.3-0.3-0.3l0,0c-0.1,0-0.1,0-0.2,0l-0.1,0l-0.1,0.1l-0.3,0.1l-0.6,0.3l-1.1,0.6l-0.2,0.1
						c-0.2,0.1-0.2,0.3-0.1,0.4c0,0,0,0,0,0c0.1,0.1,0.2,0.1,0.3,0.1c0,0,0.1,0,0.1,0l0.1,0l0.2-0.1l0.9-0.5
						c0.2-0.1,0.4-0.2,0.6-0.3c0.2-0.1,0.3-0.2,0.5-0.3c0,0,0-0.1,0-0.1C480.7,202.3,480.5,202.3,480.4,202.4L480.4,202.4z
						 M477.1,204.2l-2.4,1.2c-0.1,0-0.2,0-0.2-0.1c0-0.1,0-0.1,0.1-0.2c0,0,0,0,0,0l2.4-1.2c0.1,0,0.2,0,0.2,0.1
						C477.1,204.1,477.1,204.2,477.1,204.2L477.1,204.2z"/>
					<path class="st7" d="M476.6,204.3c-0.1,0-0.6,0.3-1.1,0.5l-0.7,0.4l-0.2,0.1c0,0,0,0,0,0l0.1,0c0,0,0.1-0.1,0.1-0.1
						c0.3-0.1,0.6-0.3,0.9-0.5c0.4-0.2,0.7-0.3,1-0.5l0.2-0.1c0,0,0.1,0,0.1,0c0,0,0,0.1,0,0.1c0,0,0,0.1,0.1,0.1
						c0.1,0,0.1-0.1,0.1-0.2c0-0.1-0.1-0.3-0.3-0.3c0,0,0,0,0,0c-0.1,0-0.1,0-0.2,0l-0.1,0l-0.1,0.1l-0.3,0.1l-0.6,0.3l-1.1,0.6
						l-0.2,0.1c-0.2,0.1-0.2,0.3-0.1,0.4c0,0,0,0,0,0c0.1,0.1,0.2,0.1,0.3,0.1c0,0,0.1,0,0.1,0l0.1,0l0.2-0.1l0.9-0.5
						c0.2-0.1,0.4-0.2,0.6-0.3c0.2-0.1,0.3-0.2,0.5-0.3c0,0,0-0.1,0-0.1C476.9,204.2,476.7,204.2,476.6,204.3L476.6,204.3z"/>
					<ellipse class="st7" cx="482.5" cy="201.3" rx="0.4" ry="0.4"/>
					<path class="st7" d="M489.4,202.2c-0.1,0-0.6,0.3-1.1,0.5l-0.7,0.4l-0.2,0.1c0,0,0,0,0,0l0.1,0c0,0,0.1-0.1,0.1-0.1
						c0.3-0.1,0.6-0.3,0.9-0.5c0.4-0.2,0.7-0.3,1-0.6l0.2-0.1c0,0,0.1,0,0.1,0c0,0,0,0.1,0,0.1c0,0,0,0.1,0.1,0.1
						c0.1,0,0.1-0.1,0.1-0.2c0-0.1-0.1-0.3-0.3-0.3c-0.1,0-0.1,0-0.2,0l-0.1,0l-0.1,0.1l-0.3,0.1l-0.6,0.3l-1.1,0.6l-0.2,0.1
						c-0.2,0.1-0.2,0.3-0.1,0.4c0,0,0,0,0,0c0.1,0.1,0.2,0.1,0.3,0.1c0,0,0.1,0,0.1,0l0.1,0l0.2-0.1l0.9-0.5
						c0.2-0.1,0.4-0.2,0.6-0.3c0.2-0.1,0.3-0.2,0.5-0.3c0,0,0-0.1,0-0.1C489.8,202.1,489.6,202.1,489.4,202.2L489.4,202.2z"/>
					<ellipse class="st7" cx="485.7" cy="204.1" rx="0.4" ry="0.4"/>
					<path class="st7" d="M482.7,201.3c0,0.1-0.1,0.2-0.1,0.2c-0.1,0-0.2,0-0.3,0c0,0-0.1,0-0.1-0.1c0-0.1,0-0.2,0.1-0.2
						c0.1,0,0.1,0,0.2-0.1c0,0,0.1,0,0.1,0c0,0,0.1,0,0.1,0.1c0,0,0,0,0.1,0c0.1,0,0.1,0,0.1-0.1c0,0,0-0.1,0-0.1
						c0,0-0.1-0.1-0.1-0.1c-0.2-0.1-0.5-0.1-0.7,0c-0.2,0.1-0.3,0.4-0.2,0.6c0,0.2,0.2,0.3,0.4,0.4c0.1,0,0.3,0,0.4,0
						c0.1,0,0.1-0.1,0.2-0.1c0.1-0.1,0.2-0.2,0.2-0.3c0-0.1,0-0.2-0.1-0.3h-0.1C482.8,201.2,482.8,201.2,482.7,201.3z"/>
					<path class="st8" d="M493.4,197.3c-0.6,0.3-0.6-1.2-1.9-0.5c1.3-0.7-0.1-1.4,0.4-1.7 M477.8,218.4c0.6-0.3-0.9-1,0.4-1.7
						c-1.3,0.7-1.3-0.8-1.9-0.5"/>
					<path class="st7" d="M484,205.1l-5.3,2.7c-0.1,0-0.2,0-0.2-0.1c0-0.1,0-0.1,0.1-0.2l0,0l5.3-2.7c0.1,0,0.2,0,0.2,0.1
						C484.1,205,484.1,205.1,484,205.1C484,205.1,484,205.1,484,205.1z"/>
					<path class="st7" d="M483.2,205.4c-0.2,0.1-1.1,0.6-2.1,1.1l-1.5,0.8c-0.4,0.2-1,0.5-0.8,0.4l0.1-0.1c0.1-0.1,0.2-0.1,0.3-0.1
						c0.6-0.3,1.3-0.6,1.9-0.9c0.4-0.2,2-1,2.1-1.1l0.9-0.5c0.1-0.1,0.1,0,0.2,0c0,0,0,0.1,0,0.1c0,0,0,0.1,0.1,0
						c0.1-0.1,0.1-0.2,0-0.3c0,0,0,0-0.1,0c-0.1,0-0.2,0-0.2,0c0,0-0.1,0-0.1,0.1l-0.2,0.1l-4.5,2.3l-0.5,0.2
						c-0.2,0.1-0.2,0.3-0.1,0.4c0.1,0.1,0.2,0.1,0.3,0.1c0.1,0,0.1,0,0.1,0l0.1,0l0.9-0.5l1.9-1c0.4-0.2,0.8-0.4,1.2-0.6
						c0.4-0.2,0.7-0.4,1-0.6c0.1,0,0.1-0.1,0.1-0.2C483.7,205.2,483.4,205.3,483.2,205.4L483.2,205.4z M480.3,211.4l-5.3,2.7
						c-0.1,0-0.2,0-0.2-0.1c0-0.1,0-0.1,0.1-0.2l5.3-2.7c0.1,0,0.2,0,0.2,0.1C480.4,211.3,480.4,211.3,480.3,211.4z"/>
					<path class="st7" d="M479.5,211.6c-0.2,0.1-1.1,0.6-2.1,1.1l-1.5,0.8c-0.4,0.2-1,0.5-0.8,0.4l0.1-0.1c0.1-0.1,0.2-0.1,0.3-0.1
						c0.6-0.3,1.3-0.6,1.9-0.9c0.4-0.2,2-1,2.1-1.1l0.9-0.5c0,0,0.1,0,0.1,0c0,0,0,0,0,0.1v0.1c0,0,0,0.1,0.1,0
						c0.1-0.1,0.1-0.2,0-0.3c0,0,0,0-0.1,0c-0.1,0-0.2,0-0.2,0c0,0-0.1,0-0.1,0.1l-0.2,0.1l-4.5,2.3l-0.5,0.2
						c-0.2,0.1-0.2,0.3-0.1,0.4c0,0,0,0,0,0c0.1,0.1,0.3,0.1,0.4,0.1l0.1,0l0.9-0.5l1.9-1c0.4-0.2,0.8-0.4,1.2-0.6
						c0.4-0.2,0.7-0.4,1-0.6c0.1,0,0.1-0.1,0.1-0.2C480.1,211.4,479.8,211.5,479.5,211.6L479.5,211.6z M475.3,209.5l-2.4,1.2
						c-0.1,0-0.2,0-0.2-0.1c0-0.1,0-0.1,0.1-0.2c0,0,0,0,0,0l2.4-1.2c0.1,0,0.2,0,0.2,0C475.4,209.4,475.4,209.5,475.3,209.5
						C475.3,209.5,475.3,209.5,475.3,209.5L475.3,209.5z"/>
					<path class="st7" d="M474.8,209.6c-0.1,0-0.6,0.3-1.1,0.5l-0.7,0.4l-0.2,0.1c0,0,0,0,0,0l0.1,0c0,0,0.1-0.1,0.1-0.1
						c0.3-0.1,0.6-0.3,0.9-0.5c0.4-0.2,0.7-0.3,1-0.5l0.2-0.1c0,0,0.1,0,0.1,0c0,0,0,0.1,0,0.1c0,0,0,0.1,0.1,0.1
						c0.1,0,0.1-0.1,0.1-0.2c0-0.1-0.1-0.3-0.3-0.3c0,0,0,0,0,0c-0.1,0-0.1,0-0.2,0l-0.1,0l-0.1,0.1l-0.3,0.1l-0.6,0.3l-1.1,0.6
						l-0.2,0.1c-0.2,0.1-0.2,0.3-0.1,0.4c0,0,0,0,0,0c0.1,0.1,0.2,0.1,0.3,0.1c0,0,0.1,0,0.1,0l0.1,0l0.2-0.1l0.9-0.5
						c0.2-0.1,0.4-0.2,0.6-0.3c0.2-0.1,0.3-0.2,0.5-0.3c0,0,0-0.1,0-0.1C475.1,209.5,475,209.5,474.8,209.6L474.8,209.6z
						 M489.9,202.1l-2.4,1.2c-0.1,0-0.2,0-0.2-0.1c0-0.1,0-0.1,0.1-0.2l2.4-1.2c0.1-0.1,0.2,0,0.2,0C490,202,490,202,489.9,202.1
						C489.9,202.1,489.9,202.1,489.9,202.1z"/>
					<path class="st7" d="M485.9,204.1c0,0.1-0.1,0.1-0.1,0.2c-0.1,0-0.2,0-0.3,0c0,0-0.1,0-0.1-0.1c0-0.1,0-0.2,0.1-0.2
						c0,0,0.1-0.1,0.2-0.1c0,0,0.1,0,0.2,0c0.1,0,0.1,0,0.1,0.1c0,0,0,0,0.1,0c0.1,0,0.1,0,0.1-0.1c0,0,0-0.1,0-0.1
						c0,0,0-0.1-0.1-0.1c-0.2-0.1-0.5-0.1-0.7,0c-0.3,0.1-0.4,0.5-0.2,0.7c0.2,0.2,0.5,0.3,0.8,0.2c0.1,0,0.1-0.1,0.2-0.1
						c0.1-0.1,0.2-0.2,0.2-0.3c0-0.1,0-0.2-0.1-0.3H486C486,204,486,204,485.9,204.1L485.9,204.1z M486.2,208.4l-2.4,1.2
						c-0.1,0-0.2,0-0.2,0c0,0,0,0,0,0c0-0.1,0-0.2,0.1-0.2l2.4-1.2c0.1,0,0.2,0,0.2,0.1C486.3,208.3,486.3,208.4,486.2,208.4
						L486.2,208.4L486.2,208.4z"/>
					<path class="st7" d="M485.7,208.5c-0.1,0-0.6,0.3-1.1,0.5l-0.7,0.4l-0.2,0.1c0,0,0,0,0,0l0.1,0c0,0,0.1-0.1,0.1-0.1
						c0.3-0.1,0.6-0.3,0.9-0.5c0.4-0.2,0.7-0.3,1-0.5l0.2-0.1c0,0,0,0,0.1,0c0,0,0,0.1,0,0.1c0,0,0,0.1,0.1,0.1
						c0.1,0,0.1-0.1,0.1-0.2c0-0.1-0.1-0.3-0.3-0.3l0,0c-0.1,0-0.1,0-0.2,0l-0.1,0l-0.1,0.1l-0.3,0.1l-0.6,0.3l-1.1,0.6l-0.2,0.1
						c-0.2,0.1-0.2,0.3-0.1,0.4c0,0,0,0,0,0c0.1,0.1,0.2,0.1,0.3,0.1c0,0,0.1,0,0.1,0l0.1,0l0.2-0.1l0.9-0.5
						c0.2-0.1,0.4-0.2,0.6-0.3c0.2-0.1,0.3-0.2,0.5-0.3c0,0,0-0.1,0-0.1C486.1,208.4,485.9,208.4,485.7,208.5L485.7,208.5z"/>
					<ellipse class="st7" cx="477" cy="208.5" rx="0.4" ry="0.4"/>
					<path class="st7" d="M477.2,208.5c0,0.1-0.1,0.2-0.2,0.3c-0.1,0-0.2,0-0.2-0.1c0,0-0.1,0-0.1-0.1c0-0.1,0-0.2,0.1-0.2
						c0,0,0.1-0.1,0.2-0.1c0,0,0.1,0,0.2,0c0.1,0,0.1,0,0.1,0.1l0.1,0c0.1,0,0.1,0,0.1-0.1c0,0,0-0.1,0-0.1c0,0,0-0.1-0.1-0.1
						c-0.2-0.1-0.5-0.1-0.7,0c-0.2,0.1-0.3,0.4-0.2,0.6c0.1,0.2,0.2,0.3,0.4,0.4c0.2,0,0.4,0,0.6-0.2c0.1-0.1,0.2-0.2,0.2-0.3
						c0-0.1,0-0.2-0.1-0.3c0,0-0.1,0-0.1,0C477.3,208.4,477.2,208.5,477.2,208.5L477.2,208.5z"/>
					<ellipse class="st7" cx="482" cy="210.4" rx="0.4" ry="0.4"/>
					<path class="st7" d="M482.2,210.4c0,0.1-0.1,0.2-0.1,0.2c-0.1,0-0.2,0-0.3,0c0,0-0.1,0-0.1-0.1c0-0.1,0-0.2,0.1-0.2
						c0,0,0.1-0.1,0.2-0.1c0,0,0.1,0,0.2,0c0,0,0.1,0,0.1,0.1c0,0,0,0,0.1,0c0,0,0.1,0,0.1-0.1c0,0,0-0.1,0-0.1c0,0,0-0.1-0.1-0.1
						c-0.2-0.1-0.5-0.1-0.7,0c-0.2,0.1-0.3,0.4-0.3,0.6c0,0.2,0.2,0.3,0.4,0.4c0.1,0,0.3,0,0.4,0c0.1,0,0.1-0.1,0.2-0.1
						c0.1-0.1,0.2-0.2,0.2-0.3c0-0.1,0-0.2-0.1-0.3h-0.1C482.3,210.2,482.3,210.3,482.2,210.4z M492.1,205.4l-2.4,1.2
						c-0.1,0-0.2,0-0.2,0c-0.1-0.1,0-0.1,0-0.2c0,0,0,0,0,0l2.4-1.2c0.1-0.1,0.2,0,0.2,0C492.2,205.3,492.2,205.3,492.1,205.4
						C492.1,205.4,492.1,205.4,492.1,205.4z"/>
					<path class="st7" d="M491.6,205.5c-0.1,0-0.6,0.3-1.1,0.5l-0.7,0.4l-0.2,0.1c0,0,0,0,0,0l0.1,0c0,0,0.1-0.1,0.1-0.1
						c0.3-0.1,0.6-0.3,0.9-0.5c0.4-0.2,0.7-0.3,1-0.5l0.2-0.1c0,0,0,0,0.1,0c0,0,0,0.1,0,0.1c0,0,0,0.1,0.1,0.1
						c0.1,0,0.1-0.1,0.1-0.2c0-0.1-0.1-0.3-0.3-0.3c0,0,0,0,0,0c-0.1,0-0.1,0-0.2,0l-0.1,0l-0.1,0.1l-0.3,0.1l-0.6,0.3l-1.1,0.6
						l-0.2,0.1c-0.2,0.1-0.2,0.3-0.1,0.4c0,0,0,0,0,0c0.1,0.1,0.2,0.1,0.3,0.1c0.1,0,0.1,0,0.1,0l0.1,0l0.2-0.1l0.9-0.5
						c0.2-0.1,0.4-0.2,0.6-0.3c0.2-0.1,0.3-0.2,0.5-0.3c0,0,0-0.1,0-0.1C491.9,205.4,491.8,205.5,491.6,205.5L491.6,205.5z"/>
					<ellipse class="st7" cx="487.9" cy="207.4" rx="0.4" ry="0.4"/>
					<path class="st7" d="M488.1,207.4c0,0.1-0.1,0.1-0.1,0.2c-0.1,0-0.2,0-0.3,0c0,0-0.1,0-0.1-0.1c0-0.1,0-0.2,0.1-0.2
						c0,0,0.1-0.1,0.2-0.1c0,0,0.1,0,0.1,0c0.1,0,0.1,0,0.1,0.1l0.1,0c0.1,0,0.1,0,0.1-0.1c0,0,0-0.1,0-0.1c0,0,0-0.1-0.1-0.1
						c-0.2-0.1-0.5-0.1-0.7,0c-0.3,0.2-0.4,0.5-0.2,0.7c0.1,0.1,0.2,0.2,0.4,0.2c0.1,0,0.3,0,0.4,0c0.1,0,0.1-0.1,0.2-0.1
						c0.1-0.1,0.2-0.2,0.2-0.3c0-0.1,0-0.2-0.1-0.3h-0.1C488.2,207.3,488.2,207.3,488.1,207.4L488.1,207.4z"/>
				</g>
				<path class="st7" d="M532,182.7c-0.2-0.1-0.4-0.2-0.6-0.2c-0.2,0-0.4,0.1-0.5,0.3c-0.3,0.3-0.2,0.7,0.1,1c0,0,0,0,0,0
					c0.1,0.1,0.3,0.2,0.5,0.2c0.2,0,0.5-0.1,0.6-0.3C532.4,183.4,532.4,183,532,182.7C532,182.7,532,182.7,532,182.7L532,182.7z
					 M497.8,193.3c-0.2-0.1-0.4-0.2-0.6-0.2c-0.2,0-0.4,0.1-0.6,0.3c-0.3,0.3-0.2,0.7,0.1,1c0,0,0,0,0,0c0.3,0.2,0.9,0.2,1.1-0.1
					C498.2,194,498.1,193.5,497.8,193.3L497.8,193.3z M466.8,196.8c-0.4-0.2-0.9-0.2-1.1,0.1c-0.3,0.3-0.2,0.8,0.1,1
					c0.1,0.1,0.3,0.1,0.5,0.2h0.1c0.4,0,0.8-0.4,0.7-0.8c0,0,0,0,0,0C467,197.1,466.9,196.9,466.8,196.8L466.8,196.8z M501.5,194.5
					c-0.3-0.2-0.9-0.2-1.1,0.1c-0.3,0.3-0.2,0.8,0.1,1c0.4,0.2,0.9,0.2,1.1-0.1c0.1-0.1,0.2-0.3,0.2-0.5
					C501.7,194.8,501.6,194.6,501.5,194.5z M487.8,173c-0.3-0.2-0.9-0.2-1.1,0.1c-0.3,0.3-0.2,0.8,0.1,1c0.1,0.1,0.3,0.2,0.5,0.2
					c0.2,0,0.5-0.1,0.6-0.3C488.2,173.7,488.1,173.2,487.8,173C487.8,173,487.8,173,487.8,173z M466.2,175.6
					c-0.4-0.2-0.9-0.2-1.1,0.1c-0.3,0.3-0.2,0.8,0.1,1c0.1,0.1,0.3,0.1,0.5,0.2h0.1c0.4,0,0.8-0.4,0.7-0.8c0,0,0,0,0,0
					C466.5,175.9,466.4,175.7,466.2,175.6L466.2,175.6z M508.4,201.3c-0.2-0.1-0.4-0.2-0.6-0.2c-0.2,0-0.4,0.1-0.6,0.3
					c-0.3,0.3-0.2,0.7,0.1,1c0,0,0,0,0,0c0.1,0.1,0.3,0.2,0.5,0.2h0.1c0.2,0,0.4-0.1,0.5-0.3C508.8,202,508.8,201.6,508.4,201.3
					C508.4,201.3,508.4,201.3,508.4,201.3z M521.3,162.4c-0.6-0.4-1.4-0.3-1.9,0.2c-0.5,0.5-0.4,1.3,0.2,1.7
					c0.2,0.2,0.6,0.3,0.9,0.3c0.8,0,1.4-0.6,1.4-1.2C521.7,163,521.6,162.6,521.3,162.4z M431.9,210.2c-0.3-0.2-0.6-0.3-1-0.3
					c-0.4,0-0.7,0.2-0.9,0.4c-0.2,0.2-0.3,0.6-0.3,0.9c0.1,0.6,0.7,1.1,1.4,1.1c0.8,0,1.4-0.5,1.4-1.2c0,0,0-0.1,0-0.1
					C432.3,210.7,432.2,210.4,431.9,210.2L431.9,210.2z"/>
			</g>
		</g>
	</g>
</g>
</svg>
